<?xml version="1.0"?>
<svg xmlns="http://www.w3.org/2000/svg" xmlns:xlink="http://www.w3.org/1999/xlink" xmlns:svgjs="http://svgjs.com/svgjs" version="1.1" width="512" height="512" x="0" y="0" viewBox="0 0 512 512" style="enable-background:new 0 0 512 512" xml:space="preserve" class=""><g><g xmlns="http://www.w3.org/2000/svg"><path d="m442.896 139.292 28.745-8.584c-16.062-53.785-51.513-99.44-99.823-128.555l-15.485 25.695c41.901 25.251 72.643 64.83 86.563 111.444z" fill="#0ed8d2" data-original="#000000" style="" class=""/><path d="m155.667 27.847-15.485-25.694c-48.311 29.115-83.762 74.77-99.824 128.555l28.745 8.584c13.921-46.614 44.663-86.193 86.564-111.445z" fill="#0ed8d2" data-original="#000000" style="" class=""/><path d="m91 195v160.787c0 9.673-3.767 18.767-10.606 25.606-12.506 12.506-19.394 29.134-19.394 46.82v23.787h121.509c6.968 34.192 37.271 60 73.491 60s66.522-25.808 73.491-60h121.509v-23.787c0-17.687-6.888-34.314-19.394-46.82-6.84-6.84-10.606-15.933-10.606-25.606v-160.787c0-85.924-66.023-156.706-150-164.311v-30.689h-30v30.689c-83.977 7.604-150 78.386-150 164.311zm165 287c-19.555 0-36.228-12.541-42.42-30.01h84.839c-6.191 17.469-22.864 30.01-42.419 30.01zm135-287v160.787c0 17.687 6.888 34.314 19.394 46.82 5.352 5.352 8.822 12.084 10.079 19.393h-328.945c1.256-7.31 4.727-14.042 10.079-19.393 12.505-12.506 19.393-29.134 19.393-46.82v-160.787c0-74.439 60.561-135 135-135s135 60.561 135 135z" fill="#0ed8d2" data-original="#000000" style="" class=""/></g></g></svg>
