<svg width="29" height="22" viewBox="0 0 29 22" fill="none" xmlns="http://www.w3.org/2000/svg">
<path fill-rule="evenodd" clip-rule="evenodd" d="M26.825 20.2999H10.8751C10.4763 20.2999 10.1515 19.978 10.1501 19.5792C10.1515 19.5285 10.1965 18.2829 11.2216 17.0649C12.6339 15.3887 15.2715 14.5013 18.8501 14.5013C22.4287 14.5013 25.0662 15.3873 26.4785 17.0649C27.5036 18.2815 27.5486 19.5285 27.55 19.5792C27.5486 19.9765 27.2238 20.2999 26.825 20.2999ZM27.6601 16.2182C26.8989 15.2815 25.8607 14.5391 24.5745 14.0113C23.0201 13.3747 21.0945 13.0514 18.8499 13.0514C16.6053 13.0514 14.6783 13.3733 13.1253 14.0113C11.8392 14.5391 10.801 15.2815 10.0397 16.2182C8.7159 17.8494 8.69995 19.5053 8.69995 19.5749C8.69995 20.7741 9.6758 21.7499 10.8749 21.7499H26.8249C28.0241 21.7499 28.9999 20.7741 28.9999 19.5749C28.9999 19.5053 28.9854 17.8494 27.6601 16.2182Z" fill="#0ED8D2"/>
<path fill-rule="evenodd" clip-rule="evenodd" d="M18.85 1.44994C21.2483 1.44994 23.2 3.40163 23.2 5.79993C23.2 8.19823 21.2483 10.1499 18.85 10.1499C16.4517 10.1499 14.5 8.19823 14.5 5.79993C14.5 3.40163 16.4517 1.44994 18.85 1.44994ZM18.85 11.6C22.0487 11.6 24.65 8.99868 24.65 5.79999C24.65 2.6013 22.0487 0 18.85 0C15.6513 0 13.05 2.6013 13.05 5.79999C13.05 8.99868 15.6513 11.6 18.85 11.6Z" fill="#0ED8D2"/>
<path fill-rule="evenodd" clip-rule="evenodd" d="M8.01559 14.5203C7.76764 14.5072 7.51099 14.5 7.25144 14.5C5.66079 14.5 4.29199 14.7494 3.18419 15.2424C2.25765 15.6542 1.50945 16.2327 0.961348 16.965C0.0116 18.2308 0 19.5213 0 19.575C0 20.7741 0.975848 21.75 2.175 21.75H6.52499L6.52789 21.7514C6.92809 21.7514 7.25289 21.4266 7.25289 21.0264C7.25289 20.6262 6.92809 20.3014 6.52789 20.3014H2.1779C1.77915 20.3014 1.45435 19.9781 1.4529 19.5808C1.45725 19.401 1.6066 15.9514 7.25289 15.9514C7.48634 15.9514 7.71689 15.9572 7.93874 15.9688C8.33894 15.9906 8.68114 15.6832 8.70144 15.283C8.72174 14.8828 8.41579 14.542 8.01559 14.5203Z" fill="#0ED8D2"/>
<path fill-rule="evenodd" clip-rule="evenodd" d="M7.25011 5.80006C8.84946 5.80006 10.1501 7.1007 10.1501 8.70005C10.1501 10.2994 8.84946 11.6 7.25011 11.6C5.65077 11.6 4.35012 10.2994 4.35012 8.70005C4.35012 7.1007 5.65077 5.80006 7.25011 5.80006ZM7.25014 13.05C9.64844 13.05 11.6001 11.0983 11.6001 8.69997C11.6001 6.30167 9.64844 4.34998 7.25014 4.34998C4.85184 4.34998 2.90015 6.30167 2.90015 8.69997C2.90015 11.0983 4.85184 13.05 7.25014 13.05Z" fill="#0ED8D2"/>
</svg>
