<svg id="Layer_1" data-name="Layer 1" xmlns="http://www.w3.org/2000/svg" viewBox="0 0 2500 2500">
  <defs>
    <style>
      .cls-1 {
        fill: #3cc8c8;
      }

      .cls-2 {
        fill: #fff;
      }
    </style>
  </defs>
  <title>ADA color</title>
  <circle class="cls-1" cx="1250" cy="1250" r="1250"/>
  <path class="cls-2" d="M1226.48,425.39c39.24-20.46,87.12,27,66.28,66.19-12.1,31.95-58,40.45-81.45,16.09-24.84-23.37-16.74-69.57,15.17-82.28m-422,45.48c23.83-9.81,54,12,51.57,38,2.53,28.2-32,49-56.24,35.55-32.19-12.47-28.51-64.71,4.67-73.55m864.24,74.34c-37.25-4.5-43.14-63.05-7.29-74.84,27.81-13.57,53.33,11.87,57.4,38.23-5.83,22.51-24.68,43.12-50.11,36.61M900.53,650.47c39.84-25.2,96.7,12.33,90.57,58.61C989,755.8,927,782.88,891.94,751.29c-33.85-24.82-28.72-81.74,8.59-100.82m608.23,26.74c17.78-45.81,89.8-47.2,110-2.6,20,34.7-4.6,77.67-40.23,89.47-47.2,8.81-92-42.21-69.81-86.87m-333.09,84.27c-.39-39.37,35.48-68.71,72.9-71.39,24.82,5,51.88,15.55,62.52,40.59,19.85,34.56,2.23,82.13-33.63,98-16.4,9.19-35.78,5.74-53.64,4.67-27.3-13.4-50.28-39.68-48.15-71.86M548.14,818.86c36.4-22.38,85.5,18.46,71.72,58-7.58,34.2-53.55,48.12-79.83,26.28-28.06-20.45-23.61-69.64,8.11-84.27m1347.53-.07c30.88-24,81.84,3.52,78.16,42.51,2.07,35.55-42,62.36-72.64,44.06-33.76-15.18-37.21-67.12-5.52-86.57m-543.53,70.78c51-18.31,111.49,3.6,140.53,49,38.31,55.54,17.93,140.12-41.53,172-61.6,37.7-151.56,5.75-174.31-63-25.83-61.59,11.8-138.66,75.31-158m-299,6.06c56.48-26.66,132.48-4.3,159.76,53.48,32.1,56.23,7.28,134.53-50.11,163.56-57.47,32.64-138.54,7.9-166.35-52.48-31.18-58.38-3.49-137.68,56.7-164.56M753.79,998c4.3-36.39,38.62-60.07,73.26-62.52,37.31,4.5,67.12,33.48,71.18,71.25-2.45,37.38-31.34,73.92-71,73.7-43.59,3.75-81.8-39.61-73.48-82.43M1638,943.37c44.75-26,106.88,11.87,104.89,63.28,3.07,54.47-65.7,92.86-110.26,60.91C1586.38,1041,1590,966,1638,943.37m-706.54,192c52.34-14.4,112.18,10.27,137.85,58.38,28.11,48.42,16.62,115.68-27,151.2-56,52.09-159.3,31.17-189.11-39.92-34.25-65.17,7.35-152.5,78.31-169.66m567.08-.27c50.88-14.55,110.65,5.06,138,51.41,36.16,53,18.9,132.08-34.94,166.25-56.39,39.68-143.75,18.85-174.78-43.2-37.62-64.18.24-154.88,71.72-174.46m-903.69,60.48c45.21-17.1,95.32,32.79,77,77.61-11.18,40.83-68.73,55.93-98.46,25.82-34.78-28.27-21.9-91.17,21.46-103.43m1225.35,65c-1.3-37.46,26.1-70.64,64.52-72.71,31,4.91,61.06,29.88,58.61,63.59,2.84,44.51-50.8,74.77-88.73,53.86-17.77-9-26.89-27.27-34.4-44.74M372.6,1217.54c27.2-11.87,60.84,11.7,54.63,41.9-1.46,34.2-52,47.35-70.5,18.78C340.34,1258.37,350.15,1227.77,372.6,1217.54Zm1714.89-.68c19.15-13.64,49.88-3.84,57.47,18.54,12.87,24.43-10.73,57.91-38.24,53.78-38.61,3.52-51.1-55.32-19.23-72.32M1079.22,1381c71.57-18.62,148.5,41.06,149,114.76,4.67,74.46-71.1,140.5-144.36,123.3-56.63-9.12-101.06-63.67-99.23-120.89-.15-54.73,41.15-105.6,94.64-117.17m283.43-.16c72.64-20.3,151.86,40.45,150.71,115.84,3.83,73.09-69.57,136.9-141.3,122.4-67.5-8.73-117.31-82.89-98.46-148.39,9.51-43.65,46-79.15,89.05-89.85m-546.48,45.36c50.27-8.57,97.39,47.51,77,95.23-14.87,50.86-88.89,64.66-121.61,23.11-38.39-39.89-9.73-112.83,44.6-118.34m831.2,2.24c44.82-18.77,99.84,20,96.39,68.65,1.8,53.55-66.12,90.47-110,59.22-49.65-28.06-40.61-110.65,13.56-127.87m232.33,233c-17.55-32.71,14.33-76.07,50.65-70,18.08-.3,30.73,13.94,42.3,25.9,2.38,19.38,6.36,42.51-9.73,57.45-21.85,27.66-71.35,19.77-83.22-13.33M548,1600.59c34-22.6,82.8,11.11,75.17,50.8-4.06,35.1-48.28,55.16-77.4,35.24-31.26-18.08-30.11-69.56,2.23-86m670.68,73.48c44.44-19.61,101.06,19.08,96.85,68,3.3,54.09-66.73,91.55-110.19,59.07-48.26-27.9-40.22-110,13.34-127.1M908,1746.54c37.85-19.92,88.65,14.48,85.2,56.84,1.15,34.78-32.8,64.43-67.12,59.29-28.43-.61-47-26.1-56.09-50.34.47-26.41,11.34-55.83,38-65.79m629.22.61c38.93-24.06,94.25,10.49,90.57,55.8,1,47.35-61.52,77.68-97.77,46.57-35.09-24.38-30.8-83,7.2-102.37m109.43,270.51c-17.32-26.2,3.07-57.76,31.18-63.74,22.61,4.6,46.51,21.6,41.76,47.81-3.29,35.47-55.17,46.35-72.94,15.93m-868.6-22.75c6.89-20.76,23.59-41.4,48-36,35.63,2.53,46.2,56.23,15,72.78-28,18.91-60.58-7-63.06-36.78m419.05,23.82c6.82-30.71,46.58-45.65,72.79-29.34,17.31,7.44,22.37,26.81,26.82,43.28-2.38,8.58-4.5,17.17-6.59,25.74-10.73,12.72-24.52,25.44-42.37,25-33.19,3.89-63.12-33.63-50.65-64.66" transform="translate(0 -2.07)"/>
</svg>
