<svg width="120" height="112" viewBox="0 0 120 112" fill="none" xmlns="http://www.w3.org/2000/svg">
<path d="M60,7.8l49.3,25.8L60,59.4L10.7,33.6L60,7.8z M1.8,37l57,29.9l1.2,0.3l1.2-0.3l57-29.9c1.1-0.6,1.8-1.9,1.8-3.4
	c0-1.5-0.7-2.9-1.8-3.4l-57-29.9c-0.7-0.4-1.6-0.4-2.3,0l-57,29.9C0.7,30.7,0,32.1,0,33.6C0,35.1,0.7,36.5,1.8,37z" fill="#6b68ff"/>
<path d="M1.8,59.4l57,29.9l1.2,0.3l1.2-0.3l57-29.9c1.5-0.8,2.2-3,1.6-4.9c-0.6-1.9-2.4-2.8-3.9-2L60,81.8L4.2,52.6
	c-1.5-0.8-3.3,0.1-3.9,2C-0.4,56.5,0.3,58.6,1.8,59.4z" fill="#6b68ff"/>
<path d="M115.8,75L60,104.2L4.2,75c-1.5-0.8-3.3,0.1-3.9,2c-0.6,1.9,0.1,4.1,1.6,4.9l57,29.9L60,112l1.2-0.3l57-29.9
	c1.5-0.8,2.2-3,1.6-4.9C119.1,75,117.4,74.2,115.8,75z" fill="#6b68ff"/>
</svg>
