<svg width="152" height="200" viewBox="0 0 152 200" fill="none" xmlns="http://www.w3.org/2000/svg">
<path d="M150.692 80.3866C153.825 59.3772 137.831 48.0829 115.95 40.5407L123.05 12.0776L105.717 7.76957L98.8061 35.4873C94.2581 34.3503 89.5837 33.2765 84.9346 32.2153L91.8956 4.32064L74.5752 7.71084e-07L67.4752 28.4505C63.7104 27.5914 60.0088 26.745 56.4083 25.848L56.4336 25.7596L32.5437 19.7966L27.9325 38.3046C27.9325 38.3046 40.7934 41.2482 40.5154 41.4377C47.527 43.1937 48.803 47.8302 48.5882 51.5192L40.5028 83.9492C40.9829 84.0756 41.6145 84.2524 42.3094 84.5304L40.4775 84.0756L29.1453 129.505C28.2863 131.64 26.1133 134.837 21.1989 133.624C21.3758 133.877 8.60337 130.478 8.60337 130.478L1.54217e-06 150.313L22.5507 155.935C26.745 156.983 30.8509 158.082 34.8936 159.118L27.7178 187.91L45.0256 192.23L52.1382 163.742C56.8631 165.031 61.449 166.206 65.9465 167.33L58.8718 195.679L76.1923 200L83.3681 171.259C112.918 176.856 135.14 174.594 144.476 147.874C152.006 126.36 144.11 113.941 128.558 105.843C139.89 103.215 148.418 95.7741 150.692 80.3866ZM111.098 135.911C105.742 157.425 69.5218 145.803 57.7727 142.884L67.2857 104.744C79.0348 107.662 116.682 113.461 111.098 135.911ZM116.455 80.0834C111.566 99.6526 81.4225 89.7101 71.6316 87.2718L80.2602 52.6814C90.0385 55.1197 121.546 59.6677 116.455 80.0834Z" fill="#F7931A"/>
</svg>
