<svg width="80" height="81" viewBox="0 0 80 81" fill="none" xmlns="http://www.w3.org/2000/svg">
<path d="M78.8022 49.6794C73.4579 71.1078 51.7542 84.1486 30.3194 78.8075C8.89729 73.4632 -4.14667 51.7595 1.19764 30.3311C6.54196 8.8962 28.2456 -4.14456 49.6741 1.19655C71.1057 6.54086 84.1465 28.2477 78.8022 49.6794Z" fill="#F7931A"/>
<path d="M57.6392 34.3025C58.4329 28.9806 54.3814 26.1196 48.8387 24.2091L50.6372 16.9991L46.2466 15.9078L44.4961 22.929C43.344 22.641 42.1599 22.369 40.9823 22.1002L42.7456 15.0342L38.3581 13.9397L36.5596 21.1465C35.6059 20.9289 34.6683 20.7145 33.7562 20.4873L33.7626 20.4649L27.7111 18.9544L26.543 23.6427C26.543 23.6427 29.8008 24.3883 29.7304 24.4363C31.5065 24.8811 31.8297 26.0556 31.7753 26.9901L29.7272 35.2049C29.8488 35.2369 30.0088 35.2817 30.1848 35.3522L29.7208 35.2369L26.8502 46.7448C26.6326 47.2857 26.0822 48.0953 24.8373 47.7881C24.8821 47.8521 21.6467 46.9912 21.6467 46.9912L19.4674 52.0155L25.1797 53.4396C26.2422 53.7052 27.2823 53.9836 28.3063 54.2461L26.4886 61.5393L30.8729 62.6338L32.6746 55.4173C33.8714 55.7437 35.0331 56.0414 36.1724 56.3262L34.3803 63.5074L38.7677 64.6019L40.5854 57.3214C48.0707 58.7391 53.6998 58.1663 56.0647 51.3979C57.9721 45.948 55.9719 42.8022 52.0325 40.7509C54.9031 40.0852 57.0632 38.2003 57.6392 34.3025ZM47.6098 48.3673C46.253 53.8172 37.078 50.8731 34.1019 50.1338L36.5116 40.4725C39.4878 41.2117 49.0243 42.6806 47.6098 48.3673ZM48.9667 34.2257C47.7283 39.1828 40.0926 36.6642 37.6125 36.0466L39.7982 27.2845C42.2751 27.9021 50.2564 29.0542 48.9667 34.2257Z" fill="white"/>
</svg>
