<?xml version="1.0" encoding="UTF-8"?>
<svg width="14px" height="14px" viewBox="0 0 14 14" version="1.1" xmlns="http://www.w3.org/2000/svg" xmlns:xlink="http://www.w3.org/1999/xlink">
    <!-- Generator: Sketch 46.2 (44496) - http://www.bohemiancoding.com/sketch -->
    <title>Group 38</title>
    <desc>Created with Sketch.</desc>
    <defs></defs>
    <g id="Page-1" stroke="none" stroke-width="1" fill="none" fill-rule="evenodd">
        <g id="Group-38" fill-rule="nonzero" fill="#ffffff">
            <g id="Fill-291">
                <g id="path0_fill-link">
                    <path d="M7,13.2632 C3.54642,13.2632 0.736842,10.4536 0.736842,7 C0.736842,3.54642 3.54642,0.736842 7,0.736842 C10.4536,0.736842 13.2632,3.54642 13.2632,7 C13.2632,10.4536 10.4536,13.2632 7,13.2632 Z M11.9501,2.04989 C10.6282,0.728 8.8701,-1.61623e-08 7,-1.61623e-08 C5.12989,-1.61623e-08 3.37253,0.728 2.04989,2.04989 C0.727263,3.37179 -1.40541e-09,5.12989 -1.40541e-09,6.99926 C-1.40541e-09,8.86863 0.728,10.6267 2.04989,11.9494 C3.37179,13.272 5.12989,13.9993 7,13.9993 C8.8701,13.9993 10.6275,13.2713 11.9501,11.9494 C13.2727,10.6275 14,8.86937 14,6.99926 C14,5.12916 13.272,3.37179 11.9501,2.04989 Z" id="path0_fill"></path>
                </g>
            </g>
            <g id="Fill-292" transform="translate(2.000000, 2.000000)">
                <g id="path1_fill-link" transform="translate(0.210000, 0.210530)">
                    <path d="M9.21053,4.42105 L5.15789,4.42105 L5.15789,0.368421 C5.15789,0.165053 4.99284,7.16762e-08 4.78947,7.16762e-08 C4.58611,7.16762e-08 4.42105,0.165053 4.42105,0.368421 L4.42105,4.42105 L0.368421,4.42105 C0.165053,4.42105 -1.40541e-09,4.58611 -1.40541e-09,4.78947 C-1.40541e-09,4.99284 0.165053,5.1579 0.368421,5.1579 L4.42105,5.1579 L4.42105,9.21053 C4.42105,9.41389 4.58611,9.57895 4.78947,9.57895 C4.99284,9.57895 5.15789,9.41389 5.15789,9.21053 L5.15789,5.1579 L9.21053,5.1579 C9.41389,5.1579 9.57895,4.99284 9.57895,4.78947 C9.57895,4.58611 9.41389,4.42105 9.21053,4.42105 Z" id="path1_fill"></path>
                </g>
            </g>
        </g>
    </g>
</svg>