<svg width="25" height="25" viewBox="0 0 25 25" fill="none" xmlns="http://www.w3.org/2000/svg">
<path fill-rule="evenodd" clip-rule="evenodd" d="M13.8576 12.5002L24.7149 1.64109C25.0899 1.26604 25.0899 0.656338 24.7149 0.281288C24.3399 -0.0937626 23.7303 -0.0937626 23.3554 0.281288L12.4981 11.1404L1.6408 0.281288C1.26582 -0.0937626 0.656225 -0.0937626 0.281239 0.281288C-0.0937464 0.656338 -0.0937464 1.26604 0.281239 1.64109L11.1385 12.5002L0.281239 23.3594C-0.0937464 23.7344 -0.0937464 24.3441 0.281239 24.7192C0.469693 24.9077 0.715838 25 0.961982 25C1.20813 25 1.45427 24.9058 1.64273 24.7192L12.5 13.86L23.3573 24.7192C23.5457 24.9077 23.7919 25 24.038 25C24.2842 25 24.5303 24.9058 24.7188 24.7192C25.0937 24.3441 25.0937 23.7344 24.7188 23.3594L13.8615 12.5002H13.8576Z" fill="url(#paint0_linear)"/>
<defs>
<linearGradient id="paint0_linear" x1="12.5" y1="0" x2="12.5" y2="25" gradientUnits="userSpaceOnUse">
<stop stop-color="#5371DB"/>
<stop offset="1" stop-color="#59D6FA"/>
</linearGradient>
</defs>
</svg>
