<svg width="17" height="15" viewBox="0 0 17 15" fill="none" xmlns="http://www.w3.org/2000/svg">
<rect width="15.9844" height="15" fill="black" fill-opacity="0" transform="translate(0.442627)"/>
<path fill-rule="evenodd" clip-rule="evenodd" d="M8.43487 14.2105C4.49176 14.2105 1.28394 11.2001 1.28394 7.49964C1.28394 3.79918 4.49176 0.788757 8.43487 0.788757C12.378 0.788757 15.5858 3.79918 15.5858 7.49964C15.5858 11.2001 12.378 14.2105 8.43487 14.2105ZM14.0866 2.19643C12.5773 0.780041 10.57 0 8.43485 0C6.29966 0 4.2932 0.780041 2.78309 2.19643C1.27298 3.61282 0.442627 5.4966 0.442627 7.4996C0.442627 9.5026 1.27382 11.3864 2.78309 12.8036C4.29235 14.2207 6.29966 15 8.43485 15C10.57 15 12.5765 14.22 14.0866 12.8036C15.5959 11.3872 16.4271 9.50339 16.4271 7.4996C16.4271 5.49581 15.5959 3.61282 14.0866 2.19643Z" fill="#F2F2F2"/>
<path fill-rule="evenodd" clip-rule="evenodd" d="M12.3427 6.03588L8.43408 9.70396L4.52547 6.03588C4.36141 5.88192 4.09473 5.88192 3.93068 6.03588C3.84907 6.11325 3.80785 6.21431 3.80785 6.31537L3.80701 6.31458C3.80701 6.41563 3.84739 6.51669 3.92983 6.59406L8.13627 10.5416C8.30032 10.6956 8.56701 10.6956 8.73106 10.5416L12.9375 6.59406C13.1015 6.44011 13.1015 6.18983 12.9375 6.03588C12.7734 5.88192 12.5068 5.88192 12.3427 6.03588Z" fill="#F2F2F2"/>
</svg>
