<svg width="65" height="60" viewBox="0 0 65 60" fill="none" xmlns="http://www.w3.org/2000/svg">
<path fill-rule="evenodd" clip-rule="evenodd" d="M32.4116 56.8421C16.6392 56.8421 3.80786 44.8004 3.80786 29.9985C3.80786 15.1967 16.6392 3.15503 32.4116 3.15503C48.1841 3.15503 61.0154 15.1967 61.0154 29.9985C61.0154 44.8004 48.1841 56.8421 32.4116 56.8421ZM55.0186 8.78573C48.9815 3.12016 40.9523 0 32.4115 0C23.8708 0 15.8449 3.12016 9.80447 8.78573C3.76403 14.4513 0.442627 21.9864 0.442627 29.9984C0.442627 38.0104 3.76739 45.5455 9.80447 51.2143C15.8415 56.883 23.8708 60 32.4115 60C40.9523 60 48.9781 56.8798 55.0186 51.2143C61.0556 45.5487 64.3804 38.0136 64.3804 29.9984C64.3804 21.9833 61.0556 14.4513 55.0186 8.78573V8.78573Z" fill="#F2F2F2"/>
<path fill-rule="evenodd" clip-rule="evenodd" d="M48.0429 24.1435L32.4085 38.8159L16.774 24.1435C16.1178 23.5277 15.051 23.5277 14.3948 24.1435C14.0684 24.453 13.9035 24.8572 13.9035 25.2615L13.9001 25.2583C13.9001 25.6625 14.0617 26.0668 14.3915 26.3763L31.2172 42.1666C31.8734 42.7824 32.9401 42.7824 33.5964 42.1666L50.4221 26.3763C51.0783 25.7604 51.0783 24.7593 50.4221 24.1435C49.7659 23.5277 48.6991 23.5277 48.0429 24.1435" fill="#F2F2F2"/>
</svg>
