<?xml version="1.0" encoding="utf-8"?>
<!-- Generator: Adobe Illustrator 22.1.0, SVG Export Plug-In . SVG Version: 6.00 Build 0)  -->
<svg version="1.1" id="Layer_1" xmlns="http://www.w3.org/2000/svg" xmlns:xlink="http://www.w3.org/1999/xlink" x="0px" y="0px"
	 viewBox="0 0 2500 2500" style="enable-background:new 0 0 2500 2500;" xml:space="preserve">
<style type="text/css">
	.st0{fill:#343434;}
	.st1{fill:#FFFFFF;}
</style>
<title>ETH color</title>
<circle class="st0" cx="1250" cy="1250" r="1250"/>
<g>
	<polygon class="st1" points="1249.8,350 1249.8,350 1249.8,350 	"/>
	<polygon class="st1" points="1802.3,1266.6 1802.3,1266.7 1249.8,1593.2 1249.8,1593.2 1249.8,1593.3 697.4,1266.7 1249.8,350 
		1249.8,350 1249.8,350 	"/>
	<polygon class="st1" points="1249.8,1593.2 1249.8,1593.3 1249.8,1593.3 1249.8,1593.2 	"/>
	<polygon class="st1" points="1249.8,2150 1249.8,2150 1249.8,2149.9 	"/>
	<polygon class="st1" points="1802.6,1371.5 1249.8,2150 1249.8,2149.9 697.4,1371.5 1249.8,1697.9 	"/>
	<polygon class="st1" points="1802.3,1266.7 1249.8,1593.3 1249.8,1593.3 1249.8,1593.2 1249.8,1593.2 1802.3,1266.7 	"/>
</g>
</svg>
