<svg width="80" height="80" viewBox="0 0 80 80" fill="none" xmlns="http://www.w3.org/2000/svg">
<path d="M40 80C62.0914 80 80 62.0914 80 40C80 17.9086 62.0914 0 40 0C17.9086 0 0 17.9086 0 40C0 62.0914 17.9086 80 40 80Z" fill="#6C6E71"/>
<path d="M39.9999 12.8L39.5707 14.096V52.256L39.9999 52.544L57.5999 42.176L39.9999 12.8Z" fill="#B3B3B6"/>
<path d="M40 12.8L22.4 42.176L40 52.544V34.112V12.8Z" fill="#B3B3B6"/>
<path d="M39.9998 56L39.7137 56.144V69.824L39.9998 70.4L57.5998 45.488L39.9998 56Z" fill="#B3B3B6"/>
<path d="M40 70.4V56L22.4 45.488L40 70.4Z" fill="#B3B3B6"/>
<path d="M40 52.5441L57.6 42.1761L40 34.1121V52.5441Z" fill="#B3B3B6"/>
<path d="M22.4 42.1761L40 52.5441V34.1121L22.4 42.1761Z" fill="#B3B3B6"/>
</svg>
