<svg width="123" height="201" viewBox="0 0 123 201" fill="none" xmlns="http://www.w3.org/2000/svg">
<path d="M61.1109 0L59.6204 4.5V137L61.1109 138L122.222 102L61.1109 0Z" fill="white"/>
<path d="M61.1111 0L-9.47644e-07 102L61.1111 138V74V0Z" fill="white"/>
<path d="M61.1105 150L60.1168 150.5V198L61.1105 200L122.222 113.5L61.1105 150Z" fill="white"/>
<path d="M61.111 200V150L-8.10563e-05 113.5L61.111 200Z" fill="white"/>
<path d="M61.111 138L122.222 102L61.111 74V138Z" fill="white"/>
<path d="M-8.10563e-05 102L61.111 138V74L-8.10563e-05 102Z" fill="white"/>
<path d="M61 138V0L122.111 102L61 138Z" fill="#12100B" fill-opacity="0.8"/>
<path d="M61.1111 0L-9.47644e-07 102L61.1111 138V74V0Z" fill="#12100B" fill-opacity="0.45"/>
<path d="M61 200.5V150.5L122.111 114L61 200.5Z" fill="#12100B" fill-opacity="0.8"/>
<path d="M61.1111 200.5V150.5L-9.47644e-07 114L61.1111 200.5Z" fill="#12100B" fill-opacity="0.45"/>
<path d="M61.111 138L122.222 102L61.111 74V138Z" fill="#12100B" fill-opacity="0.6"/>
<path d="M-8.10563e-05 102L61.111 138V74L-8.10563e-05 102Z" fill="#12100B" fill-opacity="0.6"/>
</svg>
