<svg width="80" height="80" viewBox="0 0 80 80" fill="none" xmlns="http://www.w3.org/2000/svg">
<path d="M40 80C62.0914 80 80 62.0914 80 40C80 17.9086 62.0914 0 40 0C17.9086 0 0 17.9086 0 40C0 62.0914 17.9086 80 40 80Z" fill="#EBF0F1"/>
<path d="M39.6 11L39.1707 12.296V50.456L39.6 50.744L57.2 40.376L39.6 11Z" fill="#12100B" fill-opacity="0.8"/>
<path d="M39.6 11L22 40.376L39.6 50.744V32.312V11Z" fill="#12100B" fill-opacity="0.45"/>
<path d="M39.5998 54.2L39.3137 54.344V68.024L39.5998 68.6L57.1998 43.688L39.5998 54.2Z" fill="#12100B" fill-opacity="0.8"/>
<path d="M39.6 68.6V54.2L22 43.688L39.6 68.6Z" fill="#12100B" fill-opacity="0.45"/>
<path d="M39.6 50.744L57.2 40.376L39.6 32.312V50.744Z" fill="#12100B" fill-opacity="0.6"/>
<path d="M22 40.376L39.6 50.744V32.312L22 40.376Z" fill="#12100B" fill-opacity="0.6"/>
</svg>
