<svg width="123" height="200" viewBox="0 0 123 200" fill="none" xmlns="http://www.w3.org/2000/svg">
<mask id="path-1-inside-1" fill="white">
<path fill-rule="evenodd" clip-rule="evenodd" d="M61.1108 200L61.111 200V199.999L122.222 113.5L61.1108 150L-8.01086e-05 113.5L61.1094 199.998L61.1105 200L61.1108 200Z"/>
</mask>
<path d="M61.1108 200L62.7442 198.846L61.1108 196.534L59.4773 198.846L61.1108 200ZM61.111 200L59.4776 201.154L63.111 206.297V200H61.111ZM61.111 199.999L59.4776 198.845L59.111 199.364V199.999H61.111ZM122.222 113.5L123.855 114.654L121.196 111.783L122.222 113.5ZM61.1108 150L60.0852 151.717L61.1108 152.329L62.1363 151.717L61.1108 150ZM-8.01086e-05 113.5L1.02547 111.783L-1.63355 114.654L-8.01086e-05 113.5ZM61.1094 199.998L62.9005 199.108L62.8319 198.97L62.7428 198.844L61.1094 199.998ZM61.1105 200L59.3194 200.89L60.8103 203.891L62.744 201.154L61.1105 200ZM59.4773 201.154L59.4776 201.154L62.7445 198.846L62.7442 198.846L59.4773 201.154ZM63.111 200V199.999H59.111V200H63.111ZM62.7445 201.153L123.855 114.654L120.588 112.346L59.4776 198.845L62.7445 201.153ZM121.196 111.783L60.0852 148.283L62.1363 151.717L123.247 115.217L121.196 111.783ZM62.1363 148.283L1.02547 111.783L-1.02563 115.217L60.0852 151.717L62.1363 148.283ZM-1.63355 114.654L59.4759 201.152L62.7428 198.844L1.63339 112.346L-1.63355 114.654ZM59.3182 200.887L59.3194 200.89L62.9017 199.11L62.9005 199.108L59.3182 200.887ZM62.744 201.154L62.7442 201.154L59.4773 198.846L59.4771 198.846L62.744 201.154Z" fill="#B3B3B3" mask="url(#path-1-inside-1)"/>
<path fill-rule="evenodd" clip-rule="evenodd" d="M61.111 0.000149626L61.1111 0V0.000299253L122.222 102L61.1111 138L61.1096 137.999L0 102L61.1107 0.000669237L61.1109 0L61.111 0.000149626Z" fill="#B3B3B3"/>
</svg>
