<?xml version="1.0" encoding="iso-8859-1"?>
<!-- Generator: Adobe Illustrator 18.1.1, SVG Export Plug-In . SVG Version: 6.00 Build 0)  -->
<svg xmlns="http://www.w3.org/2000/svg" xmlns:xlink="http://www.w3.org/1999/xlink" version="1.1" id="Capa_1" x="0px" y="0px" viewBox="0 0 39.47 39.47" style="enable-background:new 0 0 39.47 39.47;" xml:space="preserve" width="512px" height="512px">
<g id="group">
	<g>
		<path d="M30.177,35.649H8.862c-2.186,0-3.963-1.777-3.963-3.963v-1.312c0-4.262,3.334-7.765,7.591-7.975l0.48-0.023l0.292,0.382    c1.607,2.108,3.885,3.318,6.249,3.318c2.363,0,4.642-1.21,6.251-3.318l0.29-0.381l0.479,0.022c4.266,0.2,7.607,3.703,7.607,7.975    v1.312C34.14,33.872,32.362,35.649,30.177,35.649z M12.126,24.265c-3.062,0.376-5.398,2.977-5.398,6.109v1.312    c0,1.177,0.958,2.135,2.135,2.135h21.314c1.177,0,2.135-0.958,2.135-2.135v-1.312c0-3.14-2.343-5.741-5.412-6.11    c-1.938,2.32-4.604,3.641-7.388,3.641S14.062,26.585,12.126,24.265z" fill="#e3e3e3"/>
		<path d="M19.512,25.365c-4.285,0-7.771-4.256-7.771-9.486c0-5.231,3.485-9.487,7.771-9.487s7.771,4.256,7.771,9.487    C27.282,21.109,23.797,25.365,19.512,25.365z M19.512,8.219c-3.276,0-5.942,3.436-5.942,7.659c0,4.223,2.666,7.658,5.942,7.658    s5.942-3.436,5.942-7.658C25.454,11.655,22.788,8.219,19.512,8.219z" fill="#e3e3e3"/>
	</g>
	<g>
		<path d="M38.556,27.055c-0.505,0-0.914-0.409-0.914-0.914V24.99c0-2.68-1.984-4.903-4.595-5.247    c-0.33,0.391-0.685,0.752-1.06,1.078c-0.38,0.331-0.958,0.291-1.29-0.091c-0.331-0.381-0.29-0.958,0.091-1.29    c0.405-0.353,0.784-0.758,1.126-1.205l0.291-0.381l0.479,0.022c3.806,0.179,6.786,3.304,6.786,7.113v1.151    C39.47,26.646,39.061,27.055,38.556,27.055z" fill="#e3e3e3"/>
		<path d="M31.082,18.078c-0.179,0-0.358-0.052-0.517-0.16c-0.416-0.286-0.521-0.855-0.236-1.271    c0.833-1.212,1.292-2.77,1.292-4.385c0-3.646-2.291-6.612-5.106-6.612c-0.505,0-0.914-0.409-0.914-0.914s0.409-0.914,0.914-0.914    c3.824,0,6.935,3.786,6.935,8.44c0,1.981-0.572,3.906-1.612,5.42C31.659,17.939,31.373,18.078,31.082,18.078z" fill="#e3e3e3"/>
	</g>
	<g>
		<path d="M0.914,27.055C0.409,27.055,0,26.646,0,26.141V24.99c0-3.81,2.98-6.935,6.786-7.113l0.479-0.022l0.291,0.381    c0.342,0.447,0.721,0.853,1.126,1.205c0.381,0.332,0.422,0.909,0.091,1.29c-0.331,0.382-0.909,0.422-1.29,0.091    c-0.375-0.326-0.729-0.688-1.06-1.078c-2.61,0.344-4.595,2.567-4.595,5.247v1.151C1.828,26.646,1.419,27.055,0.914,27.055z" fill="#e3e3e3"/>
		<path d="M8.388,18.078c-0.291,0-0.577-0.139-0.755-0.396c-1.04-1.514-1.612-3.438-1.612-5.42c0-4.654,3.11-8.44,6.935-8.44    c0.505,0,0.914,0.409,0.914,0.914s-0.409,0.914-0.914,0.914c-2.815,0-5.106,2.967-5.106,6.612c0,1.615,0.459,3.173,1.292,4.385    c0.285,0.416,0.18,0.985-0.236,1.271C8.746,18.026,8.566,18.078,8.388,18.078z" fill="#e3e3e3"/>
	</g>
</g>
<g>
</g>
<g>
</g>
<g>
</g>
<g>
</g>
<g>
</g>
<g>
</g>
<g>
</g>
<g>
</g>
<g>
</g>
<g>
</g>
<g>
</g>
<g>
</g>
<g>
</g>
<g>
</g>
<g>
</g>
</svg>
