<svg width="30" height="30" viewBox="0 0 30 30" version="1.1" xmlns="http://www.w3.org/2000/svg" xmlns:xlink="http://www.w3.org/1999/xlink">
<title>happiness</title>
<desc>Created using Figma</desc>
<g id="Canvas" transform="translate(-5331 -5443)">
<g id="happiness">
<g id="Path 487">
<use xlink:href="#path0_fill" transform="translate(5331 5443.4)" fill="#9FA0A3"/>
</g>
<g id="Ellipse 6">
<use xlink:href="#path1_fill" transform="translate(5339.37 5453.3)" fill="#9FA0A3"/>
</g>
<g id="Ellipse 7">
<use xlink:href="#path1_fill" transform="translate(5349.26 5453.3)" fill="#9FA0A3"/>
</g>
<g id="Path 488">
<use xlink:href="#path2_fill" transform="translate(5338.07 5461.32)" fill="#9FA0A3"/>
</g>
</g>
</g>
<defs>
<path id="path0_fill" d="M 14.8 2.66454e-15C 11.8728 4.27436e-15 9.01141 0.868005 6.57757 2.49425C 4.14372 4.12049 2.24677 6.43194 1.12659 9.13628C 0.00641263 11.8406 -0.286677 14.8164 0.284384 17.6873C 0.855446 20.5583 2.26501 23.1954 4.33483 25.2652C 6.40464 27.335 9.04175 28.7446 11.9127 29.3156C 14.7836 29.8867 17.7594 29.5936 20.4637 28.4734C 23.1681 27.3532 25.4795 25.4563 27.1058 23.0224C 28.732 20.5886 29.6 17.7272 29.6 14.8C 29.596 10.876 28.0355 7.11388 25.2608 4.33921C 22.4861 1.56453 18.724 0.00397098 14.8 0L 14.8 2.66454e-15ZM 14.8 28C 12.1893 28 9.63721 27.2258 7.46648 25.7754C 5.29575 24.325 3.60387 22.2634 2.6048 19.8514C 1.60572 17.4394 1.34432 14.7854 1.85364 12.2248C 2.36297 9.66426 3.62014 7.31224 5.4662 5.46619C 7.31225 3.62014 9.66426 2.36296 12.2248 1.85363C 14.7854 1.34431 17.4394 1.60571 19.8514 2.60479C 22.2634 3.60387 24.325 5.29574 25.7754 7.46647C 27.2258 9.6372 28 12.1893 28 14.8C 28.0058 16.5351 27.6684 18.2542 27.0071 19.8583C 26.3458 21.4624 25.3737 22.9199 24.1468 24.1468C 22.9199 25.3737 21.4624 26.3457 19.8583 27.007C 18.2542 27.6684 16.5351 28.0058 14.8 28Z"/>
<path id="path1_fill" d="M 1.6 3.2C 2.48366 3.2 3.2 2.48366 3.2 1.6C 3.2 0.716344 2.48366 0 1.6 0C 0.716344 0 0 0.716344 0 1.6C 0 2.48366 0.716344 3.2 1.6 3.2Z"/>
<path id="path2_fill" d="M 7.699 5.07699C 9.24013 5.0739 10.7563 4.68739 12.1108 3.95227C 13.4653 3.21714 14.6156 2.15651 15.458 0.865994L 14.119 -3.05176e-06C 13.4303 1.06814 12.4848 1.94653 11.3689 2.55479C 10.253 3.16305 9.0024 3.48176 7.7315 3.48176C 6.4606 3.48176 5.20998 3.16305 4.09409 2.55479C 2.9782 1.94653 2.03267 1.06814 1.344 -3.05176e-06L -2.44141e-07 0.867993C 0.740725 2.00478 1.72147 2.96552 2.87328 3.68266C 4.0251 4.3998 5.32001 4.85593 6.667 5.01899C 7.00961 5.058 7.35417 5.07737 7.699 5.07699Z"/>
</defs>
</svg>
