<?xml version="1.0" encoding="UTF-8"?>
<svg width="340px" height="340px" viewBox="0 0 340 340" version="1.1" xmlns="http://www.w3.org/2000/svg" xmlns:xlink="http://www.w3.org/1999/xlink">
    <!-- Generator: Sketch 49.1 (51147) - http://www.bohemiancoding.com/sketch -->
    <title>Shape</title>
    <desc>Created with Sketch.</desc>
    <defs></defs>
    <g id="Page-1" stroke="none" stroke-width="1" fill="none" fill-rule="evenodd">
        <g id="question-mark-in-dark-circle" fill="#FFFFFF" fill-rule="nonzero">
            <path d="M170,0 C76.109,0 0,76.112 0,170 C0,263.888 76.109,340 170,340 C263.89,340 340,263.888 340,170 C340,76.112 263.89,0 170,0 Z M169.633,281.611 C157.059,281.611 146.83,271.381 146.83,258.807 C146.83,246.234 157.059,236.004 169.633,236.004 C182.208,236.004 192.439,246.233 192.439,258.807 C192.439,271.381 182.208,281.611 169.633,281.611 Z M205.357,169.659 C195.501,178.88 188.99,184.971 188.99,199.721 L188.99,210.632 C188.99,213.393 186.752,215.632 183.99,215.632 L156.868,215.632 C154.106,215.632 151.868,213.393 151.868,210.632 L151.868,199.721 C151.868,169.428 167.612,154.645 179.107,143.851 C188.892,134.672 195.355,128.609 195.355,114.073 C195.355,109.482 195.355,95.511 170.43,95.511 C147.06,95.511 146.124,108.394 145.725,113.895 L144.912,125.081 C144.813,126.427 144.176,127.677 143.141,128.545 C142.11,129.415 140.769,129.827 139.426,129.693 L112.375,126.986 C109.675,126.716 107.684,124.341 107.887,121.635 L108.686,111.022 C111.096,79.048 135.435,58.388 170.692,58.388 C189.13,58.388 204.644,63.564 215.557,73.356 C226.623,83.287 232.475,97.458 232.475,114.336 C232.477,144.265 216.802,158.942 205.357,169.659 Z" id="Shape"></path>
        </g>
    </g>
</svg>