<svg width="101" height="101" viewBox="0 0 101 101" fill="none" xmlns="http://www.w3.org/2000/svg">
<path fill-rule="evenodd" clip-rule="evenodd" d="M97.0931 46.4679H54.7854V4.16018C54.7854 2.0371 53.0623 0.314026 50.9392 0.314026C48.8161 0.314026 47.0931 2.0371 47.0931 4.16018V46.4679H4.78536C2.66229 46.4679 0.939209 48.1909 0.939209 50.314C0.939209 52.4371 2.66229 54.1602 4.78536 54.1602H47.0931V96.4679C47.0931 98.5909 48.8161 100.314 50.9392 100.314C53.0623 100.314 54.7854 98.5909 54.7854 96.4679V54.1602H97.0931C99.2161 54.1602 100.939 52.4371 100.939 50.314C100.939 48.1909 99.2161 46.4679 97.0931 46.4679" fill="#0B0B09"/>
</svg>
