<svg width="52" height="80" viewBox="0 0 52 80" fill="none" xmlns="http://www.w3.org/2000/svg">
<path fill-rule="evenodd" clip-rule="evenodd" d="M25.7143 0C11.5371 0 0 11.5371 0 25.7143C0 27.2914 1.28 28.5714 2.85714 28.5714C4.43429 28.5714 5.71429 27.2914 5.71429 25.7143C5.71429 14.6857 14.6857 5.71429 25.7143 5.71429C36.7429 5.71429 45.7143 14.6857 45.7143 25.7143C45.7143 36.7429 36.7429 45.7143 25.7143 45.7143C24.1371 45.7143 22.8571 46.9943 22.8571 48.5714V60C22.8571 61.5771 24.1371 62.8571 25.7143 62.8571C27.2914 62.8571 28.5714 61.5771 28.5714 60V51.2686C41.4114 49.8457 51.4286 38.9257 51.4286 25.7143C51.4286 11.5371 39.8914 0 25.7143 0" fill="#F2F2F2"/>
<path fill-rule="evenodd" clip-rule="evenodd" d="M25.7146 68.5713C24.1374 68.5713 22.8574 69.8513 22.8574 71.4284V77.1427C22.8574 78.7199 24.1374 79.9999 25.7146 79.9999C27.2917 79.9999 28.5717 78.7199 28.5717 77.1427V71.4284C28.5717 69.8513 27.2917 68.5713 25.7146 68.5713" fill="#F2F2F2"/>
</svg>
