<?xml version="1.0" encoding="UTF-8"?>
<svg width="20px" height="22px" viewBox="0 0 20 22" version="1.1" xmlns="http://www.w3.org/2000/svg" xmlns:xlink="http://www.w3.org/1999/xlink">
    <!-- Generator: Sketch 46.2 (44496) - http://www.bohemiancoding.com/sketch -->
    <title>icon-network</title>
    <desc>Created with Sketch.</desc>
    <defs></defs>
    <g id="Page-1" stroke="none" stroke-width="1" fill="none" fill-rule="evenodd">
        <g id="icon-network" fill-rule="nonzero" fill="#A9AAAD">
            <path d="M16.2026,14.1337 C14.9824,14.1337 13.8943,14.7367 13.1982,15.6686 L7.37004,12.2928 C7.50661,11.8862 7.5815,11.4477 7.5815,10.9954 C7.5815,10.5386 7.50661,10.1047 7.36564,9.69352 L13.1894,6.32226 C13.8811,7.25872 14.9736,7.86628 16.1982,7.86628 C18.2863,7.86628 19.9912,6.10299 19.9912,3.93314 C19.9912,1.76329 18.2907,0 16.1982,0 C14.1057,0 12.4053,1.76329 12.4053,3.93314 C12.4053,4.38995 12.4802,4.82849 12.6211,5.23505 L6.80176,8.60631 C6.11013,7.66528 5.01762,7.06229 3.79295,7.06229 C1.70485,7.06229 8.40242009e-09,8.82558 8.40242009e-09,10.9954 C8.40242009e-09,13.1653 1.70485,14.9286 3.79736,14.9286 C5.02203,14.9286 6.11454,14.321 6.81057,13.38 L12.6344,16.7558 C12.4934,17.1669 12.4141,17.6101 12.4141,18.0669 C12.4141,20.2321 14.1145,22 16.207,22 C18.2996,22 20,20.2367 20,18.0669 C20,15.897 18.2952,14.1337 16.2026,14.1337 Z M16.2026,1.23796 C17.6388,1.23796 18.8062,2.4485 18.8062,3.93771 C18.8062,5.42691 17.6388,6.63746 16.2026,6.63746 C14.7665,6.63746 13.5991,5.42691 13.5991,3.93771 C13.5991,2.4485 14.7709,1.23796 16.2026,1.23796 Z M3.79736,13.6952 C2.36123,13.6952 1.19383,12.4846 1.19383,10.9954 C1.19383,9.50623 2.36123,8.29568 3.79736,8.29568 C5.23348,8.29568 6.40088,9.50623 6.40088,10.9954 C6.40088,12.4846 5.22907,13.6952 3.79736,13.6952 Z M16.2026,20.762 C14.7665,20.762 13.5991,19.5515 13.5991,18.0623 C13.5991,16.5731 14.7665,15.3625 16.2026,15.3625 C17.6388,15.3625 18.8062,16.5731 18.8062,18.0623 C18.8062,19.5515 17.6388,20.762 16.2026,20.762 Z" id="path0_fill"></path>
        </g>
    </g>
</svg>