<svg width="101" height="100" viewBox="0 0 101 100" fill="none" xmlns="http://www.w3.org/2000/svg">
<path fill-rule="evenodd" clip-rule="evenodd" d="M92.0993 21.8834L87.6134 26.3693L73.6303 12.3861L78.1161 7.90027C79.9835 6.03284 82.4668 5.00651 85.1052 5.00651C87.7436 5.00651 90.2268 6.03284 92.0943 7.90027C93.9617 9.7677 94.988 12.2509 94.988 14.8894C94.988 17.5278 93.9617 20.011 92.0943 21.8784L92.0993 21.8834ZM28.6619 85.326L6.68838 93.3163L14.6788 71.3428L70.0908 15.9307L84.074 29.9139L28.6619 85.326ZM95.6441 4.36067C92.8304 1.54701 89.0906 0 85.1104 0C81.1302 0 77.3904 1.54701 74.5767 4.36067L10.7437 68.1937L10.163 69.1098L0.149954 96.6456C-0.180476 97.5618 0.0448172 98.5832 0.730709 99.269C1.20633 99.7447 1.84716 100 2.50301 100L3.35913 99.8498L30.8949 89.8368L31.8111 89.256L95.6441 25.423C98.4578 22.6094 100.005 18.8695 100.005 14.8894C100.005 10.9092 98.4578 7.16932 95.6441 4.35566V4.36067V4.36067Z" fill="#0B0B09"/>
</svg>
