<svg width="120" height="120" viewBox="0 0 120 120" fill="none" xmlns="http://www.w3.org/2000/svg">
<path fill-rule="evenodd" clip-rule="evenodd" d="M64.7496 60.0009L90.5181 37.0998C91.8191 35.944 91.9391 33.9482 90.7833 32.6409C89.6275 31.3335 87.6318 31.2198 86.3244 32.3756L60.0002 55.7756L33.676 32.3756C32.3749 31.2198 30.3791 31.3335 29.217 32.6409C28.0549 33.9482 28.1749 35.9377 29.4823 37.0998L55.2507 60.0009L29.4823 82.9019C28.1812 84.0577 28.0612 86.0535 29.217 87.3609C29.8423 88.0619 30.7075 88.4219 31.5791 88.4219C32.3244 88.4219 33.076 88.1567 33.676 87.6261L60.0002 64.2261L86.3244 87.6261C86.9244 88.163 87.676 88.4219 88.4212 88.4219C89.2928 88.4219 90.1581 88.0619 90.7833 87.3609C91.9391 86.0598 91.8254 84.064 90.5181 82.9019L64.7496 60.0009" fill="#F2F2F2"/>
<path fill-rule="evenodd" clip-rule="evenodd" d="M60.0006 113.684C30.3985 113.684 6.31641 89.6017 6.31641 59.9996C6.31641 30.3975 30.3985 6.31543 60.0006 6.31543C89.6027 6.31543 113.685 30.3975 113.685 59.9996C113.685 89.6017 89.6027 113.684 60.0006 113.684ZM102.429 17.5768C91.0926 6.24 76.0295 0 60 0C43.9705 0 28.9011 6.24 17.5705 17.5768C6.24 28.9137 0 43.9768 0 60.0063C0 76.0295 6.23369 91.099 17.5705 102.429C28.9074 113.76 43.9705 120 60 120C76.0295 120 91.099 113.76 102.429 102.429C113.76 91.099 120 76.0358 120 60.0063C120 43.9768 113.766 28.9137 102.429 17.5768V17.5768Z" fill="#F2F2F2"/>
</svg>
