<svg width="100" height="100" viewBox="0 0 100 100" fill="none" xmlns="http://www.w3.org/2000/svg">
<circle cx="50" cy="50" r="50" fill="#590E03"/>
<path fill-rule="evenodd" clip-rule="evenodd" d="M16 71.5973C16.1835 71.3318 16.3748 71.0659 16.5741 70.8C19.3941 67.04 23.2541 64.052 28.0501 61.924C33.9061 59.32 41.1821 58 49.6741 58C58.1661 58 65.4421 59.32 71.2981 61.924C76.0941 64.056 79.9541 67.04 82.7741 70.8C82.9735 71.0659 83.1648 71.3318 83.3483 71.5973C76.2339 82.667 63.8104 90 49.6741 90C35.5379 90 23.1144 82.667 16 71.5973ZM49.6741 10C37.5421 10 27.6741 19.868 27.6741 32C27.6741 44.132 37.5421 54 49.6741 54C61.8061 54 71.6741 44.132 71.6741 32C71.6741 19.868 61.8061 10 49.6741 10Z" fill="#F2F2F2"/>
</svg>
