<svg width="80" height="64" viewBox="0 0 80 64" fill="none" xmlns="http://www.w3.org/2000/svg">
<path fill-rule="evenodd" clip-rule="evenodd" d="M79.415 26.5834H79.411C78.631 25.8034 77.363 25.8034 76.5831 26.5834L71.9872 31.1793C71.7832 22.9394 68.4752 15.2196 62.6234 9.37177C56.5795 3.32792 48.5437 0 39.9959 0C28.1002 0 17.2525 6.53984 11.6886 17.0636C11.1726 18.0396 11.5446 19.2515 12.5206 19.7675C13.4966 20.2835 14.7085 19.9115 15.2245 18.9355C20.0924 9.72377 29.5842 3.9999 39.9959 3.9999C55.1516 3.9999 67.5353 16.1076 67.9833 31.1553L63.4114 26.5834C62.6314 25.8034 61.3634 25.8034 60.5834 26.5834C59.8035 27.3633 59.8035 28.6313 60.5834 29.4113L68.5832 37.4111C68.9752 37.8031 69.4872 37.9951 69.9992 37.9951C70.5112 37.9951 71.0232 37.7991 71.4152 37.4111L79.415 29.4113C80.195 28.6313 80.195 27.3633 79.415 26.5834" fill="#0B0B09"/>
<path fill-rule="evenodd" clip-rule="evenodd" d="M67.4754 44.2309H67.4714C66.4954 43.7149 65.2834 44.0869 64.7674 45.0629C59.8996 54.2746 50.4078 59.9985 39.996 59.9985C24.8404 59.9985 12.4567 47.8908 12.0087 32.8432L16.5806 37.415C16.9726 37.807 17.4846 37.999 17.9966 37.999C18.5086 37.999 19.0205 37.803 19.4125 37.415C20.1925 36.6351 20.1925 35.3671 19.4125 34.5871L11.4127 26.5873C10.6327 25.8073 9.36478 25.8073 8.58479 26.5873L0.584986 34.5871C-0.194995 35.3671 -0.194995 36.6351 0.584986 37.415C1.36497 38.195 2.63294 38.195 3.41292 37.415L8.00881 32.8192C8.2128 41.059 11.5207 48.7788 17.3726 54.6266C23.4164 60.6705 31.4522 63.9984 40 63.9984C51.8958 63.9984 62.7435 57.4586 68.3074 46.9348C68.8233 45.9588 68.4514 44.7469 67.4754 44.2309" fill="#0B0B09"/>
</svg>
