<svg width="77" height="77" viewBox="0 0 77 77" fill="none" xmlns="http://www.w3.org/2000/svg">
<path fill-rule="evenodd" clip-rule="evenodd" d="M41.4444 38.0699L57.7644 23.5659C58.5884 22.8339 58.6644 21.5699 57.9324 20.7419C57.2004 19.9139 55.9364 19.8419 55.1084 20.5739L38.4364 35.3939L21.7644 20.5739C20.9404 19.8419 19.6764 19.9139 18.9404 20.7419C18.2044 21.5699 18.2804 22.8299 19.1084 23.5659L35.4284 38.0699L19.1084 52.5739C18.2844 53.3059 18.2084 54.5699 18.9404 55.3979C19.3364 55.8419 19.8844 56.0699 20.4364 56.0699C20.9084 56.0699 21.3844 55.9019 21.7644 55.5659L38.4364 40.7459L55.1084 55.5659C55.4884 55.9059 55.9644 56.0699 56.4364 56.0699C56.9884 56.0699 57.5364 55.8419 57.9324 55.3979C58.6644 54.5739 58.5924 53.3099 57.7644 52.5739L41.4444 38.0699" fill="#0B0B09"/>
<path fill-rule="evenodd" clip-rule="evenodd" d="M38.4363 72.0699C19.6883 72.0699 4.43628 56.8179 4.43628 38.0699C4.43628 19.3219 19.6883 4.06995 38.4363 4.06995C57.1843 4.06995 72.4363 19.3219 72.4363 38.0699C72.4363 56.8179 57.1843 72.0699 38.4363 72.0699ZM65.3083 11.2019C58.1283 4.02195 48.5883 0.0699463 38.4363 0.0699463C28.2843 0.0699463 18.7403 4.02195 11.5643 11.2019C4.38828 18.3819 0.436279 27.9219 0.436279 38.0739C0.436279 48.2219 4.38428 57.7659 11.5643 64.9419C18.7443 72.1179 28.2843 76.0699 38.4363 76.0699C48.5883 76.0699 58.1323 72.1179 65.3083 64.9419C72.4843 57.7659 76.4363 48.2259 76.4363 38.0739C76.4363 27.9219 72.4883 18.3819 65.3083 11.2019V11.2019Z" fill="#0B0B09"/>
</svg>
