<svg width="76" height="76" viewBox="0 0 76 76" fill="none" xmlns="http://www.w3.org/2000/svg">
<path fill-rule="evenodd" clip-rule="evenodd" d="M37.9993 51.9723C30.2953 51.9723 24.0273 45.7043 24.0273 38.0003C24.0273 30.2963 30.2953 24.0283 37.9993 24.0283C45.7033 24.0283 51.9713 30.2963 51.9713 38.0003C51.9713 45.7043 45.7033 51.9723 37.9993 51.9723ZM37.9993 20.0283C28.0873 20.0283 20.0273 28.0883 20.0273 38.0003C20.0273 47.9123 28.0913 55.9723 37.9993 55.9723C47.9113 55.9723 55.9713 47.9123 55.9713 38.0003C55.9713 28.0883 47.9113 20.0283 37.9993 20.0283V20.0283Z" fill="#F2F2F2"/>
<path fill-rule="evenodd" clip-rule="evenodd" d="M38 16C39.104 16 40 15.104 40 14V2C40 0.896 39.104 0 38 0C36.896 0 36 0.896 36 2V14C36 15.104 36.896 16 38 16" fill="#F2F2F2"/>
<path fill-rule="evenodd" clip-rule="evenodd" d="M38 60C36.896 60 36 60.896 36 62V74C36 75.104 36.896 76 38 76C39.104 76 40 75.104 40 74V62C40 60.896 39.104 60 38 60" fill="#F2F2F2"/>
<path fill-rule="evenodd" clip-rule="evenodd" d="M16 38C16 36.896 15.104 36 14 36H2C0.896 36 0 36.896 0 38C0 39.104 0.896 40 2 40H14C15.104 40 16 39.104 16 38" fill="#F2F2F2"/>
<path fill-rule="evenodd" clip-rule="evenodd" d="M74 36H62C60.896 36 60 36.896 60 38C60 39.104 60.896 40 62 40H74C75.104 40 76 39.104 76 38C76 36.896 75.104 36 74 36" fill="#F2F2F2"/>
<path fill-rule="evenodd" clip-rule="evenodd" d="M11.413 8.58793C10.633 7.80793 9.365 7.80793 8.585 8.58793C7.805 9.36793 7.805 10.6359 8.585 11.4159L16.585 19.4159C16.977 19.8039 17.489 19.9959 17.997 19.9999C18.509 19.9959 19.021 19.8079 19.413 19.4159C20.193 18.6359 20.193 17.3679 19.413 16.5879L11.413 8.58793" fill="#F2F2F2"/>
<path fill-rule="evenodd" clip-rule="evenodd" d="M16.585 56.5879L8.585 64.5879C7.805 65.3679 7.805 66.6359 8.585 67.4159C8.977 67.8039 9.489 67.9959 9.997 67.9999C10.509 67.9959 11.021 67.8079 11.413 67.4159L19.413 59.4159C20.193 58.6359 20.193 57.3679 19.413 56.5879C18.633 55.8079 17.365 55.8079 16.585 56.5879" fill="#F2F2F2"/>
<path fill-rule="evenodd" clip-rule="evenodd" d="M59.413 56.5879C58.633 55.8079 57.365 55.8079 56.585 56.5879C55.805 57.3679 55.805 58.6359 56.585 59.4159L64.585 67.4159C64.977 67.8039 65.489 67.9959 65.997 67.9999C66.509 67.9959 67.021 67.8079 67.413 67.4159C68.193 66.6359 68.193 65.3679 67.413 64.5879L59.413 56.5879" fill="#F2F2F2"/>
<path fill-rule="evenodd" clip-rule="evenodd" d="M57.997 19.9999C58.509 19.9959 59.021 19.8079 59.413 19.4159L67.413 11.4159C68.193 10.6359 68.193 9.36793 67.413 8.58793C66.633 7.80793 65.365 7.80793 64.585 8.58793L56.585 16.5879C55.805 17.3679 55.805 18.6359 56.585 19.4159C56.977 19.8039 57.489 19.9959 57.997 19.9999" fill="#F2F2F2"/>
</svg>
