<svg width="100" height="100" viewBox="0 0 100 100" fill="none" xmlns="http://www.w3.org/2000/svg">
<path fill-rule="evenodd" clip-rule="evenodd" d="M19.9039 5.0001C18.564 5.0251 14.9591 6.66502 11.0393 10.2748C7.31952 13.7047 5.00463 17.4295 5.00463 19.9994C5.00463 53.6427 46.3226 94.9956 79.9309 94.9956C82.4958 94.9956 86.2206 92.6707 89.6504 88.9309C93.2652 84.9911 94.9051 81.3713 94.9301 80.0264C94.7701 79.0764 92.1403 75.3816 84.9456 69.8419C78.7609 65.0821 73.7462 62.5272 72.4563 62.4972C72.3663 62.5222 71.8063 62.7372 70.6714 64.1771C69.6864 65.4321 68.6315 67.147 67.6065 68.8069C64.8066 73.3617 62.1618 77.6665 58.317 77.6665C57.697 77.6665 57.087 77.5465 56.5021 77.3115C43.3777 72.0617 27.8585 56.5425 22.6088 43.4182C21.9788 41.8433 21.8788 39.3734 24.9786 36.5635C26.6286 35.0686 28.9084 33.6687 31.1183 32.3087C32.7782 31.2888 34.4982 30.2338 35.7481 29.2439C37.188 28.1089 37.403 27.549 37.428 27.459C37.393 26.169 34.8431 21.1543 30.0834 14.9696C24.5437 7.77496 20.8488 5.15009 19.8989 4.9851L19.9039 5.0001ZM79.931 99.995C71.0765 99.995 61.6569 97.4851 51.9324 92.5354C42.9679 87.9706 34.1133 81.4359 26.3237 73.6363C18.5341 65.8367 12.0094 56.9722 7.44963 48.0026C2.50987 38.2731 0 28.8536 0 19.999C0 14.2593 5.34973 8.71456 7.64462 6.59967C10.9495 3.55482 16.1492 0 19.929 0C21.8089 0 24.0088 1.22994 26.8637 3.86981C28.9886 5.83971 31.3834 8.50958 33.7783 11.5894C35.2232 13.4493 42.4279 22.9439 42.4279 27.4986C42.4279 31.2334 38.2031 33.8333 33.7333 36.5782C32.0034 37.6381 30.2185 38.7381 28.9286 39.773C27.5486 40.878 27.3036 41.4629 27.2636 41.5929C32.0084 53.4223 46.5127 67.9266 58.3371 72.6664C58.4421 72.6314 59.0271 72.4014 60.152 71.0015C61.1869 69.7115 62.2869 67.9216 63.3468 66.1967C66.0967 61.7269 68.6916 57.5021 72.4264 57.5021C76.9812 57.5021 86.4757 64.7068 88.3356 66.1517C91.4154 68.5466 94.0853 70.9415 96.0552 73.0664C98.6951 75.9162 99.925 78.1211 99.925 80.001C99.925 83.7808 96.3702 88.9956 93.3303 92.3154C91.2104 94.6253 85.6657 100 79.926 100L79.931 99.995V99.995Z" fill="#0ED8D2"/>
</svg>
