<svg id="Layer_1" data-name="Layer 1" xmlns="http://www.w3.org/2000/svg" xmlns:xlink="http://www.w3.org/1999/xlink" viewBox="0 0 40 28.62">
  <defs>
    <style>
      .cls-1 {
        fill: url(#linear-gradient);
      }

      .cls-2 {
        fill: url(#linear-gradient-2);
      }

      .cls-3 {
        fill: url(#linear-gradient-3);
      }

      .cls-4 {
        fill: url(#linear-gradient-4);
      }

      .cls-5 {
        fill: url(#linear-gradient-5);
      }
    </style>
    <linearGradient id="linear-gradient" x1="14.73" y1="33.19" x2="14.73" y2="19.79" gradientUnits="userSpaceOnUse">
      <stop offset="0" stop-color="#56f4f1"/>
      <stop offset="0.24" stop-color="#58d4f5"/>
      <stop offset="0.57" stop-color="#5bacfb"/>
      <stop offset="0.83" stop-color="#5d94fe"/>
      <stop offset="0.99" stop-color="#5e8bff"/>
    </linearGradient>
    <linearGradient id="linear-gradient-2" x1="22.39" y1="33.19" x2="22.39" y2="22.52" xlink:href="#linear-gradient"/>
    <linearGradient id="linear-gradient-3" x1="30.04" y1="33.19" x2="30.04" y2="17.34" xlink:href="#linear-gradient"/>
    <linearGradient id="linear-gradient-4" x1="37.7" y1="33.19" x2="37.7" y2="12.09" xlink:href="#linear-gradient"/>
    <linearGradient id="linear-gradient-5" x1="25" y1="39.31" x2="25" y2="10.69" xlink:href="#linear-gradient"/>
  </defs>
  <title>icon XCHANGE</title>
  <g>
    <path class="cls-1" d="M14.73,33.19a2.62,2.62,0,0,0,2.62-2.62V22.41a2.62,2.62,0,0,0-5.24,0v8.16A2.63,2.63,0,0,0,14.73,33.19ZM13.26,22.41a1.48,1.48,0,1,1,3,0v8.16a1.48,1.48,0,1,1-3,0Z" transform="translate(-5 -10.69)"/>
    <path class="cls-2" d="M22.39,33.19A2.63,2.63,0,0,0,25,30.57V25.14a2.62,2.62,0,0,0-5.24,0v5.43A2.62,2.62,0,0,0,22.39,33.19Zm-1.48-8a1.48,1.48,0,1,1,2.95,0v5.43a1.48,1.48,0,1,1-2.95,0Z" transform="translate(-5 -10.69)"/>
    <path class="cls-3" d="M30,33.19a2.62,2.62,0,0,0,2.62-2.62V20a2.62,2.62,0,1,0-5.23,0V30.57A2.62,2.62,0,0,0,30,33.19ZM28.57,20a1.48,1.48,0,1,1,2.95,0V30.57a1.48,1.48,0,1,1-2.95,0Z" transform="translate(-5 -10.69)"/>
    <path class="cls-4" d="M37.7,33.19a2.63,2.63,0,0,0,2.62-2.62V14.7a2.62,2.62,0,0,0-5.24,0V30.57A2.63,2.63,0,0,0,37.7,33.19ZM36.22,14.7a1.48,1.48,0,0,1,3,0V30.57a1.48,1.48,0,1,1-3,0Z" transform="translate(-5 -10.69)"/>
    <path class="cls-5" d="M44.43,34.59H9.78V11.26a.58.58,0,0,0-1.15,0V34.59H5.57a.57.57,0,0,0-.57.57.58.58,0,0,0,.57.57H8.63v3a.58.58,0,0,0,1.15,0v-3H44.43a.58.58,0,0,0,.57-.57A.57.57,0,0,0,44.43,34.59Z" transform="translate(-5 -10.69)"/>
  </g>
</svg>
