<?xml version="1.0" encoding="UTF-8"?>
<svg width="30px" height="20px" viewBox="0 0 30 20" version="1.1" xmlns="http://www.w3.org/2000/svg" xmlns:xlink="http://www.w3.org/1999/xlink">
    <!-- Generator: Sketch 49 (51002) - http://www.bohemiancoding.com/sketch -->
    <title>icon-open-orders</title>
    <desc>Created with Sketch.</desc>
    <defs></defs>
    <g id="Page-1" stroke="none" stroke-width="1" fill="none" fill-rule="evenodd">
        <g id="icon-open-orders" fill="#A9AAAD" fill-rule="nonzero">
            <g id="Fill-227" transform="translate(5.000000, 16.000000)">
                <g id="path0_fill-link" transform="translate(0.970000, 0.420000)">
                    <path d="M23.1415,0 L0.7465,0 C0.334432,0 0,0.334432 0,0.7465 C0,1.15857 0.334432,1.493 0.7465,1.493 L23.1415,1.493 C23.5536,1.493 23.888,1.15857 23.888,0.7465 C23.888,0.334432 23.5536,0 23.1415,0 Z" id="path0_fill"></path>
                </g>
            </g>
            <g id="Fill-228" transform="translate(5.000000, 8.000000)">
                <g id="path0_fill-link" transform="translate(0.970000, 0.960000)">
                    <path d="M23.1415,0 L0.7465,0 C0.334432,0 0,0.334432 0,0.7465 C0,1.15857 0.334432,1.493 0.7465,1.493 L23.1415,1.493 C23.5536,1.493 23.888,1.15857 23.888,0.7465 C23.888,0.334432 23.5536,0 23.1415,0 Z" id="path0_fill"></path>
                </g>
            </g>
            <g id="Fill-229" transform="translate(5.000000, 1.000000)">
                <g id="path1_fill-link" transform="translate(0.970000, 0.490000)">
                    <path d="M0.7465,1.493 L23.1415,1.493 C23.5536,1.493 23.888,1.15857 23.888,0.7465 C23.888,0.334432 23.5536,0 23.1415,0 L0.7465,0 C0.334432,0 0,0.334432 0,0.7465 C0,1.15857 0.334432,1.493 0.7465,1.493 Z" id="path1_fill"></path>
                </g>
            </g>
            <g id="Fill-230">
                <g id="path2_fill-link">
                    <path d="M2.23942,2.98616 C1.82735,2.98616 1.49292,2.65173 1.49292,2.23966 C1.49292,1.8276 1.82735,1.49316 2.23942,1.49316 C2.65149,1.49316 2.98592,1.8276 2.98592,2.23966 C2.98592,2.65173 2.65149,2.98616 2.23942,2.98616 Z M2.2395,0 C1.00479,0 0,1.00479 0,2.2395 C0,3.47421 1.00479,4.479 2.2395,4.479 C3.47421,4.479 4.479,3.47421 4.479,2.2395 C4.479,1.00479 3.47421,0 2.2395,0 Z" id="path2_fill"></path>
                </g>
            </g>
            <g id="Fill-231" transform="translate(0.000000, 7.000000)">
                <g id="path2_fill-link" transform="translate(0.000000, 0.460000)">
                    <path d="M2.23942,2.98616 C1.82735,2.98616 1.49292,2.65173 1.49292,2.23966 C1.49292,1.8276 1.82735,1.49316 2.23942,1.49316 C2.65149,1.49316 2.98592,1.8276 2.98592,2.23966 C2.98592,2.65173 2.65149,2.98616 2.23942,2.98616 Z M2.2395,0 C1.00479,0 0,1.00479 0,2.2395 C0,3.47421 1.00479,4.479 2.2395,4.479 C3.47421,4.479 4.479,3.47421 4.479,2.2395 C4.479,1.00479 3.47421,0 2.2395,0 Z" id="path2_fill"></path>
                </g>
            </g>
            <g id="Fill-232" transform="translate(0.000000, 14.000000)">
                <g id="path3_fill-link" transform="translate(0.000000, 0.930000)">
                    <path d="M2.23942,2.98568 C1.82735,2.98568 1.49292,2.65124 1.49292,2.23918 C1.49292,1.82711 1.82735,1.49268 2.23942,1.49268 C2.65149,1.49268 2.98592,1.82711 2.98592,2.23918 C2.98592,2.65124 2.65149,2.98568 2.23942,2.98568 Z M2.2395,0 C1.00479,0 0,1.00479 0,2.2395 C0,3.47421 1.00479,4.479 2.2395,4.479 C3.47421,4.479 4.479,3.47421 4.479,2.2395 C4.479,1.00479 3.47421,0 2.2395,0 Z" id="path3_fill"></path>
                </g>
            </g>
        </g>
    </g>
</svg>