<svg width="80" height="80" viewBox="0 0 80 80" fill="none" xmlns="http://www.w3.org/2000/svg">
<path fill-rule="evenodd" clip-rule="evenodd" d="M24 80C37.2548 80 48 69.2548 48 56C48 42.7452 37.2548 32 24 32C10.7452 32 0 42.7452 0 56C0 69.2548 10.7452 80 24 80ZM24 76C35.0457 76 44 67.0457 44 56C44 44.9543 35.0457 36 24 36C12.9543 36 4.00002 44.9543 4.00002 56C4.00002 67.0457 12.9543 76 24 76Z" fill="#5E8BFF"/>
<path fill-rule="evenodd" clip-rule="evenodd" d="M45.9989 73.3237C45.1555 74.3934 44.2356 75.4 43.2477 76.3354C46.9423 78.6572 51.3143 80 56 80C69.2549 80 80 69.2548 80 56C80 42.7452 69.2549 32 56 32C51.3143 32 46.9423 33.3428 43.2477 35.6646C44.2356 36.6 45.1555 37.6066 45.9989 38.6763C48.9409 36.9742 52.3567 36 56 36C67.0457 36 76 44.9543 76 56C76 67.0457 67.0457 76 56 76C52.3567 76 48.9409 75.0258 45.9989 73.3237Z" fill="#5E8BFF"/>
<path fill-rule="evenodd" clip-rule="evenodd" d="M17.473 28.7648C18.7579 28.458 20.0773 28.2397 21.4242 28.1169C21.1462 26.7883 21 25.4112 21 24C21 12.9543 29.9543 4 41 4C52.0457 4 61 12.9543 61 24C61 25.4987 60.8352 26.9588 60.5226 28.3634C61.8542 28.5796 63.1543 28.8898 64.4158 29.2868C64.7982 27.5858 65 25.8165 65 24C65 10.7452 54.2548 0 41 0C27.7452 0 17 10.7452 17 24C17 25.6314 17.1628 27.2248 17.473 28.7648Z" fill="#5E8BFF"/>
</svg>
