<?xml version="1.0" encoding="UTF-8"?>
<svg width="23px" height="29px" viewBox="0 0 23 29" version="1.1" xmlns="http://www.w3.org/2000/svg" xmlns:xlink="http://www.w3.org/1999/xlink">
    <!-- Generator: Sketch 49 (51002) - http://www.bohemiancoding.com/sketch -->
    <title>icon-order-books</title>
    <desc>Created with Sketch.</desc>
    <defs></defs>
    <g id="Page-1" stroke="none" stroke-width="1" fill="none" fill-rule="evenodd">
        <g id="icon-order-books" fill="#A9ADAA" fill-rule="nonzero">
            <g id="Fill-12" transform="translate(3.000000, 24.000000)">
                <g id="path0_fill-link" transform="translate(0.070000, 0.420000)">
                    <path d="M0.766667,-1.1412e-06 C0.343467,-1.1412e-06 -2.9246e-09,0.341894 -2.9246e-09,0.763157 C-2.9246e-09,1.18442 0.343467,1.52631 0.766667,1.52631 L16.1,1.52631 C16.5232,1.52631 16.8667,1.18442 16.8667,0.763157 C16.8667,0.341894 16.5232,-1.1412e-06 16.1,-1.1412e-06 L0.766667,-1.1412e-06 Z" id="path0_fill"></path>
                </g>
            </g>
            <g id="Fill-13">
                <g id="path1_fill-link">
                    <path d="M1.53333,2.28947 C1.53333,1.86821 1.8768,1.52632 2.3,1.52632 L17.6333,1.52632 C18.0565,1.52632 18.4,1.86821 18.4,2.28947 L18.4,20.6053 C18.4,21.0265 18.0565,21.3684 17.6333,21.3684 L3.83333,21.3684 C2.9716,21.3684 2.17427,21.6538 1.53333,22.1331 L1.53333,2.28947 Z M22.2333,3.05263 C21.8101,3.05263 21.4667,3.39453 21.4667,3.81579 L21.4667,26.7105 C21.4667,27.1318 21.1232,27.4737 20.7,27.4737 L3.83333,27.4737 C2.56527,27.4737 1.53333,26.4465 1.53333,25.1842 C1.53333,23.9219 2.56527,22.8947 3.83333,22.8947 L17.6333,22.8947 C18.9014,22.8947 19.9333,21.8675 19.9333,20.6053 L19.9333,2.28947 C19.9333,1.02721 18.9014,0 17.6333,0 L2.3,0 C1.03193,0 0,1.02721 0,2.28947 L0,25.1842 C0,27.2875 1.7204,29 3.83333,29 L20.7,29 C21.9681,29 23,27.9728 23,26.7105 L23,3.81579 C23,3.39453 22.6565,3.05263 22.2333,3.05263 Z" id="path1_fill"></path>
                </g>
            </g>
        </g>
    </g>
</svg>