<?xml version="1.0" encoding="UTF-8"?>
<svg width="29px" height="29px" viewBox="0 0 29 29" version="1.1" xmlns="http://www.w3.org/2000/svg" xmlns:xlink="http://www.w3.org/1999/xlink">
    <!-- Generator: Sketch 49 (51002) - http://www.bohemiancoding.com/sketch -->
    <title>icon-market-trades</title>
    <desc>Created with Sketch.</desc>
    <defs></defs>
    <g id="Page-1" stroke="none" stroke-width="1" fill="none" fill-rule="evenodd">
        <g id="icon-market-trades" fill="#A9AAAD" fill-rule="nonzero">
            <g id="Fill-54">
                <g id="path0_fill-link">
                    <path d="M27.4737,26.7106 C27.4737,27.1318 27.1318,27.4737 26.7106,27.4737 L2.28953,27.4737 C1.86826,27.4737 1.52637,27.1318 1.52637,26.7106 L1.52637,2.28953 C1.52637,1.86826 1.86826,1.52637 2.28953,1.52637 L26.7106,1.52637 C27.1318,1.52637 27.4737,1.86826 27.4737,2.28953 L27.4737,26.7106 Z M26.7105,0 L2.28947,0 C1.02721,0 0,1.02721 0,2.28947 L0,26.7105 C0,27.9743 1.02721,29 2.28947,29 L26.7105,29 C27.9728,29 29,27.9743 29,26.7105 L29,2.28947 C29,1.02721 27.9728,0 26.7105,0 Z" id="path0_fill"></path>
                </g>
            </g>
            <g id="Fill-55" transform="translate(6.000000, 9.000000)">
                <g id="path1_fill-link" transform="translate(0.110000, 0.160000)">
                    <path d="M1.52637,13.7369 L3.05268,13.7369 L3.05268,1.52637 L1.52637,1.52637 L1.52637,13.7369 Z M3.81579,0 L0.763158,0 C0.341895,0 0,0.341895 0,0.763158 L0,14.5 C0,14.9213 0.341895,15.2632 0.763158,15.2632 L3.81579,15.2632 C4.23705,15.2632 4.57895,14.9213 4.57895,14.5 L4.57895,0.763158 C4.57895,0.341895 4.23705,0 3.81579,0 Z" id="path1_fill"></path>
                </g>
            </g>
            <g id="Fill-56" transform="translate(12.000000, 4.000000)">
                <g id="path2_fill-link" transform="translate(0.210000, 0.580000)">
                    <path d="M1.52637,18.3158 L3.05268,18.3158 L3.05268,1.52637 L1.52637,1.52637 L1.52637,18.3158 Z M3.81579,0 L0.763158,0 C0.341895,0 0,0.341895 0,0.763158 L0,19.0789 C0,19.5002 0.341895,19.8421 0.763158,19.8421 L3.81579,19.8421 C4.23705,19.8421 4.57895,19.5002 4.57895,19.0789 L4.57895,0.763158 C4.57895,0.341895 4.23705,0 3.81579,0 Z" id="path2_fill"></path>
                </g>
            </g>
            <g id="Fill-57" transform="translate(18.000000, 15.000000)">
                <g id="path3_fill-link" transform="translate(0.320000, 0.260000)">
                    <path d="M1.52637,7.63163 L3.05268,7.63163 L3.05268,1.52637 L1.52637,1.52637 L1.52637,7.63163 Z M3.81579,0 L0.763158,0 C0.341895,0 0,0.341895 0,0.763158 L0,8.39474 C0,8.816 0.341895,9.1579 0.763158,9.1579 L3.81579,9.1579 C4.23705,9.1579 4.57895,8.816 4.57895,8.39474 L4.57895,0.763158 C4.57895,0.341895 4.23705,0 3.81579,0 Z" id="path3_fill"></path>
                </g>
            </g>
        </g>
    </g>
</svg>