<svg width="79" height="81" viewBox="0 0 79 81" fill="none" xmlns="http://www.w3.org/2000/svg">
<path fill-rule="evenodd" clip-rule="evenodd" d="M5.5587 41.4145C6.16267 42.6304 6.77464 43.0704 7.03863 43.0704C8.14257 43.0704 9.03853 43.9663 9.03853 45.0703C9.03853 46.1742 8.14257 47.0702 7.03863 47.0702L6.57066 47.3822C6.30667 47.8502 6.15468 48.6621 6.15468 49.6141C6.15468 51.394 6.65865 53.5099 7.46661 55.1418C8.25857 56.7377 9.06253 57.3177 9.41451 57.3177C10.5185 57.3177 11.4144 58.2136 11.4144 59.3176C11.4144 60.0255 11.0464 60.6495 10.4905 61.0055C10.3665 62.2734 10.9584 65.6653 12.4944 67.8771C13.0743 68.7131 13.6863 69.1931 14.1663 69.1931C15.2702 69.1931 16.1662 70.089 16.1662 71.193C16.1662 74.7128 20.054 76.3167 23.6658 76.3167C33.7173 76.3167 36.5332 74.8128 39.793 73.0689C42.8408 71.441 46.2647 69.6091 54.9162 68.5331V35.7868C46.5127 33.0309 38.3091 28.2791 31.6694 22.2954C25.2977 16.5517 21.1139 10.344 19.694 4.59232C18.6061 4.9403 17.3781 5.67626 16.5902 7.06419C15.2542 9.42407 14.2543 15.4478 22.5619 29.2911C22.9338 29.9071 22.9418 30.679 22.5859 31.307C22.2299 31.9349 21.5659 32.3229 20.8459 32.3229H6.91464C6.11868 32.3229 5.6067 32.6029 5.19472 33.2589C4.72675 34.0068 4.47076 35.1668 4.47076 36.5187C4.47076 38.2146 4.87874 40.0465 5.5587 41.4185V41.4145ZM60.912 72.3165H72.9114C74.0154 72.3165 74.9113 71.4205 74.9113 70.3166V34.3184C74.9113 33.2144 74.0154 32.3185 72.9114 32.3185H60.912C59.8081 32.3185 58.9121 33.2144 58.9121 34.3184V70.3166C58.9121 71.4205 59.8081 72.3165 60.912 72.3165ZM3.25111 45.1498C1.47919 43.1059 0.471246 39.7301 0.471246 36.5143C0.471246 34.3904 0.931224 32.5305 1.80318 31.1345C2.93912 29.3186 4.75503 28.3187 6.91492 28.3187H17.3864C11.6867 17.9552 10.2468 10.1476 13.1066 5.09183C15.1025 1.56801 18.7583 0.320068 21.2862 0.320068C22.2862 0.320068 23.1341 1.06003 23.2661 2.05198C23.9821 7.32772 28.0179 13.6234 34.3375 19.3231C40.3932 24.7828 47.8329 29.1466 55.4805 31.7625C56.4444 29.7306 58.5123 28.3227 60.9042 28.3227H72.9036C76.2115 28.3227 78.9033 31.0145 78.9033 34.3224V70.3206C78.9033 73.6284 76.2115 76.3203 72.9036 76.3203H60.9042C58.3683 76.3203 56.2005 74.7404 55.3205 72.5125C47.4769 73.4964 44.525 75.0723 41.6652 76.6003C38.0854 78.5122 34.7095 80.3201 23.6541 80.3201C20.7742 80.3201 18.0624 79.5681 16.0145 78.2042C14.0146 76.8722 12.7346 75.0003 12.3106 72.8324C10.7147 72.1845 9.2988 70.6886 8.21485 68.4647C7.15891 66.3008 6.47494 63.5369 6.47494 61.421C6.47494 61.025 6.49894 60.6611 6.54294 60.3251C5.53099 59.5811 4.62304 58.4332 3.87507 56.9212C2.79513 54.7413 2.14716 52.0095 2.14716 49.6176C2.14716 47.9217 2.46315 46.5098 3.08311 45.4138L3.23911 45.1538L3.25111 45.1498V45.1498Z" fill="#F2F2F2"/>
</svg>
