<?xml version="1.0" encoding="UTF-8"?>
<svg width="24px" height="20px" viewBox="0 0 24 20" version="1.1" xmlns="http://www.w3.org/2000/svg" xmlns:xlink="http://www.w3.org/1999/xlink">
    <!-- Generator: Sketch 46.2 (44496) - http://www.bohemiancoding.com/sketch -->
    <title>icon-diamond</title>
    <desc>Created with Sketch.</desc>
    <defs></defs>
    <g id="Page-1" stroke="none" stroke-width="1" fill="none" fill-rule="evenodd">
        <g id="icon-diamond" fill-rule="nonzero" fill="#A9AAAD">
            <path d="M13.5669,16.5672 L17.286,6.33902 L17.286,6.33777 L21.9355,7.26818 L13.5669,16.5672 Z M11.8799,17.5452 L7.77058,6.24398 L15.9892,6.24398 L11.8799,17.5452 Z M1.82423,7.26693 L6.47377,6.33652 L6.47377,6.33777 L10.1929,16.566 L1.82423,7.26693 Z M4.34658,2.94879 L5.83974,5.18852 L2.10685,5.9351 L4.34658,2.94879 Z M10.0578,1.55443 L6.97523,4.63703 L5.43331,2.32477 L10.0578,1.55443 Z M11.8799,1.50066 L15.3727,4.99343 L8.3871,4.99343 L11.8799,1.50066 Z M13.7019,1.55443 L18.3265,2.32477 L16.7845,4.63703 L13.7007,1.55443 L13.7019,1.55443 Z M21.6529,5.9351 L17.92,5.18852 L19.4132,2.94879 L21.6529,5.9351 Z M23.635,6.49409 L19.8834,1.4919 C19.7871,1.3631 19.6445,1.27681 19.4857,1.25055 L11.9824,2.98154035e-09 L11.7773,2.98154035e-09 L4.27405,1.25055 C4.11523,1.27681 3.97267,1.3631 3.87638,1.4919 L0.124738,6.49409 C-0.0540907,6.73295 -0.0390841,7.06559 0.159753,7.28694 L11.4147,19.7924 C11.5335,19.9237 11.7023,20 11.8799,20 C12.0575,20 12.2263,19.925 12.3451,19.7924 L23.6,7.28694 C23.8001,7.06434 23.8151,6.73295 23.635,6.49409 Z" id="path0_fill"></path>
        </g>
    </g>
</svg>