<svg width="120" height="108" viewBox="0 0 120 108" fill="none" xmlns="http://www.w3.org/2000/svg">
<path fill-rule="evenodd" clip-rule="evenodd" d="M8.56055 101.472L60.0015 10.0215L111.443 101.472H8.56055ZM119.596 103.076L62.7548 2.02553C62.1927 1.02766 61.1443 0.415039 60.0012 0.415039C58.858 0.415039 57.8096 1.03397 57.2475 2.02553L0.406654 103.076C-0.142808 104.055 -0.136492 105.249 0.431916 106.221C1.00033 107.194 2.03609 107.787 3.16028 107.787H116.842C117.966 107.787 119.008 107.194 119.57 106.221C120.133 105.249 120.145 104.055 119.596 103.076V103.076Z" fill="#E55541"/>
<path fill-rule="evenodd" clip-rule="evenodd" d="M56.8428 41.4733V73.0515C56.8428 74.7946 58.2575 76.2093 60.0006 76.2093C61.7437 76.2093 63.1584 74.7946 63.1584 73.0515V41.4733C63.1584 39.7301 61.7437 38.3154 60.0006 38.3154C58.2575 38.3154 56.8428 39.7301 56.8428 41.4733" fill="#E55541"/>
<path fill-rule="evenodd" clip-rule="evenodd" d="M60.0006 82.5244C58.2575 82.5244 56.8428 83.9391 56.8428 85.6822V91.9979C56.8428 93.741 58.2575 95.1557 60.0006 95.1557C61.7437 95.1557 63.1584 93.741 63.1584 91.9979V85.6822C63.1584 83.9391 61.7437 82.5244 60.0006 82.5244" fill="#E55541"/>
</svg>
