<svg width="95" height="55" viewBox="0 0 95 55" fill="none" xmlns="http://www.w3.org/2000/svg">
<path fill-rule="evenodd" clip-rule="evenodd" d="M90 47.5C90 48.88 88.88 50 87.5 50H7.5C6.12 50 5 48.88 5 47.5V7.5C5 6.12 6.12 5 7.5 5H87.5C88.88 5 90 6.12 90 7.5V47.5ZM87.5 0H7.5C3.365 0 0 3.365 0 7.5V47.5C0 51.635 3.365 55 7.5 55H87.5C91.635 55 95 51.635 95 47.5V7.5C95 3.365 91.635 0 87.5 0V0Z" fill="#0B0B09"/>
<path fill-rule="evenodd" clip-rule="evenodd" d="M12.5 15H17.5C18.88 15 20 13.88 20 12.5C20 11.12 18.88 10 17.5 10H12.5C11.12 10 10 11.12 10 12.5C10 13.88 11.12 15 12.5 15" fill="#0B0B09"/>
<path fill-rule="evenodd" clip-rule="evenodd" d="M82.5 10H77.5C76.12 10 75 11.12 75 12.5C75 13.88 76.12 15 77.5 15H82.5C83.88 15 85 13.88 85 12.5C85 11.12 83.88 10 82.5 10" fill="#0B0B09"/>
<path fill-rule="evenodd" clip-rule="evenodd" d="M12.5 25H22.5C23.88 25 25 23.88 25 22.5C25 21.12 23.88 20 22.5 20H12.5C11.12 20 10 21.12 10 22.5C10 23.88 11.12 25 12.5 25" fill="#0B0B09"/>
<path fill-rule="evenodd" clip-rule="evenodd" d="M17.5 40H12.5C11.12 40 10 41.12 10 42.5C10 43.88 11.12 45 12.5 45H17.5C18.88 45 20 43.88 20 42.5C20 41.12 18.88 40 17.5 40" fill="#0B0B09"/>
<path fill-rule="evenodd" clip-rule="evenodd" d="M57.5 40H27.5C26.12 40 25 41.12 25 42.5C25 43.88 26.12 45 27.5 45H57.5C58.88 45 60 43.88 60 42.5C60 41.12 58.88 40 57.5 40" fill="#0B0B09"/>
<path fill-rule="evenodd" clip-rule="evenodd" d="M72.5 40H67.5C66.12 40 65 41.12 65 42.5C65 43.88 66.12 45 67.5 45H72.5C73.88 45 75 43.88 75 42.5C75 41.12 73.88 40 72.5 40" fill="#0B0B09"/>
<path fill-rule="evenodd" clip-rule="evenodd" d="M82.5 20C81.12 20 80 21.12 80 22.5V30H67.5C66.12 30 65 31.12 65 32.5C65 33.88 66.12 35 67.5 35H82.5C83.88 35 85 33.88 85 32.5V22.5C85 21.12 83.88 20 82.5 20" fill="#0B0B09"/>
<path fill-rule="evenodd" clip-rule="evenodd" d="M12.5 35H27.5C28.88 35 30 33.88 30 32.5C30 31.12 28.88 30 27.5 30H12.5C11.12 30 10 31.12 10 32.5C10 33.88 11.12 35 12.5 35" fill="#0B0B09"/>
<path fill-rule="evenodd" clip-rule="evenodd" d="M27.5 15C28.88 15 30 13.88 30 12.5C30 11.12 28.88 10 27.5 10C26.12 10 25 11.12 25 12.5C25 13.88 26.12 15 27.5 15" fill="#0B0B09"/>
<path fill-rule="evenodd" clip-rule="evenodd" d="M37.5 15C38.88 15 40 13.88 40 12.5C40 11.12 38.88 10 37.5 10C36.12 10 35 11.12 35 12.5C35 13.88 36.12 15 37.5 15" fill="#0B0B09"/>
<path fill-rule="evenodd" clip-rule="evenodd" d="M47.5 15C48.88 15 50 13.88 50 12.5C50 11.12 48.88 10 47.5 10C46.12 10 45 11.12 45 12.5C45 13.88 46.12 15 47.5 15" fill="#0B0B09"/>
<path fill-rule="evenodd" clip-rule="evenodd" d="M57.5 15C58.88 15 60 13.88 60 12.5C60 11.12 58.88 10 57.5 10C56.12 10 55 11.12 55 12.5C55 13.88 56.12 15 57.5 15" fill="#0B0B09"/>
<path fill-rule="evenodd" clip-rule="evenodd" d="M67.5 15C68.88 15 70 13.88 70 12.5C70 11.12 68.88 10 67.5 10C66.12 10 65 11.12 65 12.5C65 13.88 66.12 15 67.5 15" fill="#0B0B09"/>
<path fill-rule="evenodd" clip-rule="evenodd" d="M32.5 25C33.88 25 35 23.88 35 22.5C35 21.12 33.88 20 32.5 20C31.12 20 30 21.12 30 22.5C30 23.88 31.12 25 32.5 25" fill="#0B0B09"/>
<path fill-rule="evenodd" clip-rule="evenodd" d="M42.5 25C43.88 25 45 23.88 45 22.5C45 21.12 43.88 20 42.5 20C41.12 20 40 21.12 40 22.5C40 23.88 41.12 25 42.5 25" fill="#0B0B09"/>
<path fill-rule="evenodd" clip-rule="evenodd" d="M52.5 25C53.88 25 55 23.88 55 22.5C55 21.12 53.88 20 52.5 20C51.12 20 50 21.12 50 22.5C50 23.88 51.12 25 52.5 25" fill="#0B0B09"/>
<path fill-rule="evenodd" clip-rule="evenodd" d="M62.5 20C61.12 20 60 21.12 60 22.5C60 23.88 61.12 25 62.5 25C63.88 25 65 23.88 65 22.5C65 21.12 63.88 20 62.5 20" fill="#0B0B09"/>
<path fill-rule="evenodd" clip-rule="evenodd" d="M72.5 25C73.88 25 75 23.88 75 22.5C75 21.12 73.88 20 72.5 20C71.12 20 70 21.12 70 22.5C70 23.88 71.12 25 72.5 25" fill="#0B0B09"/>
<path fill-rule="evenodd" clip-rule="evenodd" d="M37.5 30C36.12 30 35 31.12 35 32.5C35 33.88 36.12 35 37.5 35C38.88 35 40 33.88 40 32.5C40 31.12 38.88 30 37.5 30" fill="#0B0B09"/>
<path fill-rule="evenodd" clip-rule="evenodd" d="M47.5 30C46.12 30 45 31.12 45 32.5C45 33.88 46.12 35 47.5 35C48.88 35 50 33.88 50 32.5C50 31.12 48.88 30 47.5 30" fill="#0B0B09"/>
<path fill-rule="evenodd" clip-rule="evenodd" d="M57.5 30C56.12 30 55 31.12 55 32.5C55 33.88 56.12 35 57.5 35C58.88 35 60 33.88 60 32.5C60 31.12 58.88 30 57.5 30" fill="#0B0B09"/>
</svg>
