<svg width="80" height="80" viewBox="0 0 80 80" fill="none" xmlns="http://www.w3.org/2000/svg">
<circle cx="40" cy="40" r="40" fill="#13D6D0"/>
<path fill-rule="evenodd" clip-rule="evenodd" d="M2.33057 26.7959C2.33057 27.4395 2.85254 27.9609 3.49561 27.9609H22.1362C22.7793 27.9609 23.3013 27.4395 23.3013 26.7959V3.49512C23.3013 2.85156 22.7793 2.33008 22.1362 2.33008H3.49561C2.85254 2.33008 2.33057 2.85156 2.33057 3.49512V26.7959ZM37.2812 15.1445C37.2812 10.6475 33.623 6.98926 29.126 6.98926H25.6309V23.2998H25.6558V25.6309H25.6313V26.7959C25.6313 28.7227 24.063 30.291 22.1362 30.291H3.49512C1.56836 30.291 0 28.7227 0 26.7959V3.49512C0 1.56836 1.56836 0 3.49512 0H22.1362C24.063 0 25.6313 1.56836 25.6313 3.49512V4.66016H29.1265C34.9072 4.66016 39.6118 9.36426 39.6118 15.1455C39.6118 20.0547 36.2192 24.1875 31.6558 25.3223V22.8984C34.918 21.8311 37.2812 18.7588 37.2812 15.1445Z" transform="translate(24.8545 59.8057) rotate(-90)" fill="#363940"/>
</svg>
