<svg width="95" height="85" viewBox="0 0 95 85" fill="none" xmlns="http://www.w3.org/2000/svg">
<path fill-rule="evenodd" clip-rule="evenodd" d="M47.4956 5.00429C24.0634 5.00429 5.00063 19.5826 5.00063 37.5005C5.00063 46.5744 10.025 55.3084 18.779 61.4576C19.6389 62.0626 20.0289 63.1375 19.7589 64.1523C19.174 66.3321 17.1842 72.3164 11.8598 78.0907C18.3691 75.811 25.3782 71.8564 30.5526 68.2968C31.1676 67.8719 31.9375 67.7469 32.6574 67.9519C37.3968 69.3067 42.3912 69.9966 47.4956 69.9966C70.9279 69.9966 89.9906 55.4184 89.9906 37.5005C89.9906 19.5826 70.9279 5.00429 47.4956 5.00429ZM2.50059 84.995C1.37572 84.995 0.390835 84.2451 0.09087 83.1602C-0.209095 82.0753 0.250851 80.9255 1.21574 80.3505C9.66974 75.2811 13.1743 67.907 14.4192 64.4574C5.23027 57.4232 0.000880584 47.6894 0.000880584 37.5006C0.000880584 32.3562 1.29073 27.3718 3.84043 22.6823C6.27014 18.2129 9.73973 14.2083 14.1442 10.7787C23.0782 3.82955 34.9218 0 47.4953 0C60.0688 0 71.9124 3.82955 80.8464 10.7787C85.2509 14.2033 88.7204 18.2079 91.1502 22.6823C93.6999 27.3668 94.9897 32.3512 94.9897 37.5006C94.9897 42.65 93.6999 47.6294 91.1502 52.3188C88.7204 56.7883 85.2509 60.7928 80.8464 64.2224C71.9124 71.1716 60.0688 75.0012 47.4953 75.0012C42.3309 75.0012 37.2615 74.3562 32.4171 73.0764C30.2723 74.5062 26.2628 77.0409 21.4734 79.4257C14.0342 83.1252 7.65498 85 2.50559 85L2.50059 84.995V84.995Z" fill="#0ED8D2"/>
</svg>
