<svg width="75" height="90" viewBox="0 0 75 90" fill="none" xmlns="http://www.w3.org/2000/svg">
<path fill-rule="evenodd" clip-rule="evenodd" d="M0.597161 62.5896L24.9198 38.5877C25.7102 37.8077 26.9953 37.8077 27.7858 38.5877C28.5762 39.3678 28.5762 40.6359 27.7858 41.416L6.92509 62.0016H72.9731C74.0919 62.0016 75 62.8976 75 64.0017C75 65.1058 74.0919 66.0019 72.9731 66.0019H6.92509L27.7858 86.5875C28.5762 87.3675 28.5762 88.6356 27.7858 89.4157C27.3885 89.8077 26.8696 89.9997 26.3507 89.9997C25.8318 89.9997 25.313 89.8037 24.9157 89.4157L0.593107 65.4138C-0.197377 64.6338 -0.197377 63.3657 0.593107 62.5856L0.597161 62.5896" fill="#5E8BFF"/>
<path fill-rule="evenodd" clip-rule="evenodd" d="M74.4028 27.4102L50.0802 51.412C49.2897 52.1921 48.0047 52.1921 47.2142 51.412C46.4237 50.632 46.4237 49.3639 47.2142 48.5838L68.0748 27.9982L2.02685 27.9982C0.908007 27.9982 -3.33589e-05 27.1021 -3.33589e-05 25.998C-3.33589e-05 24.894 0.908007 23.9979 2.02685 23.9979L68.0748 23.9979L47.2142 3.41229C46.4237 2.63223 46.4237 1.36413 47.2142 0.584068C47.6114 0.192038 48.1303 2.28882e-05 48.6492 2.28882e-05C49.1681 2.28882e-05 49.687 0.196038 50.0842 0.584068L74.4068 24.5859C75.1973 25.366 75.1973 26.6341 74.4068 27.4142L74.4028 27.4102Z" fill="#5E8BFF"/>
</svg>
