<svg id="Layer_1" data-name="Layer 1" xmlns="http://www.w3.org/2000/svg" xmlns:xlink="http://www.w3.org/1999/xlink" viewBox="0 0 40 40">
  <defs>
    <style>
      .cls-1 {
        fill: url(#linear-gradient);
      }

      .cls-2 {
        fill: url(#linear-gradient-2);
      }
    </style>
    <linearGradient id="linear-gradient" x1="25" y1="45" x2="25" y2="5" gradientUnits="userSpaceOnUse">
      <stop offset="0.01" stop-color="#5e8bff"/>
      <stop offset="0.17" stop-color="#5d94fe"/>
      <stop offset="0.43" stop-color="#5bacfb"/>
      <stop offset="0.76" stop-color="#58d4f5"/>
      <stop offset="1" stop-color="#56f4f1"/>
    </linearGradient>
    <linearGradient id="linear-gradient-2" x1="25" y1="32.91" x2="25" y2="17.09" xlink:href="#linear-gradient"/>
  </defs>
  <title>icon settings</title>
  <g>
    <path class="cls-1" d="M43.24,20.85H41.45a.5.5,0,0,1-.48-.37,16.11,16.11,0,0,0-1.49-3.59.49.49,0,0,1,.09-.59L40.83,15a1.76,1.76,0,0,0,0-2.49L37.45,9.17a1.75,1.75,0,0,0-1.24-.52A1.79,1.79,0,0,0,35,9.17L33.7,10.43a.49.49,0,0,1-.59.09A16.11,16.11,0,0,0,29.52,9a.5.5,0,0,1-.37-.48V6.76A1.76,1.76,0,0,0,27.39,5H22.61a1.76,1.76,0,0,0-1.76,1.76V8.55a.5.5,0,0,1-.37.48,16.11,16.11,0,0,0-3.59,1.49.49.49,0,0,1-.59-.09L15,9.17a1.79,1.79,0,0,0-1.25-.52,1.75,1.75,0,0,0-1.24.52L9.17,12.55a1.76,1.76,0,0,0,0,2.49l1.26,1.26a.49.49,0,0,1,.09.59A16.11,16.11,0,0,0,9,20.48a.5.5,0,0,1-.48.37H6.76A1.76,1.76,0,0,0,5,22.61v4.78a1.76,1.76,0,0,0,1.76,1.76H8.55a.5.5,0,0,1,.48.37,16.11,16.11,0,0,0,1.49,3.59.49.49,0,0,1-.09.59L9.17,35a1.76,1.76,0,0,0,0,2.49l3.38,3.38a1.75,1.75,0,0,0,1.24.52A1.79,1.79,0,0,0,15,40.83l1.26-1.26a.49.49,0,0,1,.59-.09A16.11,16.11,0,0,0,20.48,41a.5.5,0,0,1,.37.48v1.79A1.76,1.76,0,0,0,22.61,45h4.78a1.76,1.76,0,0,0,1.76-1.76V41.45a.5.5,0,0,1,.37-.48,16.11,16.11,0,0,0,3.59-1.49.49.49,0,0,1,.59.09L35,40.83a1.79,1.79,0,0,0,1.25.52,1.75,1.75,0,0,0,1.24-.52l3.38-3.38a1.76,1.76,0,0,0,0-2.49L39.57,33.7a.49.49,0,0,1-.09-.59A16.11,16.11,0,0,0,41,29.52a.5.5,0,0,1,.48-.37h1.79A1.76,1.76,0,0,0,45,27.39V22.61A1.76,1.76,0,0,0,43.24,20.85Zm.27,6.54a.27.27,0,0,1-.27.27H41.45a2,2,0,0,0-1.91,1.45,15.14,15.14,0,0,1-1.36,3.28,2,2,0,0,0,.33,2.36L39.78,36a.26.26,0,0,1,0,.38L36.4,39.78a.27.27,0,0,1-.38,0l-1.27-1.27a2,2,0,0,0-2.36-.33,15.14,15.14,0,0,1-3.28,1.36,2,2,0,0,0-1.45,1.91v1.79a.27.27,0,0,1-.27.27H22.61a.27.27,0,0,1-.27-.27V41.45a2,2,0,0,0-1.45-1.91,15.14,15.14,0,0,1-3.28-1.36,2,2,0,0,0-2.36.33L14,39.78a.27.27,0,0,1-.38,0L10.22,36.4a.26.26,0,0,1,0-.38l1.27-1.27a2,2,0,0,0,.33-2.36,15.14,15.14,0,0,1-1.36-3.28,2,2,0,0,0-1.91-1.45H6.76a.27.27,0,0,1-.27-.27V22.61a.27.27,0,0,1,.27-.27H8.55a2,2,0,0,0,1.91-1.45,15.14,15.14,0,0,1,1.36-3.28,2,2,0,0,0-.33-2.36L10.22,14a.26.26,0,0,1,0-.38l3.38-3.38a.27.27,0,0,1,.38,0l1.27,1.27a2,2,0,0,0,2.36.33,15.14,15.14,0,0,1,3.28-1.36,2,2,0,0,0,1.45-1.91V6.76a.27.27,0,0,1,.27-.27h4.78a.27.27,0,0,1,.27.27V8.55a2,2,0,0,0,1.45,1.91,15.14,15.14,0,0,1,3.28,1.36,2,2,0,0,0,2.36-.33L36,10.22a.27.27,0,0,1,.38,0l3.38,3.38a.26.26,0,0,1,0,.38l-1.27,1.27a2,2,0,0,0-.33,2.36,15.14,15.14,0,0,1,1.36,3.28,2,2,0,0,0,1.91,1.45h1.79a.27.27,0,0,1,.27.27Z" transform="translate(-5 -5)"/>
    <path class="cls-2" d="M25,17.09A7.91,7.91,0,1,0,32.91,25,7.92,7.92,0,0,0,25,17.09Zm0,14.34A6.43,6.43,0,1,1,31.43,25,6.44,6.44,0,0,1,25,31.43Z" transform="translate(-5 -5)"/>
  </g>
</svg>
