<svg width="68" height="68" viewBox="0 0 68 68" fill="none" xmlns="http://www.w3.org/2000/svg">
<path fill-rule="evenodd" clip-rule="evenodd" d="M20 68C31.0457 68 40 59.0457 40 48C40 36.9543 31.0457 28 20 28C8.9543 28 0 36.9543 0 48C0 59.0457 8.9543 68 20 68ZM20 64C28.8366 64 36 56.8366 36 48C36 39.1634 28.8366 32 20 32C11.1634 32 4 39.1634 4 48C4 56.8366 11.1634 64 20 64Z" fill="#2A2C31"/>
<path fill-rule="evenodd" clip-rule="evenodd" d="M38.9992 61.2301C38.0969 62.2522 37.0918 63.1814 36 64.0015C39.3426 66.5122 43.4976 68 48 68C59.0457 68 68 59.0457 68 48C68 36.9543 59.0457 28 48 28C43.4976 28 39.3426 29.4878 36 31.9985C37.0918 32.8186 38.0969 33.7478 38.9992 34.7699C41.5635 33.0219 44.6624 32 48 32C56.8366 32 64 39.1634 64 48C64 56.8366 56.8366 64 48 64C44.6624 64 41.5635 62.9781 38.9992 61.2301Z" fill="#2A2C31"/>
<path fill-rule="evenodd" clip-rule="evenodd" d="M12.7273 25.3634C12.2533 23.6565 12 21.8579 12 20C12 8.9543 20.9543 0 32 0C43.0457 0 52 8.9543 52 20C52 21.4802 51.8392 22.9227 51.5341 24.3113C50.387 24.1067 49.206 24 48 24C47.8309 24 47.6624 24.0021 47.4943 24.0063C47.8244 22.7259 48 21.3835 48 20C48 11.1634 40.8366 4 32 4C23.1634 4 16 11.1634 16 20C16 21.4864 16.2027 22.9254 16.5819 24.2909C15.2471 24.5208 13.9576 24.8829 12.7273 25.3634Z" fill="#2A2C31"/>
</svg>
