<?xml version="1.0" encoding="UTF-8"?>
<svg width="20px" height="20px" viewBox="0 0 20 20" version="1.1" xmlns="http://www.w3.org/2000/svg" xmlns:xlink="http://www.w3.org/1999/xlink">
    <!-- Generator: Sketch 46.2 (44496) - http://www.bohemiancoding.com/sketch -->
    <title>icon-transfer</title>
    <desc>Created with Sketch.</desc>
    <defs></defs>
    <g id="Page-1" stroke="none" stroke-width="1" fill="none" fill-rule="evenodd">
        <g id="icon-transfer" fill-rule="nonzero" fill="#A9AAAD">
            <g id="Fill-497">
                <g id="path0_fill-link">
                    <path d="M10,18.9474 C5.06632,18.9474 1.05263,14.9337 1.05263,10 C1.05263,5.06632 5.06632,1.05263 10,1.05263 C14.9337,1.05263 18.9474,5.06632 18.9474,10 C18.9474,14.9337 14.9337,18.9474 10,18.9474 Z M17.0716,2.92842 C15.1821,1.04 12.6716,0 10,0 C7.32842,0 4.81684,1.04 2.92842,2.92842 C1.04,4.81684 0,7.32737 0,9.99895 C0,12.6705 1.03895,15.1821 2.92842,17.0705 C4.81789,18.9589 7.32842,19.9989 10,19.9989 C12.6716,19.9989 15.1832,18.96 17.0716,17.0705 C18.96,15.1811 20,12.6695 20,9.99895 C20,7.32842 18.9611,4.81684 17.0716,2.92842 Z" id="path0_fill"></path>
                </g>
            </g>
            <g id="Group-43" transform="translate(4.000000, 3.000000)">
                <g id="Fill-498">
                    <g id="path1_fill-link" transform="translate(0.210000, 0.680000)">
                        <path d="M9.09471,3.27451 L1.29324,3.27451 L3.67847,0.698626 C3.82627,0.538963 3.82627,0.279409 3.67847,0.119747 C3.53068,-0.0399156 3.29041,-0.0399156 3.14261,0.119747 L0.110849,3.39487 L0.110849,3.39405 C-0.0369496,3.55372 -0.0369496,3.81327 0.110849,3.97293 L3.14261,7.24806 C3.21613,7.3283 3.3139,7.36842 3.41016,7.36842 C3.50642,7.36842 3.60344,7.32912 3.67772,7.24888 C3.82551,7.08922 3.82551,6.82966 3.67772,6.67 L1.29324,4.09329 L9.09471,4.09329 C9.30391,4.09329 9.47368,3.90989 9.47368,3.6839 C9.47368,3.45792 9.30391,3.27451 9.09471,3.27451 Z" id="path1_fill"></path>
                    </g>
                </g>
                <g id="Fill-498-Copy" transform="translate(1.000000, 5.000000)">
                    <g id="path2_fill-link" transform="translate(5.790000, 4.950000) scale(-1, 1) translate(-5.790000, -4.950000) translate(0.790000, 0.950000)">
                        <path d="M9.09471,3.27451 L1.29324,3.27451 L3.67847,0.698626 C3.82627,0.538963 3.82627,0.279409 3.67847,0.119747 C3.53068,-0.0399156 3.29041,-0.0399156 3.14261,0.119747 L0.110849,3.39487 L0.110849,3.39405 C-0.0369495,3.55372 -0.0369495,3.81327 0.110849,3.97293 L3.14261,7.24806 C3.21613,7.3283 3.3139,7.36842 3.41016,7.36842 C3.50642,7.36842 3.60344,7.32912 3.67772,7.24888 C3.82551,7.08922 3.82551,6.82966 3.67772,6.67 L1.29324,4.09329 L9.09471,4.09329 C9.30391,4.09329 9.47368,3.90989 9.47368,3.6839 C9.47368,3.45792 9.30391,3.27451 9.09471,3.27451 Z" id="path2_fill"></path>
                    </g>
                </g>
            </g>
        </g>
    </g>
</svg>