<svg width="60" height="100" viewBox="0 0 60 100" fill="none" xmlns="http://www.w3.org/2000/svg">
<path fill-rule="evenodd" clip-rule="evenodd" d="M32.5 85H27.5C26.12 85 25 86.12 25 87.5C25 88.88 26.12 90 27.5 90H32.5C33.88 90 35 88.88 35 87.5C35 86.12 33.88 85 32.5 85" fill="#0ED8D2"/>
<path fill-rule="evenodd" clip-rule="evenodd" d="M55 92.5C55 93.88 53.88 95 52.5 95H7.5C6.12 95 5 93.88 5 92.5V7.5C5 6.12 6.12 5 7.5 5H52.5C53.88 5 55 6.12 55 7.5V92.5ZM52.5 0H7.5C3.365 0 0 3.365 0 7.5V92.5C0 96.635 3.365 100 7.5 100H52.5C56.635 100 60 96.635 60 92.5V7.5C60 3.365 56.635 0 52.5 0V0Z" fill="#0ED8D2"/>
<path fill-rule="evenodd" clip-rule="evenodd" d="M15 75H45V15H15V75ZM47.5 10H12.5C11.12 10 10 11.12 10 12.5V77.5C10 78.88 11.12 80 12.5 80H47.5C48.88 80 50 78.88 50 77.5V12.5C50 11.12 48.88 10 47.5 10V10Z" fill="#0ED8D2"/>
</svg>
