<svg id="Layer_1" data-name="Layer 1" xmlns="http://www.w3.org/2000/svg" xmlns:xlink="http://www.w3.org/1999/xlink" viewBox="0 0 32.63 40">
  <defs>
    <style>
      .cls-1 {
        fill: #56f4f1;
      }

      .cls-2 {
        fill: #5e8bff;
      }

      .cls-3 {
        fill: url(#linear-gradient);
      }
    </style>
    <linearGradient id="linear-gradient" x1="25" y1="40.29" x2="25" y2="8.32" gradientUnits="userSpaceOnUse">
      <stop offset="0" stop-color="#56f4f1"/>
      <stop offset="0.24" stop-color="#58d4f5"/>
      <stop offset="0.57" stop-color="#5bacfb"/>
      <stop offset="0.83" stop-color="#5d94fe"/>
      <stop offset="0.99" stop-color="#5e8bff"/>
    </linearGradient>
  </defs>
  <title>icon-notification</title>
  <path class="cls-1" d="M25,45a4.5,4.5,0,0,1-4.24-3,.69.69,0,0,1,.53-.9h0a.68.68,0,0,1,.77.43,3.13,3.13,0,0,0,5.88,0,.68.68,0,0,1,.77-.43h0a.69.69,0,0,1,.53.9A4.5,4.5,0,0,1,25,45Z" transform="translate(-8.69 -5)"/>
  <path class="cls-2" d="M27.28,8.07h0a.69.69,0,0,1-.66-.49,1.69,1.69,0,0,0-3.24,0,.69.69,0,0,1-.66.49h0a.68.68,0,0,1-.66-.88,3.07,3.07,0,0,1,5.88,0A.68.68,0,0,1,27.28,8.07Z" transform="translate(-8.69 -5)"/>
  <path class="cls-3" d="M38.33,40.29H11.67c-2.6,0-3-1.46-3-2.33h0a5.93,5.93,0,0,1,2.78-5,3.87,3.87,0,0,0,1.81-3.3v0l.12-1a28.86,28.86,0,0,0-.08-7,12.45,12.45,0,0,1-.09-1.5A11.78,11.78,0,0,1,24.42,8.34h1.16A11.78,11.78,0,0,1,36.77,20.1a12.45,12.45,0,0,1-.09,1.5,28.86,28.86,0,0,0-.08,7l0,.16c0,.34.08.73.1,1.12A3.9,3.9,0,0,0,38.53,33h0a5.93,5.93,0,0,1,2.78,5h0C41.31,38.83,40.93,40.29,38.33,40.29ZM14.66,29.69a5.27,5.27,0,0,1-2.45,4.43A4.55,4.55,0,0,0,10.06,38h0c0,.34,0,.95,1.61.95H38.33c1.61,0,1.61-.61,1.61-.95h0a4.55,4.55,0,0,0-2.15-3.83A5.29,5.29,0,0,1,35.35,30c0-.35-.06-.71-.1-1.05l0-.15a30,30,0,0,1,.08-7.33,11.87,11.87,0,0,0,.08-1.33A10.37,10.37,0,0,0,25.51,9.72h-.25a4.51,4.51,0,0,0-.52,0h-.25A10.37,10.37,0,0,0,14.61,20.1a11.87,11.87,0,0,0,.08,1.33,30.56,30.56,0,0,1,.08,7.33Z" transform="translate(-8.69 -5)"/>
</svg>
