<svg width="101" height="100" viewBox="0 0 101 100" fill="none" xmlns="http://www.w3.org/2000/svg">
<path fill-rule="evenodd" clip-rule="evenodd" d="M50.0623 94.7368C25.3939 94.7368 5.32544 74.6684 5.32544 50C5.32544 25.3316 25.3939 5.26316 50.0623 5.26316C74.7307 5.26316 94.7991 25.3316 94.7991 50C94.7991 74.6684 74.7307 94.7368 50.0623 94.7368ZM85.4202 14.6474C75.9728 5.2 63.4202 0 50.0623 0C36.7044 0 24.1465 5.2 14.7044 14.6474C5.26226 24.0947 0.0622559 36.6474 0.0622559 50.0053C0.0622559 63.3579 5.25699 75.9158 14.7044 85.3579C24.1517 94.8 36.7044 100 50.0623 100C63.4202 100 75.978 94.8 85.4202 85.3579C94.8623 75.9158 100.062 63.3632 100.062 50.0053C100.062 36.6474 94.8675 24.0947 85.4202 14.6474V14.6474Z" fill="#0B0B09"/>
<path fill-rule="evenodd" clip-rule="evenodd" d="M74.5097 29.7209L39.5308 64.6999L25.6044 50.7735C24.5781 49.7472 22.9097 49.7472 21.8834 50.7735C20.8571 51.7999 20.8571 53.4683 21.8834 54.4946L37.6729 70.2841C38.1834 70.7946 38.8571 71.0525 39.5308 71.0525C40.1992 71.0525 40.8729 70.7999 41.3886 70.2841L78.2308 33.442C79.2571 32.4156 79.2571 30.7472 78.2308 29.7209C77.2044 28.6946 75.536 28.6946 74.5097 29.7209" fill="#0B0B09"/>
</svg>
