<svg width="95" height="60" viewBox="0 0 95 60" fill="none" xmlns="http://www.w3.org/2000/svg">
<path fill-rule="evenodd" clip-rule="evenodd" d="M87.5 55.0004H7.5C6.12 55.0004 5 53.8804 5 52.5004V9.67041L41.955 34.3054C43.51 35.3404 45.505 35.8604 47.5 35.8604C49.495 35.8604 51.49 35.3404 53.045 34.3054L90 9.67041V52.5004C90 53.8804 88.88 55.0004 87.5 55.0004ZM87.5003 5L87.9353 5.04L50.2753 30.145C48.8253 31.11 46.1803 31.11 44.7303 30.145L7.07031 5.04L7.50531 5H87.5053H87.5003ZM87.5 0H7.5C3.365 0 0 3.365 0 7.5V52.5C0 56.635 3.365 60 7.5 60H87.5C91.635 60 95 56.635 95 52.5V7.5C95 3.365 91.635 0 87.5 0V0Z" fill="#0ED8D2"/>
</svg>
