<svg width="80" height="80" viewBox="0 0 80 80" fill="none" xmlns="http://www.w3.org/2000/svg">
<circle cx="40" cy="40" r="39" stroke="#07E8DB" stroke-width="2"/>
<path fill-rule="evenodd" clip-rule="evenodd" d="M27.9611 36.1164C27.9611 36.7595 27.4392 37.2814 26.7961 37.2814H3.49513C2.85202 37.2814 2.33008 36.7595 2.33008 36.1164V17.4756C2.33008 16.8325 2.85202 16.3105 3.49513 16.3105H26.7961C27.4392 16.3105 27.9611 16.8325 27.9611 17.4756V36.1164ZM6.98926 10.4859C6.98926 5.98882 10.6475 2.33057 15.1446 2.33057C19.6417 2.33057 23.2999 5.98882 23.2999 10.4859V13.9811H6.98926V10.4859ZM26.7961 13.9806H25.6311V10.4854C25.6311 4.70447 20.9266 0 15.1456 0C9.36466 0 4.66019 4.70447 4.66019 10.4854V13.9806H3.49515C1.56816 13.9806 0 15.5487 0 17.4757V36.1165C0 38.0435 1.56816 39.6117 3.49515 39.6117H26.7961C28.7231 39.6117 30.2913 38.0435 30.2913 36.1165V17.4757C30.2913 15.5487 28.7231 13.9806 26.7961 13.9806Z" transform="translate(24.8545 20.1938)" fill="#07E8DB"/>
</svg>
