<svg id="Layer_1" data-name="Layer 1" xmlns="http://www.w3.org/2000/svg" xmlns:xlink="http://www.w3.org/1999/xlink" viewBox="0 0 37.98 41">
  <defs>
    <style>
      .cls-1, .cls-2, .cls-3 {
        fill: none;
        stroke-linecap: round;
        stroke-linejoin: round;
      }

      .cls-1 {
        stroke: url(#linear-gradient);
      }

      .cls-2 {
        stroke: url(#linear-gradient-2);
      }

      .cls-3 {
        stroke: url(#linear-gradient-3);
      }
    </style>
    <linearGradient id="linear-gradient" x1="19.7" y1="21.77" x2="31.45" y2="42.12" gradientUnits="userSpaceOnUse">
      <stop offset="0" stop-color="#56f4f1"/>
      <stop offset="0.16" stop-color="#57ebf2"/>
      <stop offset="0.44" stop-color="#59d1f6"/>
      <stop offset="0.78" stop-color="#5ca8fb"/>
      <stop offset="0.99" stop-color="#5e8bff"/>
    </linearGradient>
    <linearGradient id="linear-gradient-2" x1="19.7" y1="15.82" x2="31.45" y2="36.17" xlink:href="#linear-gradient"/>
    <linearGradient id="linear-gradient-3" x1="18.55" y1="7.88" x2="31.45" y2="30.22" xlink:href="#linear-gradient"/>
  </defs>
  <title>icon apps</title>
  <g>
    <path class="cls-1" d="M42.78,29.55a1.73,1.73,0,0,1,0,2.8L26,44.66a1.74,1.74,0,0,1-2.06,0L7.22,32.35a1.73,1.73,0,0,1,0-2.8" transform="translate(-6.01 -4.5)"/>
    <path class="cls-2" d="M7.22,23.6a1.73,1.73,0,0,0,0,2.8l1.64,1.21L24,38.71a1.74,1.74,0,0,0,2.06,0l15.11-11.1,1.64-1.21a1.73,1.73,0,0,0,0-2.8" transform="translate(-6.01 -4.5)"/>
    <path class="cls-3" d="M42.78,17.64,26,5.34a1.74,1.74,0,0,0-2.06,0L7.22,17.64a1.74,1.74,0,0,0,0,2.81l1.64,1.21,3.55,2.61L24,32.76a1.74,1.74,0,0,0,2.06,0l11.56-8.49,3.55-2.61,1.64-1.21A1.74,1.74,0,0,0,42.78,17.64Z" transform="translate(-6.01 -4.5)"/>
  </g>
</svg>
