<?xml version="1.0" encoding="UTF-8"?>
<svg width="30px" height="27px" viewBox="0 0 30 27" version="1.1" xmlns="http://www.w3.org/2000/svg" xmlns:xlink="http://www.w3.org/1999/xlink">
    <!-- Generator: Sketch 49 (51002) - http://www.bohemiancoding.com/sketch -->
    <title>icon-order-history</title>
    <desc>Created with Sketch.</desc>
    <defs></defs>
    <g id="Page-1" stroke="none" stroke-width="1" fill="none" fill-rule="evenodd">
        <g id="icon-order-history" fill="#A9AAAD" fill-rule="nonzero">
            <g id="Fill-24">
                <g id="path0_fill-link">
                    <path d="M28.3669,7.46484 L1.49292,7.46484 L1.49292,3.73234 C1.49292,3.32027 1.82735,2.98584 2.23942,2.98584 L5.97192,2.98584 L5.97192,5.22534 C5.97192,5.63741 6.30635,5.97184 6.71842,5.97184 C7.13049,5.97184 7.46492,5.63741 7.46492,5.22534 L7.46492,2.98584 L22.3949,2.98584 L22.3949,5.22534 C22.3949,5.63741 22.7294,5.97184 23.1414,5.97184 C23.5535,5.97184 23.8879,5.63741 23.8879,5.22534 L23.8879,2.98584 L27.6204,2.98584 C28.0325,2.98584 28.3669,3.32027 28.3669,3.73234 L28.3669,7.46484 Z M28.3669,24.6345 C28.3669,25.0466 28.0325,25.381 27.6204,25.381 L2.23942,25.381 C1.82735,25.381 1.49292,25.0466 1.49292,24.6345 L1.49292,8.95801 L28.3669,8.95801 L28.3669,24.6345 Z M27.6205,1.493 L23.888,1.493 L23.888,0.7465 C23.888,0.334432 23.5536,0 23.1415,0 C22.7294,0 22.395,0.334432 22.395,0.7465 L22.395,1.493 L7.465,1.493 L7.465,0.7465 C7.465,0.334432 7.13057,0 6.7185,0 C6.30643,0 5.972,0.334432 5.972,0.7465 L5.972,1.493 L2.2395,1.493 C1.00479,1.493 0,2.49779 0,3.7325 L0,24.6345 C0,25.8707 1.00479,26.874 2.2395,26.874 L27.6205,26.874 C28.8552,26.874 29.86,25.8707 29.86,24.6345 L29.86,3.7325 C29.86,2.49779 28.8552,1.493 27.6205,1.493 Z" id="path0_fill"></path>
                </g>
            </g>
            <g id="Fill-25" transform="translate(8.000000, 11.000000)">
                <g id="path1_fill-link" transform="translate(0.960000, 0.940000)">
                    <path d="M0.7465,1.493 L2.2395,1.493 C2.65157,1.493 2.986,1.15857 2.986,0.7465 C2.986,0.334432 2.65157,0 2.2395,0 L0.7465,0 C0.334432,0 0,0.334432 0,0.7465 C0,1.15857 0.334432,1.493 0.7465,1.493 Z" id="path1_fill"></path>
                </g>
            </g>
            <g id="Fill-26" transform="translate(13.000000, 11.000000)">
                <g id="path1_fill-link" transform="translate(0.440000, 0.940000)">
                    <path d="M0.7465,1.493 L2.2395,1.493 C2.65157,1.493 2.986,1.15857 2.986,0.7465 C2.986,0.334432 2.65157,0 2.2395,0 L0.7465,0 C0.334432,0 0,0.334432 0,0.7465 C0,1.15857 0.334432,1.493 0.7465,1.493 Z" id="path1_fill"></path>
                </g>
            </g>
            <g id="Fill-27" transform="translate(17.000000, 11.000000)">
                <g id="path1_fill-link" transform="translate(0.920000, 0.940000)">
                    <path d="M0.7465,1.493 L2.2395,1.493 C2.65157,1.493 2.986,1.15857 2.986,0.7465 C2.986,0.334432 2.65157,0 2.2395,0 L0.7465,0 C0.334432,0 0,0.334432 0,0.7465 C0,1.15857 0.334432,1.493 0.7465,1.493 Z" id="path1_fill"></path>
                </g>
            </g>
            <g id="Fill-28" transform="translate(22.000000, 11.000000)">
                <g id="path1_fill-link" transform="translate(0.400000, 0.940000)">
                    <path d="M0.7465,1.493 L2.2395,1.493 C2.65157,1.493 2.986,1.15857 2.986,0.7465 C2.986,0.334432 2.65157,0 2.2395,0 L0.7465,0 C0.334432,0 0,0.334432 0,0.7465 C0,1.15857 0.334432,1.493 0.7465,1.493 Z" id="path1_fill"></path>
                </g>
            </g>
            <g id="Fill-29" transform="translate(4.000000, 14.000000)">
                <g id="path1_fill-link" transform="translate(0.480000, 0.930000)">
                    <path d="M0.7465,1.493 L2.2395,1.493 C2.65157,1.493 2.986,1.15857 2.986,0.7465 C2.986,0.334432 2.65157,0 2.2395,0 L0.7465,0 C0.334432,0 0,0.334432 0,0.7465 C0,1.15857 0.334432,1.493 0.7465,1.493 Z" id="path1_fill"></path>
                </g>
            </g>
            <g id="Fill-30" transform="translate(8.000000, 14.000000)">
                <g id="path1_fill-link" transform="translate(0.960000, 0.930000)">
                    <path d="M0.7465,1.493 L2.2395,1.493 C2.65157,1.493 2.986,1.15857 2.986,0.7465 C2.986,0.334432 2.65157,0 2.2395,0 L0.7465,0 C0.334432,0 0,0.334432 0,0.7465 C0,1.15857 0.334432,1.493 0.7465,1.493 Z" id="path1_fill"></path>
                </g>
            </g>
            <g id="Fill-31" transform="translate(13.000000, 14.000000)">
                <g id="path1_fill-link" transform="translate(0.440000, 0.930000)">
                    <path d="M0.7465,1.493 L2.2395,1.493 C2.65157,1.493 2.986,1.15857 2.986,0.7465 C2.986,0.334432 2.65157,0 2.2395,0 L0.7465,0 C0.334432,0 0,0.334432 0,0.7465 C0,1.15857 0.334432,1.493 0.7465,1.493 Z" id="path1_fill"></path>
                </g>
            </g>
            <g id="Fill-32" transform="translate(17.000000, 14.000000)">
                <g id="path1_fill-link" transform="translate(0.920000, 0.930000)">
                    <path d="M0.7465,1.493 L2.2395,1.493 C2.65157,1.493 2.986,1.15857 2.986,0.7465 C2.986,0.334432 2.65157,0 2.2395,0 L0.7465,0 C0.334432,0 0,0.334432 0,0.7465 C0,1.15857 0.334432,1.493 0.7465,1.493 Z" id="path1_fill"></path>
                </g>
            </g>
            <g id="Fill-33" transform="translate(22.000000, 14.000000)">
                <g id="path1_fill-link" transform="translate(0.400000, 0.930000)">
                    <path d="M0.7465,1.493 L2.2395,1.493 C2.65157,1.493 2.986,1.15857 2.986,0.7465 C2.986,0.334432 2.65157,0 2.2395,0 L0.7465,0 C0.334432,0 0,0.334432 0,0.7465 C0,1.15857 0.334432,1.493 0.7465,1.493 Z" id="path1_fill"></path>
                </g>
            </g>
            <g id="Fill-34" transform="translate(4.000000, 17.000000)">
                <g id="path1_fill-link" transform="translate(0.480000, 0.920000)">
                    <path d="M0.7465,1.493 L2.2395,1.493 C2.65157,1.493 2.986,1.15857 2.986,0.7465 C2.986,0.334432 2.65157,0 2.2395,0 L0.7465,0 C0.334432,0 0,0.334432 0,0.7465 C0,1.15857 0.334432,1.493 0.7465,1.493 Z" id="path1_fill"></path>
                </g>
            </g>
            <g id="Fill-35" transform="translate(8.000000, 17.000000)">
                <g id="path1_fill-link" transform="translate(0.960000, 0.920000)">
                    <path d="M0.7465,1.493 L2.2395,1.493 C2.65157,1.493 2.986,1.15857 2.986,0.7465 C2.986,0.334432 2.65157,0 2.2395,0 L0.7465,0 C0.334432,0 0,0.334432 0,0.7465 C0,1.15857 0.334432,1.493 0.7465,1.493 Z" id="path1_fill"></path>
                </g>
            </g>
            <g id="Fill-36" transform="translate(13.000000, 17.000000)">
                <g id="path1_fill-link" transform="translate(0.440000, 0.920000)">
                    <path d="M0.7465,1.493 L2.2395,1.493 C2.65157,1.493 2.986,1.15857 2.986,0.7465 C2.986,0.334432 2.65157,0 2.2395,0 L0.7465,0 C0.334432,0 0,0.334432 0,0.7465 C0,1.15857 0.334432,1.493 0.7465,1.493 Z" id="path1_fill"></path>
                </g>
            </g>
            <g id="Fill-37" transform="translate(17.000000, 17.000000)">
                <g id="path1_fill-link" transform="translate(0.920000, 0.920000)">
                    <path d="M0.7465,1.493 L2.2395,1.493 C2.65157,1.493 2.986,1.15857 2.986,0.7465 C2.986,0.334432 2.65157,0 2.2395,0 L0.7465,0 C0.334432,0 0,0.334432 0,0.7465 C0,1.15857 0.334432,1.493 0.7465,1.493 Z" id="path1_fill"></path>
                </g>
            </g>
            <g id="Fill-38" transform="translate(22.000000, 17.000000)">
                <g id="path1_fill-link" transform="translate(0.400000, 0.920000)">
                    <path d="M0.7465,1.493 L2.2395,1.493 C2.65157,1.493 2.986,1.15857 2.986,0.7465 C2.986,0.334432 2.65157,0 2.2395,0 L0.7465,0 C0.334432,0 0,0.334432 0,0.7465 C0,1.15857 0.334432,1.493 0.7465,1.493 Z" id="path1_fill"></path>
                </g>
            </g>
            <g id="Fill-39" transform="translate(4.000000, 20.000000)">
                <g id="path1_fill-link" transform="translate(0.480000, 0.900000)">
                    <path d="M0.7465,1.493 L2.2395,1.493 C2.65157,1.493 2.986,1.15857 2.986,0.7465 C2.986,0.334432 2.65157,0 2.2395,0 L0.7465,0 C0.334432,0 0,0.334432 0,0.7465 C0,1.15857 0.334432,1.493 0.7465,1.493 Z" id="path1_fill"></path>
                </g>
            </g>
            <g id="Fill-40" transform="translate(8.000000, 20.000000)">
                <g id="path1_fill-link" transform="translate(0.960000, 0.900000)">
                    <path d="M0.7465,1.493 L2.2395,1.493 C2.65157,1.493 2.986,1.15857 2.986,0.7465 C2.986,0.334432 2.65157,0 2.2395,0 L0.7465,0 C0.334432,0 0,0.334432 0,0.7465 C0,1.15857 0.334432,1.493 0.7465,1.493 Z" id="path1_fill"></path>
                </g>
            </g>
            <g id="Fill-41" transform="translate(13.000000, 20.000000)">
                <g id="path1_fill-link" transform="translate(0.440000, 0.900000)">
                    <path d="M0.7465,1.493 L2.2395,1.493 C2.65157,1.493 2.986,1.15857 2.986,0.7465 C2.986,0.334432 2.65157,0 2.2395,0 L0.7465,0 C0.334432,0 0,0.334432 0,0.7465 C0,1.15857 0.334432,1.493 0.7465,1.493 Z" id="path1_fill"></path>
                </g>
            </g>
            <g id="Fill-42" transform="translate(17.000000, 20.000000)">
                <g id="path1_fill-link" transform="translate(0.920000, 0.900000)">
                    <path d="M0.7465,1.493 L2.2395,1.493 C2.65157,1.493 2.986,1.15857 2.986,0.7465 C2.986,0.334432 2.65157,0 2.2395,0 L0.7465,0 C0.334432,0 0,0.334432 0,0.7465 C0,1.15857 0.334432,1.493 0.7465,1.493 Z" id="path1_fill"></path>
                </g>
            </g>
            <g id="Fill-43" transform="translate(22.000000, 20.000000)">
                <g id="path1_fill-link" transform="translate(0.400000, 0.900000)">
                    <path d="M0.7465,1.493 L2.2395,1.493 C2.65157,1.493 2.986,1.15857 2.986,0.7465 C2.986,0.334432 2.65157,0 2.2395,0 L0.7465,0 C0.334432,0 0,0.334432 0,0.7465 C0,1.15857 0.334432,1.493 0.7465,1.493 Z" id="path1_fill"></path>
                </g>
            </g>
        </g>
    </g>
</svg>