<svg width="100" height="91" viewBox="0 0 100 91" fill="none" xmlns="http://www.w3.org/2000/svg">
<path fill-rule="evenodd" clip-rule="evenodd" d="M80.005 82.8203C80.005 84.2004 78.8849 85.3205 77.5048 85.3205H65.0041V62.819C65.0041 58.6838 61.6389 55.3186 57.5036 55.3186H42.5027C38.3674 55.3186 35.0022 58.6838 35.0022 62.819V85.3205H22.5014C21.1213 85.3205 20.0013 84.2004 20.0013 82.8203V37.2024L48.503 5.70047C48.9131 5.24545 49.4481 4.99543 50.0031 4.99543C50.5582 4.99543 51.0932 5.24545 51.5032 5.70047L80.005 37.2024V82.8203ZM60.0038 85.3203H40.0025V62.8189C40.0025 61.4388 41.1226 60.3187 42.5027 60.3187H57.5036C58.8837 60.3187 60.0038 61.4388 60.0038 62.8189V85.3203ZM99.3512 51.1382L99.3612 51.1432L55.2135 2.35015C53.8434 0.835052 51.9933 0 50.0031 0C48.018 0 46.1679 0.835052 44.7928 2.35015L0.645047 51.1432C-0.280011 52.1683 -0.200006 53.7484 0.820058 54.6734C1.30009 55.1084 1.90013 55.3185 2.49516 55.3185C3.17521 55.3185 3.85525 55.0434 4.35028 54.4934L14.9959 42.7277V82.8202C14.9959 86.9554 18.3612 90.3206 22.4964 90.3206H77.4999C81.6351 90.3206 85.0003 86.9554 85.0003 82.8202V42.7277L95.646 54.4934C96.5711 55.5185 98.1511 55.5985 99.1762 54.6684C100.201 53.7384 100.281 52.1633 99.3512 51.1382V51.1382Z" fill="#0B0B09"/>
</svg>
