<svg width="42" height="34" viewBox="0 0 42 34" fill="none" xmlns="http://www.w3.org/2000/svg">
<path fill-rule="evenodd" clip-rule="evenodd" d="M1.31729 17.8687L14.2897 32.64C14.7113 33.12 15.3967 33.12 15.8183 32.64C16.2399 32.1599 16.2399 31.3795 15.8183 30.8994L4.69228 18.2306L39.919 18.2306C40.5157 18.2306 41 17.6792 41 16.9997C41 16.3202 40.5157 15.7688 39.919 15.7688L4.69228 15.7688L15.8183 3.09997C16.2399 2.61991 16.2399 1.8395 15.8183 1.35943C15.6064 1.11817 15.3297 1 15.0529 1C14.7762 1 14.4995 1.12063 14.2876 1.35943L1.31512 16.1307C0.89352 16.6107 0.895683 17.3887 1.31729 17.8687Z" fill="white" stroke="white" stroke-width="0.75"/>
</svg>
