<?xml version="1.0" encoding="UTF-8"?>
<svg width="312px" height="321px" viewBox="0 0 312 321" version="1.1" xmlns="http://www.w3.org/2000/svg" xmlns:xlink="http://www.w3.org/1999/xlink">
    <!-- Generator: Sketch 49.1 (51147) - http://www.bohemiancoding.com/sketch -->
    <title>Group</title>
    <desc>Created with Sketch.</desc>
    <defs></defs>
    <g id="Page-1" stroke="none" stroke-width="1" fill="none" fill-rule="evenodd">
        <g id="Group" fill-rule="nonzero">
            <g id="Fill-503" transform="translate(0.000000, 196.000000)" fill="#E0E5E9">
                <g id="path0_fill-link" transform="translate(0.000000, 0.480000)">
                    <path d="M135.014,118.292 L7.10199,44.5382 C2.36636,41.8093 0,37.0315 0,32.2508 L0,0 L155.812,89.8411 L155.812,123.858 C148.631,123.858 141.45,122.001 135.014,118.292 Z" id="path0_fill"></path>
                </g>
            </g>
            <g id="Fill-504" transform="translate(155.000000, 196.000000)" fill="#E0E5E9">
                <g id="path1_fill-link" transform="translate(0.810000, 0.480000)">
                    <path d="M148.707,44.5382 L20.7954,118.292 C14.3615,122.001 7.18077,123.858 0,123.858 L0,89.8411 L155.812,0 L155.812,32.2508 C155.812,37.0315 153.443,41.8093 148.707,44.5382 Z" id="path1_fill"></path>
                </g>
            </g>
            <g id="Fill-506" transform="translate(0.000000, 186.000000)" fill="#C7CCD8">
                <g id="path2_fill-link" transform="translate(0.000000, 0.390000)">
                    <path d="M155.812,101.699 C148.631,101.699 141.45,99.8432 135.014,96.1336 L7.10199,22.38 C2.36636,19.6482 0,14.8704 0,10.0926 C0,6.41805 1.40056,2.74351 4.20167,0 C5.04201,0.823052 6.00781,1.56146 7.10199,2.19189 L135.014,75.9455 C141.45,79.6551 148.631,81.5113 155.812,81.5113 L155.812,49.2576 L155.812,81.5113 C162.993,81.5113 170.174,79.6551 176.607,75.9455 L304.519,2.19189 C305.613,1.56146 306.579,0.823052 307.419,0 C310.223,2.74351 311.624,6.41805 311.624,10.0926 C311.624,10.1189 311.624,10.1422 311.624,10.1656 C311.598,14.92 309.231,19.6628 304.519,22.38 L176.607,96.1336 C170.174,99.8432 162.993,101.699 155.812,101.699 Z" id="path2_fill"></path>
                </g>
            </g>
            <g id="Fill-507" transform="translate(0.000000, 144.000000)" fill="#E0E5E9">
                <g id="path3_fill-link" transform="translate(0.000000, 0.040000)">
                    <path d="M135.014,118.292 L7.10199,44.5382 C2.36636,41.8093 0,37.0286 0,32.2508 L0,0 L155.812,89.8411 L155.812,123.858 C148.631,123.858 141.45,122.001 135.014,118.292 Z" id="path3_fill"></path>
                </g>
            </g>
            <g id="Fill-508" transform="translate(155.000000, 144.000000)" fill="#E0E5E9">
                <g id="path4_fill-link" transform="translate(0.810000, 0.040000)">
                    <path d="M148.707,44.5382 L20.7954,118.292 C14.3615,122.001 7.18077,123.858 0,123.858 L0,89.8411 L155.812,0 L155.812,32.2508 C155.812,37.0286 153.443,41.8093 148.707,44.5382 Z" id="path4_fill"></path>
                </g>
            </g>
            <g id="Fill-511" transform="translate(0.000000, 52.000000)" fill="#C7CCD8">
                <g id="path5_fill-link" transform="translate(0.000000, 0.440000)">
                    <path d="M155.812,183.208 C148.631,183.208 141.45,181.355 135.014,177.645 L7.10199,103.891 C2.36636,101.16 0,96.3817 0,91.6039 C0,86.8261 2.36636,82.0484 7.10199,79.3165 L135.014,5.56582 C141.45,1.85333 148.631,0 155.812,0 C162.993,0 170.174,1.85333 176.607,5.56582 L304.519,79.3165 C309.255,82.0484 311.624,86.8261 311.624,91.6039 C311.624,91.6302 311.624,91.6536 311.624,91.6769 C311.598,96.4313 309.231,101.174 304.519,103.891 L176.607,177.645 C170.174,181.355 162.993,183.208 155.812,183.208 Z" id="path5_fill"></path>
                </g>
            </g>
            <g id="Fill-512" transform="translate(0.000000, 91.000000)" fill="#E0E5E9">
                <g id="path3_fill-link" transform="translate(0.000000, 0.600000)">
                    <path d="M135.014,118.292 L7.10199,44.5382 C2.36636,41.8093 0,37.0286 0,32.2508 L0,0 L155.812,89.8411 L155.812,123.858 C148.631,123.858 141.45,122.001 135.014,118.292 Z" id="path3_fill"></path>
                </g>
            </g>
            <g id="Fill-513" transform="translate(155.000000, 91.000000)" fill="#E0E5E9">
                <g id="path4_fill-link" transform="translate(0.810000, 0.600000)">
                    <path d="M148.707,44.5382 L20.7954,118.292 C14.3615,122.001 7.18077,123.858 0,123.858 L0,89.8411 L155.812,0 L155.812,32.2508 C155.812,37.0286 153.443,41.8093 148.707,44.5382 Z" id="path4_fill"></path>
                </g>
            </g>
            <g id="Fill-514" fill="#FFFFFE">
                <g id="path6_fill-link">
                    <path d="M304.521,103.892 L176.609,177.646 C163.741,185.065 147.886,185.065 135.015,177.646 L7.10345,103.892 C-2.36782,98.4313 -2.36782,84.778 7.10345,79.3173 L135.015,5.56655 C147.886,-1.85552 163.741,-1.85552 176.609,5.56655 L304.521,79.3173 C313.992,84.778 313.992,98.4313 304.521,103.892 Z" id="path6_fill"></path>
                </g>
            </g>
            <g id="Fill-515" transform="translate(108.000000, 174.000000)" fill="#1AF1EB">
                <g id="path7_fill-link" transform="translate(0.530000, 0.730000)">
                    <path d="M13.6942,18.9085 C17.3561,16.7954 17.9805,11.0252 15.086,6.01981 C12.1886,1.01145 6.87523,-1.33513 3.21335,0.775038 C-0.451439,2.88812 -1.07294,8.65824 1.82155,13.6666 C4.71603,18.672 10.0323,21.0186 13.6942,18.9085 Z" id="path7_fill"></path>
                </g>
            </g>
            <g id="Fill-516" transform="translate(83.000000, 160.000000)" fill="#08B2AD">
                <g id="path8_fill-link" transform="translate(0.850000, 0.500000)">
                    <path d="M13.6942,18.9085 C17.3561,16.7954 17.9805,11.0253 15.086,6.01693 C12.1886,1.01149 6.87523,-1.33508 3.21335,0.775083 C-0.451439,2.88817 -1.07294,8.65829 1.82155,13.6666 C4.71603,18.6721 10.0323,21.0187 13.6942,18.9085 Z" id="path8_fill"></path>
                </g>
            </g>
            <g id="Fill-517" transform="translate(59.000000, 146.000000)" fill="#13D6D0">
                <g id="path9_fill-link" transform="translate(0.160000, 0.260000)">
                    <path d="M13.6942,18.9056 C17.3561,16.7954 17.9805,11.0253 15.086,6.01693 C12.1915,1.01149 6.87523,-1.33508 3.21335,0.775083 C-0.451439,2.88817 -1.07294,8.65829 1.82155,13.6637 C4.71603,18.6721 10.0323,21.0187 13.6942,18.9056 Z" id="path9_fill"></path>
                </g>
            </g>
            <g id="Fill-518" transform="translate(108.000000, 226.000000)" fill="#08B2AD">
                <g id="path8_fill-link" transform="translate(0.530000, 0.760000)">
                    <path d="M13.6942,18.9085 C17.3561,16.7954 17.9805,11.0253 15.086,6.01693 C12.1886,1.01149 6.87523,-1.33508 3.21335,0.775083 C-0.451439,2.88817 -1.07294,8.65829 1.82155,13.6666 C4.71603,18.6721 10.0323,21.0187 13.6942,18.9085 Z" id="path8_fill"></path>
                </g>
            </g>
            <g id="Fill-519" transform="translate(83.000000, 212.000000)" fill="#13D6D0">
                <g id="path10_fill-link" transform="translate(0.850000, 0.520000)">
                    <path d="M13.6942,18.9085 C17.3561,16.7954 17.9805,11.0253 15.086,6.01693 C12.1886,1.01149 6.87523,-1.33508 3.21335,0.775083 C-0.451439,2.88817 -1.07294,8.65829 1.82155,13.6637 C4.71603,18.6721 10.0323,21.0187 13.6942,18.9085 Z" id="path10_fill"></path>
                </g>
            </g>
            <g id="Fill-521" transform="translate(59.000000, 250.000000)" fill="#1AF1EB">
                <g id="path11_fill-link" transform="translate(0.160000, 0.420000)">
                    <path d="M13.6942,18.9068 C17.3561,16.7966 17.9805,11.0265 15.086,6.01816 C12.1915,1.01272 6.87523,-1.33677 3.21335,0.776314 C-0.451439,2.88648 -1.07294,8.65952 1.82155,13.665 C4.71603,18.6733 10.0323,21.0199 13.6942,18.9068 Z" id="path11_fill"></path>
                </g>
            </g>
        </g>
    </g>
</svg>