<?xml version="1.0" encoding="UTF-8"?>
<svg width="312px" height="216px" viewBox="0 0 312 216" version="1.1" xmlns="http://www.w3.org/2000/svg" xmlns:xlink="http://www.w3.org/1999/xlink">
    <!-- Generator: Sketch 49.1 (51147) - http://www.bohemiancoding.com/sketch -->
    <title>Group Copy 2</title>
    <desc>Created with Sketch.</desc>
    <defs></defs>
    <g id="Page-1" stroke="none" stroke-width="1" fill="none" fill-rule="evenodd">
        <g id="Group-Copy-2" fill-rule="nonzero">
            <g id="Fill-503" transform="translate(0.000000, 91.000000)" fill="#E0E5E9">
                <g id="path0_fill-link" transform="translate(0.070000, 0.650000)">
                    <path d="M135.014,118.292 L7.10199,44.5382 C2.36636,41.8093 0,37.0315 0,32.2508 L0,0 L155.812,89.8411 L155.812,123.858 C148.631,123.858 141.45,122.001 135.014,118.292 Z" id="path0_fill"></path>
                </g>
            </g>
            <g id="Fill-504" transform="translate(155.000000, 91.000000)" fill="#E0E5E9">
                <g id="path1_fill-link" transform="translate(0.880000, 0.650000)">
                    <path d="M148.707,44.5382 L20.7954,118.292 C14.3615,122.001 7.18077,123.858 0,123.858 L0,89.8411 L155.812,0 L155.812,32.2508 C155.812,37.0315 153.443,41.8093 148.707,44.5382 Z" id="path1_fill"></path>
                </g>
            </g>
            <g id="Fill-521" transform="translate(59.000000, 145.000000)" fill="#13D6D0">
                <g id="path2_fill-link" transform="translate(0.230000, 0.590000)">
                    <path d="M13.6942,18.9068 C17.3561,16.7966 17.9805,11.0265 15.086,6.01816 C12.1915,1.01272 6.87523,-1.33677 3.21335,0.776314 C-0.451439,2.88648 -1.07294,8.65952 1.82155,13.665 C4.71603,18.6733 10.0323,21.0199 13.6942,18.9068 Z" id="path2_fill"></path>
                </g>
            </g>
            <g id="Fill-514-Copy" fill="#FFFFFE">
                <g id="path3_fill-link">
                    <path d="M304.521,103.892 L176.609,177.646 C163.741,185.065 147.886,185.065 135.015,177.646 L7.10345,103.892 C-2.36782,98.4313 -2.36782,84.778 7.10345,79.3173 L135.015,5.56655 C147.886,-1.85552 163.741,-1.85552 176.609,5.56655 L304.521,79.3173 C313.992,84.778 313.992,98.4313 304.521,103.892 Z" id="path3_fill"></path>
                </g>
            </g>
        </g>
    </g>
</svg>