<svg width="20" height="21" viewBox="0 0 20 21" fill="none" xmlns="http://www.w3.org/2000/svg">
<path fill-rule="evenodd" clip-rule="evenodd" d="M1.22824 8.31897C1.22824 4.73497 4.14424 1.81897 7.72824 1.81897C11.3122 1.81897 14.2282 4.73497 14.2282 8.31897C14.2282 11.903 11.3122 14.819 7.72824 14.819C4.14424 14.819 1.22824 11.903 1.22824 8.31897ZM19.0972 19.981L13.1542 13.497C14.4932 12.096 15.2292 10.264 15.2292 8.31897C15.2292 6.31597 14.4492 4.43197 13.0322 3.01597C11.6152 1.59997 9.73225 0.81897 7.72925 0.81897C5.72625 0.81897 3.84225 1.59897 2.42625 3.01597C1.01025 4.43297 0.229248 6.31597 0.229248 8.31897C0.229248 10.322 1.00925 12.206 2.42625 13.622C3.84325 15.038 5.72625 15.819 7.72925 15.819C9.45525 15.819 11.0912 15.24 12.4172 14.174L18.3602 20.657C18.4592 20.765 18.5932 20.819 18.7292 20.819C18.8502 20.819 18.9712 20.776 19.0672 20.688C19.2712 20.501 19.2842 20.185 19.0982 19.982L19.0972 19.981Z" fill="#0B0B09"/>
</svg>
