<svg xmlns="http://www.w3.org/2000/svg" width="15" height="19" viewBox="0 0 15 19">
  <title>XCITE_Icons_History_v1</title>
  <g>
    <path d="M2.5,16a.5.5,0,1,0,0,1h10a.5.5,0,1,0,0-1H2.5" style="fill: #aaa;fill-rule: evenodd"/>
    <path d="M1,1.5A.5.5,0,0,1,1.5,1h10a.5.5,0,0,1,.5.5v12a.5.5,0,0,1-.5.5h-9a2.5,2.5,0,0,0-1.5.5V1.5ZM14.5,2a.5.5,0,0,0-.5.5v15a.5.5,0,0,1-.5.5H2.5a1.5,1.5,0,0,1,0-3h9A1.5,1.5,0,0,0,13,13.5V1.5A1.5,1.5,0,0,0,11.5,0H1.5A1.5,1.5,0,0,0,0,1.5v15A2.5,2.5,0,0,0,2.5,19h11A1.5,1.5,0,0,0,15,17.5V2.5a.5.5,0,0,0-.5-.5Z" style="fill: #aaabad;fill-rule: evenodd"/>
  </g>
</svg>
