<svg xmlns="http://www.w3.org/2000/svg" width="325.1" height="293.6" viewBox="0 0 325.1 293.6">
  <title>XCITE_Icons_Home_v1</title>
  <path d="M260.1,269.2a8.1,8.1,0,0,1-8.1,8.1H211.3V204.2a24.4,24.4,0,0,0-24.4-24.4H138.2a24.4,24.4,0,0,0-24.4,24.4v73.1H73.1a8.1,8.1,0,0,1-8.1-8.1V120.9L157.7,18.5a6.3,6.3,0,0,1,9.8,0l92.6,102.4V269.2Zm-65,8.1H130V204.2a8.1,8.1,0,0,1,8.1-8.1h48.8a8.1,8.1,0,0,1,8.1,8.1v73.1ZM322.9,166.2h0L179.5,7.6a22.6,22.6,0,0,0-33.9,0L2.1,166.2a8.1,8.1,0,1,0,12,10.9l34.6-38.2V269.2a24.4,24.4,0,0,0,24.4,24.4H251.9a24.4,24.4,0,0,0,24.4-24.4V138.9l34.6,38.2a8.1,8.1,0,0,0,12-10.9Z" style="fill: #aaabad;fill-rule: evenodd"/>
</svg>
