<?xml version="1.0" encoding="UTF-8"?>
<svg width="39px" height="35px" viewBox="0 0 39 35" version="1.1" xmlns="http://www.w3.org/2000/svg" xmlns:xlink="http://www.w3.org/1999/xlink">
    <!-- Generator: Sketch 46.2 (44496) - http://www.bohemiancoding.com/sketch -->
    <title>home</title>
    <desc>Created with Sketch.</desc>
    <defs></defs>
    <g id="Page-1" stroke="none" stroke-width="1" fill="none" fill-rule="evenodd">
        <g id="home" fill-rule="nonzero" fill="#A9AAAD">
            <g id="Group-28">
                <g id="Group-27">
                    <g id="Path-457">
                        <g id="path0_fill-link" transform="translate(0.620000, 0.260000)">
                            <path d="M37.8266,13.4871 L19.6686,0.191139 C19.4977,0.0669121 19.2919,-3.77551e-07 19.0806,-3.77551e-07 C18.8693,-3.77551e-07 18.6635,0.0669121 18.4926,0.191139 L0.333583,13.4871 C0.148389,13.6527 0.0314292,13.8812 0.00547598,14.1282 C-0.0204772,14.3753 0.0464344,14.6231 0.193182,14.8235 C0.33993,15.0239 0.55601,15.1625 0.799348,15.2124 C1.04269,15.2622 1.29586,15.2197 1.50958,15.0931 L19.0806,2.22814 L36.6516,15.0931 C36.8653,15.2187 37.118,15.2605 37.3608,15.2103 C37.6035,15.1601 37.8189,15.0215 37.9653,14.8215 C38.1117,14.6214 38.1785,14.3741 38.1529,14.1276 C38.1272,13.881 38.011,13.6528 37.8266,13.4871 Z" id="path0_fill"></path>
                        </g>
                    </g>
                </g>
            </g>
            <g id="Group-30" transform="translate(4.000000, 15.000000)">
                <g id="Group-29">
                    <g id="Path-458">
                        <g id="path1_fill-link" transform="translate(0.770000, 0.580000)">
                            <path d="M28.866,-7.32422e-07 C28.6008,-7.32422e-07 28.3464,0.105355 28.1589,0.292892 C27.9714,0.480428 27.866,0.734783 27.866,0.999999 L27.866,16.844 L19.908,16.844 L19.908,8.196 C19.908,7.54241 19.7793,6.89522 19.5291,6.29138 C19.279,5.68754 18.9124,5.13888 18.4503,4.67673 C17.9881,4.21457 17.4395,3.84797 16.8356,3.59785 C16.2318,3.34774 15.5846,3.21899 14.931,3.21899 C14.2774,3.21899 13.6302,3.34774 13.0264,3.59785 C12.4225,3.84797 11.8739,4.21457 11.4117,4.67673 C10.9496,5.13888 10.583,5.68754 10.3329,6.29138 C10.0827,6.89522 9.954,7.54241 9.954,8.196 L9.954,16.845 L1.991,16.845 L1.991,0.994994 C1.96742,0.747303 1.85235,0.517307 1.66827,0.349914 C1.48419,0.182521 1.24431,0.0897667 0.995498,0.0897667 C0.746687,0.0897667 0.506814,0.182521 0.322731,0.349914 C0.138647,0.517307 0.0235774,0.747303 -3.35693e-07,0.994994 L-3.35693e-07,17.834 C-3.35693e-07,18.0992 0.105356,18.3536 0.292892,18.5411 C0.480429,18.7286 0.734783,18.834 1,18.834 L10.948,18.834 C11.1981,18.8326 11.4385,18.7376 11.6219,18.5676 C11.8054,18.3977 11.9185,18.1652 11.939,17.916 C11.9403,17.89 11.9403,17.864 11.939,17.838 L11.939,8.194 C11.939,7.40193 12.2536,6.64231 12.8137,6.08223 C13.3738,5.52215 14.1334,5.2075 14.9255,5.2075 C15.7176,5.2075 16.4772,5.52215 17.0373,6.08223 C17.5974,6.64231 17.912,7.40193 17.912,8.194 L17.912,17.838 C17.9106,17.8636 17.9106,17.8893 17.912,17.915 C17.9323,18.1644 18.0453,18.3971 18.2287,18.5673 C18.4122,18.7374 18.6528,18.8326 18.903,18.834 L28.857,18.834 C29.1222,18.834 29.3766,18.7286 29.5641,18.5411 C29.7516,18.3536 29.857,18.0992 29.857,17.834 L29.857,0.994994 C29.8557,0.732197 29.751,0.480482 29.5655,0.29428 C29.3801,0.108078 29.1288,0.00236124 28.866,-7.32422e-07 Z" id="path1_fill"></path>
                        </g>
                    </g>
                </g>
            </g>
        </g>
    </g>
</svg>