<svg xmlns="http://www.w3.org/2000/svg" width="19.4" height="19.4" viewBox="0 0 19.4 19.4">
  <title>XCITE_Icons_Settings_v1</title>
  <g>
    <path d="M9.7,11.7a2,2,0,1,1,2-2,2,2,0,0,1-2,2Zm0-5a3,3,0,1,0,3,3,3,3,0,0,0-3-3Z" style="fill: #aaabad;fill-rule: evenodd"/>
    <path d="M17.7,13.9l-1-.2a3,3,0,0,0-2.8,4l-1.5.6a3,3,0,0,0-5.3,0l-1.5-.6a3,3,0,0,0-2.8-4l-1,.2a8.9,8.9,0,0,1-.6-1.5A3,3,0,0,0,2.7,9.7,3,3,0,0,0,1.1,7a8.9,8.9,0,0,1,.6-1.5l1,.2a3,3,0,0,0,2.8-4L7,1.1A3,3,0,0,0,9.7,2.7a3,3,0,0,0,2.7-1.6l1.5.6a3,3,0,0,0,2.8,4l1-.2A9,9,0,0,1,18.3,7a3,3,0,0,0,0,5.3,8.9,8.9,0,0,1-.6,1.5Zm1.4-2.3a2,2,0,0,1,0-3.8.5.5,0,0,0,.3-.6,10,10,0,0,0-1.1-2.6.5.5,0,0,0-.7-.2l-1,.2a2,2,0,0,1-1.8-3,.5.5,0,0,0-.2-.7A10,10,0,0,0,12.2,0a.5.5,0,0,0-.6.3A2,2,0,0,1,9.7,1.7,2,2,0,0,1,7.8.3.5.5,0,0,0,7.2,0,10,10,0,0,0,4.6,1.1a.5.5,0,0,0-.2.7,2,2,0,0,1-1.8,3l-1-.2a.5.5,0,0,0-.7.2A10,10,0,0,0,0,7.2a.5.5,0,0,0,.3.6A2,2,0,0,1,1.7,9.7,2,2,0,0,1,.3,11.6a.5.5,0,0,0-.3.6,10,10,0,0,0,1.1,2.6.5.5,0,0,0,.7.2l1-.2a2,2,0,0,1,1.8,3,.5.5,0,0,0,.2.7,10,10,0,0,0,2.6,1.1h.1a.5.5,0,0,0,.5-.3,2,2,0,0,1,3.8,0,.5.5,0,0,0,.6.3,10,10,0,0,0,2.6-1.1.5.5,0,0,0,.2-.7,2,2,0,0,1,1.8-3l1,.2a.5.5,0,0,0,.7-.2,10,10,0,0,0,1.1-2.6.5.5,0,0,0-.3-.6Z" style="fill: #aaabad;fill-rule: evenodd"/>
  </g>
</svg>
