<?xml version="1.0" encoding="UTF-8"?>
<svg width="19px" height="13px" viewBox="0 0 19 13" version="1.1" xmlns="http://www.w3.org/2000/svg" xmlns:xlink="http://www.w3.org/1999/xlink">
    <!-- Generator: Sketch 49 (51002) - http://www.bohemiancoding.com/sketch -->
    <title>Fill 496</title>
    <desc>Created with Sketch.</desc>
    <defs></defs>
    <g id="Page-1" stroke="none" stroke-width="1" fill="none" fill-rule="evenodd">
        <g id="Payment" transform="translate(-24.000000, -61.000000)" fill="#FFFFFF">
            <path d="M24.14725,67.14625 L30.14725,61.14625 C30.34225,60.95125 30.65925,60.95125 30.85425,61.14625 C31.04925,61.34125 31.04925,61.65825 30.85425,61.85325 L25.70825,66.99925 L42.00125,66.99925 C42.27725,66.99925 42.50125,67.22325 42.50125,67.49925 C42.50125,67.77525 42.27725,67.99925 42.00125,67.99925 L25.70825,67.99925 L30.85425,73.14525 C31.04925,73.34025 31.04925,73.65725 30.85425,73.85225 C30.75625,73.95025 30.62825,73.99825 30.50025,73.99825 C30.37225,73.99825 30.24425,73.94925 30.14625,73.85225 L24.14625,67.85225 C23.95125,67.65725 23.95125,67.34025 24.14625,67.14525 L24.14725,67.14625" id="Fill-496"></path>
        </g>
    </g>
</svg>