<?xml version="1.0" encoding="UTF-8"?>
<svg width="16px" height="12px" viewBox="0 0 16 12" version="1.1" xmlns="http://www.w3.org/2000/svg" xmlns:xlink="http://www.w3.org/1999/xlink">
    <!-- Generator: Sketch 49 (51002) - http://www.bohemiancoding.com/sketch -->
    <title>Group</title>
    <desc>Created with Sketch.</desc>
    <defs></defs>
    <g id="Page-1" stroke="none" stroke-width="1" fill="none" fill-rule="evenodd">
        <g id="Dashboard" transform="translate(-68.000000, -199.000000)" fill="#34374B">
            <g id="Group-4" transform="translate(68.000000, 199.000000)">
                <g id="Group" transform="translate(8.000000, 6.000000) rotate(90.000000) translate(-8.000000, -6.000000) translate(2.000000, -2.000000)">
                    <path d="M10.626,5.3805 L7.626,5.3805 C7.419,5.3805 7.251,5.5485 7.251,5.7555 C7.251,5.9625 7.419,6.1305 7.626,6.1305 L10.626,6.1305 C10.833,6.1305 11.001,6.2985 11.001,6.5055 L11.001,14.0055 C11.001,14.2125 10.833,14.3805 10.626,14.3805 L1.626,14.3805 C1.419,14.3805 1.251,14.2125 1.251,14.0055 L1.251,6.5055 C1.251,6.2985 1.419,6.1305 1.626,6.1305 L4.626,6.1305 C4.833,6.1305 5.001,5.9625 5.001,5.7555 C5.001,5.5485 4.833,5.3805 4.626,5.3805 L1.626,5.3805 C1.00575,5.3805 0.501,5.88525 0.501,6.5055 L0.501,14.0055 C0.501,14.62575 1.00575,15.1305 1.626,15.1305 L10.626,15.1305 C11.24625,15.1305 11.751,14.62575 11.751,14.0055 L11.751,6.5055 C11.751,5.88525 11.24625,5.3805 10.626,5.3805" id="Fill-129"></path>
                    <path d="M4.14075,3.39525 L5.751,1.78575 L5.751,10.2555 C5.751,10.4625 5.919,10.6305 6.126,10.6305 C6.333,10.6305 6.501,10.4625 6.501,10.2555 L6.501,1.78575 L8.11125,3.39525 C8.18475,3.46875 8.28075,3.50475 8.376,3.50475 C8.47125,3.50475 8.568,3.468 8.64075,3.39525 C8.787,3.249 8.787,3.01125 8.64075,2.865 L6.39075,0.615 C6.2445,0.46875 6.00675,0.46875 5.8605,0.615 L3.6105,2.865 C3.46425,3.01125 3.46425,3.249 3.6105,3.39525 C3.75675,3.5415 3.9945,3.5415 4.14075,3.39525" id="Fill-130"></path>
                </g>
            </g>
        </g>
    </g>
</svg>