<svg width="120" height="112" viewBox="0 0 120 112" fill="none" xmlns="http://www.w3.org/2000/svg">
<path class="cls-1" d="M9.75,77.77a30.72,30.72,0,0,0,3.7-5.56A30.08,30.08,0,0,0,16.8,58.33V41.66a25.21,25.21,0,0,1,50.41,0V58.33a30.22,30.22,0,0,0,7,19.44ZM50.4,86.11a8.4,8.4,0,0,1-16.8,0,8.46,8.46,0,0,1,.48-2.78H49.92A8.21,8.21,0,0,1,50.4,86.11ZM39.2,8.33a2.8,2.8,0,0,1,5.6,0v2.91c-.92-.09-1.85-.13-2.8-.13s-1.87,0-2.8.13Zm43.69,70a24.72,24.72,0,0,1-10.08-20V41.66A30.63,30.63,0,0,0,50.4,12.27V8.33a8.4,8.4,0,0,0-16.8,0v3.94A30.64,30.64,0,0,0,11.2,41.66V58.33a24.72,24.72,0,0,1-10.08,20,2.77,2.77,0,0,0,1.68,5H28.28A14.4,14.4,0,0,0,28,86.11a14,14,0,0,0,28,0,14.48,14.48,0,0,0-.28-2.78H81.2a2.77,2.77,0,0,0,1.68-5Z" fill="#6b68ff"/>
</svg>
