<?xml version="1.0" encoding="utf-8"?>
<!-- Generator: Adobe Illustrator 23.0.3, SVG Export Plug-In . SVG Version: 6.00 Build 0)  -->
<svg version="1.1" id="Layer_1" xmlns="http://www.w3.org/2000/svg" xmlns:xlink="http://www.w3.org/1999/xlink" x="0px" y="0px"
	 viewBox="0 0 500 500" style="enable-background:new 0 0 500 500;" xml:space="preserve">
<style type="text/css">
	.st0{fill:none;stroke:#F2F2F2;stroke-width:7.4362;stroke-miterlimit:10;}
	.st1{fill:#0ED8D2;}
	.st2{fill:none;stroke:#F2F2F2;stroke-width:7.4362;stroke-linecap:round;stroke-miterlimit:10;}
	.st3{fill:none;stroke:#0ED8D2;stroke-width:7.4362;stroke-linejoin:round;stroke-miterlimit:10;}
	.st4{fill:none;stroke:#0ED8D2;stroke-width:7.4362;stroke-miterlimit:10;}
	.st5{fill:none;stroke:#0ED8D2;stroke-width:7.4362;stroke-linecap:round;stroke-miterlimit:10;}
	.st6{fill:none;stroke:#F2F2F2;stroke-width:7.4362;stroke-linejoin:round;stroke-miterlimit:10;}
</style>
<path id="XMLID_773_" class="st0" d="M365.7,489.8H103.3c-19.8,0-35.9-16.1-35.9-35.9V42.6c0-19.8,16.1-35.9,35.9-35.9h262.4
	c19.8,0,35.9,16.1,35.9,35.9V454C401.5,473.8,385.5,489.8,365.7,489.8z"/>
<path class="st1" d="M121.1,217.5L121.1,217.5c0-2.4,1.9-4.3,4.3-4.3h224.4c2.4,0,4.3,1.9,4.3,4.3l0,0c0,2.4-1.9,4.3-4.3,4.3H125.3
	C123,221.7,121.1,219.8,121.1,217.5z"/>
<path class="st1" d="M121.7,252.5L121.7,252.5c0-2.4,1.9-4.3,4.3-4.3h224.4c2.4,0,4.3,1.9,4.3,4.3v0c0,2.4-1.9,4.3-4.3,4.3H126
	C123.6,256.8,121.7,254.9,121.7,252.5z"/>
<path class="st1" d="M121.7,288.1L121.7,288.1c0-2.4,1.9-4.3,4.3-4.3h224.4c2.4,0,4.3,1.9,4.3,4.3l0,0c0,2.4-1.9,4.3-4.3,4.3H126
	C123.6,292.4,121.7,290.5,121.7,288.1z"/>
<path class="st1" d="M121.7,322.1L121.7,322.1c0-2.4,1.9-4.3,4.3-4.3h224.4c2.4,0,4.3,1.9,4.3,4.3v0c0,2.4-1.9,4.3-4.3,4.3H126
	C123.6,326.4,121.7,324.4,121.7,322.1z"/>
<path class="st1" d="M121.7,357.1L121.7,357.1c0-2.4,1.9-4.3,4.3-4.3h224.4c2.4,0,4.3,1.9,4.3,4.3l0,0c0,2.4-1.9,4.3-4.3,4.3H126
	C123.6,361.4,121.7,359.5,121.7,357.1z"/>
<path class="st1" d="M121.7,392.2L121.7,392.2c0-2.4,1.9-4.3,4.3-4.3h224.4c2.4,0,4.3,1.9,4.3,4.3v0c0,2.4-1.9,4.3-4.3,4.3H126
	C123.6,396.5,121.7,394.6,121.7,392.2z"/>
<path class="st1" d="M122.3,425.5L122.3,425.5c0-2.4,1.9-4.3,4.3-4.3h224.4c2.4,0,4.3,1.9,4.3,4.3l0,0c0,2.4-1.9,4.3-4.3,4.3H126.6
	C124.2,429.8,122.3,427.9,122.3,425.5z"/>
<line id="XMLID_772_" class="st2" x1="121.1" y1="220.5" x2="347.9" y2="220.5"/>
<line id="XMLID_771_" class="st2" x1="121.1" y1="255.2" x2="347.9" y2="255.2"/>
<g id="XMLID_1_">
	<path id="XMLID_8_" class="st3" d="M123.9,106.4c0,0,42.7,0,95.5,0s71.7,0,71.7,0s-19,0-71.7,0S123.9,106.4,123.9,106.4z"/>
	<path id="XMLID_6_" class="st4" d="M291,106.4c0,19.5,15.8,35.3,35.3,35.3c19.5,0,35.3-15.8,35.3-35.3S345.9,71,326.4,71
		C306.9,71,291,86.9,291,106.4z"/>
	<line id="XMLID_5_" class="st5" x1="217" y1="106.4" x2="217" y2="137.3"/>
	<line id="XMLID_4_" class="st5" x1="151.3" y1="106.4" x2="151.3" y2="137.3"/>
	<line id="XMLID_3_" class="st5" x1="184.2" y1="106.4" x2="184.2" y2="127"/>
</g>
<line id="XMLID_770_" class="st2" x1="121.1" y1="289.9" x2="347.9" y2="289.9"/>
<line id="XMLID_769_" class="st2" x1="121.1" y1="324.6" x2="347.9" y2="324.6"/>
<line id="XMLID_768_" class="st2" x1="121.1" y1="359.3" x2="347.9" y2="359.3"/>
<line id="XMLID_762_" class="st2" x1="121.1" y1="394.1" x2="347.9" y2="394.1"/>
<line id="XMLID_760_" class="st2" x1="121.1" y1="427.4" x2="347.9" y2="427.4"/>
<g id="XMLID_698_">
	<path id="XMLID_796_" class="st6" d="M115.6,112.5c0,0,42.7,0,95.5,0s71.7,0,71.7,0s-19,0-71.7,0S115.6,112.5,115.6,112.5z"/>
	<path id="XMLID_707_" class="st0" d="M282.7,112.5c0,19.5,15.8,35.3,35.3,35.3c19.5,0,35.3-15.8,35.3-35.3S337.6,77.1,318,77.1
		C298.5,77.1,282.7,93,282.7,112.5z"/>
	<line id="XMLID_703_" class="st2" x1="208.7" y1="112.5" x2="208.7" y2="143.3"/>
	<line id="XMLID_702_" class="st2" x1="142.9" y1="112.5" x2="142.9" y2="143.3"/>
	<line id="XMLID_701_" class="st2" x1="175.8" y1="112.5" x2="175.8" y2="133.1"/>
</g>
</svg>
