<?xml version="1.0" encoding="UTF-8"?>
<svg width="14px" height="14px" viewBox="0 0 14 14" version="1.1" xmlns="http://www.w3.org/2000/svg" xmlns:xlink="http://www.w3.org/1999/xlink">
    <!-- Generator: Sketch 46.2 (44496) - http://www.bohemiancoding.com/sketch -->
    <title>edit</title>
    <desc>Created with Sketch.</desc>
    <defs></defs>
    <g id="Page-1" stroke="none" stroke-width="1" fill="none" fill-rule="evenodd">
        <g id="edit" fill-rule="nonzero" fill="#FFFFFF">
            <path d="M12.8939,3.06368 L12.2659,3.6917 L10.3083,1.73405 L10.9363,1.10604 C11.1977,0.844598 11.5454,0.700911 11.9148,0.700911 C12.2841,0.700911 12.6318,0.844598 12.8932,1.10604 C13.1547,1.36748 13.2984,1.71513 13.2984,2.08451 C13.2984,2.45389 13.1547,2.80154 12.8932,3.06298 L12.8939,3.06368 Z M4.01268,11.9456 L0.936383,13.0643 L2.05504,9.98798 L9.81272,2.2303 L11.7704,4.18794 L4.01268,11.9456 Z M13.3902,0.610494 C12.9963,0.216582 12.4727,1.6710997e-09 11.9155,1.6710997e-09 C11.3582,1.6710997e-09 10.8347,0.216582 10.4407,0.610494 L1.50412,9.54711 L1.42282,9.67538 L0.0209935,13.5304 C-0.0252666,13.6587 0.0062744,13.8016 0.102299,13.8977 C0.168886,13.9643 0.258602,14 0.350422,14 L0.470278,13.979 L4.32529,12.5772 L4.45356,12.4958 L13.3902,3.55923 C13.7841,3.16531 14.0007,2.64173 14.0007,2.08451 C14.0007,1.52729 13.7841,1.0037 13.3902,0.609793 L13.3902,0.610494 Z" id="path0_fill"></path>
        </g>
    </g>
</svg>