<?xml version="1.0" encoding="iso-8859-1"?>
<!-- Generator: Adobe Illustrator 19.1.0, SVG Export Plug-In . SVG Version: 6.00 Build 0)  -->
<svg xmlns="http://www.w3.org/2000/svg" xmlns:xlink="http://www.w3.org/1999/xlink" version="1.1" id="Capa_1" x="0px" y="0px" viewBox="0 0 31.059 31.059" style="enable-background:new 0 0 31.059 31.059;" xml:space="preserve" width="512px" height="512px">
<g>
	<g>
		<path d="M15.529,31.059C6.966,31.059,0,24.092,0,15.529C0,6.966,6.966,0,15.529,0    c8.563,0,15.529,6.966,15.529,15.529C31.059,24.092,24.092,31.059,15.529,31.059z M15.529,1.774    c-7.585,0-13.755,6.171-13.755,13.755s6.17,13.754,13.755,13.754c7.584,0,13.754-6.17,13.754-13.754S23.113,1.774,15.529,1.774z" fill="#d4d4d4"/>
	</g>
	<g>
		<path d="M21.652,16.416H9.406c-0.49,0-0.888-0.396-0.888-0.887c0-0.49,0.397-0.888,0.888-0.888h12.246    c0.49,0,0.887,0.398,0.887,0.888C22.539,16.02,22.143,16.416,21.652,16.416z" fill="#d4d4d4"/>
	</g>
	<g>
		<path d="M15.529,22.539c-0.49,0-0.888-0.397-0.888-0.887V9.406c0-0.49,0.398-0.888,0.888-0.888    c0.49,0,0.887,0.398,0.887,0.888v12.246C16.416,22.143,16.02,22.539,15.529,22.539z" fill="#d4d4d4"/>
	</g>
</g>
<g>
</g>
<g>
</g>
<g>
</g>
<g>
</g>
<g>
</g>
<g>
</g>
<g>
</g>
<g>
</g>
<g>
</g>
<g>
</g>
<g>
</g>
<g>
</g>
<g>
</g>
<g>
</g>
<g>
</g>
</svg>
