<?xml version="1.0" encoding="UTF-8"?>
<svg width="28px" height="29px" viewBox="0 0 28 29" version="1.1" xmlns="http://www.w3.org/2000/svg" xmlns:xlink="http://www.w3.org/1999/xlink">
    <!-- Generator: Sketch 46.2 (44496) - http://www.bohemiancoding.com/sketch -->
    <title>plus-button</title>
    <desc>Created with Sketch.</desc>
    <defs></defs>
    <g id="Page-1" stroke="none" stroke-width="1" fill="none" fill-rule="evenodd">
        <g id="plus-button" fill-rule="nonzero">
            <g id="Group-24" fill="#D4D4D4" opacity="0.601">
                <g id="Path-407">
                    <g id="path0_fill-link" transform="translate(0.000000, 0.473000)">
                        <path d="M13.793,27.586 C11.0651,27.586 8.39836,26.7771 6.13013,25.2615 C3.8619,23.746 2.09402,21.5919 1.05003,19.0716 C0.00604248,16.5513 -0.267163,13.778 0.264962,11.1025 C0.797087,8.42694 2.11064,5.96926 4.03953,4.04024 C5.96841,2.11121 8.426,0.797476 11.1015,0.265157 C13.777,-0.267162 16.5503,0.00584257 19.0707,1.04965 C21.591,2.09345 23.7453,3.86118 25.261,6.1293 C26.7767,8.39741 27.5858,11.0641 27.586,13.792 C27.582,17.449 26.1276,20.9551 23.5418,23.5411 C20.956,26.1271 17.45,27.5818 13.793,27.586 Z M13.793,1.57601 C11.3769,1.57601 9.01507,2.29246 7.00616,3.63477 C4.99725,4.97709 3.43149,6.88496 2.50689,9.11715 C1.58229,11.3493 1.34038,13.8056 1.81173,16.1752 C2.28309,18.5449 3.44655,20.7216 5.15499,22.43 C6.86343,24.1385 9.04011,25.3019 11.4098,25.7733 C13.7795,26.2446 16.2357,26.0027 18.4679,25.0781 C20.7001,24.1535 22.6079,22.5878 23.9502,20.5789 C25.2926,18.5699 26.009,16.2081 26.009,13.792 C26.005,10.5533 24.7167,7.44846 22.4266,5.15837 C20.1366,2.86829 17.0317,1.57998 13.793,1.57601 Z" id="path0_fill"></path>
                    </g>
                </g>
            </g>
            <g id="Group-25" transform="translate(7.000000, 13.000000)" fill="#0ED8D2">
                <g id="Path-408">
                    <g id="path1_fill-link" transform="translate(0.560000, 0.477000)">
                        <path d="M11.6645,1.577 L0.7885,1.577 C0.579377,1.577 0.378818,1.49393 0.230946,1.34605 C0.0830735,1.19818 3.28064e-07,0.997623 3.28064e-07,0.7885 C3.28064e-07,0.579376 0.0830735,0.378819 0.230946,0.230946 C0.378818,0.0830739 0.579377,-2.05994e-07 0.7885,-2.05994e-07 L11.6645,-2.05994e-07 C11.8736,-2.05994e-07 12.0742,0.0830739 12.2221,0.230946 C12.3699,0.378819 12.453,0.579376 12.453,0.7885 C12.453,0.997623 12.3699,1.19818 12.2221,1.34605 C12.0742,1.49393 11.8736,1.577 11.6645,1.577 Z" id="path1_fill"></path>
                    </g>
                </g>
            </g>
            <g id="Group-26" transform="translate(13.000000, 8.000000)" fill="#0ED8D2">
                <g id="Path-409">
                    <g id="path2_fill-link" transform="translate(0.000000, 0.039000)">
                        <path d="M0.789,12.4525 C0.685435,12.4526 0.582859,12.4323 0.487139,12.3928 C0.391419,12.3533 0.304432,12.2952 0.231153,12.2221 C0.157875,12.1489 0.0997416,12.062 0.0600784,11.9663 C0.0204152,11.8706 -2.89387e-07,11.7681 -2.05993e-07,11.6645 L-2.05993e-07,0.7885 C-2.05993e-07,0.579377 0.0830739,0.378818 0.230946,0.230946 C0.378819,0.0830735 0.579376,3.28064e-07 0.7885,3.28064e-07 C0.997623,3.28064e-07 1.19818,0.0830735 1.34605,0.230946 C1.49393,0.378818 1.577,0.579377 1.577,0.7885 L1.577,11.6645 C1.57713,11.768 1.55684,11.8705 1.51729,11.9662 C1.47773,12.0619 1.41969,12.1488 1.34649,12.222 C1.27329,12.2952 1.18637,12.3532 1.09071,12.3928 C0.995046,12.4323 0.892519,12.4526 0.789,12.4525 Z" id="path2_fill"></path>
                    </g>
                </g>
            </g>
        </g>
    </g>
</svg>