<?xml version="1.0" encoding="UTF-8"?>
<svg width="30px" height="25px" viewBox="0 0 30 25" version="1.1" xmlns="http://www.w3.org/2000/svg" xmlns:xlink="http://www.w3.org/1999/xlink">
    <!-- Generator: Sketch 46.2 (44496) - http://www.bohemiancoding.com/sketch -->
    <title>robot</title>
    <desc>Created with Sketch.</desc>
    <defs></defs>
    <g id="Page-1" stroke="none" stroke-width="1" fill="none" fill-rule="evenodd">
        <g id="robot" fill-rule="nonzero" fill="#D4D4D4">
            <g id="Path-393" transform="translate(4.000000, 17.000000)">
                <g id="path0_fill-link" transform="translate(0.550000, 0.200000)">
                    <path d="M21.0585,0.0221286 C20.9285,0.0221286 20.8039,0.0737599 20.712,0.165653 C20.6201,0.257546 20.5685,0.382163 20.5685,0.512119 L20.5685,4.43314 C20.568,4.82267 20.4131,5.19612 20.1377,5.47165 C19.8624,5.74719 19.489,5.90235 19.0995,5.90314 L2.4485,5.90314 C2.05897,5.90235 1.68563,5.74719 1.41029,5.47165 C1.13494,5.19612 0.980028,4.82267 0.9795,4.43314 L0.9795,0.512119 C0.98249,0.445975 0.972043,0.37993 0.948792,0.317935 C0.925541,0.255941 0.889972,0.199295 0.844223,0.151432 C0.798474,0.103568 0.743498,0.0654592 0.682617,0.0394321 C0.621736,0.0134049 0.556209,3.34285e-06 0.489998,3.34285e-06 C0.423787,3.34285e-06 0.358267,0.0134049 0.297386,0.0394321 C0.236505,0.0654592 0.181529,0.103568 0.13578,0.151432 C0.0900317,0.199295 0.0544553,0.255941 0.0312044,0.317935 C0.00795343,0.37993 -0.00248666,0.445975 0.000503687,0.512119 L0.000503687,4.43314 C0.00182573,5.08189 0.260193,5.70368 0.719025,6.16233 C1.17786,6.62097 1.79975,6.87907 2.4485,6.88013 L19.0995,6.88013 C19.7491,6.87934 20.3719,6.6208 20.831,6.16126 C21.2902,5.70172 21.5482,5.07876 21.5485,4.42914 L21.5485,0.508121 C21.5474,0.378859 21.4953,0.255248 21.4036,0.164218 C21.3118,0.0731889 21.1878,0.0221243 21.0585,0.0221286 Z" id="path0_fill"></path>
                </g>
            </g>
            <g id="Path-394">
                <g id="path1_fill-link" transform="translate(0.620000, 0.550000)">
                    <path d="M4.90793,15.1951 L4.90793,10.2951 C4.90846,9.90575 5.06323,9.53245 5.33836,9.25695 C5.61349,8.98144 5.98657,8.82616 6.37593,8.82511 L10.2939,8.82511 C10.4239,8.82511 10.5485,8.77348 10.6404,8.68159 C10.7323,8.58969 10.7839,8.46506 10.7839,8.33511 C10.7839,6.40311 12.8899,4.90411 14.7019,4.90411 C15.3588,4.91879 16.0035,5.08456 16.586,5.38856 C17.1685,5.69256 17.6732,6.12663 18.0609,6.65711 C18.096,6.71395 18.1424,6.763 18.1972,6.80126 C18.252,6.83952 18.314,6.86618 18.3794,6.87959 C18.4449,6.893 18.5124,6.89288 18.5778,6.87924 C18.6432,6.8656 18.7051,6.83873 18.7598,6.80027 C18.8144,6.76182 18.8606,6.7126 18.8955,6.65563 C18.9305,6.59867 18.9534,6.53517 18.9628,6.46903 C18.9723,6.40289 18.9682,6.33551 18.9506,6.27104 C18.9331,6.20656 18.9026,6.14635 18.8609,6.09411 C18.432,5.50141 17.8838,5.00501 17.2516,4.6368 C16.6194,4.2686 15.9171,4.03673 15.1899,3.95611 L15.1899,2.85611 C15.5169,2.74062 15.7926,2.51323 15.9682,2.21414 C16.1437,1.91504 16.2079,1.56351 16.1493,1.22168 C16.0907,0.879853 15.9132,0.569746 15.648,0.346183 C15.3829,0.12262 15.0472,-9.23085e-11 14.7004,-9.23085e-11 C14.3536,-9.23091e-11 14.018,0.12262 13.7528,0.346183 C13.4877,0.569746 13.3101,0.879853 13.2516,1.22168 C13.193,1.56351 13.2571,1.91504 13.4327,2.21414 C13.6083,2.51323 13.8839,2.74062 14.2109,2.85611 L14.2109,3.95611 C13.1629,4.05452 12.1736,4.48474 11.3869,5.18417 C10.6003,5.88361 10.0573,6.81579 9.83693,7.84511 L6.37593,7.84511 C5.72648,7.8459 5.10388,8.10431 4.64475,8.56363 C4.18562,9.02295 3.92746,9.64566 3.92693,10.2951 L3.92693,14.7061 L2.85593,14.7061 C2.74034,14.3792 2.5129,14.1036 2.21379,13.9282 C1.91469,13.7527 1.56319,13.6886 1.22142,13.7473 C0.879647,13.8059 0.569607,13.9835 0.346098,14.2486 C0.122588,14.5137 -4.50514e-10,14.8493 -4.50514e-10,15.1961 C-4.50514e-10,15.5429 0.122588,15.8785 0.346098,16.1436 C0.569607,16.4087 0.879647,16.5863 1.22142,16.6449 C1.56319,16.7036 1.91469,16.6395 2.21379,16.464 C2.5129,16.2886 2.74034,16.013 2.85593,15.6861 L4.41593,15.6861 C4.48053,15.6864 4.54454,15.6739 4.60429,15.6493 C4.66404,15.6247 4.71833,15.5886 4.76406,15.5429 C4.80979,15.4973 4.84604,15.4431 4.87073,15.3834 C4.89542,15.3237 4.90806,15.2597 4.90793,15.1951 Z M14.7009,0.983106 C14.7978,0.983106 14.8926,1.01184 14.9732,1.06569 C15.0537,1.11953 15.1165,1.19606 15.1536,1.28559 C15.1907,1.37513 15.2004,1.47365 15.1815,1.5687 C15.1626,1.66375 15.1159,1.75106 15.0474,1.81959 C14.9789,1.88812 14.8916,1.93478 14.7965,1.95369 C14.7015,1.9726 14.603,1.96289 14.5134,1.92581 C14.4239,1.88872 14.3474,1.82592 14.2935,1.74534 C14.2397,1.66476 14.2109,1.57002 14.2109,1.47311 C14.2109,1.34315 14.2626,1.21852 14.3544,1.12662 C14.4463,1.03473 14.571,0.983106 14.7009,0.983106 Z M1.47693,15.6871 C1.38002,15.6871 1.28528,15.6584 1.2047,15.6045 C1.12412,15.5507 1.06132,15.4742 1.02423,15.3846 C0.987141,15.2951 0.977438,15.1966 0.996345,15.1015 C1.01525,15.0065 1.06192,14.9192 1.13045,14.8506 C1.19897,14.7821 1.28628,14.7354 1.38134,14.7165 C1.47639,14.6976 1.57491,14.7073 1.66444,14.7444 C1.75398,14.7815 1.83051,14.8443 1.88435,14.9249 C1.93819,15.0055 1.96693,15.1002 1.96693,15.1971 C1.96693,15.2615 1.95426,15.3252 1.92963,15.3846 C1.90501,15.4441 1.86891,15.4981 1.82341,15.5436 C1.77791,15.5891 1.72389,15.6252 1.66444,15.6498 C1.60499,15.6744 1.54128,15.6871 1.47693,15.6871 Z" id="path1_fill"></path>
                </g>
            </g>
            <g id="Path-395" transform="translate(12.000000, 8.000000)">
                <g id="path2_fill-link" transform="translate(0.380000, 0.400000)">
                    <path d="M16.162,5.882 C15.8591,5.88285 15.5638,5.97753 15.3169,6.15302 C15.0699,6.32851 14.8834,6.57619 14.783,6.862 L13.713,6.862 L13.713,2.451 C13.7127,1.80139 13.4547,1.17842 12.9955,0.718888 C12.5364,0.259351 11.9136,0.000795114 11.264,3.66211e-07 L0.490007,3.66211e-07 C0.360051,3.66211e-07 0.235403,0.0516317 0.14351,0.143525 C0.0516174,0.235417 1.34277e-06,0.36005 1.34277e-06,0.490006 C1.34277e-06,0.619962 0.0516174,0.744594 0.14351,0.836487 C0.235403,0.92838 0.360051,0.979996 0.490007,0.979996 L11.264,0.979996 C11.6535,0.98079 12.0269,1.13595 12.3022,1.41148 C12.5776,1.68702 12.7325,2.06046 12.733,2.45 L12.733,7.35001 C12.733,7.41435 12.7457,7.47807 12.7703,7.53752 C12.7949,7.59697 12.831,7.65099 12.8765,7.69649 C12.922,7.74199 12.976,7.77808 13.0355,7.8027 C13.0949,7.82733 13.1586,7.84 13.223,7.84 L14.783,7.84 C14.8734,8.09324 15.0316,8.31678 15.2404,8.48619 C15.4492,8.6556 15.7005,8.76437 15.967,8.80061 C16.2334,8.83685 16.5047,8.79917 16.7511,8.69168 C16.9976,8.5842 17.2098,8.41105 17.3645,8.19115 C17.5192,7.97124 17.6105,7.71303 17.6284,7.44475 C17.6463,7.17646 17.5902,6.90842 17.4661,6.66989 C17.342,6.43136 17.1547,6.23153 16.9247,6.09222 C16.6947,5.95292 16.4309,5.87951 16.162,5.88001 L16.162,5.882 Z M16.162,7.842 C16.0651,7.842 15.9704,7.81326 15.8898,7.75942 C15.8092,7.70557 15.7464,7.62906 15.7093,7.53952 C15.6722,7.44999 15.6625,7.35146 15.6814,7.25641 C15.7003,7.16136 15.747,7.07405 15.8155,7.00552 C15.8841,6.937 15.9714,6.89032 16.0664,6.87141 C16.1615,6.85251 16.26,6.86221 16.3495,6.89929 C16.4391,6.93638 16.5156,6.99919 16.5694,7.07977 C16.6233,7.16035 16.652,7.25509 16.652,7.35201 C16.6521,7.41644 16.6396,7.48026 16.615,7.53983 C16.5904,7.59939 16.5543,7.65352 16.5088,7.69913 C16.4633,7.74473 16.4093,7.78092 16.3497,7.8056 C16.2902,7.83029 16.2264,7.843 16.162,7.843 L16.162,7.842 Z" id="path2_fill"></path>
                </g>
            </g>
            <g id="Path-397" transform="translate(19.000000, 12.000000)">
                <g id="path3_fill-link" transform="translate(0.240000, 0.320000)">
                    <path d="M2.93799,1.46801 C2.93779,1.17751 2.85148,0.89358 2.68995,0.652135 C2.52841,0.410691 2.2989,0.222564 2.03046,0.111532 C1.76202,0.000499979 1.46669,-0.0284384 1.1818,0.0283561 C0.896905,0.0851507 0.635248,0.225125 0.429905,0.430608 C0.224562,0.636091 0.0847419,0.897844 0.0281412,1.18278 C-0.0284595,1.46771 0.000697486,1.76303 0.111912,2.03139 C0.223126,2.29976 0.411404,2.52912 0.652958,2.6905 C0.894512,2.85187 1.1785,2.93799 1.469,2.93799 C1.85853,2.9372 2.23186,2.78204 2.50721,2.50651 C2.78255,2.23097 2.93746,1.85754 2.93799,1.46801 Z M0.979008,1.46801 C0.979008,1.37109 1.00775,1.27636 1.06159,1.19578 C1.11543,1.1152 1.19196,1.05238 1.2815,1.01529 C1.37103,0.978208 1.46956,0.96851 1.56461,0.987417 C1.65966,1.00632 1.74697,1.05298 1.81549,1.12151 C1.88402,1.19004 1.93068,1.27736 1.94959,1.37241 C1.9685,1.46746 1.95878,1.56599 1.9217,1.65552 C1.88461,1.74506 1.82179,1.82158 1.74121,1.87542 C1.66063,1.92926 1.56591,1.958 1.469,1.958 C1.40457,1.95813 1.34076,1.94556 1.28119,1.921 C1.22163,1.89643 1.16747,1.86035 1.12186,1.81484 C1.07625,1.76933 1.04007,1.71527 1.01538,1.65575 C0.990698,1.59624 0.978001,1.53244 0.978001,1.46801 L0.979008,1.46801 Z" id="path3_fill"></path>
                </g>
            </g>
            <g id="Path-398" transform="translate(8.000000, 12.000000)">
                <g id="path4_fill-link" transform="translate(0.470000, 0.320000)">
                    <path d="M2.93801,1.46801 C2.93781,1.17751 2.85148,0.89358 2.68994,0.652135 C2.52841,0.410691 2.29892,0.222564 2.03048,0.111532 C1.76203,0.000499979 1.46669,-0.0284384 1.1818,0.0283561 C0.896904,0.0851507 0.635248,0.225125 0.429904,0.430608 C0.224561,0.636091 0.0847565,0.897844 0.0281558,1.18278 C-0.0284448,1.46771 0.000696875,1.76303 0.111911,2.03139 C0.223126,2.29976 0.411419,2.52912 0.652973,2.6905 C0.894527,2.85187 1.1785,2.93799 1.469,2.93799 C1.85853,2.9372 2.23187,2.78204 2.50722,2.50651 C2.78257,2.23097 2.93748,1.85754 2.93801,1.46801 Z M1.469,1.958 C1.37208,1.958 1.27735,1.92926 1.19677,1.87542 C1.11619,1.82158 1.05339,1.74506 1.0163,1.65552 C0.979213,1.56599 0.969515,1.46746 0.988422,1.37241 C1.00733,1.27736 1.05399,1.19004 1.12252,1.12151 C1.19104,1.05298 1.27835,1.00632 1.3734,0.987417 C1.46845,0.96851 1.56698,0.978208 1.65651,1.01529 C1.74605,1.05238 1.82258,1.1152 1.87642,1.19578 C1.93026,1.27636 1.959,1.37109 1.959,1.46801 C1.959,1.59796 1.90737,1.7226 1.81548,1.81449 C1.72359,1.90638 1.59895,1.958 1.469,1.958 Z" id="path4_fill"></path>
                </g>
            </g>
            <g id="Path-400" transform="translate(10.000000, 18.000000)">
                <g id="path5_fill-link" transform="translate(0.430000, 0.200000)">
                    <path d="M5.7373e-06,0.490012 L5.7373e-06,2.45 C5.7373e-06,2.51435 0.0126734,2.57805 0.0372982,2.6375 C0.061923,2.69695 0.0980139,2.75097 0.143515,2.79647 C0.189015,2.84197 0.243031,2.87808 0.302481,2.9027 C0.36193,2.92733 0.425648,2.93999 0.489996,2.93999 L9.305,2.93999 C9.36935,2.93999 9.43306,2.92733 9.49251,2.9027 C9.55196,2.87808 9.60598,2.84197 9.65148,2.79647 C9.69698,2.75097 9.73307,2.69695 9.7577,2.6375 C9.78232,2.57805 9.795,2.51435 9.795,2.45 L9.795,0.490012 C9.795,0.360056 9.74337,0.235408 9.65148,0.143516 C9.55959,0.0516228 9.43495,-8.54492e-06 9.305,-8.54492e-06 L0.489996,-8.54492e-06 C0.36004,-8.54492e-06 0.235407,0.0516228 0.143515,0.143516 C0.0516218,0.235408 5.7373e-06,0.360056 5.7373e-06,0.490012 Z M6.85599,0.980002 L8.816,0.980002 L8.816,1.96001 L6.85599,1.96001 L6.85599,0.980002 Z M3.918,0.980002 L5.877,0.980002 L5.877,1.96001 L3.91601,1.96001 L3.918,0.980002 Z M0.980001,0.980002 L2.939,0.980002 L2.939,1.96001 L0.980001,1.96001 L0.980001,0.980002 Z" id="path5_fill"></path>
                </g>
            </g>
        </g>
    </g>
</svg>