<svg width="320" height="320" viewBox="0 0 320 320" fill="none" xmlns="http://www.w3.org/2000/svg">
<path fill-rule="evenodd" clip-rule="evenodd" d="M160 320C248.365 320 320 248.366 320 160C320 71.6343 248.365 0 160 0C71.6348 0 0 71.6343 0 160C0 248.366 71.6348 320 160 320ZM160 312C243.947 312 312 243.947 312 160C312 76.0527 243.947 8 160 8C76.0527 8 8 76.0527 8 160C8 243.947 76.0527 312 160 312Z" fill="#56F4F1"/>
<path fill-rule="evenodd" clip-rule="evenodd" d="M182.707 117.01C189.488 117.01 195.007 122.529 195.007 129.31C195.007 136.092 189.488 141.611 182.707 141.611C175.925 141.611 170.406 136.092 170.406 129.31C170.406 122.529 175.925 117.01 182.707 117.01ZM182.704 149.81C194.004 149.81 203.204 140.609 203.204 129.309C203.204 118.009 194.004 108.809 182.704 108.809C171.404 108.809 162.203 118.009 162.203 129.309C162.203 140.609 171.404 149.81 182.704 149.81V149.81Z" fill="#56F4F1"/>
<path fill-rule="evenodd" clip-rule="evenodd" d="M121.416 201.99C120.784 204.828 118.193 209.477 109.444 215.488C102.957 219.941 94.1583 224.41 83.2109 228.813C88.0573 216.759 92.9774 207.329 97.873 200.711C102.851 193.979 107.631 190.42 111.69 190.42L111.682 190.428C113.929 190.428 116.094 191.502 118.308 193.716C121.03 196.439 122.047 199.153 121.416 201.99ZM111.676 182.227C98.1374 182.227 84.8694 199.824 72.2492 234.52C71.6998 236.012 72.077 237.693 73.2005 238.816C73.9877 239.595 75.0373 240.014 76.1034 240.014V240.022L77.5056 239.776C109.208 228.246 126.674 216.135 129.413 203.769C130.282 199.832 130.069 193.887 124.099 187.918C120.319 184.145 116.145 182.227 111.676 182.227V182.227Z" fill="#56F4F1"/>
<path fill-rule="evenodd" clip-rule="evenodd" d="M195.361 164.167L195.353 164.159C178.297 179.206 160.633 182.609 158.091 182.609C158.075 182.609 156.394 182.576 151.867 179.387C148.71 177.164 145.028 173.999 141.518 170.489C138.009 166.98 134.843 163.298 132.621 160.141C129.431 155.614 129.398 153.933 129.398 153.917C129.398 151.374 132.802 133.711 147.849 116.655C165.857 96.2524 193.418 85.0919 227.752 84.2637C226.924 118.598 215.772 146.159 195.361 164.167ZM155.586 214.501C158.751 208.039 161.515 199.856 162.089 190.368C167.509 189.376 176.078 186.62 185.394 181.307C180.966 194.739 166.919 206.686 155.586 214.501ZM121.642 149.925C112.138 150.507 103.946 153.27 97.4844 156.436C105.299 145.095 117.247 131.031 130.712 126.611C125.39 135.935 122.635 144.496 121.642 149.925ZM231.896 76L231.904 76.0082C210.624 76.0082 191.665 79.6163 175.535 86.7341C162.243 92.6055 150.861 100.839 141.701 111.22C139.996 113.155 138.413 115.115 136.945 117.083C129.876 117.551 122.644 120.363 115.428 125.447C109.318 129.744 103.185 135.698 97.1821 143.135C87.0958 155.633 80.8964 167.958 80.634 168.474C79.7402 170.27 80.2732 172.451 81.8969 173.624C82.6185 174.149 83.4631 174.403 84.2995 174.403C85.3492 174.403 86.3988 174.001 87.1942 173.214C87.2352 173.173 91.1549 169.319 97.8381 165.538C103.349 162.422 111.844 158.757 122.119 158.109C124.719 164.759 132.156 172.714 135.723 176.281C139.29 179.848 147.245 187.286 153.895 189.885C153.247 200.16 149.582 208.655 146.466 214.166C142.677 220.857 138.831 224.769 138.798 224.802C137.38 226.22 137.199 228.467 138.372 230.099C139.167 231.198 140.414 231.805 141.701 231.805L143.53 231.37C144.047 231.108 156.371 224.908 168.869 214.822C176.306 208.819 182.26 202.686 186.557 196.576C191.641 189.352 194.445 182.128 194.921 175.059C196.881 173.599 198.841 172.017 200.784 170.303C211.166 161.143 219.399 149.761 225.27 136.469C232.388 120.347 235.996 101.38 235.996 80.1001V76H231.896V76Z" fill="#56F4F1"/>
</svg>
