<svg width="61" height="60" viewBox="0 0 61 60" fill="none" xmlns="http://www.w3.org/2000/svg">
<path fill-rule="evenodd" clip-rule="evenodd" d="M30.0015 56.8452C15.1996 56.8452 3.15796 44.8036 3.15796 30.0017C3.15796 15.1999 15.1996 3.1582 30.0015 3.1582C44.8033 3.1582 56.845 15.1999 56.845 30.0017C56.845 44.8036 44.8033 56.8452 30.0015 56.8452ZM51.2174 8.78573C45.5519 3.12016 38.0167 0 30.0016 0C21.9864 0 14.4544 3.12016 8.78573 8.78573C3.11701 14.4513 0 21.9864 0 29.9984C0 38.0104 3.12016 45.5456 8.78573 51.2143C14.4513 56.883 21.9864 60 30.0016 60C38.0167 60 45.5487 56.8798 51.2174 51.2143C56.8861 45.5487 60.0032 38.0136 60.0032 29.9984C60.0032 21.9833 56.883 14.4513 51.2174 8.78573V8.78573Z" fill="#F2F2F2"/>
<path fill-rule="evenodd" clip-rule="evenodd" d="M26.3792 13.0996C25.7634 12.4837 24.7623 12.4837 24.1464 13.0996C23.5306 13.7154 23.5306 14.7165 24.1464 15.3323L38.8188 30.0047L24.1464 44.677C23.5306 45.2928 23.5306 46.2939 24.1464 46.9098C24.4559 47.2161 24.8602 47.3708 25.2644 47.3708L25.2612 47.374C25.6655 47.374 26.0697 47.2224 26.3792 46.9129L42.1695 31.1226C42.7853 30.5068 42.7853 29.5057 42.1695 28.8899L26.3792 13.0996" fill="#F2F2F2"/>
</svg>
