<svg width="60" height="60" viewBox="0 0 60 60" fill="none" xmlns="http://www.w3.org/2000/svg">
<path fill-rule="evenodd" clip-rule="evenodd" d="M29.9999 56.8423C15.1988 56.8423 3.15778 44.8012 3.15778 30.0002C3.15778 15.1991 15.1988 3.15808 29.9999 3.15808C44.8009 3.15808 56.842 15.1991 56.842 30.0002C56.842 44.8012 44.8009 56.8423 29.9999 56.8423ZM51.2147 8.78526C45.5463 3.12 38.0147 0 30 0C21.9853 0 14.4505 3.12 8.78526 8.78526C3.12 14.4505 0 21.9821 0 29.9968C0 38.0116 3.11684 45.5463 8.78526 51.2116C14.4537 56.8768 21.9853 59.9968 30 59.9968C38.0147 59.9968 45.5495 56.88 51.2147 51.2116C56.88 45.5432 60 38.0084 60 29.9968C60 21.9853 56.8832 14.4505 51.2147 8.78526V8.78526Z" fill="#F2F2F2"/>
<path fill-rule="evenodd" clip-rule="evenodd" d="M35.8546 13.0989C35.2388 12.4831 34.2378 12.4831 33.622 13.0989L17.8325 28.8884C17.2167 29.5042 17.2167 30.5052 17.8325 31.121L33.622 46.9105C33.9315 47.22 34.3357 47.3716 34.7399 47.3716L34.7367 47.3684C35.1409 47.3684 35.5451 47.2137 35.8546 46.9073C36.4704 46.2916 36.4704 45.2905 35.8546 44.6747L21.183 30.0031L35.8546 15.3316C36.4704 14.7158 36.4704 13.7147 35.8546 13.0989" fill="#F2F2F2"/>
</svg>
