<?xml version="1.0" encoding="UTF-8"?>
<svg width="14px" height="13px" viewBox="0 0 14 13" version="1.1" xmlns="http://www.w3.org/2000/svg" xmlns:xlink="http://www.w3.org/1999/xlink">
    <!-- Generator: Sketch 49 (51002) - http://www.bohemiancoding.com/sketch -->
    <title>Star</title>
    <desc>Created with Sketch.</desc>
    <defs></defs>
    <g id="Page-1" stroke="none" stroke-width="1" fill="none" fill-rule="evenodd">
        <g id="Star" fill="#F2C94C" fill-rule="nonzero">
            <g id="path0_fill-link">
                <polygon id="path0_fill" points="7 0 8.5716 4.83688 13.6574 4.83688 9.5429 7.82624 11.1145 12.6631 7 9.67376 2.8855 12.6631 4.4571 7.82624 0.342604 4.83688 5.4284 4.83688"></polygon>
            </g>
            <g id="path0_fill-link">
                <polygon id="path0_fill" points="7 0 8.5716 4.83688 13.6574 4.83688 9.5429 7.82624 11.1145 12.6631 7 9.67376 2.8855 12.6631 4.4571 7.82624 0.342604 4.83688 5.4284 4.83688"></polygon>
            </g>
            <g id="path0_fill-link">
                <polygon id="path0_fill" points="7 0 8.5716 4.83688 13.6574 4.83688 9.5429 7.82624 11.1145 12.6631 7 9.67376 2.8855 12.6631 4.4571 7.82624 0.342604 4.83688 5.4284 4.83688"></polygon>
            </g>
            <g id="path0_fill-link">
                <polygon id="path0_fill" points="7 0 8.5716 4.83688 13.6574 4.83688 9.5429 7.82624 11.1145 12.6631 7 9.67376 2.8855 12.6631 4.4571 7.82624 0.342604 4.83688 5.4284 4.83688"></polygon>
            </g>
        </g>
    </g>
</svg>