<svg width="68" height="68" viewBox="0 0 68 68" fill="none" xmlns="http://www.w3.org/2000/svg">
<g filter="url(#filter0_d)">
<path d="M34 60C50.5685 60 64 46.5685 64 30C64 13.4315 50.5685 0 34 0C17.4315 0 4 13.4315 4 30C4 46.5685 17.4315 60 34 60Z" fill="#A9AAAD"/>
<path d="M25.9077 17.8003L32.613 29.356L26.6013 39.7562L14 17.8003H25.9077Z" fill="white"/>
<path d="M39.3181 17.8003L34.0001 26.9293L28.6821 17.8003H39.3181Z" fill="white"/>
<path d="M54.0002 17.8003L41.3989 39.7562L35.3872 29.356L42.0925 17.8003H54.0002Z" fill="white"/>
<path d="M40.0116 42.0667L33.9999 52.4668L27.9883 42.0667L33.9999 31.6665L40.0116 42.0667Z" fill="white"/>
</g>
<defs>
<filter id="filter0_d" x="0" y="0" width="68" height="68" filterUnits="userSpaceOnUse" color-interpolation-filters="sRGB">
<feFlood flood-opacity="0" result="BackgroundImageFix"/>
<feColorMatrix in="SourceAlpha" type="matrix" values="0 0 0 0 0 0 0 0 0 0 0 0 0 0 0 0 0 0 127 0"/>
<feOffset dy="4"/>
<feGaussianBlur stdDeviation="2"/>
<feColorMatrix type="matrix" values="0 0 0 0 0 0 0 0 0 0 0 0 0 0 0 0 0 0 0.4 0"/>
<feBlend mode="normal" in2="BackgroundImageFix" result="effect1_dropShadow"/>
<feBlend mode="normal" in="SourceGraphic" in2="effect1_dropShadow" result="shape"/>
</filter>
</defs>
</svg>
