<svg width="62" height="91" viewBox="0 0 62 91" fill="none" xmlns="http://www.w3.org/2000/svg">
<path fill-rule="evenodd" clip-rule="evenodd" d="M1.51049 68.0658L20.9686 49.1387C21.601 48.5235 22.6291 48.5235 23.2615 49.1387C23.8938 49.7538 23.8938 50.7538 23.2615 51.3689L6.57286 67.6021H59.4114C60.3065 67.6021 61.033 68.3087 61.033 69.1794C61.033 70.05 60.3065 70.7567 59.4114 70.7567H6.57286L23.2615 86.9899C23.8938 87.605 23.8938 88.605 23.2615 89.2201C22.9436 89.5293 22.5285 89.6807 22.1134 89.6807C21.6983 89.6807 21.2832 89.5261 20.9654 89.2201L1.50725 70.2929C0.874862 69.6778 0.874862 68.6778 1.50725 68.0627L1.51049 68.0658" fill="#C7C7C7"/>
<path d="M1.51049 68.0658L20.9686 49.1387C21.601 48.5235 22.6291 48.5235 23.2615 49.1387C23.8938 49.7538 23.8938 50.7538 23.2615 51.3689L6.57286 67.6021H59.4114C60.3065 67.6021 61.033 68.3087 61.033 69.1794C61.033 70.05 60.3065 70.7567 59.4114 70.7567H6.57286L23.2615 86.9899C23.8938 87.605 23.8938 88.605 23.2615 89.2201C22.9436 89.5293 22.5285 89.6807 22.1134 89.6807C21.6983 89.6807 21.2832 89.5261 20.9654 89.2201L1.50725 70.2929C0.874862 69.6778 0.874862 68.6778 1.50725 68.0627L1.51049 68.0658" stroke="#C7C7C7"/>
<path fill-rule="evenodd" clip-rule="evenodd" d="M60.5554 22.4548L41.0973 41.382C40.4649 41.9972 39.4368 41.9972 38.8045 41.382C38.1721 40.7669 38.1721 39.7669 38.8045 39.1518L55.4931 22.9186L2.65447 22.9186C1.7594 22.9186 1.03296 22.2119 1.03296 21.3413C1.03296 20.4706 1.7594 19.764 2.65447 19.764L55.4931 19.764L38.8045 3.53081C38.1721 2.91567 38.1721 1.91569 38.8045 1.30055C39.1223 0.99141 39.5374 0.839993 39.9525 0.839993C40.3676 0.839993 40.7827 0.994564 41.1005 1.30055L60.5587 20.2277C61.1911 20.8429 61.1911 21.8429 60.5587 22.458L60.5554 22.4548" fill="#C7C7C7"/>
<path d="M60.5554 22.4548L41.0973 41.382C40.4649 41.9972 39.4368 41.9972 38.8045 41.382C38.1721 40.7669 38.1721 39.7669 38.8045 39.1518L55.4931 22.9186L2.65447 22.9186C1.7594 22.9186 1.03296 22.2119 1.03296 21.3413C1.03296 20.4706 1.7594 19.764 2.65447 19.764L55.4931 19.764L38.8045 3.53081C38.1721 2.91567 38.1721 1.91569 38.8045 1.30055C39.1223 0.99141 39.5374 0.839993 39.9525 0.839993C40.3676 0.839993 40.7827 0.994564 41.1005 1.30055L60.5587 20.2277C61.1911 20.8429 61.1911 21.8429 60.5587 22.458L60.5554 22.4548" stroke="#C7C7C7"/>
</svg>
