<svg width="22" height="38" viewBox="0 0 22 38" fill="none" xmlns="http://www.w3.org/2000/svg">
<path fill-rule="evenodd" clip-rule="evenodd" d="M10 17C8.89543 17 8 17.8954 8 19V33C8 34.1046 8.89543 35 10 35C11.1046 35 12 34.1046 12 33V19C12 17.8954 11.1046 17 10 17ZM10.0002 17.75C9.44796 17.75 9.00024 18.1978 9.00024 18.75V33.25C9.00024 33.8023 9.44796 34.25 10.0002 34.25C10.5525 34.25 11.0002 33.8023 11.0002 33.25V18.75C11.0002 18.1978 10.5525 17.75 10.0002 17.75Z" fill="white"/>
<path fill-rule="evenodd" clip-rule="evenodd" d="M4 17C2.89543 17 2 17.8954 2 19V33C2 34.1046 2.89543 35 4 35C5.10457 35 6 34.1046 6 33V19C6 17.8954 5.10457 17 4 17ZM4.00024 17.75C3.44796 17.75 3.00024 18.1978 3.00024 18.75V33.25C3.00024 33.8023 3.44796 34.25 4.00024 34.25C4.55253 34.25 5.00024 33.8023 5.00024 33.25V18.75C5.00024 18.1978 4.55253 17.75 4.00024 17.75Z" fill="white"/>
<path fill-rule="evenodd" clip-rule="evenodd" d="M16 17C14.8954 17 14 17.8954 14 19V33C14 34.1046 14.8954 35 16 35C17.1046 35 18 34.1046 18 33V19C18 17.8954 17.1046 17 16 17ZM16.0002 17.75C15.448 17.75 15.0002 18.1978 15.0002 18.75V33.25C15.0002 33.8023 15.448 34.25 16.0002 34.25C16.5525 34.25 17.0002 33.8023 17.0002 33.25V18.75C17.0002 18.1978 16.5525 17.75 16.0002 17.75Z" fill="white"/>
<path fill-rule="evenodd" clip-rule="evenodd" d="M10 14H0V34C0 36.2091 1.79086 38 4 38H10V37H4C2.34315 37 1 35.6569 1 34V15H10V14Z" fill="white"/>
<path fill-rule="evenodd" clip-rule="evenodd" d="M10 14H20V34C20 36.2091 18.2091 38 16 38H10V37H16C17.6569 37 19 35.6569 19 34V15H10V14Z" fill="white"/>
<path fill-rule="evenodd" clip-rule="evenodd" d="M12.0352 3.13629C9.90135 2.56452 7.708 3.83085 7.13623 5.96472L14.8636 8.03527C15.4354 5.9014 14.1691 3.70806 12.0352 3.13629ZM11.7763 4.10214C10.1759 3.67331 8.53093 4.62306 8.10211 6.22346L13.8977 7.77637C14.3265 6.17598 13.3767 4.53096 11.7763 4.10214Z" fill="white"/>
<path fill-rule="evenodd" clip-rule="evenodd" d="M5.46319 4.48114C3.32936 3.90938 1.13599 5.17567 0.564211 7.30957L0.305392 8.27549L19.6239 13.4519L19.8827 12.4859C20.4545 10.3521 19.1881 8.15873 17.0543 7.58697L5.46319 4.48114ZM5.20437 5.44706C3.60397 5.01824 1.95896 5.96798 1.53014 7.56838L18.9168 12.2271C19.3456 10.6267 18.3959 8.98172 16.7955 8.55289L5.20437 5.44706Z" fill="white"/>
</svg>
