<?xml version="1.0" encoding="UTF-8"?>
<svg width="11px" height="14px" viewBox="0 0 11 14" version="1.1" xmlns="http://www.w3.org/2000/svg" xmlns:xlink="http://www.w3.org/1999/xlink">
    <!-- Generator: Sketch 46.2 (44496) - http://www.bohemiancoding.com/sketch -->
    <title>Group 39</title>
    <desc>Created with Sketch.</desc>
    <defs></defs>
    <g id="Page-1" stroke="none" stroke-width="1" fill="none" fill-rule="evenodd">
        <g id="Group-39" fill-rule="nonzero" fill="#FFFFFF">
            <g id="Fill-426">
                <g id="path0_fill-link">
                    <path d="M10.0513,3.15 C10.0513,3.3432 9.89046,3.5 9.69231,3.5 L1.07692,3.5 C0.878769,3.5 0.717949,3.3432 0.717949,3.15 L0.717949,2.45 C0.717949,2.2568 0.878769,2.1 1.07692,2.1 L9.69231,2.1 C9.89046,2.1 10.0513,2.2568 10.0513,2.45 L10.0513,3.15 Z M9.33333,12.95 C9.33333,13.1432 9.17251,13.3 8.97436,13.3 L1.79487,13.3 C1.59672,13.3 1.4359,13.1432 1.4359,12.95 L1.4359,4.2 L9.33333,4.2 L9.33333,12.95 Z M4.30769,1.05 C4.30769,0.8568 4.46851,0.7 4.66667,0.7 L6.10256,0.7 C6.30072,0.7 6.46154,0.8568 6.46154,1.05 L6.46154,1.4 L4.30769,1.4 L4.30769,1.05 Z M9.69231,1.4 L7.17949,1.4 L7.17949,1.05 C7.17949,0.4711 6.69631,1.4019e-08 6.10256,1.4019e-08 L4.66667,1.4019e-08 C4.07292,1.4019e-08 3.58974,0.4711 3.58974,1.05 L3.58974,1.4 L1.07692,1.4 C0.483179,1.4 1.71172e-10,1.8711 1.71172e-10,2.45 L1.71172e-10,3.15 C1.71172e-10,3.6064 0.300103,3.9956 0.717949,4.1398 L0.717949,12.95 C0.717949,13.5289 1.20113,14 1.79487,14 L8.97436,14 C9.5681,14 10.0513,13.5289 10.0513,12.95 L10.0513,4.1398 C10.4691,3.9956 10.7692,3.6064 10.7692,3.15 L10.7692,2.45 C10.7692,1.8711 10.2861,1.4 9.69231,1.4 Z" id="path0_fill"></path>
                </g>
            </g>
            <g id="Fill-427" transform="translate(7.000000, 4.000000)">
                <g id="path1_fill-link" transform="translate(0.180000, 0.900000)">
                    <path d="M0.358975,7.7 C0.557128,7.7 0.717949,7.5432 0.717949,7.35 L0.717949,0.35 C0.717949,0.1568 0.557128,-6.94275e-08 0.358975,-6.94275e-08 C0.160821,-6.94275e-08 2.35533e-07,0.1568 2.35533e-07,0.35 L2.35533e-07,7.35 C2.35533e-07,7.5432 0.160821,7.7 0.358975,7.7 Z" id="path1_fill"></path>
                </g>
            </g>
            <g id="Fill-428" transform="translate(5.000000, 4.000000)">
                <g id="path2_fill-link" transform="translate(0.030000, 0.900000)">
                    <path d="M0.358974,7.7 C0.557128,7.7 0.717949,7.5432 0.717949,7.35 L0.717949,0.35 C0.717949,0.1568 0.557128,-6.94275e-08 0.358974,-6.94275e-08 C0.16082,-6.94275e-08 -1.06812e-07,0.1568 -1.06812e-07,0.35 L-1.06812e-07,7.35 C-1.06812e-07,7.5432 0.16082,7.7 0.358974,7.7 Z" id="path2_fill"></path>
                </g>
            </g>
            <g id="Fill-429" transform="translate(2.000000, 4.000000)">
                <g id="path3_fill-link" transform="translate(0.870000, 0.900000)">
                    <path d="M0.358974,7.7 C0.557128,7.7 0.717949,7.5432 0.717949,7.35 L0.717949,0.35 C0.717949,0.1568 0.557128,-6.94275e-08 0.358974,-6.94275e-08 C0.16082,-6.94275e-08 -1.06812e-07,0.1568 -1.06812e-07,0.35 L-1.06812e-07,7.35 C-1.06812e-07,7.5432 0.16082,7.7 0.358974,7.7 Z" id="path3_fill"></path>
                </g>
            </g>
        </g>
    </g>
</svg>