<svg width="53" height="78" viewBox="0 0 53 78" fill="none" xmlns="http://www.w3.org/2000/svg">
<path fill-rule="evenodd" clip-rule="evenodd" d="M21.9998 36C20.8952 36 19.9998 36.8954 19.9998 38V70C19.9998 71.1046 20.8952 72 21.9998 72H25.9998C27.1043 72 27.9998 71.1046 27.9998 70V38C27.9998 36.8954 27.1043 36 25.9998 36H21.9998ZM23.0003 37.5002C22.448 37.5002 22.0003 37.9479 22.0003 38.5002V69.5002C22.0003 70.0525 22.448 70.5002 23.0003 70.5002H25.0003C25.5525 70.5002 26.0003 70.0525 26.0003 69.5002V38.5002C26.0003 37.9479 25.5525 37.5002 25.0003 37.5002H23.0003Z" fill="white"/>
<path fill-rule="evenodd" clip-rule="evenodd" d="M9.99976 36C8.89519 36 7.99976 36.8954 7.99976 38V70C7.99976 71.1046 8.89519 72 9.99976 72H13.9998C15.1043 72 15.9998 71.1046 15.9998 70V38C15.9998 36.8954 15.1043 36 13.9998 36H9.99976ZM11.0003 37.5002C10.448 37.5002 10.0003 37.9479 10.0003 38.5002V69.5002C10.0003 70.0525 10.448 70.5002 11.0003 70.5002H13.0003C13.5525 70.5002 14.0003 70.0525 14.0003 69.5002V38.5002C14.0003 37.9479 13.5525 37.5002 13.0003 37.5002H11.0003Z" fill="white"/>
<path fill-rule="evenodd" clip-rule="evenodd" d="M33.9998 36C32.8952 36 31.9998 36.8954 31.9998 38V70C31.9998 71.1046 32.8952 72 33.9998 72H37.9998C39.1043 72 39.9998 71.1046 39.9998 70V38C39.9998 36.8954 39.1043 36 37.9998 36H33.9998ZM35.0003 37.5002C34.448 37.5002 34.0003 37.9479 34.0003 38.5002V69.5002C34.0003 70.0525 34.448 70.5002 35.0003 70.5002H37.0003C37.5526 70.5002 38.0003 70.0525 38.0003 69.5002V38.5002C38.0003 37.9479 37.5526 37.5002 37.0003 37.5002H35.0003Z" fill="white"/>
<path fill-rule="evenodd" clip-rule="evenodd" d="M23.9998 30H0L3.69412 74.3322C3.86688 76.4054 5.59995 78 7.68031 78H23.9998V76.0001H8.73942C7.18781 76.0001 5.89221 74.8169 5.75174 73.2717L2 32H23.9998V30Z" fill="white"/>
<path fill-rule="evenodd" clip-rule="evenodd" d="M23.9997 30H47.9998L44.3054 74.3322C44.1326 76.4054 42.3996 78 40.3192 78H23.9997V30ZM23.9998 32H45.9998L42.2478 73.2717C42.1073 74.8169 40.8118 76.0001 39.2601 76.0001H23.9998V32Z" fill="white"/>
<path fill-rule="evenodd" clip-rule="evenodd" d="M25.3185 5.17639C23.1847 4.60462 20.9913 5.87095 20.4196 8.00482L19.3843 11.8685L34.8391 16.0096L35.8744 12.1459C36.4462 10.0121 35.1798 7.81871 33.046 7.24694L25.3185 5.17639ZM25.7669 7.36704C24.1665 6.93821 22.5215 7.88796 22.0927 9.48836L21.3162 12.3861L32.9074 15.492L33.6838 12.5942C34.1126 10.9938 33.1629 9.34878 31.5625 8.91995L25.7669 7.36704Z" fill="white"/>
<path fill-rule="evenodd" clip-rule="evenodd" d="M8.31072 6.83081C6.17686 6.25904 3.98351 7.52537 3.41174 9.65924L1.85883 15.4548L48.2233 27.8781L49.7762 22.0826C50.348 19.9487 49.0817 17.7553 46.9478 17.1836L8.31072 6.83081ZM8.75911 9.02146C7.15871 8.59263 5.5137 9.54238 5.08488 11.1428L4.30842 14.0406L46.8092 25.4286L47.5856 22.5308C48.0145 20.9304 47.0647 19.2854 45.4643 18.8566L8.75911 9.02146Z" fill="white"/>
</svg>
