<svg id="Laag_2" data-name="Laag 2" xmlns="http://www.w3.org/2000/svg" viewBox="0 0 4201.98 692.82">
  <title>xby_logo_TM</title>
  <g>
    <g>
      <polygon class="cls-1" points="239.4 0 372.72 230.93 253.03 438.25 0 0 239.4 0" fill="#56f4f1"/>
      <polygon class="cls-1" points="506.05 0 400.01 183.66 293.98 0 506.05 0" fill="#56f4f1"/>
      <polygon class="cls-2" points="800 0 546.99 438.23 427.31 230.94 560.64 0 800 0" fill="#0ed8d2"/>
      <polygon class="cls-2" points="519.7 485.5 400 692.82 280.32 485.53 400.01 278.2 519.7 485.5" fill="#0ed8d2"/>
    </g>
    <g>
      <path class="cls-3" d="M1204.8,650.23l84.68-128.17h29.88l-99.73,148,103,152.07h-29.47l-88-132.29-87.78,132.29h-29.88l103-152.07-99.94-148h29.88Z" transform="translate(-221.3 -328.59)" fill="#f2f2f2"/>
      <path class="cls-3" d="M1679.13,543.08h-102.2v279h-24.52v-279h-105.7v-21h232.42Z" transform="translate(-221.3 -328.59)" fill="#f2f2f2"/>
      <path class="cls-3" d="M1854.07,686.49V822.08h-24.72V522.27h99.94q48.21,0,74,21.12T2029,605.1a70.88,70.88,0,0,1-13.71,42.76q-13.69,18.85-38.84,27.51,27.83,7,40.08,25t12.26,45.23v28.23a88.35,88.35,0,0,0,3.3,25.14A39,39,0,0,0,2043,817.13v5h-25.14q-7.64-7.43-10.72-20.81a123.36,123.36,0,0,1-3.09-27.82V746q0-27.6-17.82-43.58t-49.76-16Zm0-21h72.33q40.59,0,59.34-16.39t18.75-44.19q0-29.67-18.64-45.65t-56.56-16h-75.22Z" transform="translate(-221.3 -328.59)" fill="#f2f2f2"/>
      <path class="cls-3" d="M2364.88,738.42H2233.21l-30.28,83.66h-25.55l110.23-300h23.29l109.41,300h-25.55Zm-123.84-22h115.81L2300,557.3h-1.24Z" transform="translate(-221.3 -328.59)" fill="#f2f2f2"/>
      <path class="cls-3" d="M2569.29,822.08v-300h87.57q46.77,0,72.95,19.68T2756,601q0,22.47-12.68,39.36t-34.1,23.9q28.44,3.51,46.47,24.73t18,49.66q0,40.17-26.07,61.81t-69.75,21.64ZM2594,656.62h72.12q31.11-.63,48.11-14.94t17-41.52q0-28.44-19-42.76t-55.43-14.32H2594Zm0,20.81V801.27h83.86q33.18,0,52.13-16.39T2749,739q0-27-18.65-43.79t-50-17.82H2594Z" transform="translate(-221.3 -328.59)" fill="#f2f2f2"/>
      <path class="cls-3" d="M3022.61,688.76l92.93-166.7h28.64l-109.41,190.4V822.08h-24.52V711.43L2901.66,522.06h28.64Z" transform="translate(-221.3 -328.59)" fill="#f2f2f2"/>
      <path class="cls-3" d="M3497.57,543.08H3395.36v279h-24.52v-279h-105.7v-21h232.43Z" transform="translate(-221.3 -328.59)" fill="#f2f2f2"/>
      <path class="cls-3" d="M3807.68,676.81H3673.13V801.27H3828.7v20.81H3648.4v-300h179.27v21H3673.13V655.79h134.55Z" transform="translate(-221.3 -328.59)" fill="#f2f2f2"/>
      <path class="cls-3" d="M4152.82,749.13q0-23.07-18.34-38.12t-62.23-28.22q-48-13.18-73-32.87t-25-53.47q0-34.41,28-56.56t71.5-22.15q45.73,0,73.56,25t27,63.57l-.41,1.24h-23.08q0-29.69-21.53-49.25t-55.53-19.58q-35,0-54.92,16.59T3998.9,596q0,22.86,18,37.6t63.57,27.51q47.39,13.8,72.32,34t24.93,53.57q0,35-29.15,56.36t-73.46,21.33q-44.31,0-77.27-22.57T3965.93,738l.41-1.24h22.87q0,34.83,26.17,51.82t59.76,17q34.41,0,56-15.76T4152.82,749.13Z" transform="translate(-221.3 -328.59)" fill="#f2f2f2"/>
    </g>
    <path class="cls-3" d="M4297.38,528.3h-31.32v96.44h-15.25V528.3h-32.55V514.09h79.12Zm110.86,17.52-1.24-.21-33,79.13h-10.51l-34-82.22-1.24.21v82h-14.84V514.09h19.37l35.24,87.16h1.23l35.86-87.16h18.13V624.74h-15Z" transform="translate(-221.3 -328.59)"  fill="#f2f2f2"/>
  </g>
</svg>
