<svg width="100" height="100" viewBox="0 0 100 100" fill="none" xmlns="http://www.w3.org/2000/svg">
<path d="M98.5,62.1c-6.7,26.8-33.8,43.1-60.6,36.4C11.1,91.8-5.2,64.7,1.5,37.9C8.2,11.1,35.3-5.2,62.1,1.5
	C88.9,8.2,105.2,35.3,98.5,62.1z" fill="#0CB8B3"/>
<polygon class="cls-2" points="35.55 28.79 47.55 49.57 36.77 68.23 14 28.79 35.55 28.79" fill="white"/>
<polygon class="cls-2" points="59.55 28.79 50 45.32 40.46 28.79 59.55 28.79" fill="white"/>
<polygon class="cls-2" points="86 28.79 63.23 68.23 52.46 49.57 64.46 28.79 86 28.79" fill="white"/>
<polygon class="cls-2" points="60.77 72.48 50 91.14 39.23 72.48 50 53.83 60.77 72.48" fill="white"/>
</svg>
