<svg width="60" height="60" viewBox="0 0 60 60" fill="none" xmlns="http://www.w3.org/2000/svg">
<path d="M30 60C46.5685 60 60 46.5685 60 30C60 13.4315 46.5685 0 30 0C13.4315 0 0 13.4315 0 30C0 46.5685 13.4315 60 30 60Z" fill="#0ED8D2"/>
<path d="M22.7168 20L28.7514 30.4L23.341 39.76L12 20H22.7168Z" fill="white"/>
<path d="M34.7861 20L30 28.216L25.2139 20H34.7861Z" fill="white"/>
<path d="M48.0005 20L36.6594 39.76L31.249 30.4L37.2837 20H48.0005Z" fill="white"/>
<path d="M35.4107 41.84L30.0002 51.2L24.5898 41.84L30.0002 32.48L35.4107 41.84Z" fill="white"/>
</svg>
