<svg width="150" height="24" viewBox="0 0 150 24" fill="none" xmlns="http://www.w3.org/2000/svg">
<path d="M8.03769 -1.48775e-07L12.5638 7.80011L8.5059 14.8202L-1.48841e-07 -1.48775e-07H8.03769Z" fill="#56F4F2"/>
<path d="M17.0904 -1.48775e-07L13.5008 6.16209L9.91113 -1.48775e-07H17.0904Z" fill="#56F4F2"/>
<path d="M26.9998 -1.48775e-07L18.4939 14.8202L14.436 7.80011L18.9621 -1.48775e-07H26.9998Z" fill="#0ED8D2"/>
<path d="M17.5576 16.3802L13.4998 23.4003L9.44189 16.3802L13.4998 9.36011L17.5576 16.3802Z" fill="#0ED8D2"/>
<path d="M34.8984 10.4375L38.1016 5.625H39.25L35.4844 11.2344L39.3672 17H38.2109L34.8984 12.0312L31.5703 17H30.4297L34.3203 11.2344L30.5469 5.625H31.6953L34.8984 10.4375ZM51.9931 6.44531H48.0947V17H47.1337V6.44531H43.2431V5.625H51.9931V6.44531ZM61.1269 12.2656H57.8222V17H56.8534V5.625H60.5487C61.7623 5.625 62.7102 5.91927 63.3925 6.50781C64.0748 7.09635 64.4159 7.91927 64.4159 8.97656C64.4159 9.70573 64.2024 10.349 63.7753 10.9062C63.3482 11.4635 62.7753 11.849 62.0566 12.0625L64.9003 16.8984V17H63.8769L61.1269 12.2656ZM57.8222 11.4453H60.7675C61.5748 11.4453 62.2232 11.2161 62.7128 10.7578C63.2024 10.2995 63.4472 9.70573 63.4472 8.97656C63.4472 8.17448 63.192 7.55208 62.6816 7.10938C62.1711 6.66667 61.455 6.44531 60.5331 6.44531H57.8222V11.4453ZM76.2137 13.8125H71.0497L69.8778 17H68.87L73.1747 5.625H74.0887L78.3934 17H77.3934L76.2137 13.8125ZM71.3466 12.9922H75.9091L73.6278 6.79688L71.3466 12.9922ZM83.1131 17V5.625H86.4725C87.6912 5.625 88.6157 5.8776 89.2459 6.38281C89.8761 6.88281 90.1912 7.6224 90.1912 8.60156C90.1912 9.1901 90.0298 9.70312 89.7069 10.1406C89.3892 10.5729 88.9517 10.8828 88.3944 11.0703C89.0558 11.2161 89.5871 11.5417 89.9881 12.0469C90.3944 12.5521 90.5975 13.1354 90.5975 13.7969C90.5975 14.8021 90.272 15.5885 89.6209 16.1562C88.9751 16.7188 88.0741 17 86.9178 17H83.1131ZM84.0741 11.5312V16.1875H86.9569C87.7798 16.1875 88.4308 15.9792 88.91 15.5625C89.3944 15.1406 89.6366 14.5573 89.6366 13.8125C89.6366 13.1094 89.4048 12.5547 88.9412 12.1484C88.4829 11.737 87.8475 11.5312 87.035 11.5312H84.0741ZM84.0741 10.7266H86.6991C87.5011 10.7109 88.1209 10.5234 88.5584 10.1641C89.0011 9.79948 89.2225 9.27083 89.2225 8.57812C89.2225 7.84896 88.9933 7.3125 88.535 6.96875C88.0819 6.61979 87.3944 6.44531 86.4725 6.44531H84.0741V10.7266ZM98.8641 11.8281L102.341 5.625H103.45L99.3406 12.7188V17H98.3797V12.7188L94.2781 5.625H95.4187L98.8641 11.8281ZM116.006 6.44531H112.107V17H111.146V6.44531H107.256V5.625H116.006V6.44531ZM127.171 11.5469H121.85V16.1875H127.967V17H120.889V5.625H127.928V6.44531H121.85V10.7344H127.171V11.5469ZM139.476 14.2031C139.476 13.5729 139.255 13.0755 138.812 12.7109C138.369 12.3411 137.56 11.9922 136.382 11.6641C135.205 11.3307 134.346 10.9688 133.804 10.5781C133.034 10.026 132.648 9.30208 132.648 8.40625C132.648 7.53646 133.005 6.83073 133.718 6.28906C134.437 5.74219 135.354 5.46875 136.468 5.46875C137.224 5.46875 137.898 5.61458 138.492 5.90625C139.091 6.19792 139.554 6.60417 139.882 7.125C140.211 7.64583 140.375 8.22656 140.375 8.86719H139.406C139.406 8.09115 139.14 7.46875 138.609 7C138.078 6.52604 137.364 6.28906 136.468 6.28906C135.599 6.28906 134.906 6.48438 134.39 6.875C133.875 7.26042 133.617 7.76562 133.617 8.39062C133.617 8.96875 133.849 9.4401 134.312 9.80469C134.776 10.1693 135.518 10.4922 136.539 10.7734C137.56 11.0495 138.333 11.3385 138.859 11.6406C139.385 11.9375 139.781 12.2943 140.047 12.7109C140.312 13.1276 140.445 13.6198 140.445 14.1875C140.445 15.0833 140.086 15.8021 139.367 16.3438C138.653 16.8854 137.711 17.1562 136.539 17.1562C135.737 17.1562 135 17.013 134.328 16.7266C133.661 16.4401 133.153 16.0391 132.804 15.5234C132.461 15.0078 132.289 14.4167 132.289 13.75H133.25C133.25 14.5521 133.549 15.1849 134.148 15.6484C134.747 16.112 135.544 16.3438 136.539 16.3438C137.424 16.3438 138.135 16.1484 138.672 15.7578C139.208 15.3672 139.476 14.849 139.476 14.2031Z" fill="#F2F2F2"/>
<path d="M144.861 5.70166H143.643V9H143.343V5.70166H142.127V5.44531H144.861V5.70166ZM145.835 5.44531L147.146 8.58252L148.462 5.44531H148.863V9H148.562V7.45215L148.587 5.86523L147.264 9H147.032L145.713 5.87744L145.738 7.44238V9H145.438V5.44531H145.835Z" fill="#F2F2F2"/>
</svg>
