<svg id="Layer_1" data-name="Layer 1" xmlns="http://www.w3.org/2000/svg" xmlns:xlink="http://www.w3.org/1999/xlink" viewBox="0 0 250 250">
  <defs>
    <style>
      .cls-1 {
        fill: url(#linear-gradient);
      }

      .cls-2 {
        fill: url(#linear-gradient-2);
      }
    </style>
    <linearGradient id="linear-gradient" x1="144.07" y1="67.06" x2="129.93" y2="52.92" gradientUnits="userSpaceOnUse">
      <stop offset="0" stop-color="#5e8bff"/>
      <stop offset="0.21" stop-color="#5d9bfd"/>
      <stop offset="0.6" stop-color="#5ac5f7"/>
      <stop offset="1" stop-color="#56f4f1"/>
    </linearGradient>
    <linearGradient id="linear-gradient-2" x1="235.56" y1="235.56" x2="61.61" y2="61.6" xlink:href="#linear-gradient"/>
  </defs>
  <title>XCHAT icon color</title>
  <g>
    <circle class="cls-1" cx="137" cy="59.99" r="10"/>
    <path class="cls-2" d="M275,150a124.47,124.47,0,0,1-16.73,62.52h0a7.5,7.5,0,0,1-13.25-7s0,0,0,0,.18-.29.26-.44l.3-.51s0,0,0,0a109.95,109.95,0,0,0-91.78-164.4,0,0,0,0,0,0,0,6,6,0,0,0-1-.07,5.49,5.49,0,0,0-.58,0s0,0,0,0a7.48,7.48,0,0,0-6.9,7.47l-1.91,20.44h0l-.91,9.76A22.35,22.35,0,0,1,137,92.43l-12,14.22-7.45,8.83-9.67,11.46H128l1,0a17.39,17.39,0,0,1,8.65,2.86c9.64,7.44,5.13,26.89,4.28,29.08l-.06.12c-.43.77-.85,1.52-1.21,2.27a4.54,4.54,0,0,0-.21.45c-.07.15-.14.3-.2.45s-.16.4-.23.6a7.81,7.81,0,0,0-.26.82,3.89,3.89,0,0,0-.12.49,2,2,0,0,0,0,.24c0,.16-.06.32-.08.49s0,.32,0,.48,0,.33,0,.5a7.47,7.47,0,0,0,2.2,5.23c.16.16.33.31.5.46-.17.14-.34.29-.5.45a7.5,7.5,0,0,0-2.2,5.38c0,8.7,1.71,9.47,1.47,16.77l-.18,2.3h.06a5,5,0,0,0,5,5h35.57a22.5,22.5,0,0,1,22.5,22.5,22.09,22.09,0,0,1-1.16,7.12l-.21.63-6.17,18.15-2.08,6.12a22.49,22.49,0,0,1-16.78,16v0A125,125,0,0,1,87.49,41.72v0l.08,0a7.4,7.4,0,0,1,3.73-1A7.5,7.5,0,0,1,95.5,54.41l-.51.3-.44.26h0A110,110,0,0,0,150,260c.78,0,1.56,0,2.33,0a108.89,108.89,0,0,0,21.82-2.64h0a7.51,7.51,0,0,0,5.59-5.34h0l1.9-5.58,4.77-14.07,2-6h0a7.14,7.14,0,0,0,.39-2.37,7.49,7.49,0,0,0-7.5-7.5H145.76a20,20,0,0,1-20-20,19.59,19.59,0,0,1,.3-3.45c.07-.77.13-1.5.19-2.21.3-3.87.29-7-1.21-10.49a7.58,7.58,0,0,1-.63-3,7.45,7.45,0,0,1,2.63-5.7,7.46,7.46,0,0,1-1.42-9.76,6.72,6.72,0,0,1,.5-.69l.06-.07a14.12,14.12,0,0,0,2.11-3.43.18.18,0,0,1,0-.09c1.37-3,2.17-6.89,2.17-13.06a2.5,2.5,0,0,0-2.5-2.5H107.85a15,15,0,0,1-12.64-23.06l2.51-3,14.37-17.12L117,92.88l8.6-10.25v0h0a7.43,7.43,0,0,0,1.84-4.91l1.81-20.48L130.37,46h0l.11-1.15a22.76,22.76,0,0,1,.62-3.21,22.51,22.51,0,0,1,11.44-14.15A22.24,22.24,0,0,1,152.05,25h0a0,0,0,0,1,0,0c.86,0,1.73,0,2.59.07h.11c.11,0,.22,0,.33,0A125,125,0,0,1,275,150Z" transform="translate(-25 -25)"/>
  </g>
</svg>
