<svg id="Layer_1" data-name="Layer 1" xmlns="http://www.w3.org/2000/svg" xmlns:xlink="http://www.w3.org/1999/xlink" viewBox="0 0 250 250">
  <defs>
    <style>
      .cls-1 {
        fill: url(#linear-gradient);
      }
    </style>
    <linearGradient id="linear-gradient" x1="238.39" y1="238.39" x2="61.61" y2="61.61" gradientUnits="userSpaceOnUse">
      <stop offset="0" stop-color="#5e8bff"/>
      <stop offset="1" stop-color="#56f4f1"/>
    </linearGradient>
  </defs>
  <title>XCHANGE 02 color</title>
  <path class="cls-1" d="M275,150A125,125,0,0,1,61.61,238.39a7.5,7.5,0,1,1,10.61-10.61c1.37,1.37,2.78,2.71,4.22,4a110,110,0,0,0,181.39-59.92A110.78,110.78,0,0,0,260,150a7.5,7.5,0,0,0-7.5-7.5h-15a7.48,7.48,0,0,1-5.3-2.2l-13.46-12.8-1.2-1.14-.66,1.14-8.66,15L182.3,187.4a7.68,7.68,0,0,1-1.19,1.55l-.05.05L159.9,210.17a7.5,7.5,0,0,1-10.61,0,7.4,7.4,0,0,1-1.94-3.37l-9.19-34.3-4-15-8-29.8L112.71,151a7.59,7.59,0,0,1-1.24,1.6,7.51,7.51,0,0,1-9,1.15,9.76,9.76,0,0,1-.82-.55,6.69,6.69,0,0,1-.79-.7L86.71,138.08,75.5,157.5,69,168.75c-.09.15-.18.3-.28.44a3.91,3.91,0,0,1-.3.41h0c-.1.13-.21.26-.32.38a3.89,3.89,0,0,1-.34.36,7.44,7.44,0,0,1-3.35,1.9,7.28,7.28,0,0,1-1.92.25h-15a22.21,22.21,0,0,1-5.32-.64h0A22.5,22.5,0,0,1,25,150,125,125,0,0,1,150,25q5,0,9.88.38c1.83.15,3.66.33,5.47.55a124.79,124.79,0,0,1,20.49,4.28l2.16.67a124.38,124.38,0,0,1,18.8,7.74c.38.19.76.39,1.13.6q2.12,1.08,4.17,2.27l.28.16,2.44,1.45q5.16,3.12,10,6.73c.8.6,1.6,1.21,2.38,1.83q2.37,1.86,4.63,3.82t4.3,3.9c.75.71,1.48,1.42,2.21,2.16a.27.27,0,0,1,.07.08l.06.05a.34.34,0,0,1,.06.06.07.07,0,0,1,0,.05,5.08,5.08,0,0,1,.44.5,7.32,7.32,0,0,1,.76,1.17A6.11,6.11,0,0,1,240,64a7.48,7.48,0,0,1-1.62,8.19,8.26,8.26,0,0,1-1.18,1,7.5,7.5,0,0,1-8.22,0,2.73,2.73,0,0,1-.3-.21c-.12-.08-.23-.17-.34-.26a6.91,6.91,0,0,1-.57-.51A109.62,109.62,0,0,0,150,40c-.93,0-1.85,0-2.77,0h-.47l-2,.07-1.69.1-.8.05q-.78,0-1.56.12c-.47,0-.93.08-1.39.13s-.65,0-1,.09c-.49,0-1,.1-1.45.17s-1,.11-1.5.18c-.72.09-1.44.2-2.16.31q-2.58.39-5.13.9c-1.7.35-3.39.73-5.07,1.16-.35.08-.71.17-1.06.27-.59.15-1.17.31-1.76.48l-.71.2c-.47.13-1,.27-1.42.42l-1.4.43q-4.58,1.45-9,3.29l-1.21.52c-.6.25-1.19.51-1.78.78-.78.35-1.56.71-2.33,1.09l-.23.11c-.5.24-1,.48-1.5.74s-.8.4-1.2.61q-4.68,2.41-9.09,5.28c-.62.39-1.23.8-1.84,1.21l-.11.08q-.81.54-1.62,1.11l-1.37,1-.09.07c-.57.41-1.14.83-1.7,1.26q-3.95,3-7.61,6.32c-.65.59-1.3,1.19-1.93,1.8-.29.28-.59.55-.88.84l-.86.85-.39.39c-.45.45-.89.9-1.32,1.36a6.23,6.23,0,0,0-.44.46c-.53.55-1,1.1-1.54,1.66a.8.8,0,0,0-.13.13c-.33.36-.66.73-1,1.1s-.59.66-.87,1l-.5.58c-.36.43-.73.86-1.08,1.29-1,1.16-1.89,2.33-2.79,3.53q-.59.75-1.14,1.53l-.47.63-.82,1.17c-.38.53-.75,1.07-1.11,1.61s-.88,1.3-1.29,2q-2.84,4.38-5.24,9c-.17.32-.34.64-.5,1-.3.59-.6,1.19-.88,1.79a.91.91,0,0,0-.07.14c-.31.65-.62,1.3-.91,2s-.57,1.25-.84,1.88c-.19.42-.37.85-.55,1.27q-1,2.33-1.84,4.69c-.31.84-.6,1.69-.89,2.54s-.5,1.5-.74,2.25c-.14.47-.29.93-.42,1.4-.08.25-.15.49-.22.73-.15.51-.3,1-.43,1.54s-.23.81-.33,1.21-.19.69-.27,1c-.2.76-.38,1.52-.55,2.28s-.3,1.29-.43,1.94c-.08.35-.15.69-.22,1q-.51,2.54-.9,5.11c-.08.53-.16,1.07-.23,1.6s-.12.89-.18,1.33c-.11.86-.2,1.71-.29,2.57s-.18,1.86-.25,2.79Q40,145.73,40,150a7.5,7.5,0,0,0,7.5,7.5H58.17L78.5,122.28c0,.08-.09.16-.13.24a2.48,2.48,0,0,1,.18-.31l.19-.31a8.77,8.77,0,0,1,1-1.17c.18-.18.37-.35.56-.51l0,0a5.79,5.79,0,0,1,.58-.43h0a6.21,6.21,0,0,1,.6-.35l.08,0c.2-.11.4-.2.61-.29l.54-.19.3-.08a5.09,5.09,0,0,1,.56-.14,5.4,5.4,0,0,1,.58-.09,2.22,2.22,0,0,1,.37,0,7.69,7.69,0,0,1,1,0c.13,0,.25,0,.38,0a5.62,5.62,0,0,1,.57.09,5.73,5.73,0,0,1,.56.14l.3.08.25.09a2,2,0,0,1,.31.12,5.11,5.11,0,0,1,.48.22,3.84,3.84,0,0,1,.35.18l.07,0a6.59,6.59,0,0,1,1,.74,4.91,4.91,0,0,1,.48.43.46.46,0,0,1,.07.07L104.61,135l17.61-30.51a1.14,1.14,0,0,0-.1.19,2.86,2.86,0,0,1,.24-.42.56.56,0,0,1,0-.08l.2-.3c.06-.09.12-.16.18-.24s0,0,0,0a7.53,7.53,0,0,1,.65-.73.86.86,0,0,1,.14-.13c.13-.12.26-.24.4-.35s.32-.25.49-.37.34-.22.52-.32a6,6,0,0,1,.67-.34l.48-.19a5.58,5.58,0,0,1,.58-.18,7.14,7.14,0,0,1,2.65-.23,2.42,2.42,0,0,1,.47,0,7,7,0,0,1,2.42.82,4.49,4.49,0,0,1,.42.24.18.18,0,0,1,.07,0c.15.09.29.19.43.29l.12.09a9.45,9.45,0,0,1,.75.67,7,7,0,0,1,.51.58,3.72,3.72,0,0,1,.33.45,2.06,2.06,0,0,1,.23.37,6.47,6.47,0,0,1,.44.82c0,.13.11.26.16.4s.16.48.23.73l13.7,51.13,8.81,32.88,12-12v0l20.53-35.83,8.59-15L209.11,111l.2-.36a7.09,7.09,0,0,1,1.06-1.42,7.51,7.51,0,0,1,10.61-.27l19.51,18.57h12a22.29,22.29,0,0,1,5.33.64l.58.15.49.14.14,0h0l1,.34c.36.12.72.26,1.07.41s.6.25.89.39l.24.11.47.24.46.24q.51.27,1,.57c.32.19.64.4.95.61s.62.43.92.66l.86.67c.3.26.59.51.87.78s.28.25.41.39.27.26.4.4.52.53.76.81l.56.66c.27.32.53.65.77,1s.33.46.49.7l.06.09.32.49s0,0,0,.06l.14.22.14.23,0,0,.11.18s0,0,0,0l.16.29c.16.27.3.54.44.82.28.55.54,1.12.77,1.7q.18.43.33.87c.09.25.17.49.25.74l.09.29c.08.26.15.52.22.77s.15.62.22.93.13.59.18.88a.68.68,0,0,1,0,.14c.05.29.09.58.13.87l.09.8c0,.15,0,.28,0,.43v0c0,.24,0,.48,0,.72S275,149.69,275,150Z" transform="translate(-25 -25)"/>
</svg>
