<svg width="25" height="25" viewBox="0 0 25 25" fill="none" xmlns="http://www.w3.org/2000/svg">
<path d="M12.5 25C19.4036 25 25 19.4036 25 12.5C25 5.59644 19.4036 0 12.5 0C5.59644 0 0 5.59644 0 12.5C0 19.4036 5.59644 25 12.5 25Z" fill="#FFAE11"/>
<path d="M9.15229 7L12.0536 12L9.45242 16.5L4 7H9.15229Z" fill="white"/>
<path d="M14.9551 7L12.654 10.95L10.353 7H14.9551Z" fill="white"/>
<path d="M21.3077 7L15.8553 16.5L13.2542 12L16.1554 7H21.3077Z" fill="white"/>
<path d="M15.255 17.5L12.6539 22L10.0527 17.5L12.6539 13L15.255 17.5Z" fill="white"/>
</svg>
