<svg width="100" height="100" viewBox="0 0 100 100" fill="none" xmlns="http://www.w3.org/2000/svg">
<path d="M98.5,62.1c-6.7,26.8-33.8,43.1-60.6,36.4C11.1,91.8-5.2,64.7,1.5,37.9C8.2,11.1,35.3-5.2,62.1,1.5
	C88.9,8.2,105.2,35.3,98.5,62.1z" fill="#ff8400"/>
<path class="cls-2" d="M78.17,61.17c0-.12,0-.24,0-.37a1.93,1.93,0,0,0,0-.24,4.89,4.89,0,0,0,0-.54v0c0-.21,0-.41,0-.62s0-.3,0-.45C76.81,45.9,62.82,21.11,38,10c8,16.75.19,23.15-7.88,31.89A28.18,28.18,0,1,0,78.18,61.82C78.18,61.61,78.18,61.39,78.17,61.17ZM43,60.19a7,7,0,0,1,.65-2.94h0a6.88,6.88,0,0,1,1.42-2c2-2.19,4-3.78,2-8,6.22,2.77,9.71,9,10,12.23,0,0,0,.08,0,.11s0,.11,0,.16,0,.09,0,.14V60a.92.92,0,0,1,0,.16,7,7,0,0,1-14.1,0Z" fill="white"/>
</svg>
