<svg width="100" height="100" viewBox="0 0 100 100" fill="none" xmlns="http://www.w3.org/2000/svg">
<path d="M50 100C77.6142 100 100 77.6142 100 50C100 22.3858 77.6142 0 50 0C22.3858 0 0 22.3858 0 50C0 77.6142 22.3858 100 50 100Z" fill="#FFAE11"/>
<path d="M36.6092 28L48.2143 48L37.8097 66L16 28H36.6092Z" fill="white"/>
<path d="M59.8203 28L50.6162 43.8L41.4121 28H59.8203Z" fill="white"/>
<path d="M85.2309 28L63.4212 66L53.0166 48L64.6218 28H85.2309Z" fill="white"/>
<path d="M61.0202 70L50.6156 88L40.2109 70L50.6156 52L61.0202 70Z" fill="white"/>
</svg>
