<svg id="Layer_1" data-name="Layer 1" xmlns="http://www.w3.org/2000/svg" xmlns:xlink="http://www.w3.org/1999/xlink" viewBox="0 0 247.92 250">
  <defs>
    <style>
      .cls-1 {
        fill: url(#linear-gradient);
      }
    </style>
    <linearGradient id="linear-gradient" x1="61.61" y1="61.61" x2="238.39" y2="238.39" gradientUnits="userSpaceOnUse">
      <stop offset="0" stop-color="#56f4f1"/>
      <stop offset="0.16" stop-color="#57ebf2"/>
      <stop offset="0.44" stop-color="#59d1f6"/>
      <stop offset="0.79" stop-color="#5ca8fb"/>
      <stop offset="1" stop-color="#5e8bff"/>
    </linearGradient>
  </defs>
  <title>XVAULT icon 02 color</title>
  <path class="cls-1" d="M273.34,129.57A125,125,0,0,0,41.73,87.49h0l-.11.18a7.5,7.5,0,0,0,12.94,7.57,2,2,0,0,0,.14-.25h0a1.62,1.62,0,0,0,.1-.18,110.05,110.05,0,0,1,198.66,17.78,108.07,108.07,0,0,1,5.16,20.13A7.16,7.16,0,0,1,259,135a.41.41,0,0,1,0,.11,7.49,7.49,0,0,1-7.49,7.39H225a2.3,2.3,0,0,0-.37,0v0H194.38a44.77,44.77,0,0,0-7.7-18.57l21.39-21.39h0a3.45,3.45,0,0,0,.28-.26,7.5,7.5,0,0,0-10.61-10.61,3.45,3.45,0,0,0-.26.28h0l-21.39,21.39a44.63,44.63,0,0,0-18.57-7.69V75.37h0a2.3,2.3,0,0,0,0-.37,7.5,7.5,0,0,0-15,0,2.3,2.3,0,0,0,0,.37h0v30.26a44.63,44.63,0,0,0-18.57,7.69L102.54,91.93h0a3.45,3.45,0,0,0-.26-.28,7.5,7.5,0,0,0-10.61,10.61,3.45,3.45,0,0,0,.28.26,0,0,0,0,0,0,0l21.39,21.39a44.77,44.77,0,0,0-7.7,18.57l-30.25,0h-.79l-24.71,0H47.26a22.19,22.19,0,0,0-7.11,1.59l0,0A22.48,22.48,0,0,0,27.34,157.5a22.17,22.17,0,0,0-1.29,7.5c0,.64,0,1.28.08,1.91.13.92.26,1.83.41,2.74a125,125,0,0,0,231.73,42.86h0l.11-.18a7.5,7.5,0,0,0-12.94-7.57,2,2,0,0,0-.14.25h0a1.62,1.62,0,0,0-.1.18A110,110,0,0,1,46.52,187.4a108.66,108.66,0,0,1-5.24-20.59,6.67,6.67,0,0,1-.21-1.42,2.55,2.55,0,0,1,0-.39,7.5,7.5,0,0,1,7.5-7.5H75a2.3,2.3,0,0,0,.37,0v0h30.26a44.63,44.63,0,0,0,7.69,18.57L91.93,197.46h0a3.45,3.45,0,0,0-.28.26,7.5,7.5,0,0,0,10.61,10.61,3.45,3.45,0,0,0,.26-.28h0l21.4-21.4a44.6,44.6,0,0,0,18.56,7.7v30.26h0a2.3,2.3,0,0,0,0,.37,7.5,7.5,0,0,0,15,0,2.3,2.3,0,0,0,0-.37h0V194.37a44.63,44.63,0,0,0,18.57-7.69l21.39,21.39h0a3.45,3.45,0,0,0,.26.28,7.5,7.5,0,0,0,10.61-10.61,3.45,3.45,0,0,0-.28-.26h0l-21.39-21.39a44.63,44.63,0,0,0,7.69-18.57h30.26v0a2.3,2.3,0,0,0,.37,0h26.5a22.51,22.51,0,0,0,21.21-15l1.26-8.64v0C273.78,132.41,273.57,131,273.34,129.57ZM179.05,157.5A30.08,30.08,0,1,1,180,150,29.77,29.77,0,0,1,179.05,157.5Z" transform="translate(-26.05 -25)"/>
</svg>
