<?xml version="1.0" encoding="UTF-8"?>
<svg width="17px" height="15px" viewBox="0 0 17 15" version="1.1" xmlns="http://www.w3.org/2000/svg" xmlns:xlink="http://www.w3.org/1999/xlink">
    <!-- Generator: Sketch 46.2 (44496) - http://www.bohemiancoding.com/sketch -->
    <title>calendar</title>
    <desc>Created with Sketch.</desc>
    <defs></defs>
    <g id="Page-1" stroke="none" stroke-width="1" fill="none" fill-rule="evenodd">
        <g id="calendar" fill-rule="nonzero" fill="#A9AAAD">
            <g id="Fill-24">
                <g id="path0_fill-link">
                    <path d="M16.15,4.16667 L0.85,4.16667 L0.85,2.08333 C0.85,1.85333 1.0404,1.66667 1.275,1.66667 L3.4,1.66667 L3.4,2.91667 C3.4,3.14667 3.5904,3.33333 3.825,3.33333 C4.0596,3.33333 4.25,3.14667 4.25,2.91667 L4.25,1.66667 L12.75,1.66667 L12.75,2.91667 C12.75,3.14667 12.9404,3.33333 13.175,3.33333 C13.4096,3.33333 13.6,3.14667 13.6,2.91667 L13.6,1.66667 L15.725,1.66667 C15.9596,1.66667 16.15,1.85333 16.15,2.08333 L16.15,4.16667 Z M16.15,13.75 C16.15,13.98 15.9596,14.1667 15.725,14.1667 L1.275,14.1667 C1.0404,14.1667 0.85,13.98 0.85,13.75 L0.85,5 L16.15,5 L16.15,13.75 Z M15.725,0.833333 L13.6,0.833333 L13.6,0.416667 C13.6,0.186667 13.4096,-2.1855e-09 13.175,-2.1855e-09 C12.9404,-2.1855e-09 12.75,0.186667 12.75,0.416667 L12.75,0.833333 L4.25,0.833333 L4.25,0.416667 C4.25,0.186667 4.0596,-2.1855e-09 3.825,-2.1855e-09 C3.5904,-2.1855e-09 3.4,0.186667 3.4,0.416667 L3.4,0.833333 L1.275,0.833333 C0.57205,0.833333 7.70092e-09,1.39417 7.70092e-09,2.08333 L7.70092e-09,13.75 C7.70092e-09,14.44 0.57205,15 1.275,15 L15.725,15 C16.4279,15 17,14.44 17,13.75 L17,2.08333 C17,1.39417 16.4279,0.833333 15.725,0.833333 Z" id="path0_fill"></path>
                </g>
            </g>
            <g id="Fill-25" transform="translate(5.000000, 6.000000)">
                <g id="path1_fill-link" transform="translate(0.100000, 0.670000)">
                    <path d="M0.425,0.833333 L1.275,0.833333 C1.5096,0.833333 1.7,0.646667 1.7,0.416667 C1.7,0.186667 1.5096,1.71661e-07 1.275,1.71661e-07 L0.425,1.71661e-07 C0.1904,1.71661e-07 5.83649e-08,0.186667 5.83649e-08,0.416667 C5.83649e-08,0.646667 0.1904,0.833333 0.425,0.833333 Z" id="path1_fill"></path>
                </g>
            </g>
            <g id="Fill-26" transform="translate(7.000000, 6.000000)">
                <g id="path1_fill-link" transform="translate(0.650000, 0.670000)">
                    <path d="M0.425,0.833333 L1.275,0.833333 C1.5096,0.833333 1.7,0.646667 1.7,0.416667 C1.7,0.186667 1.5096,1.71661e-07 1.275,1.71661e-07 L0.425,1.71661e-07 C0.1904,1.71661e-07 5.83649e-08,0.186667 5.83649e-08,0.416667 C5.83649e-08,0.646667 0.1904,0.833333 0.425,0.833333 Z" id="path1_fill"></path>
                </g>
            </g>
            <g id="Fill-27" transform="translate(10.000000, 6.000000)">
                <g id="path1_fill-link" transform="translate(0.200000, 0.670000)">
                    <path d="M0.425,0.833333 L1.275,0.833333 C1.5096,0.833333 1.7,0.646667 1.7,0.416667 C1.7,0.186667 1.5096,1.71661e-07 1.275,1.71661e-07 L0.425,1.71661e-07 C0.1904,1.71661e-07 5.83649e-08,0.186667 5.83649e-08,0.416667 C5.83649e-08,0.646667 0.1904,0.833333 0.425,0.833333 Z" id="path1_fill"></path>
                </g>
            </g>
            <g id="Fill-28" transform="translate(12.000000, 6.000000)">
                <g id="path2_fill-link" transform="translate(0.750000, 0.670000)">
                    <path d="M0.424999,0.833333 L1.275,0.833333 C1.5096,0.833333 1.7,0.646667 1.7,0.416667 C1.7,0.186667 1.5096,1.71661e-07 1.275,1.71661e-07 L0.424999,1.71661e-07 C0.190399,1.71661e-07 5.83649e-08,0.186667 5.83649e-08,0.416667 C5.83649e-08,0.646667 0.190399,0.833333 0.424999,0.833333 Z" id="path2_fill"></path>
                </g>
            </g>
            <g id="Fill-29" transform="translate(2.000000, 8.000000)">
                <g id="path1_fill-link" transform="translate(0.550000, 0.330000)">
                    <path d="M0.425,0.833333 L1.275,0.833333 C1.5096,0.833333 1.7,0.646667 1.7,0.416667 C1.7,0.186667 1.5096,1.71661e-07 1.275,1.71661e-07 L0.425,1.71661e-07 C0.1904,1.71661e-07 5.83649e-08,0.186667 5.83649e-08,0.416667 C5.83649e-08,0.646667 0.1904,0.833333 0.425,0.833333 Z" id="path1_fill"></path>
                </g>
            </g>
            <g id="Fill-30" transform="translate(5.000000, 8.000000)">
                <g id="path1_fill-link" transform="translate(0.100000, 0.330000)">
                    <path d="M0.425,0.833333 L1.275,0.833333 C1.5096,0.833333 1.7,0.646667 1.7,0.416667 C1.7,0.186667 1.5096,1.71661e-07 1.275,1.71661e-07 L0.425,1.71661e-07 C0.1904,1.71661e-07 5.83649e-08,0.186667 5.83649e-08,0.416667 C5.83649e-08,0.646667 0.1904,0.833333 0.425,0.833333 Z" id="path1_fill"></path>
                </g>
            </g>
            <g id="Fill-31" transform="translate(7.000000, 8.000000)">
                <g id="path1_fill-link" transform="translate(0.650000, 0.330000)">
                    <path d="M0.425,0.833333 L1.275,0.833333 C1.5096,0.833333 1.7,0.646667 1.7,0.416667 C1.7,0.186667 1.5096,1.71661e-07 1.275,1.71661e-07 L0.425,1.71661e-07 C0.1904,1.71661e-07 5.83649e-08,0.186667 5.83649e-08,0.416667 C5.83649e-08,0.646667 0.1904,0.833333 0.425,0.833333 Z" id="path1_fill"></path>
                </g>
            </g>
            <g id="Fill-32" transform="translate(10.000000, 8.000000)">
                <g id="path1_fill-link" transform="translate(0.200000, 0.330000)">
                    <path d="M0.425,0.833333 L1.275,0.833333 C1.5096,0.833333 1.7,0.646667 1.7,0.416667 C1.7,0.186667 1.5096,1.71661e-07 1.275,1.71661e-07 L0.425,1.71661e-07 C0.1904,1.71661e-07 5.83649e-08,0.186667 5.83649e-08,0.416667 C5.83649e-08,0.646667 0.1904,0.833333 0.425,0.833333 Z" id="path1_fill"></path>
                </g>
            </g>
            <g id="Fill-33" transform="translate(12.000000, 8.000000)">
                <g id="path2_fill-link" transform="translate(0.750000, 0.330000)">
                    <path d="M0.424999,0.833333 L1.275,0.833333 C1.5096,0.833333 1.7,0.646667 1.7,0.416667 C1.7,0.186667 1.5096,1.71661e-07 1.275,1.71661e-07 L0.424999,1.71661e-07 C0.190399,1.71661e-07 5.83649e-08,0.186667 5.83649e-08,0.416667 C5.83649e-08,0.646667 0.190399,0.833333 0.424999,0.833333 Z" id="path2_fill"></path>
                </g>
            </g>
            <g id="Fill-34" transform="translate(2.000000, 10.000000)">
                <g id="path1_fill-link" transform="translate(0.550000, 0.000000)">
                    <path d="M0.425,0.833333 L1.275,0.833333 C1.5096,0.833333 1.7,0.646667 1.7,0.416667 C1.7,0.186667 1.5096,1.71661e-07 1.275,1.71661e-07 L0.425,1.71661e-07 C0.1904,1.71661e-07 5.83649e-08,0.186667 5.83649e-08,0.416667 C5.83649e-08,0.646667 0.1904,0.833333 0.425,0.833333 Z" id="path1_fill"></path>
                </g>
            </g>
            <g id="Fill-35" transform="translate(5.000000, 10.000000)">
                <g id="path1_fill-link" transform="translate(0.100000, 0.000000)">
                    <path d="M0.425,0.833333 L1.275,0.833333 C1.5096,0.833333 1.7,0.646667 1.7,0.416667 C1.7,0.186667 1.5096,1.71661e-07 1.275,1.71661e-07 L0.425,1.71661e-07 C0.1904,1.71661e-07 5.83649e-08,0.186667 5.83649e-08,0.416667 C5.83649e-08,0.646667 0.1904,0.833333 0.425,0.833333 Z" id="path1_fill"></path>
                </g>
            </g>
            <g id="Fill-36" transform="translate(7.000000, 10.000000)">
                <g id="path1_fill-link" transform="translate(0.650000, 0.000000)">
                    <path d="M0.425,0.833333 L1.275,0.833333 C1.5096,0.833333 1.7,0.646667 1.7,0.416667 C1.7,0.186667 1.5096,1.71661e-07 1.275,1.71661e-07 L0.425,1.71661e-07 C0.1904,1.71661e-07 5.83649e-08,0.186667 5.83649e-08,0.416667 C5.83649e-08,0.646667 0.1904,0.833333 0.425,0.833333 Z" id="path1_fill"></path>
                </g>
            </g>
            <g id="Fill-37" transform="translate(10.000000, 10.000000)">
                <g id="path1_fill-link" transform="translate(0.200000, 0.000000)">
                    <path d="M0.425,0.833333 L1.275,0.833333 C1.5096,0.833333 1.7,0.646667 1.7,0.416667 C1.7,0.186667 1.5096,1.71661e-07 1.275,1.71661e-07 L0.425,1.71661e-07 C0.1904,1.71661e-07 5.83649e-08,0.186667 5.83649e-08,0.416667 C5.83649e-08,0.646667 0.1904,0.833333 0.425,0.833333 Z" id="path1_fill"></path>
                </g>
            </g>
            <g id="Fill-38" transform="translate(12.000000, 10.000000)">
                <g id="path2_fill-link" transform="translate(0.750000, 0.000000)">
                    <path d="M0.424999,0.833333 L1.275,0.833333 C1.5096,0.833333 1.7,0.646667 1.7,0.416667 C1.7,0.186667 1.5096,1.71661e-07 1.275,1.71661e-07 L0.424999,1.71661e-07 C0.190399,1.71661e-07 5.83649e-08,0.186667 5.83649e-08,0.416667 C5.83649e-08,0.646667 0.190399,0.833333 0.424999,0.833333 Z" id="path2_fill"></path>
                </g>
            </g>
            <g id="Fill-39" transform="translate(2.000000, 11.000000)">
                <g id="path1_fill-link" transform="translate(0.550000, 0.670000)">
                    <path d="M0.425,0.833333 L1.275,0.833333 C1.5096,0.833333 1.7,0.646667 1.7,0.416667 C1.7,0.186667 1.5096,1.71661e-07 1.275,1.71661e-07 L0.425,1.71661e-07 C0.1904,1.71661e-07 5.83649e-08,0.186667 5.83649e-08,0.416667 C5.83649e-08,0.646667 0.1904,0.833333 0.425,0.833333 Z" id="path1_fill"></path>
                </g>
            </g>
            <g id="Fill-40" transform="translate(5.000000, 11.000000)">
                <g id="path1_fill-link" transform="translate(0.100000, 0.670000)">
                    <path d="M0.425,0.833333 L1.275,0.833333 C1.5096,0.833333 1.7,0.646667 1.7,0.416667 C1.7,0.186667 1.5096,1.71661e-07 1.275,1.71661e-07 L0.425,1.71661e-07 C0.1904,1.71661e-07 5.83649e-08,0.186667 5.83649e-08,0.416667 C5.83649e-08,0.646667 0.1904,0.833333 0.425,0.833333 Z" id="path1_fill"></path>
                </g>
            </g>
            <g id="Fill-41" transform="translate(7.000000, 11.000000)">
                <g id="path1_fill-link" transform="translate(0.650000, 0.670000)">
                    <path d="M0.425,0.833333 L1.275,0.833333 C1.5096,0.833333 1.7,0.646667 1.7,0.416667 C1.7,0.186667 1.5096,1.71661e-07 1.275,1.71661e-07 L0.425,1.71661e-07 C0.1904,1.71661e-07 5.83649e-08,0.186667 5.83649e-08,0.416667 C5.83649e-08,0.646667 0.1904,0.833333 0.425,0.833333 Z" id="path1_fill"></path>
                </g>
            </g>
            <g id="Fill-42" transform="translate(10.000000, 11.000000)">
                <g id="path1_fill-link" transform="translate(0.200000, 0.670000)">
                    <path d="M0.425,0.833333 L1.275,0.833333 C1.5096,0.833333 1.7,0.646667 1.7,0.416667 C1.7,0.186667 1.5096,1.71661e-07 1.275,1.71661e-07 L0.425,1.71661e-07 C0.1904,1.71661e-07 5.83649e-08,0.186667 5.83649e-08,0.416667 C5.83649e-08,0.646667 0.1904,0.833333 0.425,0.833333 Z" id="path1_fill"></path>
                </g>
            </g>
            <g id="Fill-43" transform="translate(12.000000, 11.000000)">
                <g id="path2_fill-link" transform="translate(0.750000, 0.670000)">
                    <path d="M0.424999,0.833333 L1.275,0.833333 C1.5096,0.833333 1.7,0.646667 1.7,0.416667 C1.7,0.186667 1.5096,1.71661e-07 1.275,1.71661e-07 L0.424999,1.71661e-07 C0.190399,1.71661e-07 5.83649e-08,0.186667 5.83649e-08,0.416667 C5.83649e-08,0.646667 0.190399,0.833333 0.424999,0.833333 Z" id="path2_fill"></path>
                </g>
            </g>
        </g>
    </g>
</svg>