<svg width="14" height="14" viewBox="0 0 14 14" version="1.1" xmlns="http://www.w3.org/2000/svg" xmlns:xlink="http://www.w3.org/1999/xlink">
<title>Fill 58</title>
<desc>Created using Figma</desc>
<g id="Canvas" transform="translate(-6033 -904)">
<g id="Fill 58">
<use xlink:href="#path0_fill" transform="translate(6033 904)" fill="#0ED8D2"/>
</g>
</g>
<defs>
<path id="path0_fill" fill-rule="evenodd" d="M 7 13.2632C 3.54642 13.2632 0.736842 10.4536 0.736842 7C 0.736842 3.54642 3.54642 0.736842 7 0.736842C 10.4536 0.736842 13.2632 3.54642 13.2632 7C 13.2632 10.4536 10.4536 13.2632 7 13.2632ZM 11.9501 2.05063C 10.6275 0.728 8.8701 2.00272e-08 7 2.00272e-08C 5.12989 2.00272e-08 3.37179 0.728 2.04989 2.05063C 0.728 3.37326 -4.39192e-09 5.13063 -4.39192e-09 7.00074C -4.39192e-09 8.8701 0.727263 10.6282 2.04989 11.9501C 3.37253 13.272 5.12989 14 7 14C 8.8701 14 10.6282 13.272 11.9501 11.9501C 13.272 10.6282 14 8.87084 14 7.00074C 14 5.13063 13.2727 3.37326 11.9501 2.05063Z"/>
</defs>
</svg>
