<?xml version="1.0" encoding="UTF-8"?>
<svg width="17px" height="17px" viewBox="0 0 17 17" version="1.1" xmlns="http://www.w3.org/2000/svg" xmlns:xlink="http://www.w3.org/1999/xlink">
    <!-- Generator: Sketch 46.2 (44496) - http://www.bohemiancoding.com/sketch -->
    <title>if_466-Clipboard_Add_2124462</title>
    <desc>Created with Sketch.</desc>
    <defs></defs>
    <g id="Page-1" stroke="none" stroke-width="1" fill="none" fill-rule="evenodd">
        <g id="if_466-Clipboard_Add_2124462" fill-rule="nonzero" fill="#F2F2F2">
            <g id="Shape" transform="translate(12.000000, 0.000000)">
                <g id="path0_stroke-link" transform="translate(0.250000, 0.000000)">
                    <path d="M2.25,1 L2.75,1 C2.75,0.723858 2.52614,0.5 2.25,0.5 L2.25,1 Z M2.75,6.25 L2.75,1 L1.75,1 L1.75,6.25 L2.75,6.25 Z M2.25,0.5 L0,0.5 L0,1.5 L2.25,1.5 L2.25,0.5 Z" id="path0_stroke"></path>
                </g>
            </g>
            <g id="Shape">
                <g id="path1_stroke-link">
                    <path d="M1,1 L1,0.5 C0.723858,0.5 0.5,0.723858 0.5,1 L1,1 Z M1,16 L0.5,16 C0.5,16.2761 0.723858,16.5 1,16.5 L1,16 Z M2.90909,0.5 L1,0.5 L1,1.5 L2.90909,1.5 L2.90909,0.5 Z M0.5,1 L0.5,16 L1.5,16 L1.5,1 L0.5,1 Z M1,16.5 L6.25,16.5 L6.25,15.5 L1,15.5 L1,16.5 Z" id="path1_stroke"></path>
                </g>
            </g>
            <g id="Rectangle-path" transform="translate(3.000000, 0.000000)">
                <g id="path2_stroke-link" transform="translate(0.750000, 0.000000)">
                    <path d="M1,1 L1,0.5 C0.723858,0.5 0.5,0.723858 0.5,1 L1,1 Z M7,1 L7.5,1 C7.5,0.723858 7.27614,0.5 7,0.5 L7,1 Z M7,3.25 L7,3.75 C7.27614,3.75 7.5,3.52614 7.5,3.25 L7,3.25 Z M1,3.25 L0.5,3.25 C0.5,3.52614 0.723858,3.75 1,3.75 L1,3.25 Z M1,1.5 L7,1.5 L7,0.5 L1,0.5 L1,1.5 Z M6.5,1 L6.5,3.25 L7.5,3.25 L7.5,1 L6.5,1 Z M7,2.75 L1,2.75 L1,3.75 L7,3.75 L7,2.75 Z M1.5,3.25 L1.5,1 L0.5,1 L0.5,3.25 L1.5,3.25 Z" id="path2_stroke"></path>
                </g>
            </g>
            <g id="Shape" transform="translate(10.000000, 1.000000)">
                <g id="path3_stroke-link" transform="translate(0.750000, 0.500000)">
                    <path d="M1.5,1 L2,1 C2,0.723858 1.77614,0.5 1.5,0.5 L1.5,1 Z M2,4.75 L2,1 L1,1 L1,4.75 L2,4.75 Z M1.5,0.5 L0,0.5 L0,1.5 L1.5,1.5 L1.5,0.5 Z" id="path3_stroke"></path>
                </g>
            </g>
            <g id="Shape" transform="translate(2.000000, 1.000000)">
                <g id="path4_stroke-link" transform="translate(0.250000, 0.500000)">
                    <path d="M1,1 L1,0.5 C0.723858,0.5 0.5,0.723858 0.5,1 L1,1 Z M1,12.25 L0.5,12.25 C0.5,12.5261 0.723858,12.75 1,12.75 L1,12.25 Z M2.5,0.5 L1,0.5 L1,1.5 L2.5,1.5 L2.5,0.5 Z M0.5,1 L0.5,12.25 L1.5,12.25 L1.5,1 L0.5,1 Z M1,12.75 L4,12.75 L4,11.75 L1,11.75 L1,12.75 Z" id="path4_stroke"></path>
                </g>
            </g>
            <g id="Oval" transform="translate(6.000000, 6.000000)">
                <g id="path5_stroke-link" transform="translate(0.750000, 0.750000)">
                    <path d="M8.75,5.125 C8.75,7.12703 7.12703,8.75 5.125,8.75 L5.125,9.75 C7.67932,9.75 9.75,7.67932 9.75,5.125 L8.75,5.125 Z M5.125,8.75 C3.12297,8.75 1.5,7.12703 1.5,5.125 L0.5,5.125 C0.5,7.67932 2.57068,9.75 5.125,9.75 L5.125,8.75 Z M1.5,5.125 C1.5,3.12297 3.12297,1.5 5.125,1.5 L5.125,0.5 C2.57068,0.5 0.5,2.57068 0.5,5.125 L1.5,5.125 Z M5.125,1.5 C7.12703,1.5 8.75,3.12297 8.75,5.125 L9.75,5.125 C9.75,2.57068 7.67932,0.5 5.125,0.5 L5.125,1.5 Z" id="path5_stroke"></path>
                </g>
            </g>
            <g id="Group-2" transform="translate(10.000000, 10.000000)">
                <g id="Shape">
                    <g id="path6_stroke-link" transform="translate(0.880000, 0.000000)">
                        <polygon id="path6_stroke" points="0.5 0 0.5 3.75 1.5 3.75 1.5 0"></polygon>
                    </g>
                </g>
                <g id="Shape">
                    <g id="path7_stroke-link" transform="translate(0.000000, 0.875000)">
                        <polygon id="path7_stroke" points="0 1.5 3.75 1.5 3.75 0.5 0 0.5"></polygon>
                    </g>
                </g>
            </g>
        </g>
    </g>
</svg>