<?xml version="1.0" encoding="UTF-8"?>
<svg width="13px" height="13px" viewBox="0 0 13 13" version="1.1" xmlns="http://www.w3.org/2000/svg" xmlns:xlink="http://www.w3.org/1999/xlink">
    <!-- Generator: Sketch 46.2 (44496) - http://www.bohemiancoding.com/sketch -->
    <title>cross</title>
    <desc>Created with Sketch.</desc>
    <defs></defs>
    <g id="Page-1" stroke="none" stroke-width="1" fill="none" fill-rule="evenodd">
        <g id="cross" fill-rule="nonzero" fill="#2A2C31">
            <path d="M7.20639,6.50039 L12.8524,0.854393 C12.9461,0.760629 12.9988,0.633475 12.9988,0.500893 C12.9988,0.368311 12.9461,0.241157 12.8524,0.147394 C12.7586,0.053658 12.6315,0.000999764 12.4989,0.000999764 C12.3663,0.000999764 12.2392,0.053658 12.1454,0.147394 L6.50039,5.79239 L0.853393,0.146393 C0.759629,0.0526576 0.632475,3.13056e-07 0.499893,3.13056e-07 C0.367311,3.13056e-07 0.240157,0.0526576 0.146393,0.146393 C0.0526577,0.240157 -1.34399158e-11,0.367311 -1.34399158e-11,0.499894 C-1.34399158e-11,0.632476 0.0526577,0.759629 0.146393,0.853393 L5.79239,6.50039 L0.146393,12.1454 C0.0526577,12.2392 -1.34400158e-11,12.3663 -1.34399158e-11,12.4989 C-1.34399158e-11,12.6315 0.0526577,12.7586 0.146393,12.8524 C0.192748,12.8992 0.247882,12.9363 0.308632,12.9617 C0.369381,12.9871 0.434549,13.0002 0.500393,13.0004 C0.566238,13.0002 0.631405,12.9871 0.692155,12.9617 C0.752904,12.9363 0.808039,12.8992 0.854393,12.8524 L6.50039,7.20639 L12.1464,12.8524 C12.1927,12.8992 12.2479,12.9363 12.3086,12.9617 C12.3694,12.9871 12.4345,13.0002 12.5004,13.0004 C12.5661,13.0005 12.6312,12.9877 12.6919,12.9626 C12.7527,12.9376 12.8079,12.9008 12.8544,12.8544 C12.9481,12.7606 13.0008,12.6335 13.0008,12.5009 C13.0008,12.3683 12.9481,12.2412 12.8544,12.1474 L7.20839,6.50039" id="path0_fill"></path>
        </g>
    </g>
</svg>