<svg xmlns="http://www.w3.org/2000/svg" width="23" height="38.8" viewBox="0 0 23 38.8">
  <title>XCITE_Icons_Trasnfers_v1</title>
  <g>
    <path d="M.4,10.4h0l8.1,8.1a1.4,1.4,0,1,0,1.9-1.9L4.6,10.8H21.7a1.4,1.4,0,0,0,0-2.7H4.6l5.8-5.8A1.4,1.4,0,0,0,8.5.4L.4,8.5a1.4,1.4,0,0,0,0,1.9" style="fill: #aaabad;fill-rule: evenodd"/>
    <path d="M22.6,28.4h0l-8.1-8.1a1.4,1.4,0,1,0-1.9,1.9L18.4,28H1.4a1.4,1.4,0,0,0,0,2.7H18.4l-5.8,5.8a1.4,1.4,0,0,0,1.9,1.9l8.1-8.1a1.4,1.4,0,0,0,0-1.9" style="fill: #aaabad;fill-rule: evenodd"/>
  </g>
</svg>
