<?xml version="1.0" encoding="UTF-8"?>
<svg width="32px" height="25px" viewBox="0 0 32 25" version="1.1" xmlns="http://www.w3.org/2000/svg" xmlns:xlink="http://www.w3.org/1999/xlink">
    <!-- Generator: Sketch 46.2 (44496) - http://www.bohemiancoding.com/sketch -->
    <title>Group</title>
    <desc>Created with Sketch.</desc>
    <defs></defs>
    <g id="Page-1" stroke="none" stroke-width="1" fill="none" fill-rule="evenodd">
        <g id="Group" fill-rule="nonzero" fill="#A9AAAD">
            <g id="Fill-124" transform="translate(0.000000, 6.000000)">
                <g id="path1_fill-link" transform="translate(12.500000, 6.330000) rotate(-90.000000) translate(-12.500000, -6.330000) translate(6.500000, -6.170000)">
                    <path d="M0.24375,17.9308 C-0.0812498,18.2592 -0.0812498,18.793 0.24375,19.1214 L5.24375,24.1738 C5.40708,24.3388 5.62042,24.4197 5.83375,24.4197 C6.04708,24.4197 6.26042,24.3371 6.42375,24.1738 L11.4238,19.1214 C11.7488,18.793 11.7488,18.2592 11.4238,17.9308 L11.4204,17.9308 C11.0954,17.6024 10.5671,17.6024 10.2421,17.9308 L6.66542,21.5449 L6.66542,0.842057 C6.66542,0.377242 6.29208,-4.49707e-08 5.83208,-4.49707e-08 C5.37208,-4.49707e-08 4.99875,0.377242 4.99875,0.842057 L4.99875,21.5449 L1.42208,17.9308 C1.09708,17.6024 0.56875,17.6024 0.24375,17.9308 Z" id="path1_fill"></path>
                </g>
            </g>
            <g id="Fill-125" transform="translate(10.000000, 0.000000)">
                <g id="path2_fill-link" transform="translate(11.110000, 12.500000) rotate(-90.000000) translate(-11.110000, -12.500000) translate(-1.390000, 1.500000)">
                    <path d="M22.5,-1.67034e-07 L15.8333,-1.67034e-07 C15.3733,-1.67034e-07 15,0.377242 15,0.842057 C15,1.30687 15.3733,1.68411 15.8333,1.68411 L22.5,1.68411 C22.96,1.68411 23.3333,2.06136 23.3333,2.52617 L23.3333,19.3673 C23.3333,19.8321 22.96,20.2094 22.5,20.2094 L2.5,20.2094 C2.04,20.2094 1.66667,19.8321 1.66667,19.3673 L1.66667,2.52617 C1.66667,2.06136 2.04,1.68411 2.5,1.68411 L9.16667,1.68411 C9.62667,1.68411 10,1.30687 10,0.842057 C10,0.377242 9.62667,-1.67034e-07 9.16667,-1.67034e-07 L2.5,-1.67034e-07 C1.12167,-1.67034e-07 -1.7484e-08,1.13341 -1.7484e-08,2.52617 L-1.7484e-08,19.3673 C-1.7484e-08,20.7601 1.12167,21.8935 2.5,21.8935 L22.5,21.8935 C23.8783,21.8935 25,20.7601 25,19.3673 L25,2.52617 C25,1.13341 23.8783,-1.67034e-07 22.5,-1.67034e-07 Z" id="path2_fill"></path>
                </g>
            </g>
        </g>
    </g>
</svg>