<?xml version="1.0" encoding="iso-8859-1"?>
<!-- Generator: Adobe Illustrator 18.1.1, SVG Export Plug-In . SVG Version: 6.00 Build 0)  -->
<svg xmlns="http://www.w3.org/2000/svg" xmlns:xlink="http://www.w3.org/1999/xlink" version="1.1" id="Capa_1" x="0px" y="0px" viewBox="0 0 40.891 40.891" style="enable-background:new 0 0 40.891 40.891;" xml:space="preserve" width="512px" height="512px">
<g>
	<path d="M20.448,0C10.498,0,2.403,8.094,2.403,18.043c0,9.837,16.957,22.206,17.678,22.728   c0.107,0.079,0.234,0.12,0.367,0.12c0.136,0,0.263-0.042,0.366-0.119c0.722-0.521,17.675-12.854,17.675-22.729   C38.488,8.094,30.396,0,20.448,0z M20.448,39.487C18.401,37.944,3.653,26.533,3.653,18.044c0-9.26,7.534-16.793,16.795-16.793   c9.259,0,16.791,7.533,16.791,16.793C37.238,26.535,22.493,37.945,20.448,39.487z" fill="#e0e0e0"/>
	<path d="M21.535,15.553c-0.608-0.39-1.739-1.115-1.739-1.41c0-0.114,0-0.307,0.602-0.307h3.957   c0.345,0,0.625-0.28,0.625-0.625V10.36c0-0.345-0.28-0.625-0.625-0.625h-2.055V7.803c0-0.345-0.28-0.625-0.625-0.625h-2.16   c-0.345,0-0.625,0.28-0.625,0.625v2.015c-2.281,0.438-3.639,2.111-3.639,4.497c0,2.359,2.143,3.809,3.871,4.979   c0.927,0.627,1.976,1.337,1.976,1.807c0,0.221-0.203,0.332-0.604,0.332H16.17c-0.345,0-0.625,0.28-0.625,0.625v2.998   c0,0.345,0.28,0.625,0.625,0.625h2.719v2.375c0,0.345,0.28,0.625,0.625,0.625h2.16c0.345,0,0.625-0.28,0.625-0.625v-2.514   c2.096-0.63,3.344-2.403,3.344-4.762C25.642,18.201,23.272,16.674,21.535,15.553z M21.549,24.443c-0.29,0.061-0.5,0.318-0.5,0.612   v2.375h-0.91v-2.375c0-0.345-0.28-0.625-0.625-0.625h-2.719v-1.748h3.699c1.108,0,1.854-0.636,1.854-1.582   c0-1.136-1.173-1.928-2.537-2.85c-1.552-1.051-3.31-2.242-3.31-3.935c0-1.926,1.121-3.141,3.075-3.333   c0.321-0.031,0.563-0.299,0.563-0.622V8.428h0.91v1.932c0,0.345,0.28,0.625,0.625,0.625h2.055v1.602h-3.332   c-1.365,0-1.852,0.804-1.852,1.557c0,0.977,1.021,1.632,2.314,2.464c1.574,1.013,3.533,2.273,3.533,4.173   C24.392,22.74,23.357,24.075,21.549,24.443z" fill="#e0e0e0"/>
</g>
<g>
</g>
<g>
</g>
<g>
</g>
<g>
</g>
<g>
</g>
<g>
</g>
<g>
</g>
<g>
</g>
<g>
</g>
<g>
</g>
<g>
</g>
<g>
</g>
<g>
</g>
<g>
</g>
<g>
</g>
</svg>
