<?xml version="1.0" encoding="UTF-8"?>
<svg width="30px" height="24px" viewBox="0 0 30 24" version="1.1" xmlns="http://www.w3.org/2000/svg" xmlns:xlink="http://www.w3.org/1999/xlink">
    <!-- Generator: Sketch 46.2 (44496) - http://www.bohemiancoding.com/sketch -->
    <title>friend-request</title>
    <desc>Created with Sketch.</desc>
    <defs></defs>
    <g id="Page-1" stroke="none" stroke-width="1" fill="none" fill-rule="evenodd">
        <g id="friend-request" fill-rule="nonzero" fill="#A9AAAD">
            <g id="Group-21" transform="translate(3.000000, 2.000000)">
                <g id="Path-401" transform="translate(0.000000, 12.000000)">
                    <g id="path0_fill-link" transform="translate(0.870000, 0.000000)">
                        <path d="M18.718,9.823 L2.934,9.823 C2.15679,9.82221 1.41158,9.51339 0.861639,8.96419 C0.311694,8.415 0.00185506,7.67021 3.07326e-06,6.893 L3.07326e-06,5.923 C-0.00152036,4.40485 0.581527,2.94441 1.62816,1.84471 C2.67479,0.745012 4.10464,0.0905026 5.621,0.0169991 L5.976,8.08716e-07 L6.192,0.283 C6.72063,1.02255 7.41365,1.62936 8.21653,2.0557 C9.01941,2.48204 9.91026,2.71628 10.819,2.74 C11.728,2.71613 12.6191,2.48183 13.4223,2.05552 C14.2254,1.6292 14.9188,1.02248 15.448,0.283 L15.663,0.00100026 L16.018,0.0169991 C17.5371,0.0858112 18.9709,0.738484 20.0205,1.83887 C21.07,2.93925 21.6541,4.40237 21.651,5.923 L21.651,6.895 C21.6492,7.67185 21.3394,8.41628 20.7896,8.96513 C20.2398,9.51398 19.4949,9.82247 18.718,9.823 Z M5.351,1.393 C4.24675,1.52834 3.23024,2.06321 2.49332,2.89666 C1.75641,3.73011 1.35007,4.80449 1.351,5.917 L1.351,6.889 C1.35153,7.30815 1.51827,7.70997 1.81465,8.00635 C2.11103,8.30273 2.51286,8.46947 2.932,8.47 L18.718,8.47 C19.1366,8.46974 19.5381,8.30367 19.8346,8.00812 C20.1311,7.71258 20.2984,7.31162 20.3,6.893 L20.3,5.923 C20.3014,4.80908 19.8941,3.73335 19.1554,2.89958 C18.4168,2.06581 17.398,1.5319 16.292,1.399 C15.6353,2.22431 14.8044,2.89431 13.8586,3.36107 C12.9128,3.82783 11.8755,4.07981 10.821,4.099 C9.76649,4.07996 8.72925,3.82793 7.78357,3.36097 C6.8379,2.89401 6.00721,2.22368 5.351,1.398 L5.351,1.393 Z" id="path0_fill"></path>
                    </g>
                </g>
                <g id="Path-402" transform="translate(5.000000, 0.000000)">
                    <g id="path1_fill-link" transform="translate(0.940000, 0.160000)">
                        <path d="M5.754,14.05 C2.581,14.05 2.89917e-07,10.898 2.89917e-07,7.026 C2.89917e-07,3.154 2.576,1.98364e-07 5.754,1.98364e-07 C8.932,1.98364e-07 11.508,3.152 11.508,7.025 C11.508,10.898 8.923,14.05 5.754,14.05 Z M1.354,7.022 C1.354,10.15 3.328,12.693 5.754,12.693 C8.18,12.693 10.154,10.149 10.154,7.022 C10.154,3.895 8.175,1.353 5.754,1.353 C3.328,1.35 1.354,3.894 1.354,7.022 Z" id="path1_fill"></path>
                    </g>
                </g>
            </g>
            <g id="Group-22" transform="translate(19.000000, 0.000000)">
                <g id="Path-403" transform="translate(3.000000, 10.000000)">
                    <g id="path2_fill-link" transform="translate(0.810000, 0.650000)">
                        <path d="M5.98332,6.811 C5.80377,6.811 5.63158,6.73967 5.50461,6.61271 C5.37765,6.48575 5.30633,6.31355 5.30633,6.134 L5.30633,5.282 C5.30751,4.33213 4.96324,3.41424 4.33768,2.69945 C3.71212,1.98466 2.84797,1.52174 1.90632,1.397 C1.66562,1.68346 1.40317,1.95092 1.12132,2.197 C1.05415,2.25531 0.976156,2.29981 0.891785,2.32798 C0.807413,2.35614 0.718321,2.36741 0.629595,2.36114 C0.540868,2.35487 0.454246,2.33119 0.374672,2.29145 C0.295098,2.2517 0.224132,2.19667 0.165825,2.1295 C0.107518,2.06233 0.0630124,1.98433 0.0348491,1.89996 C0.00668585,1.81559 -0.00458381,1.7265 0.00168415,1.63777 C0.0079521,1.54904 0.0316337,1.46242 0.0713787,1.38285 C0.111124,1.30327 0.166153,1.23231 0.233324,1.174 C0.540433,0.905283 0.819829,0.606456 1.06732,0.282 L1.28232,9.00269e-07 L1.63732,0.0159997 C2.99194,0.078058 4.2704,0.660282 5.20645,1.64142 C6.14251,2.62255 6.664,3.92697 6.66232,5.283 L6.66232,6.135 C6.66219,6.22399 6.64452,6.31208 6.61031,6.39423 C6.57611,6.47639 6.52604,6.55099 6.46298,6.61377 C6.39991,6.67656 6.32509,6.72629 6.24278,6.76014 C6.16048,6.79398 6.07231,6.81126 5.98332,6.811 Z" id="path2_fill"></path>
                    </g>
                </g>
                <g id="Path-404">
                    <g id="path3_fill-link" transform="translate(0.200000, 0.260000)">
                        <path d="M4.059,10.561 C3.93558,10.5613 3.81443,10.5278 3.70869,10.4642 C3.60295,10.4005 3.51666,10.3091 3.45916,10.1999 C3.40167,10.0907 3.37518,9.96781 3.38255,9.84461 C3.38993,9.72141 3.43089,9.60258 3.501,9.501 C4.13723,8.53858 4.47056,7.40764 4.458,6.254 C4.458,3.554 2.758,1.354 0.677,1.354 C0.497448,1.354 0.32525,1.28267 0.198288,1.15571 C0.0713257,1.02875 -1.67847e-07,0.856551 -1.67847e-07,0.677 C-1.67847e-07,0.497448 0.0713257,0.325251 0.198288,0.198289 C0.32525,0.0713266 0.497448,7.82013e-08 0.677,7.82013e-08 C3.509,7.82013e-08 5.812,2.8 5.812,6.25 C5.82422,7.67728 5.40832,9.07545 4.618,10.264 C4.55577,10.355 4.4724,10.4296 4.37504,10.4813 C4.27769,10.533 4.16924,10.5604 4.059,10.561 Z" id="path3_fill"></path>
                    </g>
                </g>
            </g>
            <g id="Group-23">
                <g id="Path-405" transform="translate(0.000000, 10.000000)">
                    <g id="path4_fill-link" transform="translate(0.240000, 0.650000)">
                        <path d="M0.677005,6.812 C0.497454,6.812 0.325256,6.74067 0.198294,6.61371 C0.0713319,6.48675 5.30985e-06,6.31455 5.30985e-06,6.135 L5.30985e-06,5.283 C-0.00191943,3.92689 0.519491,2.62234 1.4556,1.64115 C2.3917,0.659964 3.67031,0.0778152 5.02501,0.0159997 L5.38001,9.00269e-07 L5.59501,0.282 C5.84231,0.606617 6.12172,0.905463 6.42901,1.174 C6.49618,1.23231 6.55121,1.30327 6.59095,1.38285 C6.6307,1.46242 6.65438,1.54904 6.66065,1.63777 C6.66691,1.7265 6.65564,1.81559 6.62748,1.89996 C6.59932,1.98433 6.55481,2.06233 6.49651,2.1295 C6.4382,2.19667 6.36723,2.2517 6.28766,2.29145 C6.20808,2.33119 6.12146,2.35487 6.03273,2.36114 C5.94401,2.36741 5.85492,2.35614 5.77055,2.32798 C5.68617,2.29981 5.60818,2.25531 5.54101,2.197 C5.25952,1.95053 4.9971,1.6831 4.75601,1.397 C3.81436,1.52174 2.95021,1.98466 2.32465,2.69945 C1.69909,3.41424 1.35482,4.33213 1.35601,5.282 L1.35601,6.134 C1.35627,6.22319 1.33888,6.31156 1.30484,6.394 C1.2708,6.47645 1.22078,6.55134 1.15766,6.61436 C1.09454,6.67739 1.01958,6.7273 0.937084,6.76122 C0.85459,6.79514 0.7662,6.8124 0.677005,6.812 Z" id="path4_fill"></path>
                    </g>
                </g>
                <g id="Path-406" transform="translate(4.000000, 0.000000)">
                    <g id="path5_fill-link" transform="translate(0.700000, 0.260000)">
                        <path d="M1.75327,10.557 C1.64333,10.5571 1.53503,10.5304 1.43766,10.4794 C1.34028,10.4284 1.25676,10.3544 1.19427,10.264 C0.403836,9.0755 -0.0120724,7.67729 0.000266717,6.25 C0.000266717,2.804 2.30027,2.67029e-08 5.13527,2.67029e-08 C5.31482,2.67029e-08 5.48702,0.0713268 5.61398,0.198289 C5.74094,0.325251 5.81227,0.497449 5.81227,0.677 C5.81227,0.856552 5.74094,1.02875 5.61398,1.15571 C5.48702,1.28267 5.31482,1.354 5.13527,1.354 C3.05027,1.354 1.35427,3.554 1.35427,6.254 C1.34171,7.40764 1.67504,8.53858 2.31127,9.501 C2.38138,9.60258 2.42234,9.72141 2.42971,9.84461 C2.43709,9.96781 2.4106,10.0907 2.3531,10.1999 C2.29561,10.3091 2.20932,10.4005 2.10358,10.4642 C1.99784,10.5278 1.87669,10.5613 1.75327,10.561 L1.75327,10.557 Z" id="path5_fill"></path>
                    </g>
                </g>
            </g>
        </g>
    </g>
</svg>