<svg width="32" height="41" viewBox="0 0 32 41" fill="none" xmlns="http://www.w3.org/2000/svg">
<path fill-rule="evenodd" clip-rule="evenodd" d="M5.33339 34.1333C4.74459 34.1333 4.26672 34.6112 4.26672 35.2C4.26672 35.7888 4.74459 36.2666 5.33339 36.2666H26.6667C27.2555 36.2666 27.7334 35.7888 27.7334 35.2C27.7334 34.6112 27.2555 34.1333 26.6667 34.1333H5.33339" fill="#F2F2F2"/>
<path fill-rule="evenodd" clip-rule="evenodd" d="M2.13334 3.20001C2.13334 2.61121 2.61121 2.13334 3.20001 2.13334H24.5333C25.1221 2.13334 25.6 2.61121 25.6 3.20001V28.8C25.6 29.3888 25.1221 29.8667 24.5333 29.8667H5.33334C4.13441 29.8667 3.02508 30.2656 2.13334 30.9355V3.20001ZM30.9333 4.26667C30.3445 4.26667 29.8667 4.74453 29.8667 5.33333V37.3333C29.8667 37.9221 29.3888 38.4 28.8 38.4H5.33333C3.56907 38.4 2.13333 36.9643 2.13333 35.2C2.13333 33.4357 3.56907 32 5.33333 32H24.5333C26.2976 32 27.7333 30.5643 27.7333 28.8V3.2C27.7333 1.43573 26.2976 0 24.5333 0H3.2C1.43573 0 0 1.43573 0 3.2V35.2C0 38.1397 2.3936 40.5333 5.33333 40.5333H28.8C30.5643 40.5333 32 39.0976 32 37.3333V5.33333C32 4.74453 31.5221 4.26667 30.9333 4.26667V4.26667Z" fill="#F2F2F2"/>
</svg>
