<svg width="100" height="100" viewBox="0 0 100 100" fill="none" xmlns="http://www.w3.org/2000/svg">
<path fill-rule="evenodd" clip-rule="evenodd" d="M50 94.7369C25.3316 94.7369 5.26315 74.6684 5.26315 50C5.26315 25.3316 25.3316 5.26318 50 5.26318C74.6684 5.26318 94.7368 25.3316 94.7368 50C94.7368 74.6684 74.6684 94.7369 50 94.7369ZM85.3579 14.6474C75.9105 5.2 63.3579 0 50 0C36.6421 0 24.0842 5.2 14.6421 14.6474C5.2 24.0947 0 36.6474 0 50.0053C0 63.3579 5.19474 75.9158 14.6421 85.3579C24.0895 94.8 36.6421 100 50 100C63.3579 100 75.9158 94.8 85.3579 85.3579C94.8 75.9158 100 63.3632 100 50.0053C100 36.6474 94.8053 24.0947 85.3579 14.6474V14.6474Z" fill="#4BBE2E"/>
<path fill-rule="evenodd" clip-rule="evenodd" d="M74.4474 29.7209L39.4684 64.6999L25.5421 50.7735C24.5158 49.7472 22.8474 49.7472 21.8211 50.7735C20.7948 51.7999 20.7948 53.4683 21.8211 54.4946L37.6105 70.2841C38.1211 70.7946 38.7948 71.0525 39.4684 71.0525C40.1369 71.0525 40.8105 70.7999 41.3263 70.2841L78.1684 33.442C79.1948 32.4156 79.1948 30.7472 78.1684 29.7209C77.1421 28.6946 75.4737 28.6946 74.4474 29.7209" fill="#4BBE2E"/>
</svg>
