<svg width="101" height="100" viewBox="0 0 101 100" fill="none" xmlns="http://www.w3.org/2000/svg">
<path fill-rule="evenodd" clip-rule="evenodd" d="M50.0026 94.7418C25.3329 94.7418 5.26343 74.6723 5.26343 50.0026C5.26343 25.3329 25.3329 5.26343 50.0026 5.26343C74.6723 5.26343 94.7418 25.3329 94.7418 50.0026C94.7418 74.6723 74.6723 94.7418 50.0026 94.7418ZM85.3624 14.6429C75.9198 5.20027 63.3612 0 50.0026 0C36.644 0 24.0907 5.20027 14.6429 14.6429C5.19501 24.0855 0 36.644 0 49.9974C0 63.3507 5.20027 75.9093 14.6429 85.3571C24.0855 94.805 36.644 100 50.0026 100C63.3612 100 75.9145 94.7997 85.3624 85.3571C94.8103 75.9145 100.005 63.356 100.005 49.9974C100.005 36.6388 94.805 24.0855 85.3624 14.6429Z" fill="#0ED8D2"/>
<path fill-rule="evenodd" clip-rule="evenodd" d="M81.5832 47.3709H52.6343V18.422C52.6343 16.9693 51.4553 15.7903 50.0026 15.7903C48.5499 15.7903 47.3709 16.9693 47.3709 18.422V47.3709H18.422C16.9693 47.3709 15.7903 48.5499 15.7903 50.0026C15.7903 51.4553 16.9693 52.6343 18.422 52.6343H47.3709V81.5832C47.3709 83.0359 48.5499 84.2149 50.0026 84.2149C51.4553 84.2149 52.6343 83.0359 52.6343 81.5832V52.6343H81.5832C83.0359 52.6343 84.215 51.4553 84.215 50.0026C84.215 48.5499 83.0359 47.3709 81.5832 47.3709Z" fill="#0ED8D2"/>
</svg>
