<svg width="200" height="211" viewBox="0 0 200 211" fill="none" xmlns="http://www.w3.org/2000/svg">
<path fill-rule="evenodd" clip-rule="evenodd" d="M100 10.5263C126.116 10.5263 147.368 31.7789 147.368 57.8947C147.368 84.0105 126.116 105.263 100 105.263C73.8842 105.263 52.6316 84.0105 52.6316 57.8947C52.6316 31.7789 73.8842 10.5263 100 10.5263ZM100 115.789C131.926 115.789 157.895 89.8211 157.895 57.8947C157.895 25.9684 131.926 0 100 0C68.0736 0 42.1052 25.9684 42.1052 57.8947C42.1052 89.8211 68.0736 115.789 100 115.789Z" fill="#14161B"/>
<path fill-rule="evenodd" clip-rule="evenodd" d="M126.733 36.5997L89.9128 73.4196L75.2535 58.7603C74.1732 57.68 72.4169 57.68 71.3366 58.7603C70.2563 59.8407 70.2563 61.5969 71.3366 62.6772L87.9571 79.2977C88.4945 79.8351 89.2037 80.1066 89.9128 80.1066C90.6164 80.1066 91.3255 79.8407 91.8685 79.2977L130.65 40.5166C131.73 39.4362 131.73 37.68 130.65 36.5997C129.569 35.5193 127.813 35.5193 126.733 36.5997Z" fill="#14161B"/>
<path fill-rule="evenodd" clip-rule="evenodd" d="M184.211 200H15.7895C12.8842 200 10.5263 197.642 10.5263 194.758C10.5368 194.611 10.7789 180.074 21.6737 165.853C36.2105 146.874 63.2947 136.842 100 136.842C136.695 136.842 163.779 146.874 178.326 165.853C189.232 180.074 189.474 194.611 189.474 194.737C189.474 197.642 187.116 200 184.211 200ZM187.105 160C179.684 150.105 169.526 142.253 156.905 136.642C141.495 129.789 122.347 126.316 100 126.316C77.6526 126.316 58.5053 129.789 43.0947 136.642C30.4737 142.242 20.3158 150.105 12.8947 160C0.147369 177 0 194.021 0 194.737C0 203.442 7.08421 210.526 15.7895 210.526H184.211C192.916 210.526 200 203.442 200 194.737C200 194.021 199.853 177 187.105 160Z" fill="#14161B"/>
</svg>
