<svg width="100" height="76" viewBox="0 0 100 76" fill="none" xmlns="http://www.w3.org/2000/svg">
<path fill-rule="evenodd" clip-rule="evenodd" d="M92.5 69.9999H37.5C36.125 69.9999 35.005 68.8899 35 67.5149C35.005 67.3399 35.16 63.0449 38.695 58.8449C43.565 53.0649 52.66 50.0049 65 50.0049C77.34 50.0049 86.435 53.0599 91.305 58.8449C94.84 63.0399 94.995 67.3399 95 67.5149C94.995 68.8849 93.875 69.9999 92.5 69.9999ZM95.38 55.9249C92.755 52.6949 89.175 50.1349 84.74 48.3149C79.38 46.1199 72.74 45.0049 65 45.0049C57.26 45.0049 50.615 46.1149 45.26 48.3149C40.825 50.1349 37.245 52.6949 34.62 55.9249C30.055 61.5499 30 67.2599 30 67.4999C30 71.6349 33.365 74.9999 37.5 74.9999H92.5C96.635 74.9999 100 71.6349 100 67.4999C100 67.2599 99.95 61.5499 95.38 55.9249Z" fill="#0ED8D2"/>
<path fill-rule="evenodd" clip-rule="evenodd" d="M65 5C73.27 5 80 11.73 80 20C80 28.27 73.27 35 65 35C56.73 35 50 28.27 50 20C50 11.73 56.73 5 65 5ZM65 40C76.03 40 85 31.03 85 20C85 8.97 76.03 0 65 0C53.97 0 45 8.97 45 20C45 31.03 53.97 40 65 40Z" fill="#0ED8D2"/>
<path fill-rule="evenodd" clip-rule="evenodd" d="M27.64 50.07C26.785 50.025 25.9 50 25.005 50C19.52 50 14.8 50.86 10.98 52.56C7.785 53.98 5.205 55.975 3.315 58.5C0.0400001 62.865 0 67.315 0 67.5C0 71.635 3.365 75 7.5 75H22.5L22.51 75.005C23.89 75.005 25.01 73.885 25.01 72.505C25.01 71.125 23.89 70.005 22.51 70.005H7.51C6.135 70.005 5.015 68.89 5.01 67.52C5.025 66.9 5.54 55.005 25.01 55.005C25.815 55.005 26.61 55.025 27.375 55.065C28.755 55.14 29.935 54.08 30.005 52.7C30.075 51.32 29.02 50.145 27.64 50.07Z" fill="#0ED8D2"/>
<path fill-rule="evenodd" clip-rule="evenodd" d="M25 20C30.515 20 35 24.485 35 30C35 35.515 30.515 40 25 40C19.485 40 15 35.515 15 30C15 24.485 19.485 20 25 20ZM25 45C33.27 45 40 38.27 40 30C40 21.73 33.27 15 25 15C16.73 15 10 21.73 10 30C10 38.27 16.73 45 25 45Z" fill="#0ED8D2"/>
</svg>
