<svg width="101" height="100" viewBox="0 0 101 100" fill="none" xmlns="http://www.w3.org/2000/svg">
<path fill-rule="evenodd" clip-rule="evenodd" d="M50.0026 94.7418C25.3329 94.7418 5.26343 74.6723 5.26343 50.0026C5.26343 25.3329 25.3329 5.26343 50.0026 5.26343C74.6723 5.26343 94.7418 25.3329 94.7418 50.0026C94.7418 74.6723 74.6723 94.7418 50.0026 94.7418ZM85.3624 14.6429C75.9145 5.20027 63.3612 0 50.0026 0C36.644 0 24.0855 5.20027 14.6429 14.6429C5.20027 24.0855 0 36.6388 0 49.9974C0 63.356 5.19501 75.9145 14.6429 85.3571C24.0907 94.7997 36.644 100 50.0026 100C63.3612 100 75.9198 94.805 85.3624 85.3571C94.805 75.9093 100.005 63.3507 100.005 49.9974C100.005 36.644 94.8103 24.0855 85.3624 14.6429Z" fill="#0ED8D2"/>
<path fill-rule="evenodd" clip-rule="evenodd" d="M81.5832 47.3708H27.4066L43.9707 30.8121C44.997 29.7857 44.997 28.1172 43.9707 27.0908C42.9443 26.0645 41.2758 26.0645 40.2494 27.0908L19.1957 48.1446V48.1393C18.1693 49.1657 18.1693 50.8342 19.1957 51.8605L40.2494 72.9143C40.76 73.4301 41.439 73.688 42.1074 73.688C42.7759 73.688 43.4496 73.4354 43.9654 72.9195C44.9918 71.8932 44.9918 70.2247 43.9654 69.1983L27.4066 52.6343H81.5832C83.0359 52.6343 84.2149 51.4553 84.2149 50.0026C84.2149 48.5498 83.0359 47.3708 81.5832 47.3708Z" fill="#0ED8D2"/>
</svg>
