<svg width="250" height="250" viewBox="0 0 250 250" fill="none" xmlns="http://www.w3.org/2000/svg">
<path fill-rule="evenodd" clip-rule="evenodd" d="M225 0H191.667C187.067 0 183.333 3.73333 183.333 8.33333C183.333 12.9333 187.067 16.6667 191.667 16.6667H225C229.6 16.6667 233.333 20.4 233.333 25V58.3333C233.333 62.9333 237.067 66.6667 241.667 66.6667C246.267 66.6667 250 62.9333 250 58.3333V25C250 11.2167 238.783 0 225 0" fill="#F2F2F2"/>
<path fill-rule="evenodd" clip-rule="evenodd" d="M58.3333 0H25C11.2167 0 0 11.2167 0 25V58.3333C0 62.9333 3.73333 66.6667 8.33333 66.6667C12.9333 66.6667 16.6667 62.9333 16.6667 58.3333V25C16.6667 20.4 20.4 16.6667 25 16.6667H58.3333C62.9333 16.6667 66.6667 12.9333 66.6667 8.33333C66.6667 3.73333 62.9333 0 58.3333 0" fill="#F2F2F2"/>
<path fill-rule="evenodd" clip-rule="evenodd" d="M58.3333 233.333H25C20.4 233.333 16.6667 229.6 16.6667 225V191.667C16.6667 187.067 12.9333 183.333 8.33333 183.333C3.73333 183.333 0 187.067 0 191.667V225C0 238.783 11.2167 250 25 250H58.3333C62.9333 250 66.6667 246.267 66.6667 241.667C66.6667 237.067 62.9333 233.333 58.3333 233.333" fill="#F2F2F2"/>
<path fill-rule="evenodd" clip-rule="evenodd" d="M241.667 183.333C237.067 183.333 233.333 187.067 233.333 191.667V225C233.333 229.6 229.6 233.333 225 233.333H191.667C187.067 233.333 183.333 237.067 183.333 241.667C183.333 246.267 187.067 250 191.667 250H225C238.783 250 250 238.783 250 225V191.667C250 187.067 246.267 183.333 241.667 183.333" fill="#F2F2F2"/>
</svg>
