<svg width="80" height="80" viewBox="0 0 80 80" fill="none" xmlns="http://www.w3.org/2000/svg">
<path fill-rule="evenodd" clip-rule="evenodd" d="M15.9232 3.99959C14.8513 4.01959 11.9674 5.33153 8.83159 8.21938C5.85574 10.9632 4.00383 13.9431 4.00383 15.999C4.00383 42.9136 37.0582 75.996 63.9448 75.996C65.9967 75.996 68.9766 74.1361 71.7204 71.1442C74.6123 67.9924 75.9242 65.0965 75.9442 64.0206C75.8162 63.2606 73.7123 60.3048 67.9566 55.873C63.0089 52.0652 58.9971 50.0213 57.9651 49.9973C57.8931 50.0173 57.4452 50.1893 56.5372 51.3412C55.7492 52.3452 54.9053 53.7171 54.0853 55.045C51.8454 58.6889 49.7295 62.1327 46.6537 62.1327C46.1577 62.1327 45.6697 62.0367 45.2018 61.8487C34.7023 57.6489 22.2869 45.2335 18.0871 34.7341C17.5831 33.4741 17.5032 31.4982 19.983 29.2503C21.303 28.0544 23.1269 26.9344 24.8948 25.8465C26.2227 25.0305 27.5986 24.1866 28.5986 23.3946C29.7505 22.4867 29.9225 22.0387 29.9425 21.9667C29.9145 20.9347 27.8746 16.9229 24.0668 11.9752C19.635 6.21948 16.6792 4.11959 15.9192 3.98759L15.9232 3.99959ZM63.9448 79.996C56.8612 79.996 49.3255 77.9881 41.5459 74.0283C34.3743 70.3765 27.2906 65.1487 21.0589 58.9091C14.8273 52.6694 9.60752 45.5777 5.9597 38.4021C2.0079 30.6185 0 23.0828 0 15.9992C0 11.4074 4.27979 6.97165 6.11569 5.27974C8.75956 2.84386 12.9194 0 15.9432 0C17.4471 0 19.207 0.983951 21.4909 3.09585C23.1908 4.67177 25.1067 6.80766 27.0226 9.27154C28.1786 10.7595 33.9423 18.3551 33.9423 21.9989C33.9423 24.9868 30.5625 27.0666 26.9867 29.2625C25.6027 30.1105 24.1748 30.9905 23.1428 31.8184C22.0389 32.7024 21.8429 33.1703 21.8109 33.2743C25.6067 42.7379 37.2101 54.3413 46.6697 58.1331C46.7537 58.1051 47.2216 57.9211 48.1216 56.8012C48.9496 55.7692 49.8295 54.3373 50.6775 52.9574C52.8774 49.3815 54.9533 46.0017 57.9411 46.0017C61.5849 46.0017 69.1805 51.7654 70.6685 52.9214C73.1323 54.8373 75.2682 56.7532 76.8442 58.4531C78.9561 60.733 79.94 62.4969 79.94 64.0008C79.94 67.0247 77.0961 71.1964 74.6643 73.8523C72.9684 75.7002 68.5326 80 63.9408 80L63.9448 79.996Z" fill="#0ED8D2"/>
</svg>
