<svg width="320" height="139" viewBox="0 0 320 139" fill="none" xmlns="http://www.w3.org/2000/svg">
<path d="M100.991 130.734C100.991 130.874 101.103 131 101.257 131H101.761C101.901 131 102.013 130.874 102.013 130.734V121.746C102.013 121.606 101.901 121.48 101.761 121.48H101.383L99.4228 123.384C99.3528 123.454 99.2968 123.58 99.3948 123.692L99.6608 123.986C99.7588 124.098 99.8708 124.084 99.9828 124L100.991 123.216V130.734ZM105.417 130.734C105.417 130.874 105.529 131 105.683 131H106.187C106.327 131 106.439 130.874 106.439 130.734V121.746C106.439 121.606 106.327 121.48 106.187 121.48H105.809L103.849 123.384C103.779 123.454 103.723 123.58 103.821 123.692L104.087 123.986C104.185 124.098 104.297 124.084 104.409 124L105.417 123.216V130.734ZM108.318 130.65C108.262 130.846 108.388 131 108.57 131H108.892C108.99 131 109.116 130.916 109.144 130.818L111.874 121.55C111.93 121.354 111.818 121.2 111.622 121.2H111.314C111.202 121.2 111.09 121.284 111.062 121.382L108.318 130.65ZM114.188 130.734C114.188 130.874 114.3 131 114.454 131H114.958C115.098 131 115.21 130.874 115.21 130.734V121.746C115.21 121.606 115.098 121.48 114.958 121.48H114.58L112.62 123.384C112.55 123.454 112.494 123.58 112.592 123.692L112.858 123.986C112.956 124.098 113.068 124.084 113.18 124L114.188 123.216V130.734ZM120.911 131.14C123.081 131.14 124.313 129.306 124.313 126.24C124.313 123.174 123.081 121.34 120.911 121.34C118.741 121.34 117.509 123.174 117.509 126.24C117.509 129.306 118.741 131.14 120.911 131.14ZM120.911 130.23C119.371 130.23 118.503 128.802 118.503 126.24C118.503 123.706 119.371 122.25 120.911 122.25C122.451 122.25 123.319 123.706 123.319 126.24C123.319 128.802 122.451 130.23 120.911 130.23Z" fill="#F2F2F2"/>
<path d="M200.214 130.734C200.214 130.874 200.326 131 200.48 131H200.984C201.124 131 201.236 130.874 201.236 130.734V121.746C201.236 121.606 201.124 121.48 200.984 121.48H200.606L198.646 123.384C198.576 123.454 198.52 123.58 198.618 123.692L198.884 123.986C198.982 124.098 199.094 124.084 199.206 124L200.214 123.216V130.734ZM204.641 130.734C204.641 130.874 204.753 131 204.907 131H205.411C205.551 131 205.663 130.874 205.663 130.734V121.746C205.663 121.606 205.551 121.48 205.411 121.48H205.033L203.073 123.384C203.003 123.454 202.947 123.58 203.045 123.692L203.311 123.986C203.409 124.098 203.521 124.084 203.633 124L204.641 123.216V130.734ZM207.541 130.65C207.485 130.846 207.611 131 207.793 131H208.115C208.213 131 208.339 130.916 208.367 130.818L211.097 121.55C211.153 121.354 211.041 121.2 210.845 121.2H210.537C210.425 121.2 210.313 121.284 210.285 121.382L207.541 130.65ZM213.412 130.734C213.412 130.874 213.524 131 213.678 131H214.182C214.322 131 214.434 130.874 214.434 130.734V121.746C214.434 121.606 214.322 121.48 214.182 121.48H213.804L211.844 123.384C211.774 123.454 211.718 123.58 211.816 123.692L212.082 123.986C212.18 124.098 212.292 124.084 212.404 124L213.412 123.216V130.734ZM216.34 130.734C216.34 130.874 216.452 131 216.606 131H221.926C222.066 131 222.192 130.874 222.192 130.734V130.356C222.192 130.216 222.066 130.09 221.926 130.09H217.81C218.706 129.138 219.602 128.172 220.498 127.22C221.464 126.184 222.248 125.274 222.248 124.042C222.248 122.614 221.226 121.34 219.224 121.34C217.558 121.34 216.564 122.712 216.564 122.712C216.466 122.824 216.494 122.978 216.578 123.076L216.858 123.342C216.97 123.454 217.124 123.454 217.236 123.342C217.67 122.88 218.356 122.292 219.224 122.292C220.666 122.292 221.184 123.272 221.184 124.07C221.184 124.728 220.722 125.568 219.77 126.604C218.622 127.836 217.488 129.082 216.34 130.314V130.734Z" fill="#F2F2F2"/>
<path d="M294.243 130.734C294.243 130.874 294.355 131 294.509 131H295.013C295.153 131 295.265 130.874 295.265 130.734V121.746C295.265 121.606 295.153 121.48 295.013 121.48H294.635L292.675 123.384C292.605 123.454 292.549 123.58 292.647 123.692L292.913 123.986C293.011 124.098 293.123 124.084 293.235 124L294.243 123.216V130.734ZM298.669 130.734C298.669 130.874 298.781 131 298.935 131H299.439C299.579 131 299.691 130.874 299.691 130.734V121.746C299.691 121.606 299.579 121.48 299.439 121.48H299.061L297.101 123.384C297.031 123.454 296.975 123.58 297.073 123.692L297.339 123.986C297.437 124.098 297.549 124.084 297.661 124L298.669 123.216V130.734ZM301.569 130.65C301.513 130.846 301.639 131 301.821 131H302.143C302.241 131 302.367 130.916 302.395 130.818L305.125 121.55C305.181 121.354 305.069 121.2 304.873 121.2H304.565C304.453 121.2 304.341 121.284 304.313 121.382L301.569 130.65ZM307.44 130.734C307.44 130.874 307.552 131 307.706 131H308.21C308.35 131 308.462 130.874 308.462 130.734V121.746C308.462 121.606 308.35 121.48 308.21 121.48H307.832L305.872 123.384C305.802 123.454 305.746 123.58 305.844 123.692L306.11 123.986C306.208 124.098 306.32 124.084 306.432 124L307.44 123.216V130.734ZM310.27 128.844H315.072V130.734C315.072 130.874 315.198 131 315.338 131H315.814C315.954 131 316.08 130.874 316.08 130.734V128.816H317.214C317.368 128.816 317.48 128.69 317.48 128.55V128.242C317.48 128.102 317.368 127.99 317.214 127.99H316.08L316.066 121.592C316.066 121.438 315.94 121.326 315.8 121.326H315.52C315.394 121.326 315.352 121.368 315.31 121.41L310.004 128.06V128.578C310.004 128.718 310.116 128.844 310.27 128.844ZM311.18 127.976L315.128 123.104V127.976H311.18Z" fill="#F2F2F2"/>
<path d="M4.22604 130.734C4.22604 130.874 4.33804 131 4.49204 131H4.99604C5.13604 131 5.24804 130.874 5.24804 130.734V121.746C5.24804 121.606 5.13604 121.48 4.99604 121.48H4.61804L2.65804 123.384C2.58804 123.454 2.53204 123.58 2.63004 123.692L2.89604 123.986C2.99404 124.098 3.10604 124.084 3.21804 124L4.22604 123.216V130.734ZM8.65245 130.734C8.65245 130.874 8.76445 131 8.91845 131H9.42245C9.56245 131 9.67445 130.874 9.67445 130.734V121.746C9.67445 121.606 9.56245 121.48 9.42245 121.48H9.04445L7.08445 123.384C7.01445 123.454 6.95845 123.58 7.05645 123.692L7.32245 123.986C7.42045 124.098 7.53245 124.084 7.64445 124L8.65245 123.216V130.734ZM11.5529 130.65C11.4969 130.846 11.6229 131 11.8049 131H12.1269C12.2249 131 12.3509 130.916 12.3789 130.818L15.1089 121.55C15.1649 121.354 15.0529 121.2 14.8569 121.2H14.5489C14.4369 121.2 14.3249 121.284 14.2969 121.382L11.5529 130.65ZM19.6929 131.14C21.8629 131.14 23.0949 129.306 23.0949 126.24C23.0949 123.174 21.8629 121.34 19.6929 121.34C17.5229 121.34 16.2909 123.174 16.2909 126.24C16.2909 129.306 17.5229 131.14 19.6929 131.14ZM19.6929 130.23C18.1529 130.23 17.2849 128.802 17.2849 126.24C17.2849 123.706 18.1529 122.25 19.6929 122.25C21.2329 122.25 22.1009 123.706 22.1009 126.24C22.1009 128.802 21.2329 130.23 19.6929 130.23ZM24.8426 128.438C24.8426 129.964 26.0326 131.14 27.9646 131.14C29.9526 131.14 31.1426 129.964 31.1426 128.438C31.1426 127.234 30.1066 126.38 29.4486 126.1V126.058C30.0786 125.764 30.8906 124.98 30.8906 123.902C30.8906 122.362 29.6726 121.34 27.9786 121.34C26.3126 121.34 25.0946 122.362 25.0946 123.902C25.0946 124.98 25.9066 125.764 26.5366 126.058V126.1C25.8786 126.38 24.8426 127.234 24.8426 128.438ZM27.9926 125.61C26.6906 125.484 26.1306 124.812 26.1306 123.944C26.1306 122.894 26.9286 122.18 27.9366 122.18C29.0426 122.18 29.8546 122.894 29.8546 123.944C29.8546 124.812 29.2806 125.484 27.9926 125.61ZM25.8926 128.536C25.8926 127.668 26.6486 126.786 27.9926 126.646C29.3226 126.786 30.0926 127.668 30.0926 128.536C30.0926 129.642 29.1686 130.3 27.9646 130.3C26.8586 130.3 25.8926 129.614 25.8926 128.536Z" fill="#F2F2F2"/>
<path d="M152.04 130.734C152.04 130.874 152.152 131 152.306 131H152.81C152.95 131 153.062 130.874 153.062 130.734V121.746C153.062 121.606 152.95 121.48 152.81 121.48H152.432L150.472 123.384C150.402 123.454 150.346 123.58 150.444 123.692L150.71 123.986C150.808 124.098 150.92 124.084 151.032 124L152.04 123.216V130.734ZM156.466 130.734C156.466 130.874 156.578 131 156.732 131H157.236C157.376 131 157.488 130.874 157.488 130.734V121.746C157.488 121.606 157.376 121.48 157.236 121.48H156.858L154.898 123.384C154.828 123.454 154.772 123.58 154.87 123.692L155.136 123.986C155.234 124.098 155.346 124.084 155.458 124L156.466 123.216V130.734ZM159.366 130.65C159.31 130.846 159.436 131 159.618 131H159.94C160.038 131 160.164 130.916 160.192 130.818L162.922 121.55C162.978 121.354 162.866 121.2 162.67 121.2H162.362C162.25 121.2 162.138 121.284 162.11 121.382L159.366 130.65ZM165.237 130.734C165.237 130.874 165.349 131 165.503 131H166.007C166.147 131 166.259 130.874 166.259 130.734V121.746C166.259 121.606 166.147 121.48 166.007 121.48H165.629L163.669 123.384C163.599 123.454 163.543 123.58 163.641 123.692L163.907 123.986C164.005 124.098 164.117 124.084 164.229 124L165.237 123.216V130.734ZM169.663 130.734C169.663 130.874 169.775 131 169.929 131H170.433C170.573 131 170.685 130.874 170.685 130.734V121.746C170.685 121.606 170.573 121.48 170.433 121.48H170.055L168.095 123.384C168.025 123.454 167.969 123.58 168.067 123.692L168.333 123.986C168.431 124.098 168.543 124.084 168.655 124L169.663 123.216V130.734Z" fill="#F2F2F2"/>
<path d="M253.619 130.734C253.619 130.874 253.731 131 253.885 131H254.389C254.529 131 254.641 130.874 254.641 130.734V121.746C254.641 121.606 254.529 121.48 254.389 121.48H254.011L252.051 123.384C251.981 123.454 251.925 123.58 252.023 123.692L252.289 123.986C252.387 124.098 252.499 124.084 252.611 124L253.619 123.216V130.734ZM258.045 130.734C258.045 130.874 258.157 131 258.311 131H258.815C258.955 131 259.067 130.874 259.067 130.734V121.746C259.067 121.606 258.955 121.48 258.815 121.48H258.437L256.477 123.384C256.407 123.454 256.351 123.58 256.449 123.692L256.715 123.986C256.813 124.098 256.925 124.084 257.037 124L258.045 123.216V130.734ZM260.945 130.65C260.889 130.846 261.015 131 261.197 131H261.519C261.617 131 261.743 130.916 261.771 130.818L264.501 121.55C264.557 121.354 264.445 121.2 264.249 121.2H263.941C263.829 121.2 263.717 121.284 263.689 121.382L260.945 130.65ZM266.816 130.734C266.816 130.874 266.928 131 267.082 131H267.586C267.726 131 267.838 130.874 267.838 130.734V121.746C267.838 121.606 267.726 121.48 267.586 121.48H267.208L265.248 123.384C265.178 123.454 265.122 123.58 265.22 123.692L265.486 123.986C265.584 124.098 265.696 124.084 265.808 124L266.816 123.216V130.734ZM269.814 129.894C270.122 130.244 270.906 131.14 272.628 131.14C274.56 131.14 275.736 129.95 275.736 128.424C275.736 127.22 274.714 126.436 274.056 126.156V126.114C274.686 125.82 275.498 124.98 275.498 123.902C275.498 122.334 274.308 121.34 272.614 121.34C271.088 121.34 270.08 122.572 270.08 122.572C269.982 122.67 269.968 122.838 270.08 122.936L270.416 123.202C270.556 123.328 270.696 123.272 270.78 123.174C271.088 122.824 271.662 122.264 272.614 122.264C273.608 122.264 274.448 122.936 274.448 124.042C274.448 124.966 273.72 125.736 272.222 125.736H271.452C271.228 125.736 271.158 125.82 271.158 126.044V126.38C271.158 126.604 271.27 126.688 271.424 126.688H272.208C273.944 126.688 274.686 127.57 274.686 128.522C274.686 129.628 273.734 130.272 272.67 130.272C271.466 130.272 270.71 129.46 270.584 129.306C270.472 129.152 270.36 129.124 270.206 129.236L269.828 129.558C269.716 129.642 269.73 129.796 269.814 129.894Z" fill="#F2F2F2"/>
<path d="M50.0679 130.734C50.0679 130.874 50.1799 131 50.3339 131H50.8379C50.9779 131 51.0899 130.874 51.0899 130.734V121.746C51.0899 121.606 50.9779 121.48 50.8379 121.48H50.4599L48.4999 123.384C48.4299 123.454 48.3739 123.58 48.4719 123.692L48.7379 123.986C48.8359 124.098 48.9479 124.084 49.0599 124L50.0679 123.216V130.734ZM54.4943 130.734C54.4943 130.874 54.6063 131 54.7603 131H55.2643C55.4043 131 55.5163 130.874 55.5163 130.734V121.746C55.5163 121.606 55.4043 121.48 55.2643 121.48H54.8863L52.9263 123.384C52.8563 123.454 52.8003 123.58 52.8983 123.692L53.1643 123.986C53.2623 124.098 53.3743 124.084 53.4863 124L54.4943 123.216V130.734ZM57.3947 130.65C57.3387 130.846 57.4647 131 57.6467 131H57.9687C58.0667 131 58.1927 130.916 58.2207 130.818L60.9507 121.55C61.0067 121.354 60.8947 121.2 60.6987 121.2H60.3907C60.2787 121.2 60.1667 121.284 60.1387 121.382L57.3947 130.65ZM65.5347 131.14C67.7047 131.14 68.9367 129.306 68.9367 126.24C68.9367 123.174 67.7047 121.34 65.5347 121.34C63.3647 121.34 62.1327 123.174 62.1327 126.24C62.1327 129.306 63.3647 131.14 65.5347 131.14ZM65.5347 130.23C63.9947 130.23 63.1267 128.802 63.1267 126.24C63.1267 123.706 63.9947 122.25 65.5347 122.25C67.0747 122.25 67.9427 123.706 67.9427 126.24C67.9427 128.802 67.0747 130.23 65.5347 130.23ZM71.6084 130.762L71.7624 131.098C71.8184 131.224 71.9304 131.294 72.0704 131.238C73.4844 130.678 76.6764 128.97 76.6764 125.246C76.6764 123.02 75.6824 121.256 73.4144 121.256C71.7344 121.256 70.3204 122.698 70.3204 124.462C70.3204 126.324 71.7484 127.5 73.3304 127.5C74.5344 127.5 75.4584 126.87 75.4584 126.87C74.9684 128.76 72.4904 130.146 71.8604 130.356C71.5944 130.44 71.5384 130.594 71.6084 130.762ZM73.4284 126.59C72.2524 126.59 71.3144 125.624 71.3144 124.406C71.3144 123.202 72.2384 122.18 73.4144 122.18C75.3324 122.18 75.8784 124.28 75.6404 125.68C75.6404 125.68 74.7304 126.59 73.4284 126.59Z" fill="#F2F2F2"/>
<rect x="1.95721" y="106" width="318.043" height="2" fill="#C4C4C4"/>
<rect x="1.95721" y="76" width="318.043" height="1" fill="#C4C4C4" fill-opacity="0.25"/>
<rect x="1.95721" y="46" width="318.043" height="1" fill="#C4C4C4" fill-opacity="0.25"/>
<rect x="1.95721" y="16" width="318.043" height="1" fill="#C4C4C4" fill-opacity="0.25"/>
<path d="M282.396 100.791C282.396 100.901 282.484 101 282.605 101H286.862C286.972 101 287.071 100.901 287.071 100.791V100.263C287.071 100.153 286.972 100.054 286.862 100.054H284.057C284.706 99.317 285.476 98.415 286.059 97.711C286.653 96.996 287.115 96.413 287.115 95.566C287.115 94.411 286.279 93.41 284.706 93.41C283.397 93.41 282.572 94.488 282.572 94.488C282.495 94.576 282.517 94.708 282.583 94.774L282.957 95.148C283.045 95.236 283.166 95.236 283.254 95.148C283.551 94.829 284.046 94.411 284.651 94.411C285.619 94.411 286.004 95.049 286.004 95.61C286.004 96.05 285.718 96.6 285.168 97.216C284.354 98.184 283.21 99.581 282.396 100.505V100.791ZM291.829 101.11C293.556 101.11 294.546 99.669 294.546 97.26C294.546 94.851 293.556 93.41 291.829 93.41C290.091 93.41 289.101 94.851 289.101 97.26C289.101 99.669 290.091 101.11 291.829 101.11ZM291.829 100.109C290.795 100.109 290.212 99.086 290.212 97.26C290.212 95.456 290.795 94.422 291.829 94.422C292.852 94.422 293.435 95.456 293.435 97.26C293.435 99.086 292.852 100.109 291.829 100.109ZM299.429 101.11C301.156 101.11 302.146 99.669 302.146 97.26C302.146 94.851 301.156 93.41 299.429 93.41C297.691 93.41 296.701 94.851 296.701 97.26C296.701 99.669 297.691 101.11 299.429 101.11ZM299.429 100.109C298.395 100.109 297.812 99.086 297.812 97.26C297.812 95.456 298.395 94.422 299.429 94.422C300.452 94.422 301.035 95.456 301.035 97.26C301.035 99.086 300.452 100.109 299.429 100.109ZM304.619 100.736C304.619 100.879 304.729 101 304.883 101H305.521C305.664 101 305.785 100.879 305.785 100.736V97.315L308.986 100.923C309.008 100.956 309.074 101 309.184 101H310.064C310.295 101 310.35 100.747 310.262 100.637L306.896 96.93L310.075 93.696C310.229 93.531 310.119 93.3 309.921 93.3H309.096C309.008 93.3 308.931 93.355 308.887 93.41L305.785 96.611V93.564C305.785 93.421 305.664 93.3 305.521 93.3H304.883C304.729 93.3 304.619 93.421 304.619 93.564V100.736Z" fill="#C4C4C4" fill-opacity="0.25"/>
<path d="M282.396 71.791C282.396 71.901 282.484 72 282.605 72H286.862C286.972 72 287.071 71.901 287.071 71.791V71.263C287.071 71.153 286.972 71.054 286.862 71.054H284.057C284.706 70.317 285.476 69.415 286.059 68.711C286.653 67.996 287.115 67.413 287.115 66.566C287.115 65.411 286.279 64.41 284.706 64.41C283.397 64.41 282.572 65.488 282.572 65.488C282.495 65.576 282.517 65.708 282.583 65.774L282.957 66.148C283.045 66.236 283.166 66.236 283.254 66.148C283.551 65.829 284.046 65.411 284.651 65.411C285.619 65.411 286.004 66.049 286.004 66.61C286.004 67.05 285.718 67.6 285.168 68.216C284.354 69.184 283.21 70.581 282.396 71.505V71.791ZM289.959 71.791C289.959 71.901 290.047 72 290.168 72H290.839C290.949 72 291.037 71.901 291.037 71.791V64.729C291.037 64.619 290.949 64.52 290.839 64.52H290.3L288.738 65.939C288.694 65.983 288.672 66.071 288.705 66.159L288.837 66.544C288.87 66.643 288.98 66.665 289.079 66.621L289.959 66.203V71.791ZM296.228 72.11C297.955 72.11 298.945 70.669 298.945 68.26C298.945 65.851 297.955 64.41 296.228 64.41C294.49 64.41 293.5 65.851 293.5 68.26C293.5 70.669 294.49 72.11 296.228 72.11ZM296.228 71.109C295.194 71.109 294.611 70.086 294.611 68.26C294.611 66.456 295.194 65.422 296.228 65.422C297.251 65.422 297.834 66.456 297.834 68.26C297.834 70.086 297.251 71.109 296.228 71.109ZM301.418 71.736C301.418 71.879 301.528 72 301.682 72H302.32C302.463 72 302.584 71.879 302.584 71.736V68.315L305.785 71.923C305.807 71.956 305.873 72 305.983 72H306.863C307.094 72 307.149 71.747 307.061 71.637L303.695 67.93L306.874 64.696C307.028 64.531 306.918 64.3 306.72 64.3H305.895C305.807 64.3 305.73 64.355 305.686 64.41L302.584 67.611V64.564C302.584 64.421 302.463 64.3 302.32 64.3H301.682C301.528 64.3 301.418 64.421 301.418 64.564V71.736Z" fill="#C4C4C4" fill-opacity="0.25"/>
<path d="M282.396 11.791C282.396 11.901 282.484 12 282.605 12H286.862C286.972 12 287.071 11.901 287.071 11.791V11.263C287.071 11.153 286.972 11.054 286.862 11.054H284.057C284.706 10.317 285.476 9.415 286.059 8.711C286.653 7.996 287.115 7.413 287.115 6.566C287.115 5.411 286.279 4.41 284.706 4.41C283.397 4.41 282.572 5.488 282.572 5.488C282.495 5.576 282.517 5.708 282.583 5.774L282.957 6.148C283.045 6.236 283.166 6.236 283.254 6.148C283.551 5.829 284.046 5.411 284.651 5.411C285.619 5.411 286.004 6.049 286.004 6.61C286.004 7.05 285.718 7.6 285.168 8.216C284.354 9.184 283.21 10.581 282.396 11.505V11.791ZM288.815 11.131C289.057 11.417 289.706 12.11 291.07 12.11C292.588 12.11 293.556 11.208 293.556 10.009C293.556 9.063 292.742 8.403 292.225 8.183V8.15C292.72 7.919 293.358 7.27 293.358 6.423C293.358 5.191 292.335 4.41 291.059 4.41C289.86 4.41 289.024 5.378 289.024 5.378C288.947 5.455 288.936 5.587 289.024 5.664L289.431 6.027C289.53 6.115 289.651 6.093 289.717 6.005C289.937 5.763 290.333 5.389 290.993 5.389C291.642 5.389 292.247 5.851 292.247 6.588C292.247 7.237 291.73 7.765 290.696 7.765H290.08C289.926 7.765 289.86 7.831 289.86 7.996V8.469C289.86 8.623 289.948 8.7 290.069 8.7H290.685C291.862 8.7 292.423 9.327 292.423 9.987C292.423 10.724 291.763 11.175 291.048 11.175C290.234 11.175 289.618 10.581 289.552 10.493C289.464 10.394 289.365 10.383 289.255 10.471L288.826 10.867C288.749 10.933 288.749 11.054 288.815 11.131ZM298.312 12.11C300.039 12.11 301.029 10.669 301.029 8.26C301.029 5.851 300.039 4.41 298.312 4.41C296.574 4.41 295.584 5.851 295.584 8.26C295.584 10.669 296.574 12.11 298.312 12.11ZM298.312 11.109C297.278 11.109 296.695 10.086 296.695 8.26C296.695 6.456 297.278 5.422 298.312 5.422C299.335 5.422 299.918 6.456 299.918 8.26C299.918 10.086 299.335 11.109 298.312 11.109ZM303.502 11.736C303.502 11.879 303.612 12 303.766 12H304.404C304.547 12 304.668 11.879 304.668 11.736V8.315L307.869 11.923C307.891 11.956 307.957 12 308.067 12H308.947C309.178 12 309.233 11.747 309.145 11.637L305.779 7.93L308.958 4.696C309.112 4.531 309.002 4.3 308.804 4.3H307.979C307.891 4.3 307.814 4.355 307.77 4.41L304.668 7.611V4.564C304.668 4.421 304.547 4.3 304.404 4.3H303.766C303.612 4.3 303.502 4.421 303.502 4.564V11.736Z" fill="#C4C4C4" fill-opacity="0.25"/>
<path d="M282.396 41.791C282.396 41.901 282.484 42 282.605 42H286.862C286.972 42 287.071 41.901 287.071 41.791V41.263C287.071 41.153 286.972 41.054 286.862 41.054H284.057C284.706 40.317 285.476 39.415 286.059 38.711C286.653 37.996 287.115 37.413 287.115 36.566C287.115 35.411 286.279 34.41 284.706 34.41C283.397 34.41 282.572 35.488 282.572 35.488C282.495 35.576 282.517 35.708 282.583 35.774L282.957 36.148C283.045 36.236 283.166 36.236 283.254 36.148C283.551 35.829 284.046 35.411 284.651 35.411C285.619 35.411 286.004 36.049 286.004 36.61C286.004 37.05 285.718 37.6 285.168 38.216C284.354 39.184 283.21 40.581 282.396 41.505V41.791ZM288.749 41.791C288.749 41.901 288.837 42 288.958 42H293.215C293.325 42 293.424 41.901 293.424 41.791V41.263C293.424 41.153 293.325 41.054 293.215 41.054H290.41C291.059 40.317 291.829 39.415 292.412 38.711C293.006 37.996 293.468 37.413 293.468 36.566C293.468 35.411 292.632 34.41 291.059 34.41C289.75 34.41 288.925 35.488 288.925 35.488C288.848 35.576 288.87 35.708 288.936 35.774L289.31 36.148C289.398 36.236 289.519 36.236 289.607 36.148C289.904 35.829 290.399 35.411 291.004 35.411C291.972 35.411 292.357 36.049 292.357 36.61C292.357 37.05 292.071 37.6 291.521 38.216C290.707 39.184 289.563 40.581 288.749 41.505V41.791ZM298.183 42.11C299.91 42.11 300.9 40.669 300.9 38.26C300.9 35.851 299.91 34.41 298.183 34.41C296.445 34.41 295.455 35.851 295.455 38.26C295.455 40.669 296.445 42.11 298.183 42.11ZM298.183 41.109C297.149 41.109 296.566 40.086 296.566 38.26C296.566 36.456 297.149 35.422 298.183 35.422C299.206 35.422 299.789 36.456 299.789 38.26C299.789 40.086 299.206 41.109 298.183 41.109ZM303.373 41.736C303.373 41.879 303.483 42 303.637 42H304.275C304.418 42 304.539 41.879 304.539 41.736V38.315L307.74 41.923C307.762 41.956 307.828 42 307.938 42H308.818C309.049 42 309.104 41.747 309.016 41.637L305.65 37.93L308.829 34.696C308.983 34.531 308.873 34.3 308.675 34.3H307.85C307.762 34.3 307.685 34.355 307.641 34.41L304.539 37.611V34.564C304.539 34.421 304.418 34.3 304.275 34.3H303.637C303.483 34.3 303.373 34.421 303.373 34.564V41.736Z" fill="#C4C4C4" fill-opacity="0.25"/>
<rect x="215" y="16" width="6" height="8" fill="#4BBE2E"/>
<rect x="204" y="24" width="6" height="6" fill="#4BBE2E"/>
<rect x="303" y="40" width="6" height="17" fill="#4BBE2E"/>
<rect x="193" y="30" width="6" height="11" fill="#4BBE2E"/>
<rect x="138" y="9" width="6" height="13" fill="#4BBE2E"/>
<rect x="116" y="9" width="6" height="21" fill="#E55541"/>
<rect x="292" y="21" width="6" height="36" fill="#E55541"/>
<rect x="270" y="9" width="6" height="21" fill="#E55541"/>
<rect x="94" y="9" width="6" height="21" fill="#4BBE2E"/>
<rect x="182" y="40" width="6" height="14" fill="#4BBE2E"/>
<rect x="127" y="21" width="6" height="9" fill="#4BBE2E"/>
<rect x="281" y="21" width="6" height="9" fill="#4BBE2E"/>
<rect x="259" y="9" width="6" height="9" fill="#4BBE2E"/>
<rect x="83" y="30" width="6" height="30" fill="#4BBE2E"/>
<rect x="248" y="18" width="6" height="30" fill="#4BBE2E"/>
<rect x="39" y="12" width="6" height="37" fill="#E55541"/>
<rect x="226" y="16" width="6" height="21" fill="#E55541"/>
<rect x="237" y="37" width="6" height="10" fill="#E55541"/>
<rect x="105" y="9" width="6" height="9" fill="#E55541"/>
<rect x="149" y="22" width="6" height="9" fill="#E55541"/>
<rect x="160" y="31" width="6" height="9" fill="#E55541"/>
<rect x="171" y="40" width="6" height="14" fill="#E55541"/>
<rect x="61" y="24" width="6" height="74" fill="#E55541"/>
<rect x="17" y="37" width="6" height="37" fill="#4BBE2E"/>
<rect x="28" y="12" width="6" height="25" fill="#4BBE2E"/>
<rect x="72" y="60" width="6" height="38" fill="#4BBE2E"/>
<rect x="50" y="24" width="6" height="25" fill="#4BBE2E"/>
</svg>
