<svg width="90" height="80" viewBox="0 0 90 80" fill="none" xmlns="http://www.w3.org/2000/svg">
<path fill-rule="evenodd" clip-rule="evenodd" d="M44.7015 4.70992C22.6476 4.70992 4.70619 18.4307 4.70619 35.2946C4.70619 43.8347 9.43505 52.0549 17.6741 57.8425C18.4834 58.4118 18.8504 59.4235 18.5963 60.3787C18.0458 62.4302 16.1731 68.0625 11.1619 73.4971C17.2882 71.3515 23.8851 67.6296 28.7551 64.2794C29.3339 63.8794 30.0585 63.7618 30.7361 63.9547C35.1967 65.2299 39.8973 65.8792 44.7015 65.8792C66.7554 65.8792 84.6968 52.1585 84.6968 35.2946C84.6968 18.4307 66.7554 4.70992 44.7015 4.70992ZM2.35349 79.9953C1.29479 79.9953 0.367844 79.2895 0.0855247 78.2684C-0.196795 77.2474 0.236095 76.1652 1.14422 75.624C9.10093 70.8528 12.3994 63.9125 13.571 60.6658C4.9226 54.0454 0.000828785 44.8841 0.000828785 35.2947C0.000828785 30.4529 1.2148 25.7617 3.61452 21.3481C5.90131 17.1415 9.16681 13.3725 13.3122 10.1447C21.7206 3.60428 32.8675 0 44.7015 0C56.5354 0 67.6823 3.60428 76.0907 10.1447C80.2361 13.3678 83.5016 17.1368 85.7884 21.3481C88.1881 25.757 89.4021 30.4482 89.4021 35.2947C89.4021 40.1412 88.1881 44.8277 85.7884 49.2413C83.5016 53.4478 80.2361 57.2168 76.0907 60.4446C67.6823 66.9851 56.5354 70.5893 44.7015 70.5893C39.8408 70.5893 35.0696 69.9823 30.5102 68.7778C28.4916 70.1235 24.7179 72.5091 20.2102 74.7536C13.2087 78.2355 7.20469 80 2.3582 80L2.35349 79.9953Z" fill="#979797"/>
</svg>
