<svg width="100" height="75" viewBox="0 0 100 75" fill="none" xmlns="http://www.w3.org/2000/svg">
<path fill-rule="evenodd" clip-rule="evenodd" d="M15 7.5C15 6.12 16.12 5 17.5 5H82.5C83.88 5 85 6.12 85 7.5V47.5C85 48.88 83.88 50 82.5 50H17.5C16.12 50 15 48.88 15 47.5V7.5ZM17.5 55H82.5C86.635 55 90 51.635 90 47.5V7.5C90 3.365 86.635 0 82.5 0H17.5C13.365 0 10 3.365 10 7.5V47.5C10 51.635 13.365 55 17.5 55V55Z" fill="#F2F2F2"/>
<path fill-rule="evenodd" clip-rule="evenodd" d="M95 67.5C95 68.88 93.88 70 92.5 70H7.5C6.12 70 5 68.88 5 67.5V65H95V67.5ZM97.5 60H2.5C1.12 60 0 61.12 0 62.5V67.5C0 71.635 3.365 75 7.5 75H92.5C96.635 75 100 71.635 100 67.5V62.5C100 61.12 98.88 60 97.5 60V60Z" fill="#F2F2F2"/>
</svg>
