<svg width="333" height="333" viewBox="0 0 333 333" fill="none" xmlns="http://www.w3.org/2000/svg">
<path fill-rule="evenodd" clip-rule="evenodd" d="M120.208 141.421L98.995 162.635C79.4688 182.161 79.4688 213.819 98.995 233.345C118.521 252.871 150.179 252.871 169.706 233.345L190.919 212.132L120.208 141.421Z" fill="#F2F2F2"/>
<rect x="101.116" y="132.229" width="15" height="140" rx="7.5" transform="rotate(-45 101.116 132.229)" fill="#F2F2F2"/>
<rect x="55.8613" y="289.207" width="15" height="140" rx="7.5" transform="rotate(-135 55.8613 289.207)" fill="#F2F2F2"/>
<path fill-rule="evenodd" clip-rule="evenodd" d="M212.132 190.919L233.345 169.706C252.871 150.179 252.871 118.521 233.345 98.9949C213.819 79.4687 182.161 79.4687 162.634 98.9949L141.421 120.208L212.132 190.919Z" fill="#F2F2F2"/>
<rect x="231.931" y="199.404" width="15" height="140" rx="7.5" transform="rotate(135 231.931 199.404)" fill="#F2F2F2"/>
<rect x="278.6" y="45.2548" width="15" height="140" rx="7.5" transform="rotate(45 278.6 45.2548)" fill="#F2F2F2"/>
</svg>
