<svg width="334" height="334" viewBox="0 0 334 334" fill="none" xmlns="http://www.w3.org/2000/svg">
<path fill-rule="evenodd" clip-rule="evenodd" d="M121.038 142.251L99.8248 163.464C80.2986 182.991 80.2986 214.649 99.8248 234.175C119.351 253.701 151.009 253.701 170.535 234.175L191.749 212.962L121.038 142.251Z" fill="#14161B"/>
<rect x="101.946" y="133.059" width="15" height="140" rx="7.5" transform="rotate(-45 101.946 133.059)" fill="#14161B"/>
<rect x="56.6912" y="290.037" width="15" height="140" rx="7.5" transform="rotate(-135 56.6912 290.037)" fill="#14161B"/>
<path fill-rule="evenodd" clip-rule="evenodd" d="M212.962 191.749L234.175 170.536C253.701 151.009 253.701 119.351 234.175 99.8248C214.649 80.2986 182.991 80.2986 163.465 99.8248L142.251 121.038L212.962 191.749Z" fill="#14161B"/>
<rect x="232.761" y="200.234" width="15" height="140" rx="7.5" transform="rotate(135 232.761 200.234)" fill="#14161B"/>
<rect x="279.43" y="46.0847" width="15" height="140" rx="7.5" transform="rotate(45 279.43 46.0847)" fill="#14161B"/>
</svg>
