<svg width="200" height="140" viewBox="0 0 200 140" fill="none" xmlns="http://www.w3.org/2000/svg">
<path fill-rule="evenodd" clip-rule="evenodd" d="M190 17.93L147.93 60H112.07L162.07 10H190V17.93ZM190 59.9997H162.07L190 32.0697V59.9997ZM160 130H170V70H160V130ZM50 90H150V70H50V90ZM47.9301 60H12.0701L62.0701 10H97.9301L47.9301 60ZM30 130H40V70H30V130ZM10 10H47.93L10 47.93V10ZM112.07 10H147.93L97.9301 60H62.0701L112.07 10ZM195 0H5C2.24 0 0 2.24 0 5V65C0 67.76 2.24 70 5 70H20V130H15C12.24 130 10 132.24 10 135C10 137.76 12.24 140 15 140H55C57.76 140 60 137.76 60 135C60 132.24 57.76 130 55 130H50V100H150V130H145C142.24 130 140 132.24 140 135C140 137.76 142.24 140 145 140H185C187.76 140 190 137.76 190 135C190 132.24 187.76 130 185 130H180V70H195C197.76 70 200 67.76 200 65V5C200 2.24 197.76 0 195 0V0Z" fill="#F2F2F2"/>
</svg>
