<svg width="201" height="141" viewBox="0 0 201 141" fill="none" xmlns="http://www.w3.org/2000/svg">
<path fill-rule="evenodd" clip-rule="evenodd" d="M190.696 18.5001L148.626 60.5701H112.766L162.766 10.5701H190.696V18.5001ZM190.696 60.5698H162.766L190.696 32.6398V60.5698ZM160.696 130.57H170.696V70.5701H160.696V130.57ZM50.6963 90.5701H150.696V70.5701H50.6963V90.5701ZM48.6263 60.5701H12.7663L62.7663 10.5701H98.6263L48.6263 60.5701ZM30.6963 130.57H40.6963V70.5701H30.6963V130.57ZM10.6963 10.5701H48.6263L10.6963 48.5001V10.5701ZM112.766 10.5701H148.626L98.6263 60.5701H62.7663L112.766 10.5701ZM195.696 0.570068H5.69629C2.93629 0.570068 0.696289 2.81007 0.696289 5.57007V65.5701C0.696289 68.3301 2.93629 70.5701 5.69629 70.5701H20.6963V130.57H15.6963C12.9363 130.57 10.6963 132.81 10.6963 135.57C10.6963 138.33 12.9363 140.57 15.6963 140.57H55.6963C58.4563 140.57 60.6963 138.33 60.6963 135.57C60.6963 132.81 58.4563 130.57 55.6963 130.57H50.6963V100.57H150.696V130.57H145.696C142.936 130.57 140.696 132.81 140.696 135.57C140.696 138.33 142.936 140.57 145.696 140.57H185.696C188.456 140.57 190.696 138.33 190.696 135.57C190.696 132.81 188.456 130.57 185.696 130.57H180.696V70.5701H195.696C198.456 70.5701 200.696 68.3301 200.696 65.5701V5.57007C200.696 2.81007 198.456 0.570068 195.696 0.570068V0.570068Z" fill="#14161B"/>
</svg>
