<svg width="80" height="80" viewBox="0 0 80 80" fill="none" xmlns="http://www.w3.org/2000/svg">
<path fill-rule="evenodd" clip-rule="evenodd" d="M42 4.00003C51.924 4.00003 60 12.076 60 22C60 31.924 51.924 40 42 40C32.076 40 24 31.924 24 22C24 12.076 32.076 4.00003 42 4.00003ZM42 44C54.132 44 64 34.132 64 22C64 9.868 54.132 0 42 0C29.868 0 20 9.868 20 22C20 34.132 29.868 44 42 44Z" fill="#0ED8D2"/>
<path fill-rule="evenodd" clip-rule="evenodd" d="M16 54.2683C13.1808 56.0758 10.8035 58.262 8.9 60.8C4.056 67.26 4 73.728 4 74C4 77.308 6.692 80 10 80H74C77.308 80 80 77.308 80 74C80 73.728 79.944 67.26 75.1 60.8C72.28 57.04 68.42 54.056 63.624 51.924C57.768 49.32 50.492 48 42 48C33.508 48 26.232 49.32 20.376 51.924C20.25 51.9799 20.1247 52.0364 20 52.0935V56.5782C25.6407 53.5621 33.0713 51.9999 42 51.9999C55.944 51.9999 66.236 55.8119 71.764 63.0239C75.908 68.4279 76 73.9519 76 73.9999C76 75.1039 75.104 75.9999 74 75.9999H10C8.89603 75.9999 8.00003 75.1039 8.00003 74.0079C8.00012 74.0067 8.00026 74.0026 8.00048 73.9957C8.01029 73.7013 8.18998 68.3053 12.236 63.0239C13.3778 61.5333 14.7233 60.1879 16.2626 58.9914C16.0955 58.6991 16 58.3607 16 58V54.2683Z" fill="#0ED8D2"/>
<path fill-rule="evenodd" clip-rule="evenodd" d="M0 46C0 36.0589 8.05888 28 18 28C27.9411 28 36 36.0589 36 46C36 55.9411 27.9411 64 18 64C8.05888 64 0 55.9411 0 46ZM16 33.9999C16 32.8954 16.8954 31.9999 18 31.9999C19.1046 31.9999 20 32.8954 20 33.9999V44.0001H30C31.1046 44.0001 32 44.8955 32 46.0001C32 47.1046 31.1046 48.0001 30 48.0001H20V57.9999C20 59.1045 19.1046 59.9999 18 59.9999C16.8954 59.9999 16 59.1045 16 57.9999V48.0001H6C4.89543 48.0001 4 47.1046 4 46.0001C4 44.8955 4.89543 44.0001 6 44.0001H16V33.9999Z" fill="#0ED8D2"/>
</svg>
