<svg width="100" height="80" viewBox="0 0 100 80" fill="none" xmlns="http://www.w3.org/2000/svg">
<path fill-rule="evenodd" clip-rule="evenodd" d="M99.2688 33.2292H99.2638C98.2888 32.2542 96.7038 32.2542 95.7289 33.2292L89.984 38.9741C89.729 28.6743 85.5941 19.0245 78.2793 11.7147C70.7245 4.1599 60.6797 0 49.995 0C35.1253 0 21.5656 8.1748 14.6108 21.3295C13.9658 22.5495 14.4308 24.0644 15.6508 24.7094C16.8707 25.3544 18.3857 24.8894 19.0307 23.6694C25.1156 12.1547 36.9803 4.99988 49.995 4.99988C68.9395 4.99988 84.4191 20.1345 84.9791 38.9441L79.2643 33.2292C78.2893 32.2542 76.7043 32.2542 75.7293 33.2292C74.7544 34.2042 74.7544 35.7891 75.7293 36.7641L85.7291 46.7639C86.2191 47.2539 86.8591 47.4939 87.4991 47.4939C88.139 47.4939 88.779 47.2489 89.269 46.7639L99.2688 36.7641C100.244 35.7891 100.244 34.2042 99.2688 33.2292Z" fill="#14161B"/>
<path fill-rule="evenodd" clip-rule="evenodd" d="M84.3442 55.2886H84.3392C83.1193 54.6437 81.6043 55.1086 80.9593 56.3286C74.8745 67.8433 63.0097 74.9982 49.9951 74.9982C31.0505 74.9982 15.5709 59.8635 15.0109 41.054L20.7258 46.7688C21.2157 47.2588 21.8557 47.4988 22.4957 47.4988C23.1357 47.4988 23.7757 47.2538 24.2657 46.7688C25.2406 45.7939 25.2406 44.2089 24.2657 43.2339L14.2659 33.2342C13.2909 32.2592 11.706 32.2592 10.731 33.2342L0.731232 43.2339C-0.243744 44.2089 -0.243744 45.7939 0.731232 46.7688C1.70621 47.7438 3.29117 47.7438 4.26615 46.7688L10.011 41.024C10.266 51.3237 14.4009 60.9735 21.7157 68.2833C29.2705 75.8381 39.3153 79.998 50 79.998C64.8697 79.998 78.4294 71.8232 85.3842 58.6686C86.0292 57.4486 85.5642 55.9336 84.3442 55.2886Z" fill="#14161B"/>
</svg>
