<svg width="200" height="200" viewBox="0 0 200 200" fill="none" xmlns="http://www.w3.org/2000/svg">
<path fill-rule="evenodd" clip-rule="evenodd" d="M10 0C4.47715 0 0 4.47715 0 10V85C0 90.5229 4.47715 95 10 95H85C90.5229 95 95 90.5228 95 85V10C95 4.47715 90.5228 0 85 0H10ZM15 10C12.2386 10 10 12.2386 10 15V80C10 82.7614 12.2386 85 15 85H80C82.7614 85 85 82.7614 85 80V15C85 12.2386 82.7614 10 80 10H15Z" fill="#0ED8D2"/>
<path fill-rule="evenodd" clip-rule="evenodd" d="M115 0C109.477 0 105 4.47715 105 10V85C105 90.5229 109.477 95 115 95H190C195.523 95 200 90.5228 200 85V10C200 4.47715 195.523 0 190 0H115ZM120 10C117.239 10 115 12.2386 115 15V80C115 82.7614 117.239 85 120 85H185C187.761 85 190 82.7614 190 80V15C190 12.2386 187.761 10 185 10H120Z" fill="#0ED8D2"/>
<path fill-rule="evenodd" clip-rule="evenodd" d="M10 105C4.47715 105 0 109.477 0 115V190C0 195.523 4.47715 200 10 200H85C90.5229 200 95 195.523 95 190V115C95 109.477 90.5228 105 85 105H10ZM15 115C12.2386 115 10 117.239 10 120V185C10 187.761 12.2386 190 15 190H80C82.7614 190 85 187.761 85 185V120C85 117.239 82.7614 115 80 115H15Z" fill="#0ED8D2"/>
<path fill-rule="evenodd" clip-rule="evenodd" d="M115 105C109.477 105 105 109.477 105 115V190C105 195.523 109.477 200 115 200H190C195.523 200 200 195.523 200 190V115C200 109.477 195.523 105 190 105H115ZM120 115C117.239 115 115 117.239 115 120V185C115 187.761 117.239 190 120 190H185C187.761 190 190 187.761 190 185V120C190 117.239 187.761 115 185 115H120Z" fill="#0ED8D2"/>
</svg>
