<svg width="72" height="80" viewBox="0 0 72 80" fill="none" xmlns="http://www.w3.org/2000/svg">
<path fill-rule="evenodd" clip-rule="evenodd" d="M37.899 75.6757V21.1662C49.6842 22.4294 58.9516 34.1683 58.9516 48.421C58.9516 62.6736 49.6842 74.4125 37.899 75.6757ZM21.2969 21.6168C21.1369 20.7411 21.0569 19.8526 21.0569 18.9474C21.0569 10.8211 27.6674 4.21053 35.7937 4.21053C43.92 4.21053 50.5306 10.8211 50.5306 18.9474C50.5306 19.8526 50.4506 20.7411 50.2906 21.6168C45.9874 18.5095 41.0063 16.8421 35.7937 16.8421C30.5811 16.8421 25.6 18.5053 21.2969 21.6168ZM33.6885 75.6757C21.9032 74.4125 12.6358 62.6736 12.6358 48.421C12.6358 34.1683 21.9032 22.4294 33.6885 21.1662V75.6757ZM69.4695 46.3158H63.0989C62.8379 41.6884 61.7095 37.2505 59.8105 33.2547C64.1726 31.9705 67.3684 27.9326 67.3684 23.1579C67.3684 21.9958 66.4253 21.0526 65.2632 21.0526C64.101 21.0526 63.1579 21.9958 63.1579 23.1579C63.1579 26.3621 60.7579 29.0189 57.6589 29.4189C56.9263 28.2989 56.1221 27.2253 55.2547 26.2105C54.8 25.68 54.3326 25.1747 53.8526 24.6863C54.4421 22.8379 54.7368 20.9137 54.7368 18.9474C54.7368 8.50105 46.2358 0 35.7895 0C25.3432 0 16.8421 8.50105 16.8421 18.9474C16.8421 20.9137 17.1411 22.8379 17.7263 24.6863C17.2463 25.1747 16.7789 25.68 16.3242 26.2105C15.4526 27.2253 14.6526 28.2989 13.92 29.4189C10.8211 29.0189 8.42105 26.3621 8.42105 23.1579C8.42105 21.9958 7.47789 21.0526 6.31579 21.0526C5.15368 21.0526 4.21053 21.9958 4.21053 23.1579C4.21053 27.9326 7.40632 31.9705 11.7684 33.2547C9.86947 37.2505 8.74526 41.6884 8.48 46.3158H2.10526C0.943158 46.3158 0 47.2589 0 48.4211C0 49.5832 0.943158 50.5263 2.10526 50.5263H8.48421C8.74526 55.1537 9.87368 59.5916 11.7726 63.5874C7.41053 64.8716 4.21474 68.9095 4.21474 73.6842C4.21474 74.8463 5.15789 75.7895 6.32 75.7895C7.4821 75.7895 8.42526 74.8463 8.42526 73.6842C8.42526 70.48 10.8253 67.8232 13.9242 67.4232C14.6568 68.5432 15.4611 69.6168 16.3284 70.6316C21.5074 76.6737 28.4168 80 35.7895 80C43.1621 80 50.0758 76.6737 55.2505 70.6316C56.1221 69.6168 56.9221 68.5432 57.6547 67.4232C60.7537 67.8232 63.1537 70.48 63.1537 73.6842C63.1537 74.8463 64.0968 75.7895 65.2589 75.7895C66.421 75.7895 67.3642 74.8463 67.3642 73.6842C67.3642 68.9095 64.1684 64.8716 59.8063 63.5874C61.7053 59.5916 62.8295 55.1537 63.0947 50.5263H69.4695C70.6316 50.5263 71.5747 49.5832 71.5747 48.4211C71.5747 47.2589 70.6316 46.3158 69.4695 46.3158V46.3158Z" fill="#F2F2F2"/>
</svg>
