<svg width="100" height="100" viewBox="0 0 100 100" fill="none" xmlns="http://www.w3.org/2000/svg">
<path fill-rule="evenodd" clip-rule="evenodd" d="M53.958 50L75.4317 30.9158C76.5159 29.9526 76.6159 28.2895 75.6528 27.2C74.6896 26.1105 73.0265 26.0158 71.937 26.9789L50.0001 46.4789L28.0633 26.9789C26.9791 26.0158 25.3159 26.1105 24.3475 27.2C23.3791 28.2895 23.4791 29.9474 24.5686 30.9158L46.0423 50L24.5686 69.0842C23.4844 70.0474 23.3844 71.7105 24.3475 72.8C24.8686 73.3842 25.5896 73.6842 26.3159 73.6842C26.937 73.6842 27.5633 73.4632 28.0633 73.0211L50.0001 53.5211L71.937 73.0211C72.437 73.4684 73.0633 73.6842 73.6844 73.6842C74.4107 73.6842 75.1317 73.3842 75.6528 72.8C76.6159 71.7158 76.5212 70.0526 75.4317 69.0842L53.958 50" fill="#FD2E2E"/>
<path fill-rule="evenodd" clip-rule="evenodd" d="M50 94.7368C25.3316 94.7368 5.26316 74.6684 5.26316 50C5.26316 25.3316 25.3316 5.26316 50 5.26316C74.6684 5.26316 94.7368 25.3316 94.7368 50C94.7368 74.6684 74.6684 94.7368 50 94.7368ZM85.3579 14.6474C75.9105 5.2 63.3579 0 50 0C36.6421 0 24.0842 5.2 14.6421 14.6474C5.2 24.0947 0 36.6474 0 50.0053C0 63.3579 5.19474 75.9158 14.6421 85.3579C24.0895 94.8 36.6421 100 50 100C63.3579 100 75.9158 94.8 85.3579 85.3579C94.8 75.9158 100 63.3632 100 50.0053C100 36.6474 94.8053 24.0947 85.3579 14.6474V14.6474Z" fill="#FD2E2E"/>
</svg>
