<svg width="200" height="180" viewBox="0 0 200 180" fill="none" xmlns="http://www.w3.org/2000/svg">
<path fill-rule="evenodd" clip-rule="evenodd" d="M115.043 89.9966L196.638 17.4812C200.758 13.8214 201.138 7.50182 197.478 3.36208C193.818 -0.777657 187.498 -1.13763 183.359 2.52213L100.004 76.6175L16.6493 2.52213C12.5295 -1.13763 6.20993 -0.777657 2.53017 3.36208C-1.1496 7.50182 -0.769626 13.8014 3.37011 17.4812L84.965 89.9966L3.37011 162.512C-0.749627 166.172 -1.1296 172.491 2.53017 176.631C4.51004 178.851 7.24987 179.991 10.0097 179.991C12.3695 179.991 14.7494 179.151 16.6493 177.471L100.004 103.376L183.359 177.471C185.259 179.171 187.638 179.991 189.998 179.991C192.758 179.991 195.498 178.851 197.478 176.631C201.138 172.511 200.778 166.192 196.638 162.512L115.043 89.9966Z" fill="#F2F2F2"/>
</svg>
