<svg width="200" height="211" viewBox="0 0 200 211" fill="none" xmlns="http://www.w3.org/2000/svg">
<path fill-rule="evenodd" clip-rule="evenodd" d="M99.9999 10.5263C126.116 10.5263 147.368 31.7789 147.368 57.8947C147.368 84.0105 126.116 105.263 99.9999 105.263C73.8841 105.263 52.6315 84.0105 52.6315 57.8947C52.6315 31.7789 73.8841 10.5263 99.9999 10.5263ZM100 115.789C131.926 115.789 157.895 89.8211 157.895 57.8947C157.895 25.9684 131.926 0 100 0C68.0736 0 42.1052 25.9684 42.1052 57.8947C42.1052 89.8211 68.0736 115.789 100 115.789Z" fill="#14161B"/>
<path fill-rule="evenodd" clip-rule="evenodd" d="M104.501 57.563L127.105 37.4743C128.247 36.4605 128.352 34.7098 127.338 33.563C126.324 32.4162 124.574 32.3164 123.427 33.3303L100.335 53.8566L77.2439 33.3303C76.1026 32.3164 74.3519 32.4162 73.3325 33.563C72.3131 34.7098 72.4184 36.4549 73.5652 37.4743L96.1691 57.563L73.5652 77.6516C72.4239 78.6655 72.3187 80.4162 73.3325 81.563C73.881 82.1779 74.64 82.4937 75.4045 82.4937C76.0583 82.4937 76.7176 82.261 77.2439 81.7957L100.335 61.2693L123.427 81.7957C123.953 82.2666 124.612 82.4937 125.266 82.4937C126.031 82.4937 126.79 82.1779 127.338 81.563C128.352 80.4217 128.252 78.671 127.105 77.6516L104.501 57.563Z" fill="#14161B"/>
<path fill-rule="evenodd" clip-rule="evenodd" d="M184.211 200H15.7895C12.8842 200 10.5263 197.642 10.5263 194.758C10.5368 194.611 10.7789 180.074 21.6737 165.853C36.2105 146.874 63.2947 136.842 100 136.842C136.695 136.842 163.779 146.874 178.326 165.853C189.232 180.074 189.474 194.611 189.474 194.737C189.474 197.642 187.116 200 184.211 200ZM187.105 160C179.684 150.105 169.526 142.253 156.905 136.642C141.495 129.789 122.347 126.316 100 126.316C77.6526 126.316 58.5053 129.789 43.0947 136.642C30.4737 142.242 20.3158 150.105 12.8947 160C0.147369 177 0 194.021 0 194.737C0 203.442 7.08421 210.526 15.7895 210.526H184.211C192.916 210.526 200 203.442 200 194.737C200 194.021 199.853 177 187.105 160Z" fill="#14161B"/>
</svg>
