<svg width="158" height="200" viewBox="0 0 158 200" fill="none" xmlns="http://www.w3.org/2000/svg">
<path fill-rule="evenodd" clip-rule="evenodd" d="M26.3158 168.421C23.4105 168.421 21.0526 170.779 21.0526 173.684C21.0526 176.59 23.4105 178.947 26.3158 178.947H131.579C134.484 178.947 136.842 176.59 136.842 173.684C136.842 170.779 134.484 168.421 131.579 168.421H26.3158Z" fill="#F2F2F2"/>
<path fill-rule="evenodd" clip-rule="evenodd" d="M10.5263 15.7895C10.5263 12.8842 12.8842 10.5263 15.7895 10.5263H121.053C123.958 10.5263 126.316 12.8842 126.316 15.7895V142.105C126.316 145.011 123.958 147.368 121.053 147.368H26.3158C20.4 147.368 14.9263 149.337 10.5263 152.642V15.7895ZM152.632 21.0526C149.726 21.0526 147.368 23.4105 147.368 26.3158V184.211C147.368 187.116 145.011 189.474 142.105 189.474H26.3158C17.6105 189.474 10.5263 182.389 10.5263 173.684C10.5263 164.979 17.6105 157.895 26.3158 157.895H121.053C129.758 157.895 136.842 150.811 136.842 142.105V15.7895C136.842 7.08421 129.758 0 121.053 0H15.7895C7.08421 0 0 7.08421 0 15.7895V173.684C0 188.189 11.8105 200 26.3158 200H142.105C150.811 200 157.895 192.916 157.895 184.211V26.3158C157.895 23.4105 155.537 21.0526 152.632 21.0526Z" fill="#F2F2F2"/>
</svg>
