<svg width="81" height="80" viewBox="0 0 81 80" fill="none" xmlns="http://www.w3.org/2000/svg">
<path fill-rule="evenodd" clip-rule="evenodd" d="M40.0021 75.7893C20.2663 75.7893 4.21075 59.7338 4.21075 39.998C4.21075 20.2622 20.2663 4.20664 40.0021 4.20664C59.7379 4.20664 75.7935 20.2622 75.7935 39.998C75.7935 59.7338 59.7379 75.7893 40.0021 75.7893ZM68.2899 11.7143C60.7358 4.16022 50.689 0 40.0021 0C29.3152 0 19.2726 4.16022 11.7143 11.7143C4.15601 19.2684 0 29.3152 0 39.9979C0 50.6806 4.16022 60.7274 11.7143 68.2857C19.2684 75.844 29.3152 80 40.0021 80C50.689 80 60.7316 75.8398 68.2899 68.2857C75.844 60.7316 80.0042 50.6848 80.0042 39.9979C80.0042 29.311 75.844 19.2684 68.2899 11.7143Z" fill="#F2F2F2"/>
<path fill-rule="evenodd" clip-rule="evenodd" d="M59.5611 32.1913L39.998 51.7544L20.4349 32.1913C19.6138 31.3702 18.279 31.3702 17.4579 32.1913C17.0494 32.6039 16.8431 33.1429 16.8431 33.6819L16.8389 33.6777C16.8389 34.2166 17.041 34.7556 17.4537 35.1683L38.5074 56.222C39.3285 57.0431 40.6633 57.0431 41.4844 56.222L62.5381 35.1683C63.3592 34.3472 63.3592 33.0124 62.5381 32.1913C61.717 31.3702 60.3822 31.3702 59.5611 32.1913Z" fill="#F2F2F2"/>
</svg>
