<svg width="100" height="55" viewBox="0 0 100 55" fill="none" xmlns="http://www.w3.org/2000/svg">
<path fill-rule="evenodd" clip-rule="evenodd" d="M81.5798 38.0229C73.9152 43.4825 62.216 49.9921 49.9967 49.9921C37.7775 49.9921 26.0782 43.4825 18.4137 38.0229C12.6291 33.9031 8.20434 29.7334 5.96948 27.4935C8.20434 25.2537 12.6291 21.0889 18.4137 16.9642C21.0635 15.0743 24.1983 13.0644 27.6681 11.2395C25.9332 14.6793 24.9983 18.5141 24.9983 22.4938C24.9983 36.278 36.2126 47.4923 49.9967 47.4923C63.7809 47.4923 74.9952 36.278 74.9952 22.4938C74.9952 18.5141 74.0652 14.6793 72.3303 11.2395C75.8051 13.0644 78.9299 15.0793 81.5798 16.9642C87.3644 21.0839 91.7891 25.2537 94.024 27.4935C91.7891 29.7334 87.3644 33.8981 81.5798 38.0229ZM37.1277 7.18467C41.2374 5.84475 45.5872 4.99481 49.9969 4.99481C54.4116 4.99481 58.7563 5.84475 62.8711 7.18467C67.4008 10.9994 69.9956 16.5491 69.9956 22.4937C69.9956 33.523 61.0312 42.4925 49.9969 42.4925C38.9676 42.4925 29.9981 33.523 29.9981 22.4937C29.9981 16.5541 32.593 10.9994 37.1277 7.18467ZM99.3588 25.8234C99.1238 25.5584 93.4442 19.2988 84.5747 12.9642C79.34 9.22442 74.0804 6.24461 68.9257 4.09974C62.4011 1.37991 56.0315 0 49.9969 0C43.9673 0 37.5927 1.37991 31.0731 4.09974C25.9234 6.24461 20.6537 9.22942 15.419 12.9642C6.54959 19.2988 0.874945 25.5634 0.64496 25.8234C-0.214987 26.7733 -0.214987 28.2182 0.64496 29.1682C0.874945 29.4332 6.54959 35.6928 15.419 42.0274C20.6537 45.7671 25.9234 48.747 31.0731 50.8918C37.5927 53.6117 43.9673 54.9916 49.9969 54.9916C56.0315 54.9916 62.4011 53.6117 68.9257 50.8918C74.0804 48.747 79.34 45.7621 84.5747 42.0274C93.4442 35.6928 99.1238 29.4282 99.3588 29.1682C100.214 28.2182 100.214 26.7733 99.3588 25.8234V25.8234Z" fill="#14161B"/>
</svg>
