<svg width="200" height="200" viewBox="0 0 200 200" fill="none" xmlns="http://www.w3.org/2000/svg">
<path fill-rule="evenodd" clip-rule="evenodd" d="M100 189.474C50.6632 189.474 10.5263 149.337 10.5263 100C10.5263 50.6632 50.6632 10.5263 100 10.5263C149.337 10.5263 189.474 50.6632 189.474 100C189.474 149.337 149.337 189.474 100 189.474ZM170.716 29.2947C151.821 10.4 126.716 0 100 0C73.2842 0 48.1684 10.4 29.2842 29.2947C10.4 48.1895 0 73.2947 0 100.011C0 126.716 10.3895 151.832 29.2842 170.716C48.1789 189.6 73.2842 200 100 200C126.716 200 151.832 189.6 170.716 170.716C189.6 151.832 200 126.726 200 100.011C200 73.2947 189.611 48.1895 170.716 29.2947Z" fill="#F2F2F2"/>
<path fill-rule="evenodd" clip-rule="evenodd" d="M68.4211 52.6316C71.3263 52.6316 73.6842 54.9895 73.6842 57.8947C73.6842 60.8 71.3263 63.1579 68.4211 63.1579C65.5158 63.1579 63.1579 60.8 63.1579 57.8947C63.1579 54.9895 65.5158 52.6316 68.4211 52.6316ZM68.4211 73.6842C77.1263 73.6842 84.2105 66.6 84.2105 57.8947C84.2105 49.1894 77.1263 42.1052 68.4211 42.1052C59.7158 42.1052 52.6316 49.1894 52.6316 57.8947C52.6316 66.6 59.7158 73.6842 68.4211 73.6842Z" fill="#F2F2F2"/>
<path fill-rule="evenodd" clip-rule="evenodd" d="M131.579 63.1579C128.674 63.1579 126.316 60.8 126.316 57.8947C126.316 54.9895 128.674 52.6316 131.579 52.6316C134.484 52.6316 136.842 54.9895 136.842 57.8947C136.842 60.8 134.484 63.1579 131.579 63.1579ZM131.579 42.1052C122.874 42.1052 115.789 49.1894 115.789 57.8947C115.789 66.6 122.874 73.6842 131.579 73.6842C140.284 73.6842 147.368 66.6 147.368 57.8947C147.368 49.1894 140.284 42.1052 131.579 42.1052Z" fill="#F2F2F2"/>
<path fill-rule="evenodd" clip-rule="evenodd" d="M126.305 122.105C118.115 117.926 109.263 115.8 99.9994 115.8C90.7362 115.8 81.8836 117.916 73.6941 122.105C65.8836 126.095 58.9678 131.916 53.6836 138.947C51.9362 141.273 52.3994 144.568 54.7257 146.316C55.6731 147.021 56.7783 147.368 57.8836 147.368V147.379C59.4836 147.379 61.0626 146.652 62.0941 145.273C71.1468 133.231 84.9573 126.326 99.9994 126.326C115.042 126.326 128.863 133.231 137.905 145.273C139.652 147.589 142.957 148.063 145.273 146.316C147.589 144.568 148.063 141.273 146.315 138.947C141.031 131.916 134.115 126.095 126.305 122.105Z" fill="#F2F2F2"/>
</svg>
