<svg width="100" height="95" viewBox="0 0 100 95" fill="none" xmlns="http://www.w3.org/2000/svg">
<path fill-rule="evenodd" clip-rule="evenodd" d="M49.9995 72.2241L51.3273 72.563L76.8781 86.4967L72.2613 58.7903C72.1113 57.907 72.4002 57.0014 73.0391 56.368L91.4452 37.9619L63.4333 33.2951C62.5554 33.1507 61.8054 32.5896 61.4054 31.7951L49.9995 8.98329L38.5936 31.7951C38.1936 32.5896 37.4436 33.1451 36.5658 33.2951L8.55383 37.9619L26.9599 56.368C27.5933 57.0014 27.8822 57.9014 27.7377 58.7903L23.1209 86.4967L48.6717 72.563L49.9995 72.2241ZM80.556 94.4473L79.2282 94.1084L49.9995 78.169L20.7709 94.1084C19.8375 94.6195 18.6986 94.5473 17.8319 93.9306C16.9652 93.3139 16.5263 92.2583 16.7041 91.2083L22.0265 59.2851L0.81472 38.0734C0.0813645 37.34 -0.18531 36.2511 0.131366 35.2622C0.448042 34.2733 1.29251 33.5399 2.32032 33.3677L34.2602 28.0453L47.5161 1.53338C47.9884 0.594462 48.9495 0 49.9995 0C51.0496 0 52.0163 0.594462 52.4829 1.53338L65.7389 28.0453L97.6787 33.3677C98.7066 33.5399 99.551 34.2677 99.8677 35.2622C100.184 36.2566 99.9233 37.34 99.1843 38.0734L77.9726 59.2851L83.295 91.2083C83.4672 92.2583 83.0283 93.3139 82.1672 93.9306C81.6894 94.2695 81.1227 94.4473 80.556 94.4473V94.4473Z" fill="#0B0B09"/>
</svg>
