<svg id="Capa_1" data-name="Capa 1" xmlns="http://www.w3.org/2000/svg" viewBox="0 0 100 98.21">
  <title>games-icon_ph_black</title>
  <path id="_Compound_Path_" data-name="&lt;Compound Path&gt;" d="M99.84,18.56,79.11,81.39a3.09,3.09,0,0,1-2.94,2.13,3,3,0,0,1-1-.16L70,81.65a2,2,0,0,1,1.24-3.78l4.35,1.44L95.78,18.14l-39.51-13-5.61,17a2,2,0,1,1-3.78-1.25L52.76,3a3.11,3.11,0,0,1,3.92-2L97.87,14.64a3.13,3.13,0,0,1,1.8,1.55A3.1,3.1,0,0,1,99.84,18.56ZM59,16.77a2.29,2.29,0,0,0,.62.1,2,2,0,0,0,1.9-1.37l.59-1.8a2,2,0,1,0-3.78-1.25l-.6,1.8A2,2,0,0,0,59,16.77ZM70.34,68.92l-.59,1.8A2,2,0,1,0,73.53,72l.59-1.8a2,2,0,1,0-3.78-1.24Zm-14-35A6.87,6.87,0,0,1,65,29.54,6.26,6.26,0,0,1,69,33a6.23,6.23,0,0,1,5.26-.4,6.87,6.87,0,0,1,4.36,8.67c-1.78,5.41-8.41,8.75-14.82,12a1.89,1.89,0,0,1-.89.22,2,2,0,0,1-1.78-1.1C57.88,45.94,54.54,39.31,56.32,33.91Zm7.45,14.87c5.08-2.59,9.92-5.33,11-8.77A2.87,2.87,0,0,0,73,36.38c-1.21-.41-2-.29-3.73,1.45a2,2,0,0,1-3.39-1.12c-.35-2.43-.92-3-2.13-3.39a3.13,3.13,0,0,0-.9-.14,2.83,2.83,0,0,0-1.3.31,2.86,2.86,0,0,0-1.43,1.66C59,38.6,61.23,43.67,63.77,48.78Zm-15.22-1V67.19a2,2,0,0,0,4,0V47.76c0-7-1.28-12.84-3.8-17.42a18.9,18.9,0,0,0-9.88-8.88l-13.29-6a2,2,0,0,0-2.12.3,2,2,0,0,0-.62,2l1.1,4.07c-6.84,2.55-13.16,8-17.94,15.41a2,2,0,0,0-.32,1.08V50.68a2,2,0,0,0,2,2h7.92c2.11-.21,5.54-1.32,6-6.25a5.82,5.82,0,0,1,7.92,5.42c0,3.68-2.27,4.56-7,6.05-5.86,1.86-13.9,4.41-13.9,17.73v3.17a6.81,6.81,0,0,0-6.54,8.6A6.81,6.81,0,0,0,6.8,99.11H32.27a2,2,0,1,0,0-4H6.8A2.83,2.83,0,0,1,4,92.31a2.85,2.85,0,0,1,.51-1.61H30.16a2,2,0,1,0,0-4h-24a2.8,2.8,0,0,1,2.57-4H32.27a2,2,0,1,0,0-4H12.64V75.61c0-10.4,5.41-12.12,11.13-13.93,4.57-1.45,9.75-3.09,9.75-9.85a9.79,9.79,0,0,0-14.87-8.38,2,2,0,0,0-1,1.7c0,2.7-.88,3.36-2.42,3.54H9.66V46.28h.85a2,2,0,0,0,0-4H9.66V39c4.6-7,10.86-12,17.25-13.88a2,2,0,0,0,1.36-2.43l-.49-1.81,9.35,4.22.24.1C44.48,27.76,48.55,36,48.55,47.76ZM28.88,32.33a2,2,0,1,0,0,4h.45a2,2,0,1,0,0-4ZM65.31,76.55V94.89a4.22,4.22,0,0,1-4.21,4.22H42.75a4.23,4.23,0,0,1-4.22-4.22V76.55a4.23,4.23,0,0,1,4.22-4.22H61.1A4.22,4.22,0,0,1,65.31,76.55Zm-4,0a.24.24,0,0,0-.23-.24H42.75a.24.24,0,0,0-.23.24V94.89a.24.24,0,0,0,.23.23H61.1a.24.24,0,0,0,.23-.23Zm-5.71,3.58h-.44a2,2,0,0,0,0,4h.44a2,2,0,1,0,0-4Zm0,7.19h-.44a2,2,0,0,0,0,4h.44a2,2,0,0,0,0-4Zm-7-7.19h-.43a2,2,0,1,0,0,4h.43a2,2,0,1,0,0-4Zm0,7.19h-.43a2,2,0,1,0,0,4h.43a2,2,0,1,0,0-4Z" transform="translate(0 -0.89)"/>
</svg>
