<svg width="222" height="200" viewBox="0 0 222 200" fill="none" xmlns="http://www.w3.org/2000/svg">
<path fill-rule="evenodd" clip-rule="evenodd" d="M177.158 183.392C177.158 186.448 174.677 188.928 171.621 188.928H143.941V139.102C143.941 129.945 136.489 122.494 127.332 122.494H94.115C84.9581 122.494 77.5064 129.945 77.5064 139.102V188.928H49.8255C46.7696 188.928 44.2894 186.448 44.2894 183.392V82.3786L107.402 12.6227C108.31 11.6151 109.494 11.0615 110.724 11.0615C111.953 11.0615 113.137 11.6151 114.045 12.6227L177.158 82.3786V183.392ZM132.868 188.928H88.5789V139.102C88.5789 136.046 91.0591 133.566 94.115 133.566H127.332C130.388 133.566 132.868 136.046 132.868 139.102V188.928ZM219.997 113.237L220.019 113.248L122.261 5.20401C119.227 1.84908 115.13 0 110.724 0C106.328 0 102.231 1.84908 99.1862 5.20401L1.42835 113.248C-0.620037 115.518 -0.442879 119.017 1.81588 121.065C2.87883 122.028 4.20751 122.493 5.52512 122.493C7.03096 122.493 8.5368 121.885 9.63297 120.667L33.206 94.6133V183.391C33.206 192.548 40.6577 200 49.8146 200H171.61C180.767 200 188.219 192.548 188.219 183.391V94.6133L211.792 120.667C213.84 122.936 217.339 123.114 219.609 121.054C221.879 118.995 222.056 115.507 219.997 113.237Z" fill="#0ED8D2"/>
</svg>
