<svg width="200" height="200" viewBox="0 0 200 200" fill="none" xmlns="http://www.w3.org/2000/svg">
<path fill-rule="evenodd" clip-rule="evenodd" d="M190 185C190 187.76 187.76 190 185 190H15C12.24 190 10 187.76 10 185V15C10 12.24 12.24 10 15 10H185C187.76 10 190 12.24 190 15V185ZM185 0H15C6.73 0 0 6.73 0 15V185C0 193.27 6.73 200 15 200H185C193.27 200 200 193.27 200 185V15C200 6.73 193.27 0 185 0V0Z" fill="#C6C6C6"/>
<path fill-rule="evenodd" clip-rule="evenodd" d="M130 60C135.51 60 140 64.49 140 70C140 75.51 135.51 80 130 80C124.49 80 120 75.51 120 70C120 64.49 124.49 60 130 60ZM130 90C141.03 90 150 81.03 150 70C150 58.97 141.03 50 130 50C118.97 50 110 58.97 110 70C110 81.03 118.97 90 130 90V90Z" fill="#C6C6C6"/>
<path fill-rule="evenodd" clip-rule="evenodd" d="M170 140H137.17L75.48 73.9C72.69 70.91 68.97 69.29 64.99 69.34C61.01 69.39 57.33 71.1 54.62 74.15L30 101.85V30H170V140ZM30 140V116.9L62.09 80.7897C62.91 79.8697 63.98 79.3497 65.11 79.3397C66.24 79.3297 67.32 79.8197 68.16 80.7197L123.49 140H30ZM175 20H25C22.24 20 20 22.24 20 25V145C20 147.76 22.24 150 25 150H175C177.76 150 180 147.76 180 145V25C180 22.24 177.76 20 175 20V20Z" fill="#C6C6C6"/>
</svg>
