<svg width="100" height="100" viewBox="0 0 100 100" fill="none" xmlns="http://www.w3.org/2000/svg">
<path fill-rule="evenodd" clip-rule="evenodd" d="M95 92.5C95 93.88 93.88 95 92.5 95H7.5C6.12 95 5 93.88 5 92.5V7.5C5 6.12 6.12 5 7.5 5H92.5C93.88 5 95 6.12 95 7.5V92.5ZM92.5 0H7.5C3.365 0 0 3.365 0 7.5V92.5C0 96.635 3.365 100 7.5 100H92.5C96.635 100 100 96.635 100 92.5V7.5C100 3.365 96.635 0 92.5 0V0Z" fill="#C6C6C6"/>
<path fill-rule="evenodd" clip-rule="evenodd" d="M65 30C67.755 30 70 32.245 70 35C70 37.755 67.755 40 65 40C62.245 40 60 37.755 60 35C60 32.245 62.245 30 65 30ZM65 45C70.515 45 75 40.515 75 35C75 29.485 70.515 25 65 25C59.485 25 55 29.485 55 35C55 40.515 59.485 45 65 45V45Z" fill="#C6C6C6"/>
<path fill-rule="evenodd" clip-rule="evenodd" d="M85 70H68.585L37.74 36.95C36.345 35.455 34.485 34.645 32.495 34.67C30.505 34.695 28.665 35.55 27.31 37.075L15 50.925V15H85V70ZM15 69.9999V58.4499L31.045 40.3949C31.455 39.9349 31.99 39.6749 32.555 39.6699C33.12 39.6649 33.66 39.9099 34.08 40.3599L61.745 69.9999H15ZM87.5 10H12.5C11.12 10 10 11.12 10 12.5V72.5C10 73.88 11.12 75 12.5 75H87.5C88.88 75 90 73.88 90 72.5V12.5C90 11.12 88.88 10 87.5 10V10Z" fill="#C6C6C6"/>
</svg>
