<svg width="100" height="100" viewBox="0 0 100 100" fill="none" xmlns="http://www.w3.org/2000/svg">
<path fill-rule="evenodd" clip-rule="evenodd" d="M50.0001 94.7417C25.3316 94.7417 5.26322 74.6723 5.26322 50.0025C5.26322 25.3328 25.3316 5.26335 50.0001 5.26335C74.6685 5.26335 94.7369 25.3328 94.7369 50.0025C94.7369 74.6723 74.6685 94.7417 50.0001 94.7417ZM85.3579 14.6429C75.9158 5.20027 63.3579 0 50 0C36.6421 0 24.0895 5.20027 14.6421 14.6429C5.19474 24.0855 0 36.644 0 49.9974C0 63.3507 5.2 75.9093 14.6421 85.3571C24.0842 94.805 36.6421 100 50 100C63.3579 100 75.9105 94.7997 85.3579 85.3571C94.8053 75.9145 100 63.356 100 49.9974C100 36.6388 94.8 24.0855 85.3579 14.6429V14.6429Z" fill="#F2F2F2"/>
<path fill-rule="evenodd" clip-rule="evenodd" d="M46.4228 74.4251V45.015C46.4228 43.3916 47.7404 42.074 49.3638 42.074C50.9872 42.074 52.3048 43.3916 52.3048 45.015V74.4251C52.3048 76.0485 50.9872 77.3661 49.3638 77.3661C47.7404 77.3661 46.4228 76.0485 46.4228 74.4251" fill="#F2F2F2"/>
<path fill-rule="evenodd" clip-rule="evenodd" d="M49.3638 36.192C47.7404 36.192 46.4228 34.8744 46.4228 33.251V27.369C46.4228 25.7456 47.7404 24.428 49.3638 24.428C50.9873 24.428 52.3048 25.7456 52.3048 27.369V33.251C52.3048 34.8744 50.9873 36.192 49.3638 36.192" fill="#F2F2F2"/>
</svg>
