<svg width="100" height="100" viewBox="0 0 100 100" fill="none" xmlns="http://www.w3.org/2000/svg">
<path fill-rule="evenodd" clip-rule="evenodd" d="M93.6657 6.33654C85.2228 -2.11218 71.479 -2.11218 63.0302 6.33654L44.9796 24.3871C43.8324 25.5344 43.8324 27.3995 44.9796 28.5468C46.1269 29.6941 47.992 29.6941 49.1393 28.5468L67.1899 10.4962C73.344 4.34203 83.3519 4.34203 89.506 10.4962C95.6602 16.6503 95.6602 26.6582 89.506 32.8123L68.1136 54.2048C61.9594 60.3589 51.9516 60.3589 45.7974 54.2048C44.6502 53.0575 42.7851 53.0575 41.6378 54.2048C40.4905 55.3521 40.4905 57.2171 41.6378 58.3644C45.8622 62.5829 51.4103 64.6951 56.9526 64.6951C62.5007 64.6951 68.0489 62.5829 72.2732 58.3644L93.6657 36.972C102.114 28.5291 102.109 14.7853 93.6657 6.33654" fill="#C6C6C6"/>
<path fill-rule="evenodd" clip-rule="evenodd" d="M50.8629 71.4552L32.8123 89.5058C26.6582 95.6599 16.6503 95.6599 10.4962 89.5058C4.34203 83.3516 4.34203 73.3438 10.4962 67.1896L31.8886 45.7972C38.0428 39.6431 48.0506 39.6431 54.2048 45.7972C55.352 46.9445 57.2171 46.9445 58.3644 45.7972C59.5117 44.6499 59.5117 42.7848 58.3644 41.6376C49.9216 33.1888 36.1777 33.1888 27.729 41.6376L6.33654 63.03C-2.11218 71.4728 -2.11218 85.2167 6.33654 93.6654C10.5609 97.8839 16.109 99.9961 21.6513 99.9961C27.1995 99.9961 32.7476 97.8839 36.972 93.6654L55.0226 75.6148C56.1698 74.4675 56.1698 72.6025 55.0226 71.4552C53.8753 70.3079 52.0102 70.3079 50.8629 71.4552" fill="#C6C6C6"/>
</svg>
