<svg width="200" height="226" viewBox="0 0 200 226" fill="none" xmlns="http://www.w3.org/2000/svg">
<path fill-rule="evenodd" clip-rule="evenodd" d="M100.489 133.351C106.009 133.351 110.489 130.364 110.489 126.684V6.66756C110.489 2.98706 106.009 0 100.489 0C94.9688 0 90.4888 2.98706 90.4888 6.66756V126.684C90.4888 130.364 94.9688 133.351 100.489 133.351Z" fill="#0ED8D2"/>
<path fill-rule="evenodd" clip-rule="evenodd" d="M200 124.997C200 103.021 193.012 82.1645 179.771 64.6821C166.969 47.7732 148.793 35.1449 128.564 29.1307C125.03 28.0906 121.31 30.0909 120.269 33.6247C119.229 37.1585 121.229 40.8656 124.763 41.9191C161.221 52.7739 186.678 86.9384 186.678 125.01C186.678 172.803 147.793 211.688 100 211.688C52.207 211.688 13.3218 172.803 13.3218 125.01C13.3218 86.9384 38.7918 52.7739 75.2367 41.9191C78.7705 40.8656 80.7841 37.1585 79.7306 33.6247C78.6772 30.0909 74.97 28.0773 71.4362 29.1307C51.2202 35.1449 33.0311 47.7732 20.2294 64.6821C7.00093 82.1645 0 103.021 0 124.997C0 151.707 10.4147 176.817 29.2972 195.713C48.1798 214.609 73.3031 225.01 100 225.01C126.71 225.01 151.807 214.595 170.703 195.713C189.599 176.83 200 151.707 200 124.997Z" fill="#0ED8D2"/>
</svg>
