<svg width="76" height="80" viewBox="0 0 76 80" fill="none" xmlns="http://www.w3.org/2000/svg">
<path fill-rule="evenodd" clip-rule="evenodd" d="M3.99609 30C3.99609 15.664 15.6601 4 29.9961 4C44.3321 4 55.9961 15.664 55.9961 30C55.9961 44.336 44.3321 56 29.9961 56C15.6601 56 3.99609 44.336 3.99609 30ZM75.472 76.648L51.7 50.712C57.056 45.108 60 37.78 60 30C60 21.988 56.88 14.452 51.212 8.788C45.544 3.124 38.012 0 30 0C21.988 0 14.452 3.12 8.788 8.788C3.124 14.456 0 21.988 0 30C0 38.012 3.12 45.548 8.788 51.212C14.456 56.876 21.988 60 30 60C36.904 60 43.448 57.684 48.752 53.42L72.524 79.352C72.92 79.784 73.456 80 74 80C74.484 80 74.968 79.828 75.352 79.476C76.168 78.728 76.22 77.464 75.476 76.652L75.472 76.648V76.648Z" fill="#F2F2F2"/>
</svg>
