<svg width="80" height="51" viewBox="0 0 80 51" fill="none" xmlns="http://www.w3.org/2000/svg">
<path fill-rule="evenodd" clip-rule="evenodd" d="M73.6842 46.3156H6.31579C5.15368 46.3156 4.21053 45.3725 4.21053 44.2104V8.14299L35.3305 28.8883C36.64 29.7598 38.32 30.1977 40 30.1977C41.68 30.1977 43.36 29.7598 44.6695 28.8883L75.7895 8.14299V44.2104C75.7895 45.3725 74.8463 46.3156 73.6842 46.3156ZM73.6842 4.21053L74.0505 4.24421L42.3368 25.3853C41.1158 26.1979 38.8884 26.1979 37.6674 25.3853L5.95369 4.24421L6.32001 4.21053H73.6884H73.6842ZM73.6842 0H6.31579C2.83368 0 0 2.83368 0 6.31579V44.2105C0 47.6926 2.83368 50.5263 6.31579 50.5263H73.6842C77.1663 50.5263 80 47.6926 80 44.2105V6.31579C80 2.83368 77.1663 0 73.6842 0Z" fill="#0ED8D2"/>
</svg>
