<svg width="100" height="69" viewBox="0 0 100 69" fill="none" xmlns="http://www.w3.org/2000/svg">
<path fill-rule="evenodd" clip-rule="evenodd" d="M3.125 6.25H96.875C98.6 6.25 100 4.85 100 3.125C100 1.4 98.6 0 96.875 0H3.125C1.4 0 0 1.4 0 3.125C0 4.85 1.4 6.25 3.125 6.25" fill="#0ED8D2"/>
<path fill-rule="evenodd" clip-rule="evenodd" d="M96.875 31.25H3.125C1.4 31.25 0 32.65 0 34.375C0 36.1 1.4 37.5 3.125 37.5H96.875C98.6 37.5 100 36.1 100 34.375C100 32.65 98.6 31.25 96.875 31.25" fill="#0ED8D2"/>
<path fill-rule="evenodd" clip-rule="evenodd" d="M96.875 62.5H3.125C1.4 62.5 0 63.9 0 65.625C0 67.35 1.4 68.75 3.125 68.75H96.875C98.6 68.75 100 67.35 100 65.625C100 63.9 98.6 62.5 96.875 62.5" fill="#0ED8D2"/>
</svg>
