<svg width="200" height="200" viewBox="0 0 200 200" fill="none" xmlns="http://www.w3.org/2000/svg">
<path fill-rule="evenodd" clip-rule="evenodd" d="M178 118H174C172.896 118 172 118.896 172 120C172 121.104 172.896 122 174 122H178C179.104 122 180 121.104 180 120C180 118.896 179.104 118 178 118" fill="#0ED8D2"/>
<path fill-rule="evenodd" clip-rule="evenodd" d="M196 124C196 125.104 195.104 126 194 126H158C156.896 126 156 125.104 156 124V56C156 54.896 156.896 54 158 54H194C195.104 54 196 54.896 196 56V124ZM194 50H158C154.692 50 152 52.692 152 56V124C152 127.308 154.692 130 158 130H194C197.308 130 200 127.308 200 124V56C200 52.692 197.308 50 194 50V50Z" fill="#0ED8D2"/>
<path fill-rule="evenodd" clip-rule="evenodd" d="M164 110H188V62H164V110ZM190 58H162C160.896 58 160 58.896 160 60V112C160 113.104 160.896 114 162 114H190C191.104 114 192 113.104 192 112V60C192 58.896 191.104 58 190 58V58Z" fill="#0ED8D2"/>
<path fill-rule="evenodd" clip-rule="evenodd" d="M65 170H55C52.24 170 50 172.24 50 175C50 177.76 52.24 180 55 180H65C67.76 180 70 177.76 70 175C70 172.24 67.76 170 65 170" fill="#C6C6C6"/>
<path fill-rule="evenodd" clip-rule="evenodd" d="M110 185C110 187.76 107.76 190 105 190H15C12.24 190 10 187.76 10 185V15C10 12.24 12.24 10 15 10H105C107.76 10 110 12.24 110 15V185ZM105 0H15C6.73 0 0 6.73 0 15V185C0 193.27 6.73 200 15 200H105C113.27 200 120 193.27 120 185V15C120 6.73 113.27 0 105 0V0Z" fill="#C6C6C6"/>
<path fill-rule="evenodd" clip-rule="evenodd" d="M30 150H90V30H30V150ZM95 20H25C22.24 20 20 22.24 20 25V155C20 157.76 22.24 160 25 160H95C97.76 160 100 157.76 100 155V25C100 22.24 97.76 20 95 20V20Z" fill="#C6C6C6"/>
</svg>
