<svg width="200" height="164" viewBox="0 0 200 164" fill="none" xmlns="http://www.w3.org/2000/svg">
<path fill-rule="evenodd" clip-rule="evenodd" d="M194.737 121.055C191.832 121.055 189.474 123.413 189.474 126.318V147.371C189.474 150.276 187.116 152.634 184.211 152.634H15.7895C12.8842 152.634 10.5263 150.276 10.5263 147.371V126.318C10.5263 123.413 8.16842 121.055 5.26316 121.055C2.35789 121.055 0 123.413 0 126.318V147.371C0 156.076 7.08421 163.16 15.7895 163.16H184.211C192.916 163.16 200 156.076 200 147.371V126.318C200 123.413 197.642 121.055 194.737 121.055" fill="#0ED8D2"/>
<path fill-rule="evenodd" clip-rule="evenodd" d="M148.916 69.9684L105.274 113.61L105.274 5.26312C105.274 2.35786 102.916 -3.32782e-05 100.01 -3.32782e-05C97.1052 -3.32782e-05 94.7473 2.35786 94.7473 5.26312L94.7473 113.61L51.1052 69.9684C50.0737 68.9368 48.7263 68.4315 47.3789 68.4315C46.0315 68.4315 44.6842 68.9473 43.6526 69.9684C41.6 72.021 41.6 75.3579 43.6526 77.4105L96.2842 130.042C98.3368 132.095 101.674 132.095 103.726 130.042L156.358 77.4105C158.41 75.3579 158.41 72.021 156.358 69.9684C154.305 67.9158 150.968 67.9158 148.916 69.9684" fill="#0ED8D2"/>
</svg>
