<svg width="100" height="61" viewBox="0 0 100 61" fill="none" xmlns="http://www.w3.org/2000/svg">
<path fill-rule="evenodd" clip-rule="evenodd" d="M80 20L79.14 20.02C79.705 18.425 80 16.73 80 15C80 6.73 73.27 0 65 0C58.94 0 53.66 3.63 51.305 8.88C45.715 3.25 38.055 0 30 0C13.46 0 0 13.46 0 30C0 30.91 0.04 31.825 0.12 32.725C0.245 34.1 1.46 35.115 2.835 34.99C4.21 34.865 5.225 33.65 5.1 32.275C5.035 31.525 5 30.76 5 30C5 16.215 16.215 5 30 5C38.14 5 45.795 8.985 50.48 15.655C51.09 16.525 52.185 16.91 53.205 16.625C54.225 16.34 54.955 15.435 55.02 14.375C55.345 9.115 59.725 5 65 5C70.515 5 75 9.485 75 15C75 17.53 74.055 19.94 72.335 21.795C71.555 22.64 71.45 23.91 72.08 24.87C72.71 25.83 73.915 26.24 75 25.855C76.6 25.29 78.285 25.005 80 25.005C88.27 25.005 95 31.735 95 40.005C95 48.275 88.27 55.005 80 55.005H32.5C31.12 55.005 30 56.125 30 57.505C30 58.885 31.12 60.005 32.5 60.005H80V60C91.03 60 100 51.03 100 40C100 28.97 91.03 20 80 20" fill="#E55541"/>
<path fill-rule="evenodd" clip-rule="evenodd" d="M26.979 38.5002L38.3122 28.4281C38.8844 27.9197 38.9372 27.042 38.4289 26.467C37.9205 25.892 37.0428 25.842 36.4678 26.3503L24.8901 36.6418L13.3125 26.3503C12.7403 25.842 11.8625 25.892 11.3514 26.467C10.8403 27.042 10.8931 27.917 11.4681 28.4281L22.8013 38.5002L11.4681 48.5723C10.8959 49.0806 10.8431 49.9583 11.3514 50.5333C11.6264 50.8417 12.007 51 12.3903 51C12.7181 51 13.0486 50.8833 13.3125 50.65L24.8901 40.3585L36.4678 50.65C36.7317 50.8861 37.0622 51 37.39 51C37.7733 51 38.1539 50.8417 38.4289 50.5333C38.9372 49.9611 38.8872 49.0834 38.3122 48.5723L26.979 38.5002" fill="#E55541"/>
</svg>
