<svg width="100" height="100" viewBox="0 0 100 100" fill="none" xmlns="http://www.w3.org/2000/svg">
<path fill-rule="evenodd" clip-rule="evenodd" d="M50 9.09095C72.5545 9.09095 90.9091 27.4455 90.9091 50C90.9091 72.5546 72.5545 90.9091 50 90.9091C27.4454 90.9091 9.09089 72.5546 9.09089 50C9.09089 27.4455 27.4454 9.09095 50 9.09095ZM50 100C77.5727 100 100 77.5727 100 50C100 22.4273 77.5727 0 50 0C22.4273 0 0 22.4273 0 50C0 77.5727 22.4273 100 50 100V100Z" fill="#FD2E2E"/>
<path fill-rule="evenodd" clip-rule="evenodd" d="M53.8876 49.7135L73.4092 32.3643C74.3948 31.4887 74.4857 29.9767 73.6101 28.9863C72.7345 27.9958 71.2226 27.9097 70.2321 28.7853L50.2896 46.5126L30.347 28.7853C29.3613 27.9097 27.8494 27.9958 26.969 28.9863C26.0886 29.9767 26.1795 31.4839 27.1699 32.3643L46.6915 49.7135L27.1699 67.0628C26.1843 67.9384 26.0934 69.4504 26.969 70.4408C27.4427 70.9719 28.0982 71.2446 28.7584 71.2446C29.323 71.2446 29.8924 71.0437 30.347 70.6418L50.2896 52.9145L70.2321 70.6418C70.6867 71.0485 71.2561 71.2446 71.8207 71.2446C72.4809 71.2446 73.1364 70.9719 73.6101 70.4408C74.4857 69.4552 74.3996 67.9432 73.4092 67.0628L53.8876 49.7135" fill="#FD2E2E"/>
</svg>
