<svg width="167" height="200" viewBox="0 0 167 200" fill="none" xmlns="http://www.w3.org/2000/svg">
<path fill-rule="evenodd" clip-rule="evenodd" d="M19.3514 155.547C22.1846 152.114 24.6511 148.37 26.6732 144.425C31.0952 135.781 33.3284 126.437 33.3284 116.66V83.3287C33.3284 55.7636 55.7605 33.3315 83.3256 33.3315C110.891 33.3315 133.323 55.7636 133.323 83.3287V116.66C133.323 126.437 135.567 135.781 139.978 144.425C142 148.381 144.467 152.114 147.3 155.547H19.3403H19.3514ZM99.9917 172.213C99.9917 181.401 92.5144 188.878 83.326 188.878C74.1376 188.878 66.6603 181.401 66.6603 172.213C66.6603 170.313 66.9936 168.435 67.6158 166.657H99.0362C99.6584 168.435 99.9917 170.313 99.9917 172.213ZM77.7707 16.6657C77.7707 13.5992 80.2595 11.1105 83.326 11.1105C86.3925 11.1105 88.8812 13.5992 88.8812 16.6657V22.4765C87.048 22.3099 85.2037 22.221 83.326 22.221C81.4483 22.221 79.604 22.3099 77.7707 22.4765V16.6657ZM164.432 156.669C151.722 147.125 144.433 132.537 144.433 116.66V83.3287C144.433 55.408 125.612 31.7982 99.9911 24.532V16.6657C99.9911 7.47736 92.5137 0 83.3253 0C74.137 0 66.6596 7.47736 66.6596 16.6657V24.532C41.0388 31.8093 22.2176 55.408 22.2176 83.3287V116.66C22.2176 132.537 14.9291 147.114 2.21873 156.669C0.307723 158.102 -0.470012 160.602 0.285502 162.869C1.04102 165.135 3.16312 166.669 5.55188 166.669H56.1046C55.738 168.491 55.538 170.346 55.538 172.224C55.538 187.534 68.004 200 83.3142 200C98.6245 200 111.09 187.534 111.09 172.224C111.09 170.357 110.902 168.491 110.535 166.669H161.088C163.476 166.669 165.599 165.135 166.354 162.869C167.11 160.602 166.332 158.102 164.421 156.669H164.432V156.669Z" fill="#0ED8D2"/>
</svg>
