<svg width="99" height="100" viewBox="0 0 99 100" fill="none" xmlns="http://www.w3.org/2000/svg">
<path fill-rule="evenodd" clip-rule="evenodd" d="M91.6805 51.3674C90.9255 52.8873 90.1605 53.4373 89.8306 53.4373C88.4506 53.4373 87.3307 54.5572 87.3307 55.9372C87.3307 57.3171 88.4506 58.437 89.8306 58.437L90.4155 58.827C90.7455 59.412 90.9355 60.4269 90.9355 61.6169C90.9355 63.8418 90.3055 66.4866 89.2956 68.5265C88.3056 70.5214 87.3007 71.2464 86.8607 71.2464C85.4808 71.2464 84.3608 72.3663 84.3608 73.7463C84.3608 74.6312 84.8208 75.4112 85.5158 75.8562C85.6708 77.4411 84.9308 81.6809 83.0109 84.4457C82.2859 85.4907 81.521 86.0907 80.921 86.0907C79.5411 86.0907 78.4211 87.2106 78.4211 88.5905C78.4211 92.9903 73.5614 94.9952 69.0466 94.9952C56.4822 94.9952 52.9624 93.1153 48.8876 90.9354C45.0778 88.9005 40.798 86.6106 29.9835 85.2657V44.3327C40.488 40.8879 50.7425 34.9482 59.0421 27.4686C67.0067 20.289 72.2364 12.5293 74.0113 5.3397C75.3713 5.77468 76.9062 6.69463 77.8912 8.42954C79.5611 11.3794 80.811 18.909 70.4265 36.2132C69.9615 36.9831 69.9516 37.9481 70.3965 38.733C70.8415 39.518 71.6715 40.003 72.5714 40.003H89.9856C90.9805 40.003 91.6205 40.3529 92.1354 41.1729C92.7204 42.1079 93.0404 43.5578 93.0404 45.2477C93.0404 47.3676 92.5304 49.6575 91.6805 51.3724V51.3674ZM22.4888 89.9955H7.48955C6.10962 89.9955 4.98968 88.8756 4.98968 87.4956V42.4979C4.98968 41.1179 6.10962 39.998 7.48955 39.998H22.4888C23.8687 39.998 24.9887 41.1179 24.9887 42.4979V87.4956C24.9887 88.8756 23.8687 89.9955 22.4888 89.9955ZM94.5653 56.0372C96.7802 53.4823 98.0401 49.2625 98.0401 45.2427C98.0401 42.5879 97.4651 40.263 96.3752 38.5181C94.9552 36.2482 92.6854 34.9983 89.9855 34.9983H76.8962C84.0208 22.0439 85.8207 12.2844 82.2459 5.9647C79.751 1.55992 75.1812 0 72.0214 0C70.7715 0 69.7115 0.924954 69.5465 2.16489C68.6516 8.75956 63.6068 16.6292 55.7072 23.7538C48.1376 30.5785 38.8381 36.0332 29.2785 39.303C28.0736 36.7632 25.4887 35.0033 22.4989 35.0033H7.49963C3.36483 35.0033 0 38.3681 0 42.5029V87.5006C0 91.6354 3.36483 95.0002 7.49963 95.0002H22.4989C25.6687 95.0002 28.3786 93.0253 29.4785 90.2405C39.283 91.4704 42.9729 93.4403 46.5477 95.3502C51.0225 97.7401 55.2422 100 69.0615 100C72.6614 100 76.0512 99.0601 78.6111 97.3551C81.1109 95.6902 82.7109 93.3503 83.2408 90.6405C85.2357 89.8305 87.0057 87.9606 88.3606 85.1807C89.6805 82.4759 90.5355 79.0211 90.5355 76.3762C90.5355 75.8812 90.5055 75.4262 90.4505 75.0063C91.7154 74.0763 92.8504 72.6414 93.7853 70.7515C95.1352 68.0266 95.9452 64.6118 95.9452 61.6219C95.9452 59.502 95.5502 57.7371 94.7753 56.3672L94.5803 56.0422L94.5653 56.0372V56.0372Z" fill="#C6C6C6"/>
</svg>
