<svg width="100" height="100" viewBox="0 0 100 100" fill="none" xmlns="http://www.w3.org/2000/svg">
<path fill-rule="evenodd" clip-rule="evenodd" d="M49.9948 94.9999C32.8748 94.9949 17.9498 85.3749 10.3498 71.2649C11.6598 68.7699 14.0898 63.2499 12.9548 58.4199C13.0348 57.9349 13.8598 56.7649 14.3548 56.0599C15.7098 54.1349 17.3948 51.7449 16.1448 49.2099C15.2698 47.4299 12.9248 46.2299 8.31482 45.1899C7.24482 44.9499 6.20482 44.7549 5.31982 44.5999C7.99982 22.3249 27.0098 5.00488 49.9948 5.00488C57.8848 5.00488 65.3048 7.04988 71.7548 10.6299C70.1598 9.93488 68.7148 9.82488 67.5548 9.82488C66.9198 9.82488 66.2898 9.85988 65.6798 9.89988C65.0848 9.93488 64.4698 9.96988 63.8598 9.96988C62.4398 9.96988 60.6698 9.79988 58.2998 8.53488C54.6798 6.60988 51.9698 5.78488 49.2398 5.78488C45.8598 5.78488 42.4298 7.09488 37.7748 10.1649C33.7498 12.8199 30.7198 16.8799 29.2398 21.6049C27.7948 26.2099 27.9498 30.9249 29.6748 34.8749C31.7098 39.5349 34.3948 41.6149 38.3848 41.6149C39.3698 41.6149 40.3298 41.4999 41.3448 41.3799C42.3698 41.2599 43.4248 41.1349 44.5198 41.1349C45.8748 41.1349 47.0698 41.3249 48.2748 41.7249C50.4698 42.4599 52.0898 44.9199 53.2298 49.2449C54.3698 53.5699 54.7998 59.0749 55.1848 63.9249C55.5048 67.9749 55.8048 71.7949 56.4698 74.6799C56.8748 76.4299 57.3948 77.7599 58.0698 78.7449C59.0748 80.2149 60.5148 81.0249 62.1248 81.0249C66.5448 81.0249 70.0748 79.5999 72.6198 76.7899C74.7348 74.4549 75.8148 71.5699 76.6848 69.2499C77.1948 67.8849 77.7248 66.4699 78.2398 65.8899C83.9248 59.5049 83.3398 54.2449 82.9098 50.3999C82.5948 47.5799 82.5898 46.5799 83.7298 45.5399C84.7898 44.5749 85.7548 43.7099 86.6048 42.9499C88.4198 41.3299 89.7298 40.1599 90.6498 39.1599C91.2798 38.4699 92.7598 36.8549 92.3498 34.8349L92.3398 34.7799C94.0548 39.5349 94.9898 44.6599 94.9898 49.9999C94.9898 74.8099 74.8098 94.9949 49.9948 94.9999ZM8.08 59.5151C8.475 61.1401 8.14 63.1301 7.565 64.9701C5.905 60.2801 5 55.2401 5 49.9901L5.005 49.6051V49.6151C5.545 49.7101 6.125 49.8251 6.725 49.9501C9.535 50.5501 10.85 51.0901 11.425 51.3951C11.16 51.9101 10.625 52.6701 10.27 53.1701C9.035 54.9251 7.495 57.1101 8.08 59.5151ZM74.5747 22.9699C76.1747 27.6299 77.9897 32.9099 83.7497 34.8699C84.5247 35.1349 85.8547 35.5849 86.7997 35.9799C85.9847 36.8199 84.6247 38.0349 83.2897 39.2249C82.4297 39.9949 81.4547 40.8649 80.3747 41.8499C77.2547 44.6949 77.6247 48.0249 77.9547 50.9599V50.9549C78.3347 54.3399 78.7247 57.8449 74.5197 62.5649C73.3847 63.8399 72.7197 65.6149 72.0147 67.4949C70.3847 71.8499 68.8447 75.9649 62.2847 76.0249C62.0997 75.8049 61.5797 74.9749 61.1147 72.3599C60.6897 69.9499 60.4447 66.8299 60.1797 63.5349C59.7797 58.4749 59.3247 52.7349 58.0747 47.9749C56.4747 41.8899 53.7897 38.2949 49.8697 36.9849C48.1597 36.4149 46.4097 36.1349 44.5297 36.1349C43.1397 36.1349 41.8797 36.2849 40.7697 36.4149C39.9047 36.5149 39.0847 36.6149 38.3947 36.6149C37.2247 36.6149 35.8997 36.6149 34.2647 32.8749C31.9197 27.4999 33.6497 18.8849 40.5347 14.3399C44.3097 11.8499 46.9147 10.7849 49.2447 10.7849C51.1047 10.7849 53.1097 11.4299 55.9547 12.9499C59.3147 14.7399 61.9497 14.9699 63.8697 14.9699C64.6297 14.9699 65.3197 14.9299 65.9847 14.8899C66.5447 14.8549 67.0697 14.8249 67.5597 14.8249C68.6597 14.8249 69.5497 14.9699 70.5947 15.6799C72.5197 16.9949 73.5197 19.8999 74.5747 22.9699ZM91.985 33.8052C91.01 32.0502 88.56 31.2152 85.36 30.1252C81.925 28.9552 80.71 25.4252 79.305 21.3352C78.085 17.7852 76.825 14.1202 73.83 11.8402C82.025 16.9752 88.45 24.6752 91.985 33.8052ZM85.355 14.645C75.91 5.2 63.355 0 50 0C36.645 0 24.09 5.2 14.645 14.645C5.2 24.09 0 36.645 0 50C0 63.355 5.2 75.91 14.645 85.355C24.09 94.8 36.645 100 50 100C63.355 100 75.91 94.8 85.355 85.355C94.8 75.91 100 63.355 100 50C100 36.645 94.8 24.09 85.355 14.645V14.645Z" fill="#0ED8D2"/>
</svg>
