<svg width="100" height="80" viewBox="0 0 100 80" fill="none" xmlns="http://www.w3.org/2000/svg">
<path fill-rule="evenodd" clip-rule="evenodd" d="M93.0337 28.6177C92.938 28.6781 92.1727 29.091 89.751 29.091C84.1976 29.091 76.8771 26.9814 75.6133 25.7126C74.8883 24.9927 74.6618 23.7944 74.3999 22.4098C73.9619 20.0938 73.3577 16.9118 69.7679 15.3712C64.5418 13.1307 57.4881 11.8922 49.9007 11.8922L49.8956 11.8972C42.3838 11.8972 35.4005 13.1106 30.2348 15.3208C26.64 16.8565 26.0509 20.0435 25.6179 22.3695C25.3612 23.7541 25.1396 24.9524 24.4297 25.6623C23.1811 26.9109 15.9159 28.9802 10.3877 28.9802C7.88542 28.9802 7.11006 28.5472 7.0144 28.4868C5.90675 27.3691 5.17671 25.7982 5.05084 24.2777C4.90483 22.4753 5.56942 20.8239 7.01944 19.3738C16.0015 10.3968 31.9819 5.03478 49.7849 5.03478C67.7238 5.03478 83.8603 10.4572 92.9481 19.545C96.548 23.1499 94.5945 27.0368 93.0337 28.6177ZM96.5027 15.9854C91.3119 10.7895 84.3236 6.73654 75.7393 3.9372C67.8397 1.35939 58.8627 0 49.785 0C40.7576 0 31.8561 1.34429 24.0321 3.89189C15.5233 6.65598 8.60548 10.6687 3.45993 15.8143C0.293052 18.9862 -0.150009 22.3897 0.0362782 24.6855C0.257809 27.4094 1.5165 30.103 3.4851 32.0716C4.78911 33.3806 7.04973 34.015 10.3928 34.015C13.308 34.015 16.9129 33.5216 20.2761 32.6707C22.8841 32.0112 26.343 30.8733 27.9944 29.2219C29.8069 27.4094 30.2299 25.1236 30.5722 23.2859C30.9901 21.0353 31.2419 20.3657 32.2186 19.9478C36.7096 18.0296 43.1542 16.9269 49.9008 16.9269C56.7229 16.9269 63.2379 18.0447 67.7793 19.9982C68.7711 20.4261 69.0229 21.0957 69.4508 23.3513C69.7982 25.184 70.2262 27.4597 72.0488 29.2773C75.0042 32.2377 84.5048 34.1258 89.746 34.1258C93.0388 34.1258 95.2692 33.4964 96.5631 32.2025C100.48 28.2854 101.789 21.272 96.5027 15.9854Z" fill="#979797"/>
<path fill-rule="evenodd" clip-rule="evenodd" d="M87.8536 72.7578C86.5295 74.1524 84.7119 74.9228 82.7332 74.9228H17.2811C15.2973 74.9228 13.4798 74.1524 12.1607 72.7578C10.8416 71.3632 10.177 69.5053 10.2827 67.5317C10.2877 67.4461 10.8365 59.0934 16.0224 50.9219C22.8747 40.1223 34.3087 34.6445 50.0021 34.6445H50.0122C65.7006 34.6445 77.1346 40.1223 83.9919 50.9219C89.1727 59.0934 89.7265 67.4461 89.7316 67.5267C89.8423 69.5053 89.1777 71.3632 87.8536 72.7578ZM74.8335 35.4451C67.9812 31.5733 59.6285 29.6097 50.0019 29.6097C40.3754 29.6097 32.0227 31.5733 25.1704 35.4451C19.6321 38.5767 15.0807 42.9418 11.647 48.4197C5.8469 57.6736 5.27294 66.8571 5.2528 67.2447C5.06651 70.618 6.21948 73.8051 8.50023 76.2167C10.781 78.6284 13.8975 79.9576 17.2759 79.9576H82.728C86.1064 79.9576 89.2229 78.6284 91.5037 76.2167C93.7844 73.8051 94.9374 70.618 94.7511 67.2447C94.731 66.8621 94.157 57.6787 88.3569 48.4197C84.9282 42.9418 80.3768 38.5767 74.8335 35.4451Z" fill="#979797"/>
<path fill-rule="evenodd" clip-rule="evenodd" d="M50.0018 64.8533C44.4484 64.8533 39.9322 60.3371 39.9322 54.7837C39.9322 49.2303 44.4484 44.7141 50.0018 44.7141C55.5552 44.7141 60.0714 49.2303 60.0714 54.7837C60.0714 60.3371 55.5552 64.8533 50.0018 64.8533ZM50.0018 39.6793C41.6743 39.6793 34.8975 46.4561 34.8975 54.7837C34.8975 63.1112 41.6743 69.888 50.0018 69.888C58.3293 69.888 65.1062 63.1112 65.1062 54.7837C65.1062 46.4561 58.3293 39.6793 50.0018 39.6793Z" fill="#979797"/>
</svg>
