<svg width="80" height="80" viewBox="0 0 80 80" fill="none" xmlns="http://www.w3.org/2000/svg">
<path fill-rule="evenodd" clip-rule="evenodd" d="M53.9958 20.0018C57.3034 20.0018 59.9952 22.6935 59.9952 26.0012C59.9952 29.3088 57.3034 32.0005 53.9958 32.0005C50.6881 32.0005 47.9964 29.3088 47.9964 26.0012C47.9964 22.6935 50.6881 20.0018 53.9958 20.0018ZM53.9958 36.0001C59.5072 36.0001 63.9947 31.5126 63.9947 26.0011C63.9947 20.4897 59.5072 16.0022 53.9958 16.0022C48.4844 16.0022 43.9968 20.4897 43.9968 26.0011C43.9968 31.5126 48.4844 36.0001 53.9958 36.0001V36.0001Z" fill="#0B0B09"/>
<path fill-rule="evenodd" clip-rule="evenodd" d="M24.099 61.45C23.7911 62.8339 22.5272 65.1017 18.2597 68.0333C15.096 70.2051 10.8044 72.3849 5.465 74.5327C7.82875 68.6533 10.2285 64.0538 12.6163 60.8261C15.044 57.5425 17.3757 55.8066 19.3555 55.8066L19.3515 55.8106C20.4474 55.8106 21.5033 56.3346 22.5832 57.4145C23.9111 58.7423 24.407 60.0662 24.099 61.45ZM19.3515 51.8109C12.7482 51.8109 6.27692 60.394 0.121562 77.3162C-0.146409 78.0442 0.0375714 78.8641 0.585514 79.412C0.969473 79.792 1.48142 79.996 2.00136 79.996V80L2.68529 79.88C18.1477 74.2566 26.6668 68.3492 28.0026 62.3178C28.4266 60.398 28.3226 57.4983 25.4109 54.5866C23.5671 52.7468 21.5313 51.8109 19.3515 51.8109V51.8109Z" fill="#0B0B09"/>
<path fill-rule="evenodd" clip-rule="evenodd" d="M60.1753 43.0037L60.1713 42.9997C51.8522 50.3389 43.2371 51.9988 41.9972 51.9988C41.9892 51.9988 41.1693 51.9828 38.9615 50.4269C37.4217 49.343 35.6259 47.7992 33.9141 46.0874C32.2022 44.3756 30.6584 42.5798 29.5745 41.0399C28.0187 38.8321 28.0027 38.0122 28.0027 38.0042C28.0027 36.7644 29.6625 28.1493 37.0017 19.8301C45.7848 9.87919 59.2274 4.43576 75.9736 4.0318C75.5697 20.778 70.1302 34.2206 60.1753 43.0037ZM40.7694 67.5531C42.3132 64.4014 43.6611 60.4098 43.9411 55.7823C46.5848 55.2984 50.7643 53.9545 55.3079 51.3628C53.1481 57.9141 46.2968 63.7415 40.7694 67.5531ZM24.2111 36.0562C19.5756 36.3402 15.58 37.688 12.4284 39.2319C16.24 33.7004 22.0674 26.8412 28.6347 24.6854C26.039 29.2329 24.6951 33.4085 24.2111 36.0562ZM77.9894 0L77.9934 0.00399958C67.6145 0.00399958 58.3675 1.76381 50.5003 5.23545C44.017 8.09915 38.4656 12.1147 33.998 17.1782C33.1661 18.1221 32.3942 19.078 31.6783 20.0379C28.2306 20.2659 24.703 21.6377 21.1834 24.1175C18.2037 26.2132 15.212 29.1169 12.2843 32.7446C7.36482 38.8399 4.34114 44.8513 4.21315 45.1033C3.7772 45.9792 4.03717 47.0431 4.82909 47.615C5.18105 47.871 5.59301 47.995 6.00097 47.995C6.51291 47.995 7.02486 47.799 7.41282 47.415C7.43282 47.395 9.34462 45.5152 12.6043 43.6714C15.292 42.1516 19.4356 40.3638 24.447 40.0478C25.7149 43.2914 29.3425 47.171 31.0823 48.9109C32.8221 50.6507 36.7017 54.2783 39.9454 55.5462C39.6294 60.5576 37.8416 64.7012 36.3218 67.3889C34.474 70.6526 32.5982 72.5604 32.5822 72.5764C31.8902 73.2683 31.8023 74.3642 32.3742 75.1601C32.7622 75.696 33.3701 75.992 33.998 75.992L34.8899 75.78C35.1419 75.6521 41.1533 72.6284 47.2486 67.7089C50.8762 64.7812 53.7799 61.7895 55.8757 58.8098C58.3555 55.2862 59.7233 51.7626 59.9553 48.3149C60.9112 47.603 61.8671 46.8311 62.815 45.9952C67.8785 41.5276 71.894 35.9762 74.7577 29.4929C78.2294 21.6297 79.9892 12.3787 79.9892 1.99979V0H77.9894V0Z" fill="#0B0B09"/>
</svg>
