<svg width="100" height="100" viewBox="0 0 100 100" fill="none" xmlns="http://www.w3.org/2000/svg">
<path fill-rule="evenodd" clip-rule="evenodd" d="M44.7368 94.7368C22.9684 94.7368 5.26316 77.0315 5.26316 55.2631C5.26316 34.3789 21.5632 17.2315 42.1053 15.8736V55.2631C42.1053 56.7157 43.2842 57.8947 44.7368 57.8947H84.1263C82.7632 78.4368 65.6158 94.7368 44.7368 94.7368ZM86.8421 52.6316H47.3684V13.1579C47.3684 11.7053 46.1895 10.5264 44.7368 10.5264C32.7895 10.5264 21.5579 15.1843 13.1053 23.6316C4.65263 32.079 0 43.3158 0 55.2632C0 67.2106 4.65789 78.4422 13.1053 86.8948C21.5526 95.3474 32.7895 100 44.7368 100C56.6842 100 67.9158 95.3422 76.3684 86.8948C84.8211 78.4474 89.4737 67.2106 89.4737 55.2632C89.4737 53.8106 88.2947 52.6316 86.8421 52.6316V52.6316Z" fill="#F2F2F2"/>
<path fill-rule="evenodd" clip-rule="evenodd" d="M57.8947 42.1052V5.34732C77.5684 6.65259 93.3526 22.4315 94.6526 42.1052H57.8947ZM86.8948 13.1053C78.4474 4.65263 67.2105 0 55.2632 0C53.8105 0 52.6316 1.17895 52.6316 2.63158V44.7368C52.6316 46.1895 53.8105 47.3684 55.2632 47.3684H97.3684C98.8211 47.3684 100 46.1895 100 44.7368C100 32.7895 95.3421 21.5579 86.8948 13.1053V13.1053Z" fill="#F2F2F2"/>
</svg>
