<svg width="200" height="200" viewBox="0 0 200 200" fill="none" xmlns="http://www.w3.org/2000/svg">
<path fill-rule="evenodd" clip-rule="evenodd" d="M100 200C155.228 200 200 155.228 200 100C200 44.7715 155.228 0 100 0C44.7715 0 0 44.7715 0 100C0 155.228 44.7715 200 100 200ZM100 150C127.614 150 150 127.614 150 100C150 72.3858 127.614 50 100 50C72.3858 50 50 72.3858 50 100C50 127.614 72.3858 150 100 150Z" fill="#14161B"/>
<path fill-rule="evenodd" clip-rule="evenodd" d="M186.617 49.9917L143.309 74.9959C147.564 82.3511 150 90.8911 150 100C150 109.109 147.564 117.649 143.309 125.004L186.617 150.008C195.129 135.298 200 118.218 200 100C200 81.7822 195.129 64.7022 186.617 49.9917Z" fill="#14161B"/>
<path fill-rule="evenodd" clip-rule="evenodd" d="M185.126 57.7805L150.359 77.8533C153.343 84.6289 155 92.1211 155 100C155 107.879 153.343 115.371 150.359 122.147L185.126 142.219C191.447 129.501 195 115.166 195 100C195 84.8345 191.447 70.4988 185.126 57.7805Z" fill="#F2F2F2"/>
</svg>
