<svg id="Layer_1" data-name="Layer 1" xmlns="http://www.w3.org/2000/svg" viewBox="0 0 100 100">
  <defs>
    <style>
      .cls-1 {
        fill: #0ed8d2;
      }
    </style>
  </defs>
  <title>quote-icon_01_blue</title>
  <path class="cls-1" d="M38.57,0H6.43A6.43,6.43,0,0,0,0,6.43V38.57A6.43,6.43,0,0,0,6.43,45H22.5c0,30.4-10.06,55-22.5,55,24.87,0,45-27.47,45-61.43V6.43A6.43,6.43,0,0,0,38.57,0ZM40,37.5c0,24.92-9.7,41.14-22.09,52.09C22.82,81.31,27.83,72.34,27.5,40H7.5A2.5,2.5,0,0,1,5,37.5V7.5A2.5,2.5,0,0,1,7.5,5h30A2.5,2.5,0,0,1,40,7.5Z"/>
  <path class="cls-1" d="M93.57,0H61.43A6.43,6.43,0,0,0,55,6.43V38.57A6.43,6.43,0,0,0,61.43,45H77.5c0,30.4-10.06,55-22.5,55,24.87,0,45-27.47,45-61.43V6.43A6.43,6.43,0,0,0,93.57,0ZM95,37.5c0,24.92-9.7,41.14-22.09,52.09C77.82,81.31,82.83,72.34,82.5,40h-20A2.5,2.5,0,0,1,60,37.5V7.5A2.5,2.5,0,0,1,62.5,5h30A2.5,2.5,0,0,1,95,7.5Z"/>
</svg>
