<?xml version="1.0" encoding="UTF-8"?>
<svg width="173px" height="183px" viewBox="0 0 173 183" version="1.1" xmlns="http://www.w3.org/2000/svg" xmlns:xlink="http://www.w3.org/1999/xlink">
    <!-- Generator: Sketch 55.2 (78181) - https://sketchapp.com -->
    <title>Group 6</title>
    <desc>Created with Sketch.</desc>
    <g id="Page-1" stroke="none" stroke-width="1" fill="none" fill-rule="evenodd">
        <g id="Group-6" transform="translate(-15.000000, 1.000000)" stroke="#0ED8D2">
            <g id="Group" transform="translate(56.000000, 0.000000)">
                <path d="M35.122675,158.066038 L45.5731556,177.633661 L56.8392242,158.119339 C51.7476614,156.269699 47.9394525,155.35294 45.5,155.35294 C43.0967419,155.35294 39.6147975,156.249841 35.122675,158.066038 Z" id="Path-5" stroke-width="4.3"></path>
                <path d="M8,112.617629 L42.203192,112.617629" id="Path-7" stroke-width="3" stroke-linecap="round"></path>
                <path d="M49,127 L83.203192,127" id="Path-7-Copy-2" stroke-width="3" stroke-linecap="round"></path>
                <path d="M32.1159237,120 L83.203192,120" id="Path-7-Copy" stroke-width="3" stroke-linecap="round"></path>
                <path d="M6.65955783,106 L57.7468261,106" id="Path-7-Copy-4" stroke-width="3" stroke-linecap="round"></path>
                <path d="M6.82444729,73 L83.2414945,73" id="Path-7-Copy-5" stroke-width="3" stroke-linecap="round"></path>
                <path d="M10.6595578,138 L61.7468261,138" id="Path-7-Copy-3" stroke-width="3" stroke-linecap="round"></path>
                <path d="M37.0126295,30.2431381 C36.9767053,30.0244403 36.9586536,29.8031798 36.9586536,29.5815511 C36.9586536,27.3273727 38.7860263,25.5 41.0402047,25.5 L50.9601064,25.5 C51.1809584,25.5 51.4014463,25.5179193 51.6193999,25.5535816 C53.8447423,25.9176994 55.353563,28.0168716 54.9894452,30.242214 C54.5926505,32.6672643 52.378596,34.3657623 49.9335231,34.1208324 C48.5189268,33.9791182 47.2075069,33.9085299 46,33.9085299 C44.7931927,33.9085299 43.483074,33.9790365 42.0703539,34.120587 C39.6253125,34.3655432 37.410935,32.6679217 37.0126295,30.2431381 Z" id="Path-15" stroke-width="3" stroke-linejoin="round"></path>
                <path d="M24.5666339,37 L20.4913877,14.44124 C19.7888283,10.5521825 16.8617693,7.44168885 13.0225364,6.50432646 L8.92286435,5.50337693" id="Path-16" stroke-width="3" stroke-linecap="round"></path>
                <path d="M81.5666339,37 L77.4913877,14.44124 C76.7888283,10.5521825 73.8617693,7.44168885 70.0225364,6.50432646 L65.9228644,5.50337693" id="Path-16-Copy" stroke-width="3" stroke-linecap="round" transform="translate(73.744749, 21.251688) scale(-1, 1) translate(-73.744749, -21.251688) "></path>
                <circle id="Oval" stroke-width="2" cx="86" cy="4" r="4"></circle>
                <circle id="Oval-Copy" stroke-width="2" cx="4" cy="4" r="4"></circle>
                <path d="M85.15,128.496751 C85.15,129.145143 85.1280959,129.793349 85.084325,130.440262 C84.0109538,146.304189 70.2805603,158.294304 54.4166327,157.220933 L54.0916538,157.198945 L53.7877708,157.081684 C50.7815782,155.921677 48.1943997,155.35294 46.0419725,155.35294 C43.8453533,155.35294 40.7577102,155.9407 36.8274399,157.133218 L36.5934706,157.204209 L36.3495355,157.220851 C35.7025744,157.26499 35.0542975,157.287079 34.4058325,157.287079 C18.6348817,157.287079 5.85,144.502197 5.85,128.731246 L5.85,70.9359997 C5.85,70.7710988 5.85109794,70.6061997 5.85329375,70.4413134 C6.12650148,49.9257542 22.9791268,33.5160861 43.4946861,33.7892935 C44.3089475,33.8001371 44.9778435,33.805544 45.5,33.805544 C46.0221565,33.805544 46.6910524,33.8001371 47.5053137,33.7892935 C47.6702,33.7870977 47.8350991,33.7859997 48,33.7859997 C68.5173782,33.7859997 85.1499996,50.418621 85.15,70.9359993 L85.15,128.496751 Z" id="Path-2" stroke-width="4.3"></path>
            </g>
            <g id="Group-5" transform="translate(133.000000, 57.000000)">
                <path d="M14.6090195,8.6026888 L52.1459259,11.8999842 C55.8430431,12.2247442 58.5768788,15.48512 58.2521187,19.1822372 C58.1628484,20.198504 57.8433647,21.1811064 57.3178902,22.0555457 L38.3763279,53.5760952 C36.4646834,56.7572523 32.336152,57.7863956 29.1549949,55.8747511 C28.8464639,55.6893463 28.5533283,55.4794519 28.2784174,55.2470938 L9.92895853,39.7378995 C8.44112455,38.4803635 7.57222526,36.6390611 7.54741943,34.6911311" id="Path-17" stroke-width="2.88" stroke-linecap="round" transform="translate(35.031126, 34.148398) rotate(-18.000000) translate(-35.031126, -34.148398) "></path>
                <path d="M30.4492356,35.5912075 L24.8170517,31.5912075" id="Path-18" stroke-width="1.2" stroke-linecap="round"></path>
                <path d="M33.6676264,24.3912075 L24.8170517,27.5912075" id="Path-18-Copy" stroke-width="1.2" stroke-linecap="round"></path>
                <path d="M36.8860172,27.5912075 L35.0767301,34.1588683" id="Path-18-Copy-2" stroke-width="1.2" stroke-linecap="round"></path>
                <path d="M35.0767301,41.1912075 L40.104408,55.6124435" id="Path-19" stroke-width="0.8"></path>
                <path d="M30.4492356,38.3912075 L23.6101552,51.1912075" id="Path-19-Copy-5" stroke-width="0.8"></path>
                <path d="M18.3802701,28.3912075 L8.32279883,17.5912075" id="Path-19-Copy" stroke-width="0.8"></path>
                <path d="M22.8055575,25.9912075 L29.2423391,11.9912075" id="Path-19-Copy-6" stroke-width="0.8"></path>
                <path d="M20.3917644,31.9912075 L10.7365919,44.7912075" id="Path-19-Copy-2" stroke-width="0.8"></path>
                <path d="M49.558431,9.79120755 L37.0871667,20.5912075" id="Path-19-Copy-3" stroke-width="0.8"></path>
                <path d="M30.4492356,10.3912075 L35.0767301,20.5912075" id="Path-19-Copy-7" stroke-width="0.8"></path>
                <path d="M50.966477,22.9912075 L37.0871667,20.5912075" id="Path-19-Copy-4" stroke-width="0.8"></path>
                <ellipse id="Oval-Copy-2" stroke-width="1.6" cx="36.8860172" cy="23.5912075" rx="3.2183908" ry="3.2"></ellipse>
                <ellipse id="Oval-Copy-3" stroke-width="1.6" cx="21.5986609" cy="29.1912075" rx="3.2183908" ry="3.2"></ellipse>
                <ellipse id="Oval-Copy-4" stroke-width="1.6" cx="33.6676264" cy="37.9912075" rx="3.2183908" ry="3.2"></ellipse>
            </g>
            <g id="Group-5-Copy" transform="translate(35.000000, 91.000000) scale(-1, 1) translate(-35.000000, -91.000000) translate(0.000000, 57.000000)">
                <path d="M14.6090195,8.6026888 L52.1459259,11.8999842 C55.8430431,12.2247442 58.5768788,15.48512 58.2521187,19.1822372 C58.1628484,20.198504 57.8433647,21.1811064 57.3178902,22.0555457 L38.3763279,53.5760952 C36.4646834,56.7572523 32.336152,57.7863956 29.1549949,55.8747511 C28.8464639,55.6893463 28.5533283,55.4794519 28.2784174,55.2470938 L9.92895853,39.7378995 C8.44112455,38.4803635 7.57222526,36.6390611 7.54741943,34.6911311" id="Path-17" stroke-width="2.88" stroke-linecap="round" transform="translate(35.031126, 34.148398) rotate(-18.000000) translate(-35.031126, -34.148398) "></path>
                <path d="M30.4492356,35.5912075 L24.8170517,31.5912075" id="Path-18" stroke-width="1.2" stroke-linecap="round"></path>
                <path d="M33.6676264,24.3912075 L24.8170517,27.5912075" id="Path-18-Copy" stroke-width="1.2" stroke-linecap="round"></path>
                <path d="M36.8860172,27.5912075 L35.0767301,34.1588683" id="Path-18-Copy-2" stroke-width="1.2" stroke-linecap="round"></path>
                <path d="M35.0767301,41.1912075 L40.104408,55.6124435" id="Path-19" stroke-width="0.8"></path>
                <path d="M30.4492356,38.3912075 L23.6101552,51.1912075" id="Path-19-Copy-5" stroke-width="0.8"></path>
                <path d="M18.3802701,28.3912075 L8.32279883,17.5912075" id="Path-19-Copy" stroke-width="0.8"></path>
                <path d="M22.8055575,25.9912075 L29.2423391,11.9912075" id="Path-19-Copy-6" stroke-width="0.8"></path>
                <path d="M20.3917644,31.9912075 L10.7365919,44.7912075" id="Path-19-Copy-2" stroke-width="0.8"></path>
                <path d="M49.558431,9.79120755 L37.0871667,20.5912075" id="Path-19-Copy-3" stroke-width="0.8"></path>
                <path d="M30.4492356,10.3912075 L35.0767301,20.5912075" id="Path-19-Copy-7" stroke-width="0.8"></path>
                <path d="M50.966477,22.9912075 L37.0871667,20.5912075" id="Path-19-Copy-4" stroke-width="0.8"></path>
                <ellipse id="Oval-Copy-2" stroke-width="1.6" cx="36.8860172" cy="23.5912075" rx="3.2183908" ry="3.2"></ellipse>
                <ellipse id="Oval-Copy-3" stroke-width="1.6" cx="21.5986609" cy="29.1912075" rx="3.2183908" ry="3.2"></ellipse>
                <ellipse id="Oval-Copy-4" stroke-width="1.6" cx="33.6676264" cy="37.9912075" rx="3.2183908" ry="3.2"></ellipse>
            </g>
        </g>
    </g>
</svg>