<svg width="72" height="87" viewBox="0 0 72 87" fill="none" xmlns="http://www.w3.org/2000/svg">
<path d="M16 22H56V32C56 35.3137 53.3137 38 50 38H22C18.6863 38 16 35.3137 16 32V22Z" fill="#0ED8D2"/>
<path d="M19 22H53V31C53 33.2091 51.2091 35 49 35H23C20.7909 35 19 33.2091 19 31V22Z" fill="#F2F2F2"/>
<path fill-rule="evenodd" clip-rule="evenodd" d="M27.3354 82C31.1844 88.6667 40.8069 88.6667 44.6559 82L70.6367 37C74.4857 30.3333 69.6744 22 61.9764 22H10.0149C2.31691 22 -2.49434 30.3333 1.35467 37L27.3354 82ZM30.3665 80.25C32.8683 84.5833 39.1229 84.5833 41.6248 80.25L67.6056 35.25C70.1074 30.9167 66.9801 25.5 61.9764 25.5H10.0149C5.01117 25.5 1.88385 30.9167 4.3857 35.25L30.3665 80.25Z" fill="#0ED8D2"/>
<path fill-rule="evenodd" clip-rule="evenodd" d="M24 57C28.4183 57 32 53.4183 32 49C32 44.5817 28.4183 41 24 41C19.5817 41 16 44.5817 16 49C16 53.4183 19.5817 57 24 57ZM24 54C26.7614 54 29 51.7614 29 49C29 46.2386 26.7614 44 24 44C21.2386 44 19 46.2386 19 49C19 51.7614 21.2386 54 24 54Z" fill="#0ED8D2"/>
<path fill-rule="evenodd" clip-rule="evenodd" d="M48 57C52.4183 57 56 53.4183 56 49C56 44.5817 52.4183 41 48 41C43.5817 41 40 44.5817 40 49C40 53.4183 43.5817 57 48 57ZM48 54C50.7614 54 53 51.7614 53 49C53 46.2386 50.7614 44 48 44C45.2386 44 43 46.2386 43 49C43 51.7614 45.2386 54 48 54Z" fill="#0ED8D2"/>
<path fill-rule="evenodd" clip-rule="evenodd" d="M34.4671 75C35.2369 76.3333 37.1614 76.3333 37.9312 75L43.1274 66C43.8972 64.6667 42.9349 63 41.3953 63H31.003C29.4634 63 28.5012 64.6667 29.271 66L34.4671 75ZM35.7662 72.25C35.9586 72.5833 36.4397 72.5833 36.6322 72.25L40.0963 66.25C40.2887 65.9167 40.0482 65.5 39.6633 65.5H32.7351C32.3502 65.5 32.1096 65.9167 32.3021 66.25L35.7662 72.25Z" fill="#0ED8D2"/>
<path d="M37.683 17C36.9132 18.3333 34.9887 18.3333 34.2189 17L29.0227 8C28.2529 6.66667 29.2152 5 30.7548 5L41.1471 5C42.6867 5 43.6489 6.66667 42.8791 8L37.683 17Z" fill="#0ED8D2"/>
<path d="M36.3839 14.25C36.1915 14.5833 35.7104 14.5833 35.5179 14.25L32.0538 8.25C31.8614 7.91667 32.1019 7.5 32.4868 7.5L39.415 7.5C39.7999 7.5 40.0405 7.91667 39.848 8.25L36.3839 14.25Z" fill="#F2F2F2"/>
<rect x="34.5" y="17" width="3" height="20" fill="#0ED8D2"/>
<rect x="25.25" y="22" width="3" height="15" fill="#0ED8D2"/>
<rect x="43.75" y="22" width="3" height="15" fill="#0ED8D2"/>
<circle cx="25" cy="50" r="3" fill="#F2F2F2"/>
<circle cx="49" cy="50" r="3" fill="#F2F2F2"/>
</svg>
