<?xml version="1.0" encoding="UTF-8"?>
<svg width="148px" height="171px" viewBox="0 0 148 171" version="1.1" xmlns="http://www.w3.org/2000/svg" xmlns:xlink="http://www.w3.org/1999/xlink">
    <!-- Generator: Sketch 55.2 (78181) - https://sketchapp.com -->
    <title>Group Copy 3</title>
    <desc>Created with Sketch.</desc>
    <g id="Page-1" stroke="none" stroke-width="1" fill="none" fill-rule="evenodd">
        <g id="r" transform="translate(-52.000000, -500.000000)">
            <g id="Group-Copy-3" transform="translate(41.000000, 499.000000)">
                <g id="xchat-sent-button_6-copy" transform="translate(15.000000, 0.000000)" stroke="#0ED8D2" stroke-linejoin="round" stroke-width="8">
                    <g id="xchat-sent-button_4-copy" transform="translate(76.000000, 88.000000) rotate(-90.000000) translate(-76.000000, -88.000000) translate(-12.000000, 12.000000)">
                        <path d="M162.114422,0.146582809 L124.736813,0.146582809 C123.310211,0.146582809 121.991586,0.90637851 121.276159,2.1406233 L94.9245041,47.6021404 C92.7087824,51.4246733 87.8138099,52.7272511 83.9912769,50.5115294 C82.784649,49.8121105 81.7818329,48.8093956 81.0822924,47.6028381 L54.7239069,2.14027443 C54.0084278,0.906226379 52.689914,0.146582809 51.2634551,0.146582809 L20.8283672,0.146582809 C14.2009502,0.146582809 8.82836722,5.51916581 8.82836722,12.1465828 C8.82836722,14.2604308 9.38674704,16.3367715 10.4470017,18.1654905 L77.6186345,134.022603 C80.9427855,139.756073 88.2854379,141.709212 94.0189077,138.385061 C95.8284027,137.335952 97.3322566,135.832098 98.3813655,134.022603 L169.035332,12.159188 C171.251433,8.33687474 169.94934,3.44177311 166.127027,1.22567248 C164.907881,0.518836016 163.523654,0.146582809 162.114422,0.146582809 Z" id="Path-3"></path>
                    </g>
                </g>
                <path d="M13.8077567,57.2338094 L49.8780568,84.9971886 C51.6286746,86.3446426 51.9555036,88.856126 50.6080496,90.6067439 C50.3929136,90.8862496 50.1417537,91.1360725 49.8611037,91.3497137 L13.9164781,118.712096 C13.4770319,119.046619 13.3919747,119.674045 13.7264974,120.113491 C14.0330122,120.516144 14.5920112,120.626357 15.0284215,120.370179 L64.0139789,91.615058 C65.9191289,90.4967116 66.5569593,88.0456836 65.438613,86.1405336 C65.096387,85.5575373 64.6119867,85.0707863 64.0306539,84.7257422 L14.9281071,55.5814318 C14.4531786,55.2995429 13.8396568,55.4560324 13.5577679,55.9309609 C13.2995768,56.3659631 13.406895,56.9252654 13.8077567,57.2338094 Z" id="Path-4-Copy" fill="#0ED8D2"></path>
            </g>
        </g>
    </g>
</svg>