<?xml version="1.0" encoding="UTF-8"?>
<svg width="106px" height="104px" viewBox="0 0 106 104" version="1.1" xmlns="http://www.w3.org/2000/svg" xmlns:xlink="http://www.w3.org/1999/xlink">
    <!-- Generator: Sketch 55.2 (78181) - https://sketchapp.com -->
    <title>Group Copy 11</title>
    <desc>Created with Sketch.</desc>
    <g id="Page-1" stroke="none" stroke-width="1" fill="none" fill-rule="evenodd" stroke-linejoin="round">
        <g id="Group-Copy-11" transform="translate(67.500000, 35.500000) rotate(-43.000000) translate(-67.500000, -35.500000) translate(19.000000, -16.000000)" stroke="#0ED8D2" stroke-width="4.32">
            <g id="xchat-sent-button_6-copy" transform="translate(0.083832, 0.000000)">
                <g id="xchat-sent-button_4-copy" transform="translate(48.435357, 51.925150) rotate(-90.000000) translate(-48.435357, -51.925150) translate(-2.564643, 4.425150)">
                    <path d="M50.9251497,48.6166426 L52.8068459,28.8361861 C53.4767858,21.7937547 58.1753651,15.7813388 64.8470992,13.4291861 L95.2691356,2.70374761 C96.3855011,2.31016746 97.6166703,2.41080791 98.6542973,2.98046359 C100.668258,4.0861253 101.404581,6.61507927 100.298919,8.62904039 L54.609174,91.8528409 C54.228485,92.5462654 53.657977,93.1167734 52.9645525,93.4974624 C50.9505914,94.6031241 48.4216374,93.866802 47.3159757,91.8528409 L1.62820635,8.63263877 C1.05818621,7.59434795 0.957798001,6.36230178 1.35221343,5.2454279 C2.11725663,3.0790401 4.49365099,1.94302584 6.66003879,2.70806904 L37.0115885,13.4264855 C43.6788572,15.7809802 48.3732814,21.7913141 49.0428963,28.8303291 L50.9251497,48.6166426 Z" id="Path-3"></path>
                </g>
            </g>
        </g>
    </g>
</svg>