<svg width="200" height="200" viewBox="0 0 200 200" fill="none" xmlns="http://www.w3.org/2000/svg">
<path fill-rule="evenodd" clip-rule="evenodd" d="M182.263 142.924C179.027 141.811 175.605 141.234 172.163 141.234C155.116 141.234 141.244 155.106 141.244 172.153C141.244 175.595 141.821 179.017 142.934 182.253C137.946 184.86 132.731 187.004 127.372 188.663C122.085 178.625 111.624 172.153 100.009 172.153C88.3833 172.153 77.9224 178.625 72.6457 188.663C67.2761 187.014 62.0715 184.86 57.0832 182.253C58.1963 179.017 58.7735 175.595 58.7735 172.153C58.7735 155.106 44.9013 141.234 27.8547 141.234C24.4125 141.234 20.9908 141.811 17.7546 142.924C15.1472 137.936 12.9932 132.721 11.3442 127.362C21.3824 122.075 27.8547 111.624 27.8547 99.9986C27.8547 88.3732 21.3824 77.9124 11.3442 72.6356C12.9932 67.266 15.1472 62.0614 17.7546 57.0732C20.9908 58.1862 24.4125 58.7634 27.8547 58.7634C44.9013 58.7634 58.7735 44.8912 58.7735 27.8447C58.7735 24.4024 58.1963 20.9807 57.0832 17.7446C62.0715 15.1371 67.2864 12.9831 72.6457 11.3341C77.9328 21.3724 88.3833 27.8447 100.009 27.8447C111.634 27.8447 122.095 21.3724 127.372 11.3341C132.741 12.9831 137.946 15.1371 142.934 17.7446C141.821 20.9807 141.244 24.4024 141.244 27.8447C141.244 44.8912 155.116 58.7634 172.163 58.7634C175.605 58.7634 179.027 58.1862 182.263 57.0732C184.87 62.0614 187.014 67.2764 188.673 72.6356C178.635 77.9227 172.163 88.3732 172.163 99.9986C172.163 111.624 178.635 122.085 188.673 127.362C187.024 132.731 184.87 137.936 182.263 142.924ZM196.486 119.529C188.086 116.705 182.448 108.852 182.448 99.9986C182.448 91.1455 188.096 83.2922 196.486 80.4683C199.042 79.6128 200.505 76.9229 199.835 74.3051C197.454 65.0501 193.785 56.1661 188.921 47.8799C187.509 45.4786 184.448 44.6335 182.005 45.963C178.996 47.6017 175.585 48.4674 172.142 48.4674C160.774 48.4674 151.53 39.2227 151.53 27.8549C151.53 24.4023 152.395 21.0013 154.034 17.9918C155.364 15.5493 154.519 12.4883 152.117 11.0764C143.841 6.21181 134.947 2.54279 125.692 0.162047C123.085 -0.507858 120.395 0.955628 119.529 3.51157C116.705 11.9112 108.852 17.5487 99.9986 17.5487C91.1455 17.5487 83.2922 11.9009 80.4682 3.51157C79.6128 0.955628 76.9229 -0.507858 74.3051 0.162047C65.0501 2.54279 56.1661 6.21181 47.8799 11.0764C45.4786 12.4883 44.6335 15.5493 45.963 17.9918C47.6017 21.0013 48.4674 24.4126 48.4674 27.8549C48.4674 39.2227 39.2227 48.4674 27.8549 48.4674C24.4023 48.4674 20.991 47.6017 17.9918 45.963C15.5493 44.6335 12.4883 45.4786 11.0764 47.8799C6.21181 56.1558 2.54279 65.0501 0.162047 74.3051C-0.507858 76.9229 0.955628 79.6025 3.51157 80.4683C11.9112 83.2922 17.5487 91.1455 17.5487 99.9986C17.5487 108.852 11.9009 116.705 3.51157 119.529C0.955628 120.384 -0.507858 123.074 0.162047 125.692C2.54279 134.947 6.21181 143.831 11.0764 152.117C12.4883 154.519 15.5493 155.364 17.9918 154.034C21.0013 152.395 24.4126 151.53 27.8549 151.53C39.2227 151.53 48.4674 160.774 48.4674 172.142C48.4674 175.595 47.6017 178.996 45.963 182.005C44.6335 184.448 45.4786 187.509 47.8799 188.921C56.1558 193.785 65.0501 197.454 74.3051 199.835L75.5831 200C77.7474 200 79.7468 198.619 80.4682 196.486C83.2922 188.086 91.1455 182.448 99.9986 182.448C108.852 182.448 116.705 188.096 119.529 196.486C120.384 199.042 123.074 200.505 125.692 199.835C134.947 197.454 143.831 193.785 152.117 188.921C154.519 187.509 155.364 184.448 154.034 182.005C152.395 178.996 151.53 175.585 151.53 172.142C151.53 160.774 160.774 151.53 172.142 151.53C175.595 151.53 178.996 152.395 182.005 154.034C184.448 155.364 187.509 154.519 188.921 152.117C193.785 143.841 197.454 134.947 199.835 125.692C200.505 123.074 199.042 120.395 196.486 119.529Z" fill="#0ED8D2"/>
<path fill-rule="evenodd" clip-rule="evenodd" d="M100 138.889C78.5528 138.889 61.1111 121.447 61.1111 100C61.1111 78.5528 78.5528 61.1111 100 61.1111C121.447 61.1111 138.889 78.5528 138.889 100C138.889 121.447 121.447 138.889 100 138.889ZM100 50C72.4333 50 50 72.4333 50 100C50 127.567 72.4333 150 100 150C127.567 150 150 127.567 150 100C150 72.4333 127.567 50 100 50Z" fill="#0ED8D2"/>
</svg>
