<svg width="100" height="55" viewBox="0 0 100 55" fill="none" xmlns="http://www.w3.org/2000/svg">
<path fill-rule="evenodd" clip-rule="evenodd" d="M81.5798 38.0228C73.9153 43.4825 62.216 49.9921 49.9968 49.9921C37.7776 49.9921 26.0783 43.4825 18.4138 38.0228C12.6291 33.9031 8.2044 29.7333 5.96954 27.4935C8.2044 25.2536 12.6291 21.0889 18.4138 16.9641C21.0636 15.0742 24.1984 13.0644 27.6682 11.2395C25.9333 14.6793 24.9984 18.514 24.9984 22.4938C24.9984 36.2779 36.2127 47.4922 49.9968 47.4922C63.7809 47.4922 74.9952 36.2779 74.9952 22.4938C74.9952 18.514 74.0653 14.6793 72.3304 11.2395C75.8052 13.0644 78.93 15.0792 81.5798 16.9641C87.3645 21.0839 91.7892 25.2536 94.024 27.4935C91.7892 29.7333 87.3645 33.8981 81.5798 38.0228ZM37.1277 7.18468C41.2375 5.84476 45.5872 4.99481 49.9969 4.99481C54.4116 4.99481 58.7564 5.84476 62.8711 7.18468C67.4008 10.9994 69.9957 16.5491 69.9957 22.4937C69.9957 33.523 61.0312 42.4925 49.9969 42.4925C38.9676 42.4925 29.9982 33.523 29.9982 22.4937C29.9982 16.5541 32.593 10.9994 37.1277 7.18468ZM99.3588 25.8234C99.1238 25.5584 93.4442 19.2988 84.5747 12.9642C79.34 9.22442 74.0804 6.24461 68.9257 4.09974C62.4011 1.37991 56.0315 0 49.9969 0C43.9673 0 37.5927 1.37991 31.0731 4.09974C25.9234 6.24461 20.6537 9.22942 15.419 12.9642C6.54959 19.2988 0.874945 25.5634 0.64496 25.8234C-0.214987 26.7733 -0.214987 28.2182 0.64496 29.1682C0.874945 29.4332 6.54959 35.6928 15.419 42.0274C20.6537 45.7671 25.9234 48.747 31.0731 50.8918C37.5927 53.6117 43.9673 54.9916 49.9969 54.9916C56.0315 54.9916 62.4011 53.6117 68.9257 50.8918C74.0804 48.747 79.34 45.7621 84.5747 42.0274C93.4442 35.6928 99.1238 29.4282 99.3588 29.1682C100.214 28.2182 100.214 26.7733 99.3588 25.8234V25.8234Z" fill="#F2F2F2"/>
</svg>
