<svg width="236" height="216" viewBox="0 0 236 216" fill="none" xmlns="http://www.w3.org/2000/svg">
<path fill-rule="evenodd" clip-rule="evenodd" d="M99.7895 146.526C102.695 146.526 105.053 148.884 105.053 151.79C105.053 154.695 102.695 157.053 99.7895 157.053C96.8843 157.053 94.5264 154.695 94.5264 151.79C94.5264 148.884 96.8843 146.526 99.7895 146.526ZM99.7895 167.579C108.495 167.579 115.579 160.495 115.579 151.789C115.579 143.084 108.495 136 99.7895 136C91.0842 136 84 143.084 84 151.789C84 160.495 91.0842 167.579 99.7895 167.579V167.579Z" fill="#0ED8D2"/>
<rect x="34" y="90" width="50" height="10" rx="5" fill="#0ED8D2"/>
<rect width="71.7592" height="9.50891" rx="4.75445" transform="matrix(0.639446 -0.768836 0.861458 0.507829 181 55.171)" fill="#0ED8D2"/>
<rect x="183" y="0.841919" width="50" height="8.41893" rx="4.20947" fill="#0ED8D2"/>
<rect x="183" y="50.5137" width="50" height="8.41893" rx="4.20947" fill="#0ED8D2"/>
<rect x="149" y="69.7806" width="44.901" height="5.61262" rx="2.80631" transform="rotate(-55 149 69.7806)" fill="#0ED8D2"/>
<rect x="150.123" y="33.5613" width="28.0631" height="5.61262" rx="2.80631" fill="#0ED8D2"/>
<rect x="150.123" y="66.6758" width="28.0631" height="5.61262" rx="2.80631" fill="#0ED8D2"/>
<rect x="116" y="90" width="50" height="10" rx="5" fill="#0ED8D2"/>
<path fill-rule="evenodd" clip-rule="evenodd" d="M10.5263 116C10.5263 165.337 50.6632 205.474 100 205.474C149.337 205.474 189.474 165.337 189.474 116C189.474 102.108 186.292 88.9461 180.618 77.2037C183.815 75.4163 186.652 73.0606 188.991 70.2734C196.191 84.2479 200 99.834 200 116.011C200 142.726 189.6 167.832 170.716 186.716C151.832 205.6 126.716 216 100 216C73.2842 216 48.1789 205.6 29.2842 186.716C10.3895 167.832 0 142.716 0 116.011C0 89.2947 10.4 64.1895 29.2842 45.2947C48.1684 26.4 73.2842 16 100 16C116.695 16 132.762 20.0616 147.077 27.7197C144.254 30.0173 141.856 32.8182 140.022 35.9857C127.973 29.9346 114.377 26.5263 100 26.5263C50.6632 26.5263 10.5263 66.6632 10.5263 116Z" fill="#0ED8D2"/>
</svg>
