<svg width="200" height="200" viewBox="0 0 200 200" fill="none" xmlns="http://www.w3.org/2000/svg">
<path fill-rule="evenodd" clip-rule="evenodd" d="M100 189.474C50.6632 189.474 10.5263 149.337 10.5263 100C10.5263 50.6632 50.6632 10.5263 100 10.5263C149.337 10.5263 189.474 50.6632 189.474 100C189.474 149.337 149.337 189.474 100 189.474ZM170.716 29.2947C151.821 10.4 126.716 0 100 0C73.2842 0 48.1684 10.4 29.2842 29.2947C10.4 48.1895 0 73.2947 0 100.011C0 126.716 10.3895 151.832 29.2842 170.716C48.1789 189.6 73.2842 200 100 200C126.716 200 151.832 189.6 170.716 170.716C189.6 151.832 200 126.726 200 100.011C200 73.2947 189.611 48.1895 170.716 29.2947Z" fill="#14161B"/>
<path fill-rule="evenodd" clip-rule="evenodd" d="M148.895 59.4418L78.9369 129.4L51.0842 101.547C49.0316 99.4944 45.6948 99.4944 43.6421 101.547C41.5895 103.6 41.5895 106.937 43.6421 108.989L75.2211 140.568C76.2421 141.589 77.5895 142.105 78.9369 142.105C80.2737 142.105 81.6211 141.6 82.6527 140.568L156.337 66.8839C158.39 64.8313 158.39 61.4944 156.337 59.4418C154.284 57.3892 150.947 57.3892 148.895 59.4418Z" fill="#14161B"/>
</svg>
