<svg width="200" height="120" viewBox="0 0 200 120" fill="none" xmlns="http://www.w3.org/2000/svg">
<path fill-rule="evenodd" clip-rule="evenodd" d="M160.08 110L160.06 110.01H60C32.43 110.01 10 87.58 10 60.01C10 32.44 32.43 10.01 60 10.01C74.28 10.01 87.91 16.14 97.4 26.82C98.65 28.23 99.83 29.72 100.91 31.24L100.96 31.31C102.18 33.05 104.36 33.84 106.41 33.26C108.46 32.68 109.92 30.88 110.05 28.75C110.29 24.91 111.62 21.24 113.91 18.14C117.73 12.97 123.6 10 130.02 10C141.05 10 150.02 18.97 150.02 30C150.02 35.15 148.07 40.04 144.52 43.77C142.92 45.45 142.69 48.01 143.96 49.95C145.23 51.89 147.67 52.7 149.85 51.91C153.12 50.72 156.56 50.12 160.08 50.12C176.59 50.12 190.02 63.55 190.02 80.06C190.02 96.57 176.59 110 160.08 110ZM160.06 40.12V40.13L158.23 40.17C159.39 36.95 160 33.51 160 30C160 13.46 146.54 0 130 0C120.52 0 111.49 4.56 105.85 12.2C104.56 13.94 103.48 15.8 102.61 17.75C91.38 6.43 76.03 0 60 0C26.92 0 0 26.92 0 60C0 93.08 26.92 120 60 120H160.06C182.08 120 200 102.08 200 80.06C200 58.04 182.08 40.12 160.06 40.12Z" fill="#F2F2F2"/>
<path fill-rule="evenodd" clip-rule="evenodd" d="M64.0398 79.5998C62.7198 79.8698 61.3598 80.0098 59.9998 80.0098C48.9698 80.0098 39.9998 71.0398 39.9998 60.0098V57.0798L41.4598 58.5398C42.4398 59.5198 43.7198 59.9998 44.9998 59.9998C46.2798 59.9998 47.5598 59.5098 48.5398 58.5398C50.4898 56.5898 50.4898 53.4198 48.5398 51.4698L38.5398 41.4698C36.5898 39.5198 33.4198 39.5198 31.4698 41.4698L21.4698 51.4698C19.5198 53.4198 19.5198 56.5898 21.4698 58.5398C23.4198 60.4898 26.5898 60.4898 28.5398 58.5398L29.9998 57.0798V60.0098C29.9998 76.5498 43.4598 90.0098 59.9998 90.0098C62.0298 90.0098 64.0598 89.7998 66.0398 89.3998C68.7498 88.8498 70.4898 86.1998 69.9398 83.4998C69.3898 80.7998 66.7498 79.0498 64.0398 79.5998Z" fill="#F2F2F2"/>
<path fill-rule="evenodd" clip-rule="evenodd" d="M91.48 61.47H91.46L90 62.93V60C90 43.46 76.54 30 60 30C57.97 30 55.94 30.21 53.96 30.61C51.25 31.16 49.51 33.81 50.06 36.51C50.61 39.21 53.26 40.96 55.96 40.41C57.28 40.14 58.64 40 60 40C71.03 40 80 48.97 80 60V62.93L78.54 61.47C76.59 59.52 73.42 59.52 71.47 61.47C69.52 63.42 69.52 66.59 71.47 68.54L81.47 78.54C82.45 79.52 83.73 80 85.01 80C86.29 80 87.57 79.51 88.55 78.54L98.55 68.54C100.5 66.59 100.5 63.42 98.55 61.47C96.6 59.52 93.43 59.52 91.48 61.47Z" fill="#F2F2F2"/>
</svg>
