<svg width="81" height="80" viewBox="0 0 81 80" fill="none" xmlns="http://www.w3.org/2000/svg">
<path fill-rule="evenodd" clip-rule="evenodd" d="M73.6794 17.5067L70.0907 21.0954L58.9042 9.90885L62.4929 6.32019C63.9868 4.82624 65.9734 4.00518 68.0841 4.00518C70.1949 4.00518 72.1815 4.82624 73.6754 6.32019C75.1693 7.81413 75.9904 9.80071 75.9904 11.9115C75.9904 14.0222 75.1693 16.0088 73.6754 17.5027L73.6794 17.5067ZM22.9295 68.2608L5.35068 74.6531L11.743 57.0743L56.0726 12.7446L67.2592 23.9312L22.9295 68.2608ZM76.5153 3.48853C74.2644 1.23761 71.2725 0 68.0883 0C64.9042 0 61.9123 1.23761 59.6614 3.48853L8.59498 54.5549L8.13038 55.2879L0.119963 77.3165C-0.144381 78.0495 0.0358537 78.8665 0.584567 79.4152C0.965062 79.7957 1.47773 80 2.00241 80L2.6873 79.8798L24.7159 71.8694L25.4489 71.4048L76.5153 20.3384C78.7662 18.0875 80.0038 15.0956 80.0038 11.9115C80.0038 8.72735 78.7662 5.73546 76.5153 3.48453V3.48853Z" fill="#0ED8D2"/>
</svg>
