<svg width="100" height="100" viewBox="0 0 100 100" fill="none" xmlns="http://www.w3.org/2000/svg">
<path fill-rule="evenodd" clip-rule="evenodd" d="M49.9998 68.3839C39.8629 68.3839 31.6156 60.1365 31.6156 49.9997C31.6156 39.8628 39.8629 31.6155 49.9998 31.6155C60.1366 31.6155 68.384 39.8628 68.384 49.9997C68.384 60.1365 60.1366 68.3839 49.9998 68.3839ZM49.9998 26.3523C36.9577 26.3523 26.3524 36.9576 26.3524 49.9997C26.3524 63.0418 36.9629 73.647 49.9998 73.647C63.0419 73.647 73.6472 63.0418 73.6472 49.9997C73.6472 36.9576 63.0419 26.3523 49.9998 26.3523Z" fill="#757575"/>
<path fill-rule="evenodd" clip-rule="evenodd" d="M50 21.0526C51.4526 21.0526 52.6316 19.8737 52.6316 18.4211V2.63158C52.6316 1.17895 51.4526 0 50 0C48.5474 0 47.3684 1.17895 47.3684 2.63158V18.4211C47.3684 19.8737 48.5474 21.0526 50 21.0526Z" fill="#757575"/>
<path fill-rule="evenodd" clip-rule="evenodd" d="M50 78.9473C48.5474 78.9473 47.3684 80.1262 47.3684 81.5788V97.3683C47.3684 98.8209 48.5474 99.9999 50 99.9999C51.4526 99.9999 52.6316 98.8209 52.6316 97.3683V81.5788C52.6316 80.1262 51.4526 78.9473 50 78.9473Z" fill="#757575"/>
<path fill-rule="evenodd" clip-rule="evenodd" d="M21.0526 50C21.0526 48.5474 19.8737 47.3684 18.4211 47.3684H2.63158C1.17895 47.3684 0 48.5474 0 50C0 51.4526 1.17895 52.6316 2.63158 52.6316H18.4211C19.8737 52.6316 21.0526 51.4526 21.0526 50Z" fill="#757575"/>
<path fill-rule="evenodd" clip-rule="evenodd" d="M97.3684 47.3684H81.5789C80.1263 47.3684 78.9474 48.5474 78.9474 50C78.9474 51.4526 80.1263 52.6316 81.5789 52.6316H97.3684C98.821 52.6316 100 51.4526 100 50C100 48.5474 98.821 47.3684 97.3684 47.3684Z" fill="#757575"/>
<path fill-rule="evenodd" clip-rule="evenodd" d="M15.0158 11.3C13.9895 10.2737 12.3211 10.2737 11.2948 11.3C10.2684 12.3263 10.2684 13.9947 11.2948 15.0211L21.8211 25.5474C22.3369 26.0579 23.0106 26.3105 23.679 26.3158C24.3527 26.3105 25.0263 26.0632 25.5421 25.5474C26.5684 24.5211 26.5684 22.8526 25.5421 21.8263L15.0158 11.3Z" fill="#757575"/>
<path fill-rule="evenodd" clip-rule="evenodd" d="M21.8211 74.4577L11.2948 84.984C10.2684 86.0104 10.2684 87.6788 11.2948 88.7051C11.8106 89.2156 12.4842 89.4683 13.1527 89.4735C13.8263 89.4683 14.5 89.2209 15.0158 88.7051L25.5421 78.1788C26.5684 77.1525 26.5684 75.484 25.5421 74.4577C24.5158 73.4314 22.8474 73.4314 21.8211 74.4577Z" fill="#757575"/>
<path fill-rule="evenodd" clip-rule="evenodd" d="M78.1737 74.4577C77.1474 73.4314 75.479 73.4314 74.4527 74.4577C73.4263 75.484 73.4263 77.1525 74.4527 78.1788L84.979 88.7051C85.4948 89.2156 86.1684 89.4683 86.8369 89.4735C87.5106 89.4683 88.1842 89.2209 88.7 88.7051C89.7263 87.6788 89.7263 86.0104 88.7 84.984L78.1737 74.4577Z" fill="#757575"/>
<path fill-rule="evenodd" clip-rule="evenodd" d="M76.3106 26.3158C76.9842 26.3105 77.6579 26.0632 78.1737 25.5474L88.7 15.0211C89.7263 13.9947 89.7263 12.3263 88.7 11.3C87.6737 10.2737 86.0053 10.2737 84.979 11.3L74.4527 21.8263C73.4263 22.8526 73.4263 24.5211 74.4527 25.5474C74.9684 26.0579 75.6421 26.3105 76.3106 26.3158Z" fill="#757575"/>
</svg>
