<svg width="579" height="355" viewBox="0 0 579 355" fill="none" xmlns="http://www.w3.org/2000/svg">
<path fill-rule="evenodd" clip-rule="evenodd" d="M166 155C143.944 155 126 137.056 126 115C126 92.9435 143.944 75 166 75C188.056 75 206 92.9435 206 115C206 137.056 188.056 155 166 155ZM201.358 79.6429C191.911 70.2003 179.358 65 166 65C152.642 65 140.084 70.2003 130.642 79.6429C121.2 89.0855 116 101.639 116 114.997C116 128.356 121.195 140.915 130.642 150.357C140.089 159.8 152.642 165 166 165C179.358 165 191.916 159.805 201.358 150.357C210.8 140.909 216 128.351 216 114.997C216 101.644 210.805 89.0855 201.358 79.6429Z" fill="#14161B"/>
<path fill-rule="evenodd" clip-rule="evenodd" d="M411 155C388.944 155 371 137.056 371 115C371 92.9435 388.944 75 411 75C433.056 75 451 92.9435 451 115C451 137.056 433.056 155 411 155ZM446.358 79.6429C436.911 70.2003 424.358 65 411 65C397.642 65 385.084 70.2003 375.642 79.6429C366.2 89.0855 361 101.639 361 114.997C361 128.356 366.195 140.915 375.642 150.357C385.089 159.8 397.642 165 411 165C424.358 165 436.916 159.805 446.358 150.357C455.8 140.909 461 128.351 461 114.997C461 101.644 455.805 89.0855 446.358 79.6429Z" fill="#14161B"/>
<path fill-rule="evenodd" clip-rule="evenodd" d="M288 90C265.944 90 248 72.0565 248 50C248 27.9435 265.944 10 288 10C310.056 10 328 27.9435 328 50C328 72.0565 310.056 90 288 90ZM323.358 14.6429C313.911 5.20027 301.358 0 288 0C274.642 0 262.084 5.20027 252.642 14.6429C243.2 24.0855 238 36.6388 238 49.9974C238 63.356 243.195 75.9145 252.642 85.3571C262.089 94.7997 274.642 100 288 100C301.358 100 313.916 94.805 323.358 85.3571C332.8 75.9093 338 63.3507 338 49.9974C338 36.644 332.805 24.0855 323.358 14.6429Z" fill="#14161B"/>
<path fill-rule="evenodd" clip-rule="evenodd" d="M26.3158 323.421C23.4105 323.421 21.0526 325.779 21.0526 328.684C21.0526 331.59 23.4105 333.947 26.3158 333.947H131.579C134.484 333.947 136.842 331.59 136.842 328.684C136.842 325.779 134.484 323.421 131.579 323.421H26.3158Z" fill="#14161B"/>
<path fill-rule="evenodd" clip-rule="evenodd" d="M10.5263 170.789C10.5263 167.884 12.8842 165.526 15.7895 165.526H121.053C123.958 165.526 126.316 167.884 126.316 170.789V297.105C126.316 300.011 123.958 302.368 121.053 302.368H26.3158C20.4 302.368 14.9263 304.337 10.5263 307.642V170.789ZM152.632 176.053C149.726 176.053 147.368 178.411 147.368 181.316V339.211C147.368 342.116 145.011 344.474 142.105 344.474H26.3158C17.6105 344.474 10.5263 337.389 10.5263 328.684C10.5263 319.979 17.6105 312.895 26.3158 312.895H121.053C129.758 312.895 136.842 305.811 136.842 297.105V170.789C136.842 162.084 129.758 155 121.053 155H15.7895C7.08421 155 0 162.084 0 170.789V328.684C0 343.189 11.8105 355 26.3158 355H142.105C150.811 355 157.895 347.916 157.895 339.211V181.316C157.895 178.411 155.537 176.053 152.632 176.053Z" fill="#14161B"/>
<path fill-rule="evenodd" clip-rule="evenodd" d="M552.575 323.421C555.48 323.421 557.838 325.779 557.838 328.684C557.838 331.59 555.48 333.947 552.575 333.947H447.315C444.41 333.947 442.052 331.59 442.052 328.684C442.052 325.779 444.41 323.421 447.315 323.421H552.575Z" fill="#14161B"/>
<path fill-rule="evenodd" clip-rule="evenodd" d="M568.364 170.79C568.364 167.884 566.006 165.526 563.101 165.526H457.841C454.936 165.526 452.578 167.884 452.578 170.79V297.105C452.578 300.011 454.936 302.368 457.841 302.368H552.575C558.491 302.368 563.964 304.337 568.364 307.642V170.79ZM426.263 176.053C429.168 176.053 431.526 178.411 431.526 181.316V339.211C431.526 342.116 433.884 344.474 436.789 344.474H552.575C561.28 344.474 568.364 337.389 568.364 328.684C568.364 319.979 561.28 312.895 552.575 312.895H457.841C449.136 312.895 442.052 305.811 442.052 297.105V170.789C442.052 162.084 449.136 155 457.841 155H563.101C571.806 155 578.89 162.084 578.89 170.789V328.684C578.89 343.189 567.08 355 552.575 355H436.789C428.084 355 421 347.916 421 339.211V181.316C421 178.411 423.358 176.053 426.263 176.053Z" fill="#14161B"/>
</svg>
