<svg width="75" height="90" viewBox="0 0 75 90" fill="none" xmlns="http://www.w3.org/2000/svg">
<path fill-rule="evenodd" clip-rule="evenodd" d="M0.597192 62.5896L24.9198 38.5877C25.7103 37.8077 26.9953 37.8077 27.7858 38.5877C28.5763 39.3678 28.5763 40.6359 27.7858 41.416L6.92512 62.0016H72.9731C74.092 62.0016 75 62.8976 75 64.0017C75 65.1058 74.092 66.0019 72.9731 66.0019H6.92512L27.7858 86.5875C28.5763 87.3675 28.5763 88.6356 27.7858 89.4157C27.3885 89.8077 26.8696 89.9997 26.3508 89.9997C25.8319 89.9997 25.313 89.8037 24.9157 89.4157L0.593138 65.4138C-0.197346 64.6338 -0.197346 63.3657 0.593138 62.5856L0.597192 62.5896Z" fill="#0ED8D2"/>
<path fill-rule="evenodd" clip-rule="evenodd" d="M74.4028 27.4102L50.0802 51.412C49.2897 52.1921 48.0047 52.1921 47.2142 51.412C46.4237 50.632 46.4237 49.3639 47.2142 48.5838L68.0749 27.9982L2.02686 27.9982C0.908012 27.9982 -2.28882e-05 27.1021 -2.28882e-05 25.998C-2.28882e-05 24.894 0.908012 23.9979 2.02686 23.9979L68.0749 23.9979L47.2142 3.41229C46.4237 2.63223 46.4237 1.36413 47.2142 0.584068C47.6114 0.192039 48.1303 2.28882e-05 48.6492 2.28882e-05C49.1681 2.28882e-05 49.687 0.196037 50.0842 0.584068L74.4068 24.5859C75.1973 25.366 75.1973 26.6341 74.4068 27.4142L74.4028 27.4102Z" fill="#0ED8D2"/>
</svg>
