<svg width="68" height="100" viewBox="0 0 68 100" fill="none" xmlns="http://www.w3.org/2000/svg">
<path fill-rule="evenodd" clip-rule="evenodd" d="M27.6407 46.1538C26.5361 46.1538 25.6407 47.0492 25.6407 48.1538V90.3077C25.6407 91.4123 26.5361 92.3077 27.6407 92.3077H33.8971C35.0017 92.3077 35.8971 91.4123 35.8971 90.3077V48.1538C35.8971 47.0492 35.0017 46.1538 33.8971 46.1538H27.6407ZM29.2054 48.077C28.6531 48.077 28.2054 48.5247 28.2054 49.077V89.3847C28.2054 89.937 28.6531 90.3847 29.2054 90.3847H32.3336C32.8859 90.3847 33.3336 89.937 33.3336 89.3847V49.077C33.3336 48.5247 32.8859 48.077 32.3336 48.077H29.2054Z" fill="#F2F2F2"/>
<path fill-rule="evenodd" clip-rule="evenodd" d="M12.2561 46.1538C11.1515 46.1538 10.2561 47.0492 10.2561 48.1538V90.3077C10.2561 91.4123 11.1515 92.3077 12.2561 92.3077H18.5125C19.6171 92.3077 20.5125 91.4123 20.5125 90.3077V48.1538C20.5125 47.0492 19.6171 46.1538 18.5125 46.1538H12.2561ZM13.8208 48.077C13.2685 48.077 12.8208 48.5247 12.8208 49.077V89.3847C12.8208 89.937 13.2685 90.3847 13.8208 90.3847H16.949C17.5013 90.3847 17.949 89.937 17.949 89.3847V49.077C17.949 48.5247 17.5013 48.077 16.949 48.077H13.8208Z" fill="#F2F2F2"/>
<path fill-rule="evenodd" clip-rule="evenodd" d="M43.0253 46.1538C41.9208 46.1538 41.0253 47.0492 41.0253 48.1538V90.3077C41.0253 91.4123 41.9208 92.3077 43.0253 92.3077H49.2817C50.3863 92.3077 51.2817 91.4123 51.2817 90.3077V48.1538C51.2817 47.0492 50.3863 46.1538 49.2817 46.1538H43.0253ZM44.5901 48.077C44.0378 48.077 43.5901 48.5247 43.5901 49.077V89.3847C43.5901 89.937 44.0378 90.3847 44.5901 90.3847H47.7183C48.2706 90.3847 48.7183 89.937 48.7183 89.3847V49.077C48.7183 48.5247 48.2706 48.077 47.7183 48.077H44.5901Z" fill="#F2F2F2"/>
<path fill-rule="evenodd" clip-rule="evenodd" d="M30.7689 38.4615H0L4.82226 96.3322C4.99502 98.4054 6.72808 100 8.80844 100H30.7689L30.7689 97.4359H10.4317C8.88004 97.4359 7.58444 96.2528 7.44398 94.7075L2.5641 41.0256H30.7689L30.7689 38.4615Z" fill="#F2F2F2"/>
<path fill-rule="evenodd" clip-rule="evenodd" d="M30.7689 38.4615H61.5381L56.7156 96.3322C56.5428 98.4054 54.8098 100 52.7294 100H30.7689V38.4615ZM30.769 41.0256H58.9741L54.0939 94.7076C53.9535 96.2528 52.6579 97.4359 51.1063 97.4359H30.769V41.0256Z" fill="#F2F2F2"/>
<path fill-rule="evenodd" clip-rule="evenodd" d="M31.3699 6.34436C29.2361 5.77259 27.0427 7.03892 26.471 9.17279L24.8517 15.216L44.6656 20.5251L46.2848 14.4819C46.8566 12.348 45.5903 10.1547 43.4564 9.58292L31.3699 6.34436ZM32.2172 9.22585C30.6168 8.79703 28.9718 9.74678 28.543 11.3472L27.3285 15.8796L42.1889 19.8614L43.4034 15.329C43.8322 13.7286 42.8825 12.0836 41.2821 11.6548L32.2172 9.22585Z" fill="#F2F2F2"/>
<path fill-rule="evenodd" clip-rule="evenodd" d="M9.56506 8.46545C7.4312 7.89368 5.23785 9.16001 4.66608 11.2939L2.38316 19.8138L61.8248 35.7412L64.1077 27.2212C64.6795 25.0874 63.4132 22.894 61.2793 22.3222L9.56506 8.46545ZM10.4124 11.347C8.81197 10.9181 7.16695 11.8679 6.73813 13.4683L5.52367 18.0007L60.0118 32.6008L61.2263 28.0683C61.6551 26.4679 60.7054 24.8229 59.105 24.3941L10.4124 11.347Z" fill="#F2F2F2"/>
</svg>
