<svg id="Layer_1" data-name="Layer 1" xmlns="http://www.w3.org/2000/svg" viewBox="0 0 100 100">
  <defs>
    <style>
      .cls-1 {
        fill: #14161b;
      }
    </style>
  </defs>
  <title>ttt-icon_ph_black</title>
  <g>
    <path class="cls-1" d="M2.28,65.9a2.28,2.28,0,1,0,0,4.56H29.54V97.72a2.28,2.28,0,0,0,4.56,0V70.46H65.9V97.72a2.28,2.28,0,0,0,4.56,0V70.46H97.72a2.28,2.28,0,0,0,0-4.56H70.46V34.1H97.72a2.28,2.28,0,0,0,0-4.56H70.46V2.28a2.28,2.28,0,1,0-4.56,0V29.54H34.1V2.28a2.28,2.28,0,0,0-4.56,0V29.54H2.28a2.28,2.28,0,0,0,0,4.56H29.54V65.9ZM34.1,34.1H65.9V65.9H34.1Z" transform="translate(0 0)"/>
    <path class="cls-1" d="M59.51,4.13a2.28,2.28,0,0,0-3.22,0L50,10.42,43.71,4.13a2.28,2.28,0,0,0-3.22,3.22l6.29,6.29-6.29,6.29a2.29,2.29,0,0,0,0,3.23,2.26,2.26,0,0,0,1.61.66,2.3,2.3,0,0,0,1.61-.66L50,16.86l6.29,6.3a2.3,2.3,0,0,0,1.61.66,2.26,2.26,0,0,0,1.61-.66,2.29,2.29,0,0,0,0-3.23l-6.29-6.29,6.29-6.29A2.28,2.28,0,0,0,59.51,4.13Z" transform="translate(0 0)"/>
    <path class="cls-1" d="M23.16,76.82a2.29,2.29,0,0,0-3.23,0l-6.29,6.29L7.35,76.82A2.28,2.28,0,0,0,4.13,80l6.29,6.29-6.29,6.3a2.28,2.28,0,0,0,1.61,3.89,2.31,2.31,0,0,0,1.61-.67l6.29-6.29,6.29,6.29a2.31,2.31,0,0,0,1.61.67,2.28,2.28,0,0,0,1.61-3.89l-6.29-6.3L23.15,80A2.27,2.27,0,0,0,23.16,76.82Z" transform="translate(0 0)"/>
    <path class="cls-1" d="M50,37.42A12.58,12.58,0,1,0,62.58,50,12.59,12.59,0,0,0,50,37.42ZM50,58a8,8,0,1,1,8-8A8,8,0,0,1,50,58Z" transform="translate(0 0)"/>
  </g>
</svg>
