<svg width="105" height="80" viewBox="0 0 105 80" fill="none" xmlns="http://www.w3.org/2000/svg">
<path fill-rule="evenodd" clip-rule="evenodd" d="M76.6269 16.6038C75.4531 15.6439 73.7307 15.8249 72.7708 16.9987C71.811 18.1725 71.992 19.9003 73.1658 20.8547C78.958 25.5719 82.282 32.5544 82.282 40.0141C82.282 47.4738 78.958 54.4618 73.1603 59.1735C71.9865 60.1279 71.811 61.8557 72.7654 63.0296C73.3084 63.6933 74.0982 64.0388 74.8936 64.0388L74.8991 64.0498C75.5079 64.0498 76.1168 63.8468 76.6269 63.4355C83.7081 57.6706 87.7671 49.1413 87.7671 40.0196C87.7671 30.8979 83.7081 22.3631 76.6269 16.6038" fill="#14161B"/>
<path fill-rule="evenodd" clip-rule="evenodd" d="M86.9986 3.83376C85.8248 2.87387 84.1025 3.05487 83.1426 4.22868C82.1827 5.40249 82.3637 7.13029 83.5375 8.0847C93.1968 15.9393 98.7367 27.5787 98.7367 40.0134C98.7367 52.4481 93.1968 64.0874 83.5375 71.9421C82.3637 72.8965 82.1882 74.6243 83.1426 75.7981C83.6856 76.4618 84.4755 76.8074 85.2708 76.8074V76.8183C85.8797 76.8183 86.4885 76.6154 86.9986 76.204C97.9414 67.3017 104.222 54.1101 104.222 40.0189C104.222 25.9277 97.9414 12.7361 86.9986 3.83376" fill="#14161B"/>
<path fill-rule="evenodd" clip-rule="evenodd" d="M62.3927 29.7726C61.4328 30.9464 61.6138 32.6742 62.7877 33.6286C64.7184 35.1974 65.8264 37.5285 65.8264 40.0133C65.8264 42.498 64.7184 44.8237 62.7877 46.3979C61.6138 47.3523 61.4383 49.0801 62.3927 50.2539C62.9358 50.9176 63.7256 51.2632 64.5209 51.2632V51.2742C65.1298 51.2742 65.7386 51.0712 66.2487 50.6598C69.463 48.0435 71.3115 44.1655 71.3115 40.0188C71.3115 35.872 69.4685 31.9941 66.2487 29.3777C65.0749 28.4178 63.3526 28.5988 62.3927 29.7726" fill="#14161B"/>
<path fill-rule="evenodd" clip-rule="evenodd" d="M43.8862 73.8457L21.9458 55.1964V24.82L43.8862 6.17072V73.8457ZM16.4607 53.7206H8.22763C6.71923 53.7206 5.49057 52.492 5.49057 50.9781V29.0378C5.49057 27.5239 6.71923 26.2952 8.22763 26.2952H16.4607V53.7206ZM44.7089 0V0.00548509C43.3486 0.00548509 41.9993 0.575934 40.6719 1.70038L18.194 20.8049H8.22763C3.69146 20.8049 0 24.4964 0 29.0326V50.9729C0 55.5091 3.69146 59.2005 8.22763 59.2005H18.194L40.6719 78.3051C41.9938 79.4296 43.3486 80 44.7089 80C46.2009 80 47.5338 79.276 48.384 78.0144C49.0367 77.0326 49.3713 75.7765 49.3713 74.2845V5.72095C49.3713 1.77168 47.0291 0 44.7089 0V0Z" fill="#14161B"/>
</svg>
