<svg width="72" height="80" viewBox="0 0 72 80" fill="none" xmlns="http://www.w3.org/2000/svg">
<path fill-rule="evenodd" clip-rule="evenodd" d="M66.2434 29.3777C65.0696 28.4178 63.3473 28.5988 62.3874 29.7726C61.4275 30.9464 61.6085 32.6742 62.7823 33.6286C64.7131 35.1974 65.821 37.5285 65.821 40.0133C65.821 42.498 64.7131 44.8237 62.7823 46.3979C61.6085 47.3523 61.433 49.0801 62.3874 50.2539C62.9304 50.9176 63.7203 51.2632 64.5156 51.2632V51.2742C65.1244 51.2742 65.7333 51.0712 66.2434 50.6598C69.4577 48.0435 71.3061 44.1655 71.3061 40.0188C71.3061 35.872 69.4631 31.9941 66.2434 29.3777" fill="#F2F2F2"/>
<path fill-rule="evenodd" clip-rule="evenodd" d="M43.8807 73.8457L21.9403 55.1964V24.82L43.8807 6.17072V73.8457ZM16.4553 53.7206H8.22763C6.71375 53.7206 5.48509 52.492 5.48509 50.9781V29.0378C5.48509 27.5239 6.71375 26.2952 8.22763 26.2952H16.4553V53.7206ZM44.7035 0V0.00548509C43.3486 0.00548509 41.9938 0.575934 40.6664 1.70038L18.1885 20.8049H8.22763C3.69146 20.8049 0 24.4964 0 29.0326V50.9729C0 55.5091 3.69146 59.2005 8.22763 59.2005H18.1885L40.6664 78.3051C41.9883 79.4296 43.3486 80 44.7035 80C46.1954 80 47.5338 79.276 48.3785 78.0144C49.0312 77.0326 49.3658 75.7765 49.3658 74.2845V5.72095C49.3658 1.77168 47.0237 0 44.7035 0V0Z" fill="#F2F2F2"/>
</svg>
