<svg width="93" height="80" viewBox="0 0 93 80" fill="none" xmlns="http://www.w3.org/2000/svg">
<path fill-rule="evenodd" clip-rule="evenodd" d="M43.8807 73.8457L21.9403 55.1964V24.82L43.8807 6.17072V73.8457ZM5.48509 50.9781V29.0378C5.48509 27.5239 6.71375 26.2952 8.22763 26.2952H16.4553V53.7206H8.22763C6.71375 53.7206 5.48509 52.492 5.48509 50.9781ZM44.7035 0.00548509C43.3486 0.00548509 41.9938 0.575934 40.6664 1.70038L18.1885 20.8049H8.22763C3.69146 20.8049 0 24.4964 0 29.0326V50.9729C0 55.5091 3.69146 59.2005 8.22763 59.2005H18.1885L40.6664 78.3051C41.9883 79.4296 43.3486 80 44.7035 80C46.1954 80 47.5338 79.276 48.3785 78.0144C49.0312 77.0326 49.3658 75.7765 49.3658 74.2845V5.72095C49.3658 1.77168 47.0237 0 44.7035 0V0.00548509V0.00548509Z" fill="#14161B"/>
<path fill-rule="evenodd" clip-rule="evenodd" d="M92.0614 46.7451L83.0329 37.7167H83.0219L92.0504 28.6882C93.12 27.6186 93.12 25.8798 92.0504 24.8103C90.9808 23.7407 89.242 23.7407 88.1724 24.8103L79.144 33.8387L70.1155 24.8103C69.0459 23.7407 67.3072 23.7407 66.2376 24.8103C65.168 25.8798 65.168 27.6186 66.2376 28.6882L75.266 37.7167L66.2376 46.7451C65.168 47.8147 65.168 49.5535 66.2376 50.6231C66.7751 51.1606 67.4772 51.4239 68.1793 51.4239C68.8814 51.4239 69.5835 51.1551 70.121 50.6231L79.1495 41.5946L88.1779 50.6231C88.7155 51.1606 89.4176 51.4239 90.1196 51.4239C90.8217 51.4239 91.5238 51.1551 92.0614 50.6231C93.131 49.5535 93.131 47.8147 92.0614 46.7451" fill="#14161B"/>
</svg>
