<svg width="158" height="200" viewBox="0 0 158 200" fill="none" xmlns="http://www.w3.org/2000/svg">
<path fill-rule="evenodd" clip-rule="evenodd" d="M117.269 73.2292H117.264C116.289 72.2542 114.704 72.2542 113.729 73.2292L107.984 78.9741C107.729 68.6743 103.594 59.0245 96.2792 51.7147C88.7244 44.1599 78.6797 40 67.9949 40C53.1253 40 39.5656 48.1748 32.6108 61.3295C31.9658 62.5495 32.4308 64.0644 33.6508 64.7094C34.8707 65.3544 36.3857 64.8894 37.0307 63.6694C43.1155 52.1547 54.9802 44.9999 67.9949 44.9999C86.9395 44.9999 102.419 60.1345 102.979 78.9441L97.2642 73.2292C96.2892 72.2542 94.7043 72.2542 93.7293 73.2292C92.7543 74.2042 92.7543 75.7891 93.7293 76.7641L103.729 86.7639C104.219 87.2539 104.859 87.4939 105.499 87.4939C106.139 87.4939 106.779 87.2489 107.269 86.7639L117.269 76.7641C118.244 75.7891 118.244 74.2042 117.269 73.2292" fill="#0ED8D2"/>
<path fill-rule="evenodd" clip-rule="evenodd" d="M102.344 95.2885H102.339C101.119 94.6435 99.6043 95.1085 98.9593 96.3285C92.8744 107.843 81.0097 114.998 67.995 114.998C49.0505 114.998 33.5709 99.8634 33.0109 81.0539L38.7257 86.7687C39.2157 87.2587 39.8557 87.4987 40.4957 87.4987C41.1357 87.4987 41.7757 87.2537 42.2657 86.7687C43.2406 85.7937 43.2406 84.2088 42.2657 83.2338L32.2659 73.234C31.2909 72.2591 29.706 72.2591 28.731 73.234L18.7312 83.2338C17.7563 84.2088 17.7563 85.7937 18.7312 86.7687C19.7062 87.7437 21.2912 87.7437 22.2661 86.7687L28.011 81.0239C28.266 91.3236 32.4009 100.973 39.7157 108.283C47.2705 115.838 57.3153 119.998 68 119.998C82.8697 119.998 96.4294 111.823 103.384 98.6684C104.029 97.4485 103.564 95.9335 102.344 95.2885" fill="#0ED8D2"/>
<path fill-rule="evenodd" clip-rule="evenodd" d="M26.3158 168.421C23.4105 168.421 21.0526 170.779 21.0526 173.684C21.0526 176.589 23.4105 178.947 26.3158 178.947H131.579C134.484 178.947 136.842 176.589 136.842 173.684C136.842 170.779 134.484 168.421 131.579 168.421H26.3158Z" fill="#0ED8D2"/>
<path fill-rule="evenodd" clip-rule="evenodd" d="M10.5263 15.7895C10.5263 12.8842 12.8842 10.5263 15.7895 10.5263H121.053C123.958 10.5263 126.316 12.8842 126.316 15.7895V142.105C126.316 145.011 123.958 147.368 121.053 147.368H26.3158C20.4 147.368 14.9263 149.337 10.5263 152.642V15.7895ZM152.632 21.0526C149.726 21.0526 147.368 23.4105 147.368 26.3158V184.211C147.368 187.116 145.011 189.474 142.105 189.474H26.3158C17.6105 189.474 10.5263 182.389 10.5263 173.684C10.5263 164.979 17.6105 157.895 26.3158 157.895H121.053C129.758 157.895 136.842 150.811 136.842 142.105V15.7895C136.842 7.08421 129.758 0 121.053 0H15.7895C7.08421 0 0 7.08421 0 15.7895V173.684C0 188.189 11.8105 200 26.3158 200H142.105C150.811 200 157.895 192.916 157.895 184.211V26.3158C157.895 23.4105 155.537 21.0526 152.632 21.0526Z" fill="#0ED8D2"/>
</svg>
