<svg width="112" height="100" viewBox="0 0 112 100" fill="none" xmlns="http://www.w3.org/2000/svg">
<path fill-rule="evenodd" clip-rule="evenodd" d="M7.97217 94.118L55.8811 8.94653L103.79 94.118H7.97217ZM111.384 95.612L58.4459 1.49991C57.9224 0.570555 56.946 0 55.8814 0C54.8167 0 53.8403 0.576437 53.3168 1.49991L0.378732 95.612C-0.133002 96.5237 -0.127121 97.6354 0.40226 98.5413C0.931641 99.4471 1.89629 100 2.94329 100H108.819C109.866 100 110.837 99.4471 111.36 98.5413C111.884 97.6354 111.896 96.5237 111.384 95.612V95.612Z" fill="#F2C94C"/>
<path fill-rule="evenodd" clip-rule="evenodd" d="M52.9402 38.2387V67.6488C52.9402 69.2722 54.2578 70.5898 55.8812 70.5898C57.5046 70.5898 58.8222 69.2722 58.8222 67.6488V38.2387C58.8222 36.6153 57.5046 35.2977 55.8812 35.2977C54.2578 35.2977 52.9402 36.6153 52.9402 38.2387" fill="#F2C94C"/>
<path fill-rule="evenodd" clip-rule="evenodd" d="M55.8812 76.4718C54.2578 76.4718 52.9402 77.7894 52.9402 79.4128V85.2948C52.9402 86.9182 54.2578 88.2358 55.8812 88.2358C57.5046 88.2358 58.8222 86.9182 58.8222 85.2948V79.4128C58.8222 77.7894 57.5046 76.4718 55.8812 76.4718" fill="#F2C94C"/>
</svg>
