<svg width="224" height="200" viewBox="0 0 224 200" fill="none" xmlns="http://www.w3.org/2000/svg">
<path fill-rule="evenodd" clip-rule="evenodd" d="M15.9443 188.236L111.762 17.8931L207.58 188.236H15.9443ZM222.768 191.224L116.892 2.99982C115.845 1.14111 113.892 0 111.763 0C109.633 0 107.681 1.15287 106.634 2.99982L0.757464 191.224C-0.266005 193.047 -0.254241 195.271 0.80452 197.083C1.86328 198.894 3.79258 200 5.88657 200H217.639C219.733 200 221.674 198.894 222.721 197.083C223.768 195.271 223.791 193.047 222.768 191.224V191.224Z" fill="#FF8400"/>
<path fill-rule="evenodd" clip-rule="evenodd" d="M105.88 76.4775V135.298C105.88 138.544 108.516 141.18 111.762 141.18C115.009 141.18 117.644 138.544 117.644 135.298V76.4775C117.644 73.2306 115.009 70.5955 111.762 70.5955C108.516 70.5955 105.88 73.2306 105.88 76.4775" fill="#FF8400"/>
<path fill-rule="evenodd" clip-rule="evenodd" d="M111.762 152.944C108.516 152.944 105.88 155.579 105.88 158.826V170.59C105.88 173.836 108.516 176.472 111.762 176.472C115.009 176.472 117.644 173.836 117.644 170.59V158.826C117.644 155.579 115.009 152.944 111.762 152.944" fill="#FF8400"/>
</svg>
