<?xml version="1.0" encoding="utf-8"?>
<!-- Generator: Adobe Illustrator 22.1.0, SVG Export Plug-In . SVG Version: 6.00 Build 0)  -->
<svg version="1.1" xmlns="http://www.w3.org/2000/svg" xmlns:xlink="http://www.w3.org/1999/xlink" x="0px" y="0px"
	 viewBox="0 0 500 500" style="enable-background:new 0 0 500 500;" xml:space="preserve">
<style type="text/css">
	.st0{display:none;}
	.st1{display:inline;}
	.st2{filter:url(#Adobe_OpacityMaskFilter);}
	.st3{fill:#020202;}
	.st4{mask:url(#SVGID_1_);}
	.st5{fill:#14161B;}
	.st6{filter:url(#Adobe_OpacityMaskFilter_1_);}
	.st7{mask:url(#SVGID_2_);}
	.st8{fill:#0ED8D2;}
	.st9{filter:url(#Adobe_OpacityMaskFilter_2_);}
	.st10{mask:url(#SVGID_3_);fill:#14161B;}
	.st11{filter:url(#Adobe_OpacityMaskFilter_3_);}
	.st12{mask:url(#SVGID_4_);}
</style>
<g id="Calque_2" class="st0">
	<rect x="-37.9" y="-22.9" class="st1" width="564" height="553.5"/>
</g>
<g id="Calque_1">
	<defs>
		<filter id="Adobe_OpacityMaskFilter" filterUnits="userSpaceOnUse" x="41.4" y="53.3" width="357.8" height="380.3">
			<feFlood  style="flood-color:white;flood-opacity:1" result="back"/>
			<feBlend  in="SourceGraphic" in2="back" mode="normal"/>
		</filter>
	</defs>
	<mask maskUnits="userSpaceOnUse" x="41.4" y="53.3" width="357.8" height="380.3" id="SVGID_1_">
		<g class="st2">
			<g>
				<path d="M24.2,173.6l0,1.9c0.4,8.9,3.9,17.7,10.7,24.4l100.6,100.6c14.3,14.3,37.5,14.3,51.9,0c7.2-7.2,10.7-16.5,10.7-25.9
					c0-9.4-3.6-18.8-10.7-25.9l-38.2-38.2c0,0,0-0.1,0-0.1h365.3c20.2,0,37.2-15.9,37.6-36.1c0.2-10.4-4-19.8-10.7-26.6
					c-6.6-6.6-15.8-10.7-25.9-10.7H149.2c-0.1,0-0.1-0.1,0-0.1l37.6-37.6c14.2-14.2,15.1-37.5,1.1-52c-7.2-7.5-16.8-11.2-26.4-11.2
					c-9.4,0-18.8,3.6-25.9,10.7L34.9,147.3c-6.8,6.8-10.3,15.5-10.7,24.4C24.2,172.4,24.2,173,24.2,173.6z"/>
			</g>
			<g>
				<path class="st3" d="M345.3,467.2c-7.8,0-15-3.1-20.4-8.7c-10.6-11-10.2-29,1-40.2l39.2-39.2l-1.7-4.3c-1.1-2.6-3.6-4.3-6.4-4.3
					H6.8c-7.5,0-14.6-2.9-20-8.3c-5.4-5.5-8.4-12.7-8.3-20.5c0.3-15.3,13.3-27.8,29.1-27.8h354l1.8-4.3c1.1-2.6,0.4-5.6-1.6-7.5
					l-36.5-36.5c-5.3-5.3-8.3-12.4-8.3-20s2.9-14.6,8.3-20c5.3-5.3,12.4-8.3,20-8.3s14.6,2.9,20,8.3l96.2,96.2
					c5,5,7.9,11.7,8.2,18.7l0,1.7c0,0.5,0,1,0,1.5c-0.3,7-3.2,13.7-8.2,18.7l-96.2,96.2C359.9,464.3,352.8,467.2,345.3,467.2z"/>
				<path d="M345.3,224.4c5.7,0,11.1,2.2,15.1,6.3l96.2,96.2c3.8,3.8,6,8.8,6.2,14.1l0,1.5c0,0.4,0,0.8,0,1.2
					c-0.2,5.4-2.4,10.4-6.2,14.2l-96.2,96.2c-4.1,4.1-9.4,6.3-15.1,6.3c-5.9,0-11.4-2.3-15.4-6.6c-8-8.3-7.6-22.1,0.9-30.6l36-36
					c3.9-3.9,5.1-9.8,3-15c-2.1-5.2-7.1-8.5-12.7-8.5H6.8c-5.7,0-11.1-2.2-15.1-6.3c-4.1-4.2-6.4-9.7-6.3-15.5
					c0.2-11.6,10.2-21,22.3-21H357c5.6,0,10.6-3.3,12.7-8.5c2.1-5.1,1-11-3-15L330.2,261c-4-4-6.3-9.4-6.3-15.1
					c0-5.7,2.2-11.1,6.3-15.1C334.2,226.6,339.6,224.4,345.3,224.4 M345.3,210.7c-9,0-18,3.4-24.8,10.3
					c-6.8,6.8-10.3,15.8-10.3,24.8s3.4,18,10.3,24.8l36.6,36.6c0,0,0,0.1,0,0.1H7.7c-19.3,0-35.6,15.2-35.9,34.5
					c-0.2,9.9,3.8,18.9,10.3,25.4c6.4,6.3,15.1,10.3,24.8,10.3H357c0,0,0.1,0.1,0,0.1l-36,36c-13.6,13.6-14.4,35.9-1.1,49.8
					c6.9,7.2,16.1,10.8,25.3,10.8c9,0,17.9-3.4,24.8-10.3l96.2-96.2c6.5-6.5,9.9-14.9,10.2-23.4c0-0.6,0-1.2,0-1.8l0-1.8
					c-0.4-8.5-3.8-16.9-10.2-23.4L370.1,221C363.3,214.1,354.3,210.7,345.3,210.7L345.3,210.7z"/>
			</g>
		</g>
	</mask>
	<g class="st4">
		<path class="st5" d="M376.1,62.4l0.9,2.8c-0.1,0-0.1,0-0.2,0c-1,0-2,0.1-3,0.4c-0.2-0.7-0.5-1.3-0.9-1.9c-0.1-0.1-0.2-0.3-0.3-0.4
			L376.1,62.4 M378.9,53.3c-0.3,0-0.6,0-0.9,0.1l-54,12.2c-2.2,0.5-3.7,2.7-3.1,5l0,0c0.4,1.9,2.2,3.3,4.1,3.3c0.3,0,0.6,0,0.9-0.1
			l35.5-8c0.3-0.1,0.6-0.1,1-0.1c3.1,0,5.2,3.4,3.6,6.3L259.3,256.2c-0.8,1.4-2.2,2.1-3.6,2.1c-1.3,0-2.7-0.6-3.5-1.9l-14.9-23.5
			c-0.8-1.3-2.2-1.9-3.5-1.9c-1.6,0-3.3,0.9-3.9,2.7l-67.2,180c-0.7,1.8-2.3,2.7-3.9,2.7c-1.2,0-2.5-0.5-3.3-1.7L48.9,273.4
			c-0.8-1.1-2.1-1.7-3.3-1.7c-0.9,0-1.8,0.3-2.5,0.8c-1.8,1.4-2.2,4-0.8,5.8l115.7,153.5c0.8,1.1,2.1,1.7,3.3,1.7
			c1.6,0,3.3-0.9,3.9-2.7l66.7-178.5c0.7-1.8,2.3-2.7,3.9-2.7c1.3,0,2.7,0.6,3.5,1.9l13.2,20.9c0.8,1.3,2.2,1.9,3.5,1.9
			c1.4,0,2.8-0.7,3.6-2.1L373.3,75.5c0.8-1.4,2.2-2.1,3.6-2.1c1.7,0,3.3,1,4,2.8l10.3,30.7c0.6,1.7,2.2,2.8,4,2.8
			c0.4,0,0.9-0.1,1.3-0.2l0,0c2.2-0.7,3.4-3.1,2.6-5.3l-16.2-48.2C382.3,54.4,380.6,53.3,378.9,53.3L378.9,53.3z"/>
	</g>
	<defs>
		<filter id="Adobe_OpacityMaskFilter_1_" filterUnits="userSpaceOnUse" x="48.5" y="65" width="357.8" height="380.3">
			<feFlood  style="flood-color:white;flood-opacity:1" result="back"/>
			<feBlend  in="SourceGraphic" in2="back" mode="normal"/>
		</filter>
	</defs>
	<mask maskUnits="userSpaceOnUse" x="48.5" y="65" width="357.8" height="380.3" id="SVGID_2_">
		<g class="st6">
			<g>
				<path class="st3" d="M339.5,467.2c-7.8,0-15-3.1-20.4-8.7c-10.6-11-10.2-29,1-40.2l39.2-39.2l-1.7-4.3c-1.1-2.6-3.6-4.3-6.4-4.3
					H1c-7.5,0-14.6-2.9-20-8.3c-5.4-5.5-8.4-12.7-8.3-20.5c0.3-15.3,13.3-27.8,29.1-27.8h354l1.8-4.3c1.1-2.6,0.4-5.6-1.6-7.5
					l-36.5-36.5c-5.3-5.3-8.3-12.4-8.3-20c0-7.6,2.9-14.6,8.3-20c5.3-5.3,12.4-8.3,20-8.3c7.5,0,14.6,2.9,20,8.3l96.2,96.2
					c5,5,7.9,11.7,8.2,18.7l0,1.7c0,0.5,0,1,0,1.5c-0.3,7-3.2,13.7-8.2,18.7l-96.2,96.2C354.1,464.3,347,467.2,339.5,467.2z"/>
				<path d="M339.5,224.4c5.7,0,11.1,2.2,15.1,6.3l96.2,96.2c3.8,3.8,6,8.8,6.2,14.1l0,1.5c0,0.4,0,0.8,0,1.2
					c-0.2,5.4-2.4,10.4-6.2,14.2l-96.2,96.2c-4.1,4.1-9.4,6.3-15.1,6.3c-5.9,0-11.4-2.3-15.4-6.6c-8-8.3-7.6-22.1,0.9-30.6l36-36
					c4-3.9,5.1-9.8,3-15c-2.1-5.2-7.1-8.5-12.7-8.5H1c-5.7,0-11.1-2.2-15.1-6.3c-4.1-4.2-6.4-9.7-6.3-15.5c0.2-11.6,10.2-21,22.3-21
					h349.4c5.6,0,10.6-3.3,12.7-8.5c2.1-5.1,1-11-3-15L324.3,261c-4-4-6.3-9.4-6.3-15.1c0-5.7,2.2-11.1,6.3-15.1
					C328.4,226.6,333.7,224.4,339.5,224.4 M339.5,210.7c-9,0-18,3.4-24.8,10.3c-6.8,6.8-10.3,15.8-10.3,24.8s3.4,18,10.3,24.8
					l36.6,36.6c0,0,0,0.1,0,0.1H1.8c-19.3,0-35.6,15.2-35.9,34.5c-0.2,9.9,3.8,18.9,10.3,25.4c6.4,6.3,15.1,10.3,24.8,10.3h350.2
					c0,0,0.1,0.1,0,0.1l-36,36c-13.6,13.6-14.4,35.9-1.1,49.8c6.9,7.2,16.1,10.8,25.3,10.8c9,0,17.9-3.4,24.8-10.3l96.2-96.2
					c6.5-6.5,9.9-14.9,10.2-23.4c0-0.6,0-1.2,0-1.8l0-1.8c-0.4-8.5-3.8-16.9-10.2-23.4L364.3,221
					C357.4,214.1,348.4,210.7,339.5,210.7L339.5,210.7z"/>
			</g>
			<g>
				<path d="M18.3,173.6l0,1.9c0.4,8.9,3.9,17.7,10.7,24.4l100.6,100.6c14.3,14.3,37.5,14.3,51.9,0c7.2-7.2,10.7-16.5,10.7-25.9
					c0-9.4-3.6-18.8-10.7-25.9l-38.2-38.2c0,0,0-0.1,0-0.1h365.3c20.2,0,37.2-15.9,37.6-36.1c0.2-10.4-4-19.8-10.7-26.6
					c-6.6-6.6-15.8-10.7-25.9-10.7H143.4c-0.1,0-0.1-0.1,0-0.1l37.6-37.6c14.2-14.2,15.1-37.5,1.1-52c-7.2-7.5-16.8-11.2-26.4-11.2
					c-9.4,0-18.8,3.6-25.9,10.7L29.1,147.3c-6.8,6.8-10.3,15.5-10.7,24.4C18.3,172.4,18.3,173,18.3,173.6z"/>
			</g>
		</g>
	</mask>
	<g class="st7">
		<path class="st8" d="M406.1,116l-16.2-48.2c-0.7-2-2.8-3.2-4.9-2.7l-54,12.2c-2.2,0.5-3.7,2.7-3.1,5l0,0c0.5,2.2,2.7,3.7,5,3.1
			l35.5-8c3.5-0.8,6.3,3,4.5,6.2L266.3,267.9c-1.6,2.7-5.5,2.8-7.1,0.1l-14.9-23.5c-1.8-2.9-6.2-2.5-7.4,0.8l-67.2,180
			c-1.2,3.1-5.3,3.7-7.2,1.1L56,285.1c-1.4-1.8-4-2.2-5.8-0.8h0c-1.8,1.4-2.2,4-0.8,5.8L165,443.6c2,2.6,6.1,2,7.2-1.1l66.7-178.5
			c1.2-3.2,5.6-3.7,7.4-0.8l13.2,20.9c1.7,2.6,5.6,2.6,7.1-0.1L380.3,87.3c1.8-3.1,6.4-2.6,7.6,0.8l10.3,30.7
			c0.7,2.2,3.1,3.4,5.3,2.6l0,0C405.6,120.6,406.8,118.2,406.1,116z"/>
	</g>
	<g>
		<path class="st8" d="M61.6,190.3l0,1.6c0.3,7.3,3.2,14.4,8.8,20l82.3,82.3c11.7,11.7,30.7,11.7,42.4,0c5.9-5.9,8.8-13.5,8.8-21.2
			c0-7.7-2.9-15.4-8.8-21.2l-31.3-31.3c0,0,0-0.1,0-0.1h298.9c16.5,0,30.5-13,30.7-29.5c0.1-8.5-3.3-16.2-8.8-21.7
			c-5.4-5.4-12.9-8.8-21.2-8.8H163.9c0,0-0.1-0.1,0-0.1l30.8-30.8c11.7-11.7,12.4-30.7,0.9-42.6c-5.9-6.1-13.8-9.2-21.6-9.2
			c-7.7,0-15.3,2.9-21.2,8.8l-82.3,82.3c-5.5,5.5-8.5,12.7-8.8,20C61.6,189.2,61.6,189.8,61.6,190.3z"/>
	</g>
	<g>
		<g>
			<path class="st5" d="M163.4,69.3c6,0,11.5,2.4,15.6,6.6c8.1,8.4,7.8,22.3-0.8,30.9l-30.8,30.8c-2.4,2.4-3.1,6-1.8,9.1
				c1.3,3.1,4.3,5.2,7.7,5.2H453c5.8,0,11.2,2.3,15.3,6.3c4.2,4.2,6.5,9.8,6.4,15.7c-0.2,11.8-10.2,21.3-22.4,21.3H153.4
				c-3.4,0-6.4,2-7.7,5.2c-1.3,3.1-0.6,6.7,1.8,9.1l31.3,31.3c4.1,4.1,6.3,9.5,6.3,15.3c0,5.8-2.3,11.2-6.3,15.3
				c-4.1,4.1-9.5,6.4-15.3,6.4c-5.8,0-11.2-2.3-15.3-6.4l-82.3-82.3c-3.8-3.8-6.1-8.9-6.3-14.4l0-1.4c0-0.4,0-0.8,0-1.2
				c0.2-5.4,2.5-10.5,6.3-14.4l82.3-82.3C152.2,71.6,157.6,69.3,163.4,69.3 M163.4,61c-7.7,0-15.3,2.9-21.2,8.8l-82.3,82.3
				c-5.5,5.5-8.5,12.7-8.8,20c0,0.5,0,1,0,1.6l0,1.6c0.3,7.3,3.2,14.4,8.8,20l82.3,82.3c5.9,5.9,13.5,8.8,21.2,8.8
				c7.7,0,15.4-2.9,21.2-8.8c5.9-5.9,8.8-13.5,8.8-21.2c0-7.7-2.9-15.4-8.8-21.2l-31.3-31.3c0,0,0-0.1,0-0.1h298.9
				c16.5,0,30.5-13,30.7-29.5c0.1-8.5-3.3-16.2-8.8-21.7c-5.4-5.4-12.9-8.8-21.2-8.8H153.4c0,0-0.1-0.1,0-0.1l30.8-30.8
				c11.7-11.7,12.4-30.7,0.9-42.6C179.1,64.1,171.3,61,163.4,61L163.4,61z"/>
		</g>
	</g>
	<g>
		<g>
			<path class="st5" d="M326,238.7c5.8,0,11.2,2.3,15.3,6.4l82.3,82.3c3.8,3.8,6.1,8.9,6.3,14.4l0,1.4c0,0.4,0,0.8,0,1.2
				c-0.2,5.4-2.5,10.5-6.3,14.4l-82.3,82.3c-4.1,4.1-9.6,6.4-15.3,6.4c-6,0-11.5-2.4-15.6-6.6c-8.1-8.4-7.8-22.3,0.8-30.9L342,379
				c2.4-2.4,3.1-6,1.8-9.1c-1.3-3.1-4.3-5.2-7.7-5.2H36.5c-5.8,0-11.2-2.3-15.3-6.3c-4.2-4.2-6.5-9.8-6.4-15.7
				c0.2-11.8,10.2-21.3,22.4-21.3h298.9c3.4,0,6.4-2,7.7-5.2c1.3-3.1,0.6-6.7-1.8-9.1l-31.3-31.3c-4.1-4.1-6.3-9.5-6.3-15.3
				c0-5.8,2.3-11.2,6.3-15.3C314.8,240.9,320.3,238.7,326,238.7 M326,230.3c-7.7,0-15.4,2.9-21.2,8.8c-5.9,5.9-8.8,13.5-8.8,21.2
				c0,7.7,2.9,15.4,8.8,21.2l31.3,31.3c0,0,0,0.1,0,0.1H37.2c-16.5,0-30.5,13-30.7,29.5c-0.1,8.5,3.3,16.2,8.8,21.7
				c5.4,5.4,12.9,8.8,21.2,8.8h299.6c0,0,0.1,0.1,0,0.1l-30.8,30.8c-11.7,11.7-12.4,30.7-0.9,42.6c5.9,6.1,13.8,9.2,21.6,9.2
				c7.7,0,15.3-2.9,21.2-8.8l82.3-82.3c5.5-5.5,8.5-12.7,8.8-20c0-0.5,0-1,0-1.6l0-1.6c-0.3-7.3-3.2-14.4-8.8-20l-82.3-82.3
				C341.4,233.3,333.7,230.3,326,230.3L326,230.3z"/>
		</g>
	</g>
	<defs>
		<filter id="Adobe_OpacityMaskFilter_2_" filterUnits="userSpaceOnUse" x="41.4" y="560.9" width="357.8" height="380.3">
			<feFlood  style="flood-color:white;flood-opacity:1" result="back"/>
			<feBlend  in="SourceGraphic" in2="back" mode="normal"/>
		</filter>
	</defs>
	<mask maskUnits="userSpaceOnUse" x="41.4" y="560.9" width="357.8" height="380.3" id="SVGID_3_">
		<g class="st9">
			<g>
				<path d="M24.2,681.2l0,1.9c0.4,8.9,3.9,17.7,10.7,24.4l100.6,100.6c14.3,14.3,37.5,14.3,51.9,0c7.2-7.2,10.7-16.5,10.7-25.9
					s-3.6-18.8-10.7-25.9L149.2,718c0,0,0-0.1,0-0.1h365.3c20.2,0,37.2-15.9,37.6-36.1c0.2-10.4-4-19.8-10.7-26.6
					c-6.6-6.6-15.8-10.7-25.9-10.7H149.2c-0.1,0-0.1-0.1,0-0.1l37.6-37.6c14.2-14.2,15.1-37.5,1.1-52c-7.2-7.5-16.8-11.2-26.4-11.2
					c-9.4,0-18.8,3.6-25.9,10.7L34.9,654.9c-6.8,6.8-10.3,15.5-10.7,24.4C24.2,679.9,24.2,680.6,24.2,681.2z"/>
			</g>
			<g>
				<path class="st3" d="M345.3,974.8c-7.8,0-15-3.1-20.4-8.7c-10.6-11-10.2-29,1-40.2l39.2-39.2l-1.7-4.3c-1.1-2.6-3.6-4.3-6.4-4.3
					H6.8c-7.5,0-14.6-2.9-20-8.3c-5.4-5.5-8.4-12.7-8.3-20.5c0.3-15.3,13.3-27.8,29.1-27.8h353.9l1.8-4.3c1.1-2.6,0.5-5.5-1.5-7.5
					l-36.6-36.6c-5.3-5.3-8.3-12.4-8.3-20c0-7.6,2.9-14.6,8.3-20c5.3-5.3,12.4-8.3,20-8.3s14.6,2.9,20,8.3l96.2,96.2
					c5,5,7.9,11.7,8.2,18.7l0,1.7c0,0.5,0,1,0,1.5c-0.3,7-3.2,13.7-8.2,18.7l-96.2,96.2C359.9,971.9,352.8,974.8,345.3,974.8z"/>
				<path d="M345.3,732c5.7,0,11.1,2.2,15.1,6.3l96.2,96.2c3.8,3.8,6,8.8,6.2,14.1l0,1.5c0,0.4,0,0.8,0,1.2
					c-0.2,5.4-2.4,10.4-6.2,14.2l-96.2,96.2c-4.1,4.1-9.4,6.3-15.1,6.3c-5.9,0-11.4-2.3-15.4-6.6c-8-8.3-7.6-22.1,0.9-30.6l36-36
					c3.9-3.9,5.1-9.8,3-15c-2.1-5.1-7.1-8.5-12.7-8.5H6.8c-5.7,0-11.1-2.2-15.1-6.3c-4.1-4.2-6.4-9.7-6.3-15.5
					c0.2-11.6,10.2-21,22.3-21H357c5.6,0,10.6-3.3,12.7-8.5c2.1-5.1,1-11-3-15l-36.6-36.6c-4-4-6.3-9.4-6.3-15.1
					c0-5.7,2.2-11.1,6.3-15.1C334.2,734.2,339.6,732,345.3,732 M345.3,718.3c-9,0-18,3.4-24.8,10.3c-6.8,6.8-10.3,15.8-10.3,24.8
					s3.4,18,10.3,24.8l36.6,36.6c0,0,0,0.1,0,0.1H7.7c-19.3,0-35.6,15.2-35.9,34.5c-0.2,9.9,3.8,18.9,10.3,25.4
					c6.4,6.3,15.1,10.3,24.8,10.3H357c0,0,0.1,0.1,0,0.1l-36,36c-13.6,13.6-14.4,35.9-1.1,49.8c6.9,7.2,16.1,10.8,25.3,10.8
					c9,0,17.9-3.4,24.8-10.3l96.2-96.2c6.5-6.5,9.9-14.9,10.2-23.4c0-0.6,0-1.2,0-1.8l0-1.8c-0.4-8.5-3.8-16.9-10.2-23.4l-96.2-96.2
					C363.3,721.7,354.3,718.3,345.3,718.3L345.3,718.3z"/>
			</g>
		</g>
	</mask>
	<path class="st10" d="M399.1,611.9l-16.2-48.2c-0.7-2-2.8-3.2-4.9-2.7l-54,12.2c-2.2,0.5-3.7,2.7-3.1,5l0,0c0.5,2.2,2.7,3.7,5,3.1
		l35.5-8c3.5-0.8,6.3,3,4.5,6.2L259.3,763.8c-1.6,2.7-5.5,2.8-7.1,0.1l-14.9-23.5c-1.8-2.9-6.2-2.5-7.4,0.8l-67.2,180
		c-1.2,3.1-5.3,3.7-7.2,1.1L48.9,781c-1.4-1.8-4-2.2-5.8-0.8h0c-1.8,1.4-2.2,4-0.8,5.8l115.7,153.5c2,2.6,6.1,2,7.2-1.1l66.7-178.5
		c1.2-3.2,5.6-3.7,7.4-0.8l13.2,20.9c1.7,2.6,5.6,2.6,7.1-0.1l113.6-196.8c1.8-3.1,6.4-2.6,7.6,0.8l10.3,30.7
		c0.7,2.2,3.1,3.4,5.3,2.6h0C398.6,616.4,399.8,614.1,399.1,611.9z"/>
	<defs>
		<filter id="Adobe_OpacityMaskFilter_3_" filterUnits="userSpaceOnUse" x="48.5" y="572.6" width="357.8" height="380.3">
			<feFlood  style="flood-color:white;flood-opacity:1" result="back"/>
			<feBlend  in="SourceGraphic" in2="back" mode="normal"/>
		</filter>
	</defs>
	<mask maskUnits="userSpaceOnUse" x="48.5" y="572.6" width="357.8" height="380.3" id="SVGID_4_">
		<g class="st11">
			<g>
				<path class="st3" d="M339.5,974.8c-7.8,0-15-3.1-20.4-8.7c-10.6-11-10.2-29,1-40.2l39.2-39.2l-1.7-4.3c-1.1-2.6-3.6-4.3-6.4-4.3
					H1c-7.5,0-14.6-2.9-20-8.3c-5.4-5.5-8.4-12.7-8.3-20.5c0.3-15.3,13.3-27.8,29.1-27.8h353.9l1.8-4.3c1.1-2.6,0.5-5.5-1.5-7.5
					l-36.6-36.6c-5.3-5.3-8.3-12.4-8.3-20c0-7.6,2.9-14.6,8.3-20c5.3-5.3,12.4-8.3,20-8.3c7.5,0,14.6,2.9,20,8.3l96.2,96.2
					c5,5,7.9,11.7,8.2,18.7l0,1.7c0,0.5,0,1,0,1.5c-0.3,7-3.2,13.7-8.2,18.7l-96.2,96.2C354.1,971.9,347,974.8,339.5,974.8z"/>
				<path d="M339.5,732c5.7,0,11.1,2.2,15.1,6.3l96.2,96.2c3.8,3.8,6,8.8,6.2,14.1l0,1.5c0,0.4,0,0.8,0,1.2
					c-0.2,5.4-2.4,10.4-6.2,14.2l-96.2,96.2c-4.1,4.1-9.4,6.3-15.1,6.3c-5.9,0-11.4-2.3-15.4-6.6c-8-8.3-7.6-22.1,0.9-30.6l36-36
					c3.9-3.9,5.1-9.8,3-15s-7.1-8.5-12.7-8.5H1c-5.7,0-11.1-2.2-15.1-6.3c-4.1-4.2-6.4-9.7-6.3-15.5c0.2-11.6,10.2-21,22.3-21h349.4
					c5.6,0,10.6-3.3,12.7-8.5c2.1-5.1,1-11-3-15l-36.6-36.6c-4-4-6.3-9.4-6.3-15.1c0-5.7,2.2-11.1,6.3-15.1
					C328.4,734.2,333.7,732,339.5,732 M339.5,718.3c-9,0-18,3.4-24.8,10.3c-6.8,6.8-10.3,15.8-10.3,24.8s3.4,18,10.3,24.8l36.6,36.6
					c0,0,0,0.1,0,0.1H1.8c-19.3,0-35.6,15.2-35.9,34.5c-0.2,9.9,3.8,18.9,10.3,25.4c6.4,6.3,15.1,10.3,24.8,10.3h350.2
					c0,0,0.1,0.1,0,0.1l-36,36c-13.6,13.6-14.4,35.9-1.1,49.8c6.9,7.2,16.1,10.8,25.3,10.8c9,0,17.9-3.4,24.8-10.3l96.2-96.2
					c6.5-6.5,9.9-14.9,10.2-23.4c0-0.6,0-1.2,0-1.8l0-1.8c-0.4-8.5-3.8-16.9-10.2-23.4l-96.2-96.2
					C357.4,721.7,348.4,718.3,339.5,718.3L339.5,718.3z"/>
			</g>
			<g>
				<path d="M18.3,681.2l0,1.9c0.4,8.9,3.9,17.7,10.7,24.4l100.6,100.6c14.3,14.3,37.5,14.3,51.9,0c7.2-7.2,10.7-16.5,10.7-25.9
					s-3.6-18.8-10.7-25.9L143.3,718c0,0,0-0.1,0-0.1h365.3c20.2,0,37.2-15.9,37.6-36.1c0.2-10.4-4-19.8-10.7-26.6
					c-6.6-6.6-15.8-10.7-25.9-10.7H143.4c-0.1,0-0.1-0.1,0-0.1l37.6-37.6c14.2-14.2,15.1-37.5,1.1-52c-7.2-7.5-16.8-11.2-26.4-11.2
					c-9.4,0-18.8,3.6-25.9,10.7L29.1,654.9c-6.8,6.8-10.3,15.5-10.7,24.4C18.3,679.9,18.3,680.6,18.3,681.2z"/>
			</g>
		</g>
	</mask>
	<g class="st12">
		<path class="st8" d="M406.1,623.6l-16.2-48.2c-0.7-2-2.8-3.2-4.9-2.7l-54,12.2c-2.2,0.5-3.7,2.7-3.1,5l0,0c0.5,2.2,2.7,3.7,5,3.1
			l35.5-8c3.5-0.8,6.3,3,4.5,6.2L266.3,775.5c-1.6,2.7-5.5,2.8-7.1,0.1l-14.9-23.5c-1.8-2.9-6.2-2.5-7.4,0.8l-67.2,180
			c-1.2,3.1-5.3,3.7-7.2,1.1L56,792.7c-1.4-1.8-4-2.2-5.8-0.8h0c-1.8,1.4-2.2,4-0.8,5.8L165,951.2c2,2.6,6.1,2,7.2-1.1l66.7-178.5
			c1.2-3.2,5.6-3.7,7.4-0.8l13.2,20.9c1.7,2.6,5.6,2.6,7.1-0.1l113.6-196.8c1.8-3.1,6.4-2.6,7.6,0.8l10.3,30.7
			c0.7,2.2,3.1,3.4,5.3,2.6h0C405.6,628.1,406.8,625.8,406.1,623.6z"/>
	</g>
	<g>
		<path class="st8" d="M61.6,697.9l0,1.6c0.3,7.3,3.2,14.4,8.8,20l82.3,82.3c11.7,11.7,30.7,11.7,42.4,0c5.9-5.9,8.8-13.5,8.8-21.2
			s-2.9-15.4-8.8-21.2L163.9,728c0,0,0-0.1,0-0.1h298.9c16.5,0,30.5-13,30.7-29.5c0.1-8.5-3.3-16.2-8.8-21.7
			c-5.4-5.4-12.9-8.8-21.2-8.8H163.9c0,0-0.1-0.1,0-0.1l30.8-30.8c11.7-11.7,12.4-30.7,0.9-42.6c-5.9-6.1-13.8-9.2-21.6-9.2
			c-7.7,0-15.3,2.9-21.2,8.8l-82.3,82.3c-5.5,5.5-8.5,12.7-8.8,20C61.6,696.8,61.6,697.3,61.6,697.9z"/>
	</g>
	<g>
		<path class="st5" d="M163.4,576.9c6,0,11.5,2.4,15.6,6.6c8.1,8.4,7.8,22.3-0.8,30.9l-30.8,30.8c-2.4,2.4-3.1,6-1.8,9.1
			c1.3,3.1,4.3,5.2,7.7,5.2H453c5.8,0,11.2,2.3,15.3,6.3c4.2,4.2,6.5,9.8,6.4,15.7c-0.2,11.8-10.2,21.3-22.4,21.3H153.4
			c-3.4,0-6.4,2-7.7,5.2c-1.3,3.1-0.6,6.7,1.8,9.1l31.3,31.3c4.1,4.1,6.3,9.5,6.3,15.3c0,5.8-2.3,11.2-6.3,15.3
			c-4.1,4.1-9.5,6.4-15.3,6.4c-5.8,0-11.2-2.3-15.3-6.4l-82.3-82.3c-3.8-3.8-6.1-8.9-6.3-14.4l0-1.4c0-0.4,0-0.8,0-1.2
			c0.2-5.4,2.5-10.5,6.3-14.4l82.3-82.3C152.2,579.2,157.6,576.9,163.4,576.9 M163.4,568.6c-7.7,0-15.3,2.9-21.2,8.8l-82.3,82.3
			c-5.5,5.5-8.5,12.7-8.8,20c0,0.5,0,1,0,1.6l0,1.6c0.3,7.3,3.2,14.4,8.8,20l82.3,82.3c5.9,5.9,13.5,8.8,21.2,8.8
			c7.7,0,15.4-2.9,21.2-8.8c5.9-5.9,8.8-13.5,8.8-21.2s-2.9-15.4-8.8-21.2l-31.3-31.3c0,0,0-0.1,0-0.1h298.9
			c16.5,0,30.5-13,30.7-29.5c0.1-8.5-3.3-16.2-8.8-21.7c-5.4-5.4-12.9-8.8-21.2-8.8H153.4c0,0-0.1-0.1,0-0.1l30.8-30.8
			c11.7-11.7,12.4-30.7,0.9-42.6C179.1,571.6,171.3,568.6,163.4,568.6L163.4,568.6z"/>
	</g>
	<g>
		<path class="st5" d="M326,746.2c5.8,0,11.2,2.3,15.3,6.4l82.3,82.3c3.8,3.8,6.1,8.9,6.3,14.4l0,1.4c0,0.4,0,0.8,0,1.2
			c-0.2,5.4-2.5,10.5-6.3,14.4l-82.3,82.3c-4.1,4.1-9.6,6.4-15.3,6.4c-6,0-11.5-2.4-15.6-6.6c-8.1-8.4-7.8-22.3,0.8-30.9l30.8-30.8
			c2.4-2.4,3.1-6,1.8-9.1s-4.3-5.2-7.7-5.2H36.5c-5.8,0-11.2-2.3-15.3-6.3c-4.2-4.2-6.5-9.8-6.4-15.7c0.2-11.8,10.2-21.3,22.4-21.3
			h298.9c3.4,0,6.4-2,7.7-5.2c1.3-3.1,0.6-6.7-1.8-9.1l-31.3-31.3c-4.1-4.1-6.3-9.5-6.3-15.3c0-5.8,2.3-11.2,6.3-15.3
			C314.8,748.5,320.3,746.2,326,746.2 M326,737.9c-7.7,0-15.4,2.9-21.2,8.8c-5.9,5.9-8.8,13.5-8.8,21.2s2.9,15.4,8.8,21.2l31.3,31.3
			c0,0,0,0.1,0,0.1H37.2c-16.5,0-30.5,13-30.7,29.5c-0.1,8.5,3.3,16.2,8.8,21.7c5.4,5.4,12.9,8.8,21.2,8.8h299.6c0,0,0.1,0.1,0,0.1
			l-30.8,30.8c-11.7,11.7-12.4,30.7-0.9,42.6c5.9,6.1,13.8,9.2,21.6,9.2c7.7,0,15.3-2.9,21.2-8.8l82.3-82.3c5.5-5.5,8.5-12.7,8.8-20
			c0-0.5,0-1,0-1.6l0-1.6c-0.3-7.3-3.2-14.4-8.8-20l-82.3-82.3C341.4,740.8,333.7,737.9,326,737.9L326,737.9z"/>
	</g>
	
		<image style="overflow:visible;" width="400" height="267" xlink:href="36eae19176a1e03bb5ca5deb6f241dfc (1).png"  transform="matrix(1 0 0 1 745.6667 19.27)">
	</image>
</g>
</svg>
