<?xml version="1.0" encoding="utf-8"?>
<!-- Generator: Adobe Illustrator 22.1.0, SVG Export Plug-In . SVG Version: 6.00 Build 0)  -->
<svg version="1.1" xmlns="http://www.w3.org/2000/svg" xmlns:xlink="http://www.w3.org/1999/xlink" x="0px" y="0px"
	 viewBox="0 0 500 500" style="enable-background:new 0 0 500 500;" xml:space="preserve">
<style type="text/css">
	.st0{fill:#0ED8D2;}
	.st1{fill:none;stroke:#14161B;stroke-width:9;stroke-miterlimit:10;}
	.st2{fill:none;stroke:#14161B;stroke-width:9.1961;stroke-miterlimit:10;}
	.st3{fill:none;stroke:#14161B;stroke-width:8.4522;stroke-miterlimit:10;}
	.st4{fill:none;stroke:#14161B;stroke-width:7.8918;stroke-miterlimit:10;}
	.st5{fill:none;stroke:#14161B;stroke-width:7.8433;stroke-miterlimit:10;}
	.st6{fill:#0ED8D2;stroke:#00ED8D;stroke-width:0.3482;stroke-miterlimit:10;}
	.st7{fill:#0ED8D2;stroke:#00ED8D;stroke-width:0.2327;stroke-miterlimit:10;}
	.st8{fill:none;stroke:#FFFFFF;stroke-width:1.3961;stroke-miterlimit:10;}
	.st9{fill:none;stroke:#FFFFFF;stroke-width:2.0895;stroke-miterlimit:10;}
	.st10{fill:none;stroke:#FFFFFF;stroke-width:2.1807;stroke-miterlimit:10;}
	.st11{fill:none;stroke:#FFFFFF;stroke-width:1.6287;stroke-miterlimit:10;}
	.st12{fill:none;stroke:#FFFFFF;stroke-width:1.497;stroke-miterlimit:10;}
	.st13{fill:none;stroke:#FFFFFF;stroke-width:1.3977;stroke-miterlimit:10;}
	.st14{fill:none;stroke:#FFFFFF;stroke-width:1.3891;stroke-miterlimit:10;}
</style>
<g id="Calque_1">
	
		<image style="display:none;overflow:visible;" width="400" height="267" xlink:href="36eae19176a1e03bb5ca5deb6f241dfc.png"  transform="matrix(7.6592 0 0 7.6592 -1282 -1480)">
	</image>
	<path class="st0" d="M473.4,285.1H87.7c-11.4,0-20.6-9.2-20.6-20.6v-97c0-11.4,9.2-20.6,20.6-20.6h385.7c11.4,0,20.6,9.2,20.6,20.6
		v97C494,275.9,484.8,285.1,473.4,285.1z"/>
	<path class="st1" d="M421.3,98.7H21.9c-7.6,0-13.8-6.2-13.8-13.8V50.8c0-7.6,6.2-13.8,13.8-13.8h399.4c7.6,0,13.8,6.2,13.8,13.8V85
		C435.1,92.6,428.9,98.7,421.3,98.7z"/>
	<path class="st1" d="M417.1,460.9H31.4c-11.4,0-20.6-9.2-20.6-20.6v-97c0-11.4,9.2-20.6,20.6-20.6h385.7c11.4,0,20.6,9.2,20.6,20.6
		v97C437.7,451.6,428.5,460.9,417.1,460.9z"/>
	<path class="st1" d="M462.1,285H78.3c-11.9,0-21.5-9.6-21.5-21.5V155.9c0-11.9,9.6-21.5,21.5-21.5h383.9c11.9,0,21.5,9.6,21.5,21.5
		v107.6C483.7,275.4,474,285,462.1,285z"/>
	<line class="st2" x1="90.9" y1="170.5" x2="454.8" y2="170.5"/>
	<line class="st3" x1="37.7" y1="68.5" x2="345.1" y2="68.5"/>
	<line class="st2" x1="90.9" y1="209.9" x2="454.8" y2="209.9"/>
	<line class="st2" x1="40.3" y1="355.7" x2="404.2" y2="355.7"/>
	<line class="st2" x1="40.3" y1="395.2" x2="404.2" y2="395.2"/>
	<line class="st4" x1="40.3" y1="433.3" x2="308.3" y2="433.3"/>
	<line class="st5" x1="90.9" y1="252" x2="355.6" y2="252"/>
</g>
<g id="Calque_2">
	<rect x="-19" y="510" width="519" height="237"/>
</g>
<g id="Calque_3">
	<path class="st6" d="M214.3,603.7H146c-2,0-3.7-1.6-3.7-3.7v-17.2c0-2,1.6-3.7,3.7-3.7h68.3c2,0,3.7,1.6,3.7,3.7V600
		C218,602.1,216.3,603.7,214.3,603.7z"/>
	<path class="st7" d="M214.3,537h-70.7c-1.3,0-2.4-1.1-2.4-2.4v-6c0-1.3,1.1-2.4,2.4-2.4h70.7c1.3,0,2.4,1.1,2.4,2.4v6
		C216.8,535.9,215.7,537,214.3,537z"/>
	<path class="st8" d="M212.9,534.9h-70.7c-1.3,0-2.4-1.1-2.4-2.4v-6c0-1.3,1.1-2.4,2.4-2.4h70.7c1.3,0,2.4,1.1,2.4,2.4v6
		C215.4,533.8,214.3,534.9,212.9,534.9z"/>
	<path class="st9" d="M212.2,601h-68.3c-2,0-3.7-1.6-3.7-3.7v-17.2c0-2,1.6-3.7,3.7-3.7h68.3c2,0,3.7,1.6,3.7,3.7v17.2
		C215.9,599.4,214.2,601,212.2,601z"/>
	<path class="st10" d="M220.2,569.9h-68c-2.1,0-3.8-1.7-3.8-3.8V547c0-2.1,1.7-3.8,3.8-3.8h68c2.1,0,3.8,1.7,3.8,3.8v19.1
		C224,568.2,222.3,569.9,220.2,569.9z"/>
	<line class="st11" x1="154.4" y1="549.6" x2="218.9" y2="549.6"/>
	<line class="st12" x1="145" y1="529.6" x2="199.5" y2="529.6"/>
	<line class="st11" x1="154.4" y1="556.6" x2="218.9" y2="556.6"/>
	<line class="st11" x1="145.5" y1="582.4" x2="209.9" y2="582.4"/>
	<line class="st11" x1="145.5" y1="589.4" x2="209.9" y2="589.4"/>
	<line class="st13" x1="145.5" y1="596.1" x2="192.9" y2="596.1"/>
	<line class="st14" x1="154.4" y1="564" x2="201.3" y2="564"/>
</g>
</svg>
