<?xml version="1.0" encoding="utf-8"?>
<!-- Generator: Adobe Illustrator 22.1.0, SVG Export Plug-In . SVG Version: 6.00 Build 0)  -->
<svg version="1.1" id="Layer_1" xmlns="http://www.w3.org/2000/svg" xmlns:xlink="http://www.w3.org/1999/xlink" x="0px" y="0px"
	 viewBox="0 0 500 500" style="enable-background:new 0 0 500 500;" xml:space="preserve">
<style type="text/css">
	.st0{fill:#F2F2F2;}
	.st1{fill:#0ED8D2;}
</style>
<g id="Calque_1">
	<path class="st0" d="M399.1,104.3l-16.2-48.2c-0.7-2-2.8-3.2-4.9-2.7l-54,12.2c-2.2,0.5-3.7,2.7-3.1,5l0,0c0.5,2.2,2.7,3.7,5,3.1
		l35.5-8c3.5-0.8,6.3,3,4.5,6.2L259.3,256.2c-1.6,2.7-5.5,2.8-7.1,0.1l-14.9-23.5c-1.8-2.9-6.2-2.5-7.4,0.8l-67.2,180
		c-1.2,3.1-5.3,3.7-7.2,1.1L48.9,273.4c-1.4-1.8-4-2.2-5.8-0.8l0,0c-1.8,1.4-2.2,4-0.8,5.8L158,431.9c2,2.6,6.1,2,7.2-1.1
		l66.7-178.5c1.2-3.2,5.6-3.7,7.4-0.8l13.2,20.9c1.7,2.6,5.6,2.6,7.1-0.1L373.3,75.5c1.8-3.1,6.4-2.6,7.6,0.8l10.3,30.7
		c0.7,2.2,3.1,3.4,5.3,2.6l0,0C398.6,108.9,399.8,106.5,399.1,104.3z"/>
	<g>
		<path class="st1" d="M406.1,116l-16.2-48.2c-0.7-2-2.8-3.2-4.9-2.7l-54,12.2c-2.2,0.5-3.7,2.7-3.1,5l0,0c0.5,2.2,2.7,3.7,5,3.1
			l35.5-8c3.5-0.8,6.3,3,4.5,6.2L266.3,267.9c-1.6,2.7-5.5,2.8-7.1,0.1l-14.9-23.5c-1.8-2.9-6.2-2.5-7.4,0.8l-67.2,180
			c-1.2,3.1-5.3,3.7-7.2,1.1L56,285.1c-1.4-1.8-4-2.2-5.8-0.8l0,0c-1.8,1.4-2.2,4-0.8,5.8L165,443.6c2,2.6,6.1,2,7.2-1.1L238.9,264
			c1.2-3.2,5.6-3.7,7.4-0.8l13.2,20.9c1.7,2.6,5.6,2.6,7.1-0.1L380.3,87.3c1.8-3.1,6.4-2.6,7.6,0.8l10.3,30.7
			c0.7,2.2,3.1,3.4,5.3,2.6l0,0C405.6,120.6,406.8,118.2,406.1,116z"/>
	</g>
	<g>
		<path class="st1" d="M61.6,190.3v1.6c0.3,7.3,3.2,14.4,8.8,20l82.3,82.3c11.7,11.7,30.7,11.7,42.4,0c5.9-5.9,8.8-13.5,8.8-21.2
			s-2.9-15.4-8.8-21.2l-31.3-31.3v-0.1h298.9c16.5,0,30.5-13,30.7-29.5c0.1-8.5-3.3-16.2-8.8-21.7c-5.4-5.4-12.9-8.8-21.2-8.8H163.9
			c0,0-0.1-0.1,0-0.1l30.8-30.8c11.7-11.7,12.4-30.7,0.9-42.6c-5.9-6.1-13.8-9.2-21.6-9.2c-7.7,0-15.3,2.9-21.2,8.8l-82.3,82.3
			c-5.5,5.5-8.5,12.7-8.8,20C61.6,189.2,61.6,189.8,61.6,190.3z"/>
	</g>
	<g>
		<path class="st0" d="M163.4,69.3c6,0,11.5,2.4,15.6,6.6c8.1,8.4,7.8,22.3-0.8,30.9l-30.8,30.8c-2.4,2.4-3.1,6-1.8,9.1
			s4.3,5.2,7.7,5.2H453c5.8,0,11.2,2.3,15.3,6.3c4.2,4.2,6.5,9.8,6.4,15.7c-0.2,11.8-10.2,21.3-22.4,21.3H153.4
			c-3.4,0-6.4,2-7.7,5.2c-1.3,3.1-0.6,6.7,1.8,9.1l31.3,31.3c4.1,4.1,6.3,9.5,6.3,15.3s-2.3,11.2-6.3,15.3
			c-4.1,4.1-9.5,6.4-15.3,6.4s-11.2-2.3-15.3-6.4l-82.3-82.3c-3.8-3.8-6.1-8.9-6.3-14.4v-1.4c0-0.4,0-0.8,0-1.2
			c0.2-5.4,2.5-10.5,6.3-14.4l82.3-82.3C152.2,71.6,157.6,69.3,163.4,69.3 M163.4,61c-7.7,0-15.3,2.9-21.2,8.8l-82.3,82.3
			c-5.5,5.5-8.5,12.7-8.8,20c0,0.5,0,1,0,1.6v1.6c0.3,7.3,3.2,14.4,8.8,20l82.3,82.3c5.9,5.9,13.5,8.8,21.2,8.8s15.4-2.9,21.2-8.8
			c5.9-5.9,8.8-13.5,8.8-21.2c0-7.7-2.9-15.4-8.8-21.2l-31.3-31.3v-0.1h298.9c16.5,0,30.5-13,30.7-29.5c0.1-8.5-3.3-16.2-8.8-21.7
			c-5.4-5.4-12.9-8.8-21.2-8.8H153.4c0,0-0.1-0.1,0-0.1l30.8-30.8c11.7-11.7,12.4-30.7,0.9-42.6C179.1,64.1,171.3,61,163.4,61
			L163.4,61z"/>
	</g>
	<g>
		<path class="st0" d="M326,238.7c5.8,0,11.2,2.3,15.3,6.4l82.3,82.3c3.8,3.8,6.1,8.9,6.3,14.4v1.4c0,0.4,0,0.8,0,1.2
			c-0.2,5.4-2.5,10.5-6.3,14.4l-82.3,82.3c-4.1,4.1-9.6,6.4-15.3,6.4c-6,0-11.5-2.4-15.6-6.6c-8.1-8.4-7.8-22.3,0.8-30.9l30.8-31
			c2.4-2.4,3.1-6,1.8-9.1c-1.3-3.1-4.3-5.2-7.7-5.2H36.5c-5.8,0-11.2-2.3-15.3-6.3c-4.2-4.2-6.5-9.8-6.4-15.7
			c0.2-11.8,10.2-21.3,22.4-21.3h298.9c3.4,0,6.4-2,7.7-5.2c1.3-3.1,0.6-6.7-1.8-9.1l-31.3-31.3c-4.1-4.1-6.3-9.5-6.3-15.3
			c0-5.8,2.3-11.2,6.3-15.3C314.8,240.9,320.3,238.7,326,238.7 M326,230.3c-7.7,0-15.4,2.9-21.2,8.8c-5.9,5.9-8.8,13.5-8.8,21.2
			s2.9,15.4,8.8,21.2l31.3,31.3v0.1H37.2c-16.5,0-30.5,13-30.7,29.5c-0.1,8.5,3.3,16.2,8.8,21.7c5.4,5.4,12.9,8.8,21.2,8.8h299.6
			c0,0,0.1,0.1,0,0.1l-30.8,30.8c-11.7,11.7-12.4,30.7-0.9,42.6c5.9,6.1,13.8,9.2,21.6,9.2c7.7,0,15.3-2.9,21.2-8.8l82.3-82.3
			c5.5-5.5,8.5-12.7,8.8-20c0-0.5,0-1,0-1.6v-1.6c-0.3-7.3-3.2-14.4-8.8-20L347.2,239C341.4,233.3,333.7,230.3,326,230.3L326,230.3z
			"/>
	</g>
</g>
</svg>
