<?xml version="1.0" encoding="utf-8"?>
<!-- Generator: Adobe Illustrator 22.1.0, SVG Export Plug-In . SVG Version: 6.00 Build 0)  -->
<svg version="1.1" id="Layer_1" xmlns="http://www.w3.org/2000/svg" xmlns:xlink="http://www.w3.org/1999/xlink" x="0px" y="0px"
	 viewBox="0 0 500 500" style="enable-background:new 0 0 500 500;" xml:space="preserve">
<style type="text/css">
	.st0{fill:#0ED8D2;}
	.st1{fill:none;stroke:#F2F2F2;stroke-width:9;stroke-miterlimit:10;}
	.st2{fill:none;stroke:#F2F2F2;stroke-width:9.1961;stroke-miterlimit:10;}
	.st3{fill:none;stroke:#F2F2F2;stroke-width:7.8918;stroke-miterlimit:10;}
	.st4{fill:none;stroke:#F2F2F2;stroke-width:7.8433;stroke-miterlimit:10;}
</style>
<g id="Calque_1">
	<path class="st0" d="M473.4,285.1H87.7c-11.4,0-20.6-9.2-20.6-20.6v-97c0-11.4,9.2-20.6,20.6-20.6h385.7c11.4,0,20.6,9.2,20.6,20.6
		v97C494,275.9,484.8,285.1,473.4,285.1z"/>
	<path class="st1" d="M421.3,98.7H21.9c-7.6,0-13.8-6.2-13.8-13.8V50.8c0-7.6,6.2-13.8,13.8-13.8h399.4c7.6,0,13.8,6.2,13.8,13.8V85
		C435.1,92.6,428.9,98.7,421.3,98.7z"/>
	<path class="st1" d="M417.1,460.9H31.4c-11.4,0-20.6-9.2-20.6-20.6v-97c0-11.4,9.2-20.6,20.6-20.6h385.7c11.4,0,20.6,9.2,20.6,20.6
		v97C437.7,451.6,428.5,460.9,417.1,460.9z"/>
	<path class="st1" d="M462.1,285H78.3c-11.9,0-21.5-9.6-21.5-21.5V155.9c0-11.9,9.6-21.5,21.5-21.5h383.9c11.9,0,21.5,9.6,21.5,21.5
		v107.6C483.7,275.4,474,285,462.1,285z"/>
	<line class="st2" x1="90.9" y1="170.5" x2="454.8" y2="170.5"/>
	<line class="st1" x1="37.7" y1="68.5" x2="345.1" y2="68.5"/>
	<line class="st2" x1="90.9" y1="209.9" x2="454.8" y2="209.9"/>
	<line class="st2" x1="40.3" y1="355.7" x2="404.2" y2="355.7"/>
	<line class="st2" x1="40.3" y1="395.2" x2="404.2" y2="395.2"/>
	<line class="st3" x1="40.3" y1="433.3" x2="308.3" y2="433.3"/>
	<line class="st4" x1="90.9" y1="252" x2="355.6" y2="252"/>
</g>
</svg>
