<?xml version="1.0" encoding="utf-8"?>
<!-- Generator: Adobe Illustrator 22.1.0, SVG Export Plug-In . SVG Version: 6.00 Build 0)  -->
<svg version="1.1" id="Calque_1" xmlns="http://www.w3.org/2000/svg" xmlns:xlink="http://www.w3.org/1999/xlink" x="0px" y="0px"
	 viewBox="0 0 500 500" style="enable-background:new 0 0 500 500;" xml:space="preserve">
<style type="text/css">
	.st0{fill:#0ED8D2;}
	.st1{fill:#F2F2F2;}
</style>
<g id="Calque_1_1_">
	<g>
		<g>
			<circle class="st0" cx="418.3" cy="306.3" r="15.7"/>
		</g>
	</g>
	<g>
		<g>
			<path class="st0" d="M451.5,254.3H66.3c-13.5,0-24.5-11-24.5-24.5v-35.5c0-13.5,11-24.5,24.5-24.5h385.2
				c13.5,0,24.5,11,24.5,24.5v35.5C476,243.3,465,254.3,451.5,254.3z"/>
		</g>
	</g>
	<g>
		<g>
			<path class="st0" d="M451.5,151.3H66.3c-13.5,0-24.5-11-24.5-24.5V91.3c0-13.5,11-24.5,24.5-24.5h385.2c13.5,0,24.5,11,24.5,24.5
				v35.5C476,140.3,465,151.3,451.5,151.3z"/>
		</g>
	</g>
	<g>
		<g>
			<path class="st1" d="M446,61.3c9.2,0,16.6,7.5,16.6,16.6V114c0,9.2-7.5,16.6-16.6,16.6H54c-9.2,0-16.6-7.5-16.6-16.6V78
				c0-9.2,7.5-16.6,16.6-16.6h392 M446,53H54c-13.8,0-25,11.2-25,25v36c0,13.8,11.2,25,25,25h392c13.8,0,25-11.2,25-25V78
				C470.9,64.2,459.7,53,446,53L446,53z"/>
		</g>
	</g>
	<g>
		<g>
			<path class="st1" d="M446,164.3c9.2,0,16.6,7.5,16.6,16.6V217c0,9.2-7.5,16.6-16.6,16.6H54c-9.2,0-16.6-7.5-16.6-16.6v-36
				c0-9.2,7.5-16.6,16.6-16.6L446,164.3 M446,156H54c-13.8,0-25,11.2-25,25v36c0,13.8,11.2,25,25,25h392c13.8,0,25-11.2,25-25v-36
				C470.9,167.2,459.7,156,446,156L446,156z"/>
		</g>
	</g>
	<g>
		<g>
			<path class="st1" d="M446,267.3c9.2,0,16.6,7.5,16.6,16.6V320c0,9.2-7.5,16.6-16.6,16.6H54c-9.2,0-16.6-7.5-16.6-16.6v-36
				c0-9.2,7.5-16.6,16.6-16.6h392 M446,259H54c-13.8,0-25,11.2-25,25v36c0,13.8,11.2,25,25,25h392c13.8,0,25-11.2,25-25v-36
				C470.9,270.2,459.7,259,446,259L446,259z"/>
		</g>
	</g>
	<g>
		<g>
			<path class="st1" d="M446,370.3c9.2,0,16.6,7.5,16.6,16.6V423c0,9.2-7.5,16.6-16.6,16.6H54c-9.2,0-16.6-7.5-16.6-16.6v-36
				c0-9.2,7.5-16.6,16.6-16.6h392 M446,362H54c-13.8,0-25,11.2-25,25v36c0,13.8,11.2,25,25,25h392c13.8,0,25-11.2,25-25v-36
				C470.9,373.2,459.7,362,446,362L446,362z"/>
		</g>
	</g>
	<g>
		<g>
			<g>
				<path class="st0" d="M413.3,80.7c8.1,0,14.7,6.6,14.7,14.7s-6.6,14.7-14.7,14.7s-14.7-6.6-14.7-14.7S405.2,80.7,413.3,80.7
					 M413.3,79.7c-8.7,0-15.7,7-15.7,15.7s7,15.7,15.7,15.7s15.7-7,15.7-15.7S422,79.7,413.3,79.7L413.3,79.7z"/>
			</g>
		</g>
	</g>
	<g>
		<g>
			<circle class="st0" cx="418.3" cy="409.7" r="15.7"/>
		</g>
	</g>
	<g>
		<g>
			<path class="st1" d="M413.3,88c4,0,7.3,3.3,7.3,7.3s-3.3,7.3-7.3,7.3s-7.3-3.3-7.3-7.3S409.3,88,413.3,88 M413.3,79.7
				c-8.7,0-15.7,7-15.7,15.7s7,15.7,15.7,15.7s15.7-7,15.7-15.7S422,79.7,413.3,79.7L413.3,79.7z"/>
		</g>
	</g>
	<g>
		<g>
			<path class="st1" d="M413.3,191.7c4,0,7.3,3.3,7.3,7.3s-3.3,7.3-7.3,7.3S406,203,406,199S409.3,191.7,413.3,191.7 M413.3,183.3
				c-8.7,0-15.7,7-15.7,15.7s7,15.7,15.7,15.7s15.7-7,15.7-15.7S422,183.3,413.3,183.3L413.3,183.3z"/>
		</g>
	</g>
	<g>
		<g>
			<path class="st1" d="M413.3,294.7c4,0,7.3,3.3,7.3,7.3s-3.3,7.3-7.3,7.3S406,306,406,302S409.3,294.7,413.3,294.7 M413.3,286.3
				c-8.7,0-15.7,7-15.7,15.7s7,15.7,15.7,15.7s15.7-7,15.7-15.7S422,286.3,413.3,286.3L413.3,286.3z"/>
		</g>
	</g>
	<g>
		<g>
			<path class="st1" d="M413.3,397.7c4,0,7.3,3.3,7.3,7.3s-3.3,7.3-7.3,7.3S406,409,406,405S409.3,397.7,413.3,397.7 M413.3,389.3
				c-8.7,0-15.7,7-15.7,15.7s7,15.7,15.7,15.7s15.7-7,15.7-15.7S422,389.3,413.3,389.3L413.3,389.3z"/>
		</g>
	</g>
	<g>
		<rect x="66.8" y="59" class="st1" width="8.3" height="20.7"/>
	</g>
	<g>
		<rect x="81.5" y="59" class="st1" width="8.3" height="20.7"/>
	</g>
	<g>
		<rect x="96.1" y="59" class="st1" width="8.3" height="20.7"/>
	</g>
	<g>
		<rect x="66.8" y="161.3" class="st1" width="8.3" height="20.6"/>
	</g>
	<g>
		<rect x="81.5" y="161.3" class="st1" width="8.3" height="20.6"/>
	</g>
	<g>
		<rect x="96.1" y="161.3" class="st1" width="8.3" height="20.6"/>
	</g>
	<g>
		<rect x="66.8" y="265.7" class="st1" width="8.3" height="20.6"/>
	</g>
	<g>
		<rect x="81.5" y="265.7" class="st1" width="8.3" height="20.6"/>
	</g>
	<g>
		<rect x="96.1" y="265.7" class="st1" width="8.3" height="20.6"/>
	</g>
	<g>
		<rect x="66.8" y="368.7" class="st1" width="8.3" height="20.6"/>
	</g>
	<g>
		<rect x="81.5" y="368.7" class="st1" width="8.3" height="20.6"/>
	</g>
	<g>
		<rect x="96.1" y="368.7" class="st1" width="8.3" height="20.6"/>
	</g>
	<g>
		<rect x="55.5" y="91.8" class="st1" width="270" height="8.3"/>
	</g>
	<g>
		<rect x="55.5" y="194.8" class="st1" width="270" height="8.3"/>
	</g>
	<g>
		<rect x="55.5" y="297.8" class="st1" width="270" height="8.3"/>
	</g>
	<g>
		<rect x="55.5" y="400.8" class="st1" width="270" height="8.3"/>
	</g>
</g>
</svg>
