<svg width="32" height="37" viewBox="0 0 32 37" fill="none" xmlns="http://www.w3.org/2000/svg">
<path fill-rule="evenodd" clip-rule="evenodd" d="M16.0024 21.3362C16.5912 21.3362 17.0692 20.8582 17.0692 20.2694V1.06681C17.0692 0.47793 16.5912 0 16.0024 0C15.4135 0 14.9355 0.47793 14.9355 1.06681V20.2694C14.9355 20.8582 15.4135 21.3362 16.0024 21.3362" fill="#0ED8D2"/>
<path fill-rule="evenodd" clip-rule="evenodd" d="M32 20.2694C32 16.7532 30.882 13.4162 28.7633 10.6191C26.715 7.91362 23.8069 5.89309 20.5702 4.93083C20.0048 4.7644 19.4095 5.08445 19.2431 5.64986C19.0767 6.21526 19.3967 6.80841 19.9621 6.97697C25.7954 8.71373 29.8685 14.1801 29.8685 20.2715C29.8685 27.9184 23.6469 34.1401 16 34.1401C8.35311 34.1401 2.13148 27.9184 2.13148 20.2715C2.13148 14.1801 6.20669 8.71373 12.0379 6.97697C12.6033 6.80841 12.9255 6.21526 12.7569 5.64986C12.5883 5.08445 11.9952 4.76227 11.4298 4.93083C8.19523 5.89309 5.28497 7.91362 3.2367 10.6191C1.12015 13.4162 0 16.7532 0 20.2694C0 24.543 1.66636 28.5606 4.68756 31.584C7.70876 34.6073 11.7285 36.2715 16 36.2715C20.2736 36.2715 24.2891 34.6052 27.3124 31.584C30.3358 28.5628 32 24.543 32 20.2694" fill="#0ED8D2"/>
</svg>
